%TF.GenerationSoftware,KiCad,Pcbnew,(6.0.1-0)*%
%TF.CreationDate,2022-01-28T16:02:20+01:00*%
%TF.ProjectId,badge,62616467-652e-46b6-9963-61645f706362,rev?*%
%TF.SameCoordinates,Original*%
%TF.FileFunction,Legend,Bot*%
%TF.FilePolarity,Positive*%
%FSLAX46Y46*%
G04 Gerber Fmt 4.6, Leading zero omitted, Abs format (unit mm)*
G04 Created by KiCad (PCBNEW (6.0.1-0)) date 2022-01-28 16:02:20*
%MOMM*%
%LPD*%
G01*
G04 APERTURE LIST*
%ADD10C,0.150000*%
%ADD11C,0.120000*%
G04 APERTURE END LIST*
D10*
%TO.C,REF\u002A\u002A*%
X201333333Y-101722380D02*
X201666666Y-101246190D01*
X201904761Y-101722380D02*
X201904761Y-100722380D01*
X201523809Y-100722380D01*
X201428571Y-100770000D01*
X201380952Y-100817619D01*
X201333333Y-100912857D01*
X201333333Y-101055714D01*
X201380952Y-101150952D01*
X201428571Y-101198571D01*
X201523809Y-101246190D01*
X201904761Y-101246190D01*
X200904761Y-101198571D02*
X200571428Y-101198571D01*
X200428571Y-101722380D02*
X200904761Y-101722380D01*
X200904761Y-100722380D01*
X200428571Y-100722380D01*
X199666666Y-101198571D02*
X200000000Y-101198571D01*
X200000000Y-101722380D02*
X200000000Y-100722380D01*
X199523809Y-100722380D01*
X199000000Y-100722380D02*
X199000000Y-100960476D01*
X199238095Y-100865238D02*
X199000000Y-100960476D01*
X198761904Y-100865238D01*
X199142857Y-101150952D02*
X199000000Y-100960476D01*
X198857142Y-101150952D01*
X198238095Y-100722380D02*
X198238095Y-100960476D01*
X198476190Y-100865238D02*
X198238095Y-100960476D01*
X198000000Y-100865238D01*
X198380952Y-101150952D02*
X198238095Y-100960476D01*
X198095238Y-101150952D01*
X202733333Y-117652380D02*
X203066666Y-117176190D01*
X203304761Y-117652380D02*
X203304761Y-116652380D01*
X202923809Y-116652380D01*
X202828571Y-116700000D01*
X202780952Y-116747619D01*
X202733333Y-116842857D01*
X202733333Y-116985714D01*
X202780952Y-117080952D01*
X202828571Y-117128571D01*
X202923809Y-117176190D01*
X203304761Y-117176190D01*
X202304761Y-117128571D02*
X201971428Y-117128571D01*
X201828571Y-117652380D02*
X202304761Y-117652380D01*
X202304761Y-116652380D01*
X201828571Y-116652380D01*
X201066666Y-117128571D02*
X201400000Y-117128571D01*
X201400000Y-117652380D02*
X201400000Y-116652380D01*
X200923809Y-116652380D01*
X200400000Y-116652380D02*
X200400000Y-116890476D01*
X200638095Y-116795238D02*
X200400000Y-116890476D01*
X200161904Y-116795238D01*
X200542857Y-117080952D02*
X200400000Y-116890476D01*
X200257142Y-117080952D01*
X199638095Y-116652380D02*
X199638095Y-116890476D01*
X199876190Y-116795238D02*
X199638095Y-116890476D01*
X199400000Y-116795238D01*
X199780952Y-117080952D02*
X199638095Y-116890476D01*
X199495238Y-117080952D01*
X217033333Y-121122380D02*
X217366666Y-120646190D01*
X217604761Y-121122380D02*
X217604761Y-120122380D01*
X217223809Y-120122380D01*
X217128571Y-120170000D01*
X217080952Y-120217619D01*
X217033333Y-120312857D01*
X217033333Y-120455714D01*
X217080952Y-120550952D01*
X217128571Y-120598571D01*
X217223809Y-120646190D01*
X217604761Y-120646190D01*
X216604761Y-120598571D02*
X216271428Y-120598571D01*
X216128571Y-121122380D02*
X216604761Y-121122380D01*
X216604761Y-120122380D01*
X216128571Y-120122380D01*
X215366666Y-120598571D02*
X215700000Y-120598571D01*
X215700000Y-121122380D02*
X215700000Y-120122380D01*
X215223809Y-120122380D01*
X214700000Y-120122380D02*
X214700000Y-120360476D01*
X214938095Y-120265238D02*
X214700000Y-120360476D01*
X214461904Y-120265238D01*
X214842857Y-120550952D02*
X214700000Y-120360476D01*
X214557142Y-120550952D01*
X213938095Y-120122380D02*
X213938095Y-120360476D01*
X214176190Y-120265238D02*
X213938095Y-120360476D01*
X213700000Y-120265238D01*
X214080952Y-120550952D02*
X213938095Y-120360476D01*
X213795238Y-120550952D01*
X185533333Y-121122380D02*
X185866666Y-120646190D01*
X186104761Y-121122380D02*
X186104761Y-120122380D01*
X185723809Y-120122380D01*
X185628571Y-120170000D01*
X185580952Y-120217619D01*
X185533333Y-120312857D01*
X185533333Y-120455714D01*
X185580952Y-120550952D01*
X185628571Y-120598571D01*
X185723809Y-120646190D01*
X186104761Y-120646190D01*
X185104761Y-120598571D02*
X184771428Y-120598571D01*
X184628571Y-121122380D02*
X185104761Y-121122380D01*
X185104761Y-120122380D01*
X184628571Y-120122380D01*
X183866666Y-120598571D02*
X184200000Y-120598571D01*
X184200000Y-121122380D02*
X184200000Y-120122380D01*
X183723809Y-120122380D01*
X183200000Y-120122380D02*
X183200000Y-120360476D01*
X183438095Y-120265238D02*
X183200000Y-120360476D01*
X182961904Y-120265238D01*
X183342857Y-120550952D02*
X183200000Y-120360476D01*
X183057142Y-120550952D01*
X182438095Y-120122380D02*
X182438095Y-120360476D01*
X182676190Y-120265238D02*
X182438095Y-120360476D01*
X182200000Y-120265238D01*
X182580952Y-120550952D02*
X182438095Y-120360476D01*
X182295238Y-120550952D01*
X180233333Y-101722380D02*
X180566666Y-101246190D01*
X180804761Y-101722380D02*
X180804761Y-100722380D01*
X180423809Y-100722380D01*
X180328571Y-100770000D01*
X180280952Y-100817619D01*
X180233333Y-100912857D01*
X180233333Y-101055714D01*
X180280952Y-101150952D01*
X180328571Y-101198571D01*
X180423809Y-101246190D01*
X180804761Y-101246190D01*
X179804761Y-101198571D02*
X179471428Y-101198571D01*
X179328571Y-101722380D02*
X179804761Y-101722380D01*
X179804761Y-100722380D01*
X179328571Y-100722380D01*
X178566666Y-101198571D02*
X178900000Y-101198571D01*
X178900000Y-101722380D02*
X178900000Y-100722380D01*
X178423809Y-100722380D01*
X177900000Y-100722380D02*
X177900000Y-100960476D01*
X178138095Y-100865238D02*
X177900000Y-100960476D01*
X177661904Y-100865238D01*
X178042857Y-101150952D02*
X177900000Y-100960476D01*
X177757142Y-101150952D01*
X177138095Y-100722380D02*
X177138095Y-100960476D01*
X177376190Y-100865238D02*
X177138095Y-100960476D01*
X176900000Y-100865238D01*
X177280952Y-101150952D02*
X177138095Y-100960476D01*
X176995238Y-101150952D01*
X190833333Y-101722380D02*
X191166666Y-101246190D01*
X191404761Y-101722380D02*
X191404761Y-100722380D01*
X191023809Y-100722380D01*
X190928571Y-100770000D01*
X190880952Y-100817619D01*
X190833333Y-100912857D01*
X190833333Y-101055714D01*
X190880952Y-101150952D01*
X190928571Y-101198571D01*
X191023809Y-101246190D01*
X191404761Y-101246190D01*
X190404761Y-101198571D02*
X190071428Y-101198571D01*
X189928571Y-101722380D02*
X190404761Y-101722380D01*
X190404761Y-100722380D01*
X189928571Y-100722380D01*
X189166666Y-101198571D02*
X189500000Y-101198571D01*
X189500000Y-101722380D02*
X189500000Y-100722380D01*
X189023809Y-100722380D01*
X188500000Y-100722380D02*
X188500000Y-100960476D01*
X188738095Y-100865238D02*
X188500000Y-100960476D01*
X188261904Y-100865238D01*
X188642857Y-101150952D02*
X188500000Y-100960476D01*
X188357142Y-101150952D01*
X187738095Y-100722380D02*
X187738095Y-100960476D01*
X187976190Y-100865238D02*
X187738095Y-100960476D01*
X187500000Y-100865238D01*
X187880952Y-101150952D02*
X187738095Y-100960476D01*
X187595238Y-101150952D01*
X194883333Y-117652380D02*
X195216666Y-117176190D01*
X195454761Y-117652380D02*
X195454761Y-116652380D01*
X195073809Y-116652380D01*
X194978571Y-116700000D01*
X194930952Y-116747619D01*
X194883333Y-116842857D01*
X194883333Y-116985714D01*
X194930952Y-117080952D01*
X194978571Y-117128571D01*
X195073809Y-117176190D01*
X195454761Y-117176190D01*
X194454761Y-117128571D02*
X194121428Y-117128571D01*
X193978571Y-117652380D02*
X194454761Y-117652380D01*
X194454761Y-116652380D01*
X193978571Y-116652380D01*
X193216666Y-117128571D02*
X193550000Y-117128571D01*
X193550000Y-117652380D02*
X193550000Y-116652380D01*
X193073809Y-116652380D01*
X192550000Y-116652380D02*
X192550000Y-116890476D01*
X192788095Y-116795238D02*
X192550000Y-116890476D01*
X192311904Y-116795238D01*
X192692857Y-117080952D02*
X192550000Y-116890476D01*
X192407142Y-117080952D01*
X191788095Y-116652380D02*
X191788095Y-116890476D01*
X192026190Y-116795238D02*
X191788095Y-116890476D01*
X191550000Y-116795238D01*
X191930952Y-117080952D02*
X191788095Y-116890476D01*
X191645238Y-117080952D01*
X211833333Y-101722380D02*
X212166666Y-101246190D01*
X212404761Y-101722380D02*
X212404761Y-100722380D01*
X212023809Y-100722380D01*
X211928571Y-100770000D01*
X211880952Y-100817619D01*
X211833333Y-100912857D01*
X211833333Y-101055714D01*
X211880952Y-101150952D01*
X211928571Y-101198571D01*
X212023809Y-101246190D01*
X212404761Y-101246190D01*
X211404761Y-101198571D02*
X211071428Y-101198571D01*
X210928571Y-101722380D02*
X211404761Y-101722380D01*
X211404761Y-100722380D01*
X210928571Y-100722380D01*
X210166666Y-101198571D02*
X210500000Y-101198571D01*
X210500000Y-101722380D02*
X210500000Y-100722380D01*
X210023809Y-100722380D01*
X209500000Y-100722380D02*
X209500000Y-100960476D01*
X209738095Y-100865238D02*
X209500000Y-100960476D01*
X209261904Y-100865238D01*
X209642857Y-101150952D02*
X209500000Y-100960476D01*
X209357142Y-101150952D01*
X208738095Y-100722380D02*
X208738095Y-100960476D01*
X208976190Y-100865238D02*
X208738095Y-100960476D01*
X208500000Y-100865238D01*
X208880952Y-101150952D02*
X208738095Y-100960476D01*
X208595238Y-101150952D01*
D11*
X199200000Y-101965000D02*
X201660000Y-101965000D01*
X201660000Y-103435000D02*
X199200000Y-103435000D01*
X201660000Y-101965000D02*
X201660000Y-103435000D01*
X204020000Y-118400000D02*
X204020000Y-118080000D01*
X203900000Y-123320000D02*
X198900000Y-123320000D01*
X204020000Y-118080000D02*
X198900000Y-118080000D01*
X214900000Y-121365000D02*
X217360000Y-121365000D01*
X217360000Y-122835000D02*
X214900000Y-122835000D01*
X217360000Y-121365000D02*
X217360000Y-122835000D01*
X183400000Y-121365000D02*
X185860000Y-121365000D01*
X185860000Y-122835000D02*
X183400000Y-122835000D01*
X185860000Y-121365000D02*
X185860000Y-122835000D01*
X178100000Y-101965000D02*
X180560000Y-101965000D01*
X180560000Y-103435000D02*
X178100000Y-103435000D01*
X180560000Y-101965000D02*
X180560000Y-103435000D01*
X188700000Y-101965000D02*
X191160000Y-101965000D01*
X191160000Y-103435000D02*
X188700000Y-103435000D01*
X191160000Y-101965000D02*
X191160000Y-103435000D01*
X196170000Y-118400000D02*
X196170000Y-118080000D01*
X196050000Y-123320000D02*
X191050000Y-123320000D01*
X196170000Y-118080000D02*
X191050000Y-118080000D01*
X209700000Y-101965000D02*
X212160000Y-101965000D01*
X212160000Y-103435000D02*
X209700000Y-103435000D01*
X212160000Y-101965000D02*
X212160000Y-103435000D01*
%TD*%
M02*
