%TF.GenerationSoftware,KiCad,Pcbnew,(6.0.8-1)-1*%
%TF.CreationDate,2022-11-20T23:53:51+01:00*%
%TF.ProjectId,badge,62616467-652e-46b6-9963-61645f706362,rev?*%
%TF.SameCoordinates,Original*%
%TF.FileFunction,Soldermask,Bot*%
%TF.FilePolarity,Negative*%
%FSLAX46Y46*%
G04 Gerber Fmt 4.6, Leading zero omitted, Abs format (unit mm)*
G04 Created by KiCad (PCBNEW (6.0.8-1)-1) date 2022-11-20 23:53:51*
%MOMM*%
%LPD*%
G01*
G04 APERTURE LIST*
G04 Aperture macros list*
%AMRoundRect*
0 Rectangle with rounded corners*
0 $1 Rounding radius*
0 $2 $3 $4 $5 $6 $7 $8 $9 X,Y pos of 4 corners*
0 Add a 4 corners polygon primitive as box body*
4,1,4,$2,$3,$4,$5,$6,$7,$8,$9,$2,$3,0*
0 Add four circle primitives for the rounded corners*
1,1,$1+$1,$2,$3*
1,1,$1+$1,$4,$5*
1,1,$1+$1,$6,$7*
1,1,$1+$1,$8,$9*
0 Add four rect primitives between the rounded corners*
20,1,$1+$1,$2,$3,$4,$5,0*
20,1,$1+$1,$4,$5,$6,$7,0*
20,1,$1+$1,$6,$7,$8,$9,0*
20,1,$1+$1,$8,$9,$2,$3,0*%
%AMFreePoly0*
4,1,6,1.000000,0.000000,0.500000,-0.750000,-0.500000,-0.750000,-0.500000,0.750000,0.500000,0.750000,1.000000,0.000000,1.000000,0.000000,$1*%
%AMFreePoly1*
4,1,6,0.500000,-0.750000,-0.650000,-0.750000,-0.150000,0.000000,-0.650000,0.750000,0.500000,0.750000,0.500000,-0.750000,0.500000,-0.750000,$1*%
G04 Aperture macros list end*
%ADD10C,0.120000*%
%ADD11RoundRect,0.222222X0.697090X0.131700X0.388440X0.593628X-0.697090X-0.131700X-0.388440X-0.593628X0*%
%ADD12RoundRect,0.250000X-0.625000X0.400000X-0.625000X-0.400000X0.625000X-0.400000X0.625000X0.400000X0*%
%ADD13R,2.300000X0.740000*%
%ADD14RoundRect,0.250000X-0.548008X-0.088388X-0.088388X-0.548008X0.548008X0.088388X0.088388X0.548008X0*%
%ADD15C,5.200000*%
%ADD16R,2.000000X0.800000*%
%ADD17R,0.800000X1.400000*%
%ADD18R,2.500000X1.800000*%
%ADD19RoundRect,0.150000X0.150000X-0.587500X0.150000X0.587500X-0.150000X0.587500X-0.150000X-0.587500X0*%
%ADD20RoundRect,0.250000X0.450000X-0.325000X0.450000X0.325000X-0.450000X0.325000X-0.450000X-0.325000X0*%
%ADD21RoundRect,0.250000X-0.450000X0.325000X-0.450000X-0.325000X0.450000X-0.325000X0.450000X0.325000X0*%
%ADD22RoundRect,0.222222X-0.586043X0.399791X-0.694427X-0.145090X0.586043X-0.399791X0.694427X0.145090X0*%
%ADD23R,1.550000X1.300000*%
%ADD24RoundRect,0.250000X0.337500X0.475000X-0.337500X0.475000X-0.337500X-0.475000X0.337500X-0.475000X0*%
%ADD25RoundRect,0.150000X-0.150000X0.825000X-0.150000X-0.825000X0.150000X-0.825000X0.150000X0.825000X0*%
%ADD26RoundRect,0.250000X0.540118X-0.128053X0.291374X0.472468X-0.540118X0.128053X-0.291374X-0.472468X0*%
%ADD27RoundRect,0.237500X-0.237500X0.250000X-0.237500X-0.250000X0.237500X-0.250000X0.237500X0.250000X0*%
%ADD28RoundRect,0.222222X-0.697090X-0.131700X-0.388440X-0.593628X0.697090X0.131700X0.388440X0.593628X0*%
%ADD29RoundRect,0.250000X0.291374X-0.472468X0.540118X0.128053X-0.291374X0.472468X-0.540118X-0.128053X0*%
%ADD30RoundRect,0.222222X0.593628X0.388440X0.131700X0.697090X-0.593628X-0.388440X-0.131700X-0.697090X0*%
%ADD31RoundRect,0.250000X-0.540118X0.128053X-0.291374X-0.472468X0.540118X-0.128053X0.291374X0.472468X0*%
%ADD32RoundRect,0.222222X0.388440X-0.593628X0.697090X-0.131700X-0.388440X0.593628X-0.697090X0.131700X0*%
%ADD33RoundRect,0.250000X-0.400000X-0.625000X0.400000X-0.625000X0.400000X0.625000X-0.400000X0.625000X0*%
%ADD34RoundRect,0.222222X-0.145090X-0.694427X0.399791X-0.586043X0.145090X0.694427X-0.399791X0.586043X0*%
%ADD35RoundRect,0.250000X-0.291374X0.472468X-0.540118X-0.128053X0.291374X-0.472468X0.540118X0.128053X0*%
%ADD36RoundRect,0.222222X0.694427X-0.145090X0.586043X0.399791X-0.694427X0.145090X-0.586043X-0.399791X0*%
%ADD37RoundRect,0.237500X0.250000X0.237500X-0.250000X0.237500X-0.250000X-0.237500X0.250000X-0.237500X0*%
%ADD38RoundRect,0.250000X-0.472468X-0.291374X0.128053X-0.540118X0.472468X0.291374X-0.128053X0.540118X0*%
%ADD39RoundRect,0.250000X0.088388X-0.548008X0.548008X-0.088388X-0.088388X0.548008X-0.548008X0.088388X0*%
%ADD40FreePoly0,180.000000*%
%ADD41FreePoly1,180.000000*%
%ADD42RoundRect,0.250000X0.548008X0.088388X0.088388X0.548008X-0.548008X-0.088388X-0.088388X-0.548008X0*%
%ADD43R,1.500000X3.600000*%
%ADD44RoundRect,0.250000X0.128053X0.540118X-0.472468X0.291374X-0.128053X-0.540118X0.472468X-0.291374X0*%
%ADD45RoundRect,0.250000X0.472468X0.291374X-0.128053X0.540118X-0.472468X-0.291374X0.128053X-0.540118X0*%
%ADD46RoundRect,0.222222X0.131700X-0.697090X0.593628X-0.388440X-0.131700X0.697090X-0.593628X0.388440X0*%
%ADD47RoundRect,0.250000X0.475000X-0.337500X0.475000X0.337500X-0.475000X0.337500X-0.475000X-0.337500X0*%
%ADD48RoundRect,0.222222X0.399791X0.586043X-0.145090X0.694427X-0.399791X-0.586043X0.145090X-0.694427X0*%
%ADD49R,3.000000X3.600000*%
%ADD50R,7.000000X2.600000*%
%ADD51R,1.500000X1.000000*%
%ADD52RoundRect,0.222222X-0.593628X-0.388440X-0.131700X-0.697090X0.593628X0.388440X0.131700X0.697090X0*%
%ADD53RoundRect,0.150000X-0.512500X-0.150000X0.512500X-0.150000X0.512500X0.150000X-0.512500X0.150000X0*%
%ADD54RoundRect,0.222222X-0.694427X0.145090X-0.586043X-0.399791X0.694427X-0.145090X0.586043X0.399791X0*%
%ADD55RoundRect,0.250000X-0.325000X-0.450000X0.325000X-0.450000X0.325000X0.450000X-0.325000X0.450000X0*%
%ADD56RoundRect,0.250000X0.325000X0.450000X-0.325000X0.450000X-0.325000X-0.450000X0.325000X-0.450000X0*%
%ADD57RoundRect,0.222222X-0.399791X-0.586043X0.145090X-0.694427X0.399791X0.586043X-0.145090X0.694427X0*%
%ADD58RoundRect,0.237500X-0.250000X-0.237500X0.250000X-0.237500X0.250000X0.237500X-0.250000X0.237500X0*%
%ADD59RoundRect,0.250000X0.625000X-0.400000X0.625000X0.400000X-0.625000X0.400000X-0.625000X-0.400000X0*%
%ADD60RoundRect,0.250000X-0.128053X-0.540118X0.472468X-0.291374X0.128053X0.540118X-0.472468X0.291374X0*%
%ADD61RoundRect,0.250000X-0.088388X0.548008X-0.548008X0.088388X0.088388X-0.548008X0.548008X-0.088388X0*%
G04 APERTURE END LIST*
D10*
%TO.C,D15*%
X-15803837Y-18434274D02*
X-18434274Y-15803837D01*
X-18434274Y-15803837D02*
X-17076629Y-14446192D01*
X-17076629Y-14446192D02*
X-14446192Y-17076629D01*
X-14446192Y-17076629D02*
X-15803837Y-18434274D01*
G36*
X-15803837Y-18434274D02*
G01*
X-18434274Y-15803837D01*
X-17076629Y-14446192D01*
X-14446192Y-17076629D01*
X-15803837Y-18434274D01*
G37*
%TO.C,D5*%
X24210000Y1860000D02*
X22290000Y1860000D01*
X22290000Y1860000D02*
X22290000Y-1860000D01*
X22290000Y-1860000D02*
X24210000Y-1860000D01*
X24210000Y-1860000D02*
X24210000Y1860000D01*
G36*
X24210000Y1860000D02*
G01*
X22290000Y1860000D01*
X22290000Y-1860000D01*
X24210000Y-1860000D01*
X24210000Y1860000D01*
G37*
%TO.C,D13*%
X-24210000Y-1860000D02*
X-22290000Y-1860000D01*
X-22290000Y-1860000D02*
X-22290000Y1860000D01*
X-22290000Y1860000D02*
X-24210000Y1860000D01*
X-24210000Y1860000D02*
X-24210000Y-1860000D01*
G36*
X-24210000Y-1860000D02*
G01*
X-22290000Y-1860000D01*
X-22290000Y1860000D01*
X-24210000Y1860000D01*
X-24210000Y-1860000D01*
G37*
%TO.C,D6*%
X21655332Y10983182D02*
X23078915Y7546350D01*
X23078915Y7546350D02*
X21305066Y6811598D01*
X21305066Y6811598D02*
X19881483Y10248430D01*
X19881483Y10248430D02*
X21655332Y10983182D01*
G36*
X21655332Y10983182D02*
G01*
X23078915Y7546350D01*
X21305066Y6811598D01*
X19881483Y10248430D01*
X21655332Y10983182D01*
G37*
%TO.C,D4*%
X23078915Y-7546350D02*
X21655332Y-10983182D01*
X21655332Y-10983182D02*
X19881483Y-10248430D01*
X19881483Y-10248430D02*
X21305066Y-6811598D01*
X21305066Y-6811598D02*
X23078915Y-7546350D01*
G36*
X23078915Y-7546350D02*
G01*
X21655332Y-10983182D01*
X19881483Y-10248430D01*
X21305066Y-6811598D01*
X23078915Y-7546350D01*
G37*
%TO.C,D14*%
X-21655332Y-10983182D02*
X-23078915Y-7546350D01*
X-23078915Y-7546350D02*
X-21305066Y-6811598D01*
X-21305066Y-6811598D02*
X-19881483Y-10248430D01*
X-19881483Y-10248430D02*
X-21655332Y-10983182D01*
G36*
X-21655332Y-10983182D02*
G01*
X-23078915Y-7546350D01*
X-21305066Y-6811598D01*
X-19881483Y-10248430D01*
X-21655332Y-10983182D01*
G37*
%TO.C,D12*%
X-23078915Y7546350D02*
X-21655332Y10983182D01*
X-21655332Y10983182D02*
X-19881483Y10248430D01*
X-19881483Y10248430D02*
X-21305066Y6811598D01*
X-21305066Y6811598D02*
X-23078915Y7546350D01*
G36*
X-23078915Y7546350D02*
G01*
X-21655332Y10983182D01*
X-19881483Y10248430D01*
X-21305066Y6811598D01*
X-23078915Y7546350D01*
G37*
%TO.C,D16*%
X-7546350Y-23078915D02*
X-10983182Y-21655332D01*
X-10983182Y-21655332D02*
X-10248430Y-19881483D01*
X-10248430Y-19881483D02*
X-6811598Y-21305066D01*
X-6811598Y-21305066D02*
X-7546350Y-23078915D01*
G36*
X-7546350Y-23078915D02*
G01*
X-10983182Y-21655332D01*
X-10248430Y-19881483D01*
X-6811598Y-21305066D01*
X-7546350Y-23078915D01*
G37*
%TO.C,D3*%
X18434274Y-15803837D02*
X15803837Y-18434274D01*
X15803837Y-18434274D02*
X14446192Y-17076629D01*
X14446192Y-17076629D02*
X17076629Y-14446192D01*
X17076629Y-14446192D02*
X18434274Y-15803837D01*
G36*
X18434274Y-15803837D02*
G01*
X15803837Y-18434274D01*
X14446192Y-17076629D01*
X17076629Y-14446192D01*
X18434274Y-15803837D01*
G37*
%TO.C,D7*%
X15803837Y18434274D02*
X18434274Y15803837D01*
X18434274Y15803837D02*
X17076629Y14446192D01*
X17076629Y14446192D02*
X14446192Y17076629D01*
X14446192Y17076629D02*
X15803837Y18434274D01*
G36*
X15803837Y18434274D02*
G01*
X18434274Y15803837D01*
X17076629Y14446192D01*
X14446192Y17076629D01*
X15803837Y18434274D01*
G37*
%TO.C,D10*%
X-10983182Y21655332D02*
X-7546350Y23078915D01*
X-7546350Y23078915D02*
X-6811598Y21305066D01*
X-6811598Y21305066D02*
X-10248430Y19881483D01*
X-10248430Y19881483D02*
X-10983182Y21655332D01*
G36*
X-10983182Y21655332D02*
G01*
X-7546350Y23078915D01*
X-6811598Y21305066D01*
X-10248430Y19881483D01*
X-10983182Y21655332D01*
G37*
%TO.C,D8*%
X7546350Y23078915D02*
X10983182Y21655332D01*
X10983182Y21655332D02*
X10248430Y19881483D01*
X10248430Y19881483D02*
X6811598Y21305066D01*
X6811598Y21305066D02*
X7546350Y23078915D01*
G36*
X7546350Y23078915D02*
G01*
X10983182Y21655332D01*
X10248430Y19881483D01*
X6811598Y21305066D01*
X7546350Y23078915D01*
G37*
%TO.C,D18*%
G36*
X6230000Y-10780000D02*
G01*
X1330000Y-10780000D01*
X1330000Y-5880000D01*
X6230000Y-5880000D01*
X6230000Y-10780000D01*
G37*
X6230000Y-10780000D02*
X1330000Y-10780000D01*
X1330000Y-5880000D01*
X6230000Y-5880000D01*
X6230000Y-10780000D01*
%TO.C,D1*%
X1860000Y-24210000D02*
X-1860000Y-24210000D01*
X-1860000Y-24210000D02*
X-1860000Y-22290000D01*
X-1860000Y-22290000D02*
X1860000Y-22290000D01*
X1860000Y-22290000D02*
X1860000Y-24210000D01*
G36*
X1860000Y-24210000D02*
G01*
X-1860000Y-24210000D01*
X-1860000Y-22290000D01*
X1860000Y-22290000D01*
X1860000Y-24210000D01*
G37*
%TO.C,D9*%
X-1860000Y24210000D02*
X1860000Y24210000D01*
X1860000Y24210000D02*
X1860000Y22290000D01*
X1860000Y22290000D02*
X-1860000Y22290000D01*
X-1860000Y22290000D02*
X-1860000Y24210000D01*
G36*
X-1860000Y24210000D02*
G01*
X1860000Y24210000D01*
X1860000Y22290000D01*
X-1860000Y22290000D01*
X-1860000Y24210000D01*
G37*
%TO.C,D19*%
G36*
X-1695000Y-10780000D02*
G01*
X-6595000Y-10780000D01*
X-6595000Y-5880000D01*
X-1695000Y-5880000D01*
X-1695000Y-10780000D01*
G37*
X-1695000Y-10780000D02*
X-6595000Y-10780000D01*
X-6595000Y-5880000D01*
X-1695000Y-5880000D01*
X-1695000Y-10780000D01*
%TO.C,D2*%
X10983182Y-21655332D02*
X7546350Y-23078915D01*
X7546350Y-23078915D02*
X6811598Y-21305066D01*
X6811598Y-21305066D02*
X10248430Y-19881483D01*
X10248430Y-19881483D02*
X10983182Y-21655332D01*
G36*
X10983182Y-21655332D02*
G01*
X7546350Y-23078915D01*
X6811598Y-21305066D01*
X10248430Y-19881483D01*
X10983182Y-21655332D01*
G37*
%TO.C,D11*%
X-18434274Y15803837D02*
X-15803837Y18434274D01*
X-15803837Y18434274D02*
X-14446192Y17076629D01*
X-14446192Y17076629D02*
X-17076629Y14446192D01*
X-17076629Y14446192D02*
X-18434274Y15803837D01*
G36*
X-18434274Y15803837D02*
G01*
X-15803837Y18434274D01*
X-14446192Y17076629D01*
X-17076629Y14446192D01*
X-18434274Y15803837D01*
G37*
%TD*%
D11*
%TO.C,JP3*%
X12750357Y-19082201D03*
X11028089Y-16504645D03*
%TD*%
D12*
%TO.C,JP17*%
X14000000Y7350000D03*
X14000000Y4250000D03*
%TD*%
D13*
%TO.C,J1*%
X-10050000Y-6130000D03*
X-13950000Y-6130000D03*
X-10050000Y-7400000D03*
X-13950000Y-7400000D03*
X-10050000Y-8670000D03*
X-13950000Y-8670000D03*
%TD*%
D14*
%TO.C,D15*%
X-17165017Y-15715449D03*
X-15715449Y-17165017D03*
%TD*%
D15*
%TO.C,H2*%
X-16500000Y0D03*
%TD*%
D16*
%TO.C,SW1*%
X20875000Y22000000D03*
X20875000Y19000000D03*
X20875000Y17500000D03*
D17*
X22025000Y16100000D03*
X22025000Y23400000D03*
X24225000Y23400000D03*
X24225000Y16100000D03*
%TD*%
D18*
%TO.C,D17*%
X1600000Y-3600000D03*
X5600000Y-3600000D03*
%TD*%
D19*
%TO.C,Q1*%
X11800000Y-9100000D03*
X9900000Y-9100000D03*
X10850000Y-7225000D03*
%TD*%
D20*
%TO.C,D5*%
X23250000Y-1025000D03*
X23250000Y1025000D03*
%TD*%
D21*
%TO.C,D13*%
X-23250000Y1025000D03*
X-23250000Y-1025000D03*
%TD*%
D22*
%TO.C,R4*%
X-3872510Y-19468583D03*
X-4477290Y-22509017D03*
%TD*%
D23*
%TO.C,SW2*%
X3975000Y-12550000D03*
X-3975000Y-12550000D03*
X-3975000Y-17050000D03*
X3975000Y-17050000D03*
%TD*%
D24*
%TO.C,C1*%
X-12925000Y3600000D03*
X-15000000Y3600000D03*
%TD*%
D25*
%TO.C,U1*%
X-12910000Y1275000D03*
X-11640000Y1275000D03*
X-10370000Y1275000D03*
X-9100000Y1275000D03*
X-7830000Y1275000D03*
X-6560000Y1275000D03*
X-5290000Y1275000D03*
X-5290000Y-3675000D03*
X-6560000Y-3675000D03*
X-7830000Y-3675000D03*
X-9100000Y-3675000D03*
X-10370000Y-3675000D03*
X-11640000Y-3675000D03*
X-12910000Y-3675000D03*
%TD*%
D26*
%TO.C,D6*%
X21872450Y7950413D03*
X21087948Y9844367D03*
%TD*%
D27*
%TO.C,R9*%
X-3600000Y1312500D03*
X-3600000Y-512500D03*
%TD*%
D28*
%TO.C,JP11*%
X-12750357Y19082201D03*
X-11028089Y16504645D03*
%TD*%
D29*
%TO.C,D4*%
X21087948Y-9844367D03*
X21872450Y-7950413D03*
%TD*%
D30*
%TO.C,JP4*%
X19082236Y-12750305D03*
X16504680Y-11028037D03*
%TD*%
D15*
%TO.C,H1*%
X16500000Y0D03*
%TD*%
D31*
%TO.C,D14*%
X-21872450Y-7950413D03*
X-21087948Y-9844367D03*
%TD*%
D32*
%TO.C,JP16*%
X-12750305Y-19082236D03*
X-11028037Y-16504680D03*
%TD*%
D33*
%TO.C,C2*%
X9450000Y-100000D03*
X12550000Y-100000D03*
%TD*%
D34*
%TO.C,R2*%
X19468571Y3872571D03*
X22509005Y4477351D03*
%TD*%
%TO.C,JP14*%
X-22509005Y-4477351D03*
X-19468571Y-3872571D03*
%TD*%
D35*
%TO.C,D12*%
X-21087948Y9844367D03*
X-21872450Y7950413D03*
%TD*%
D36*
%TO.C,JP2*%
X4477351Y-22509005D03*
X3872571Y-19468571D03*
%TD*%
D37*
%TO.C,R6*%
X2712500Y1000000D03*
X887500Y1000000D03*
%TD*%
D38*
%TO.C,D16*%
X-9844367Y-21087948D03*
X-7950413Y-21872450D03*
%TD*%
D39*
%TO.C,D3*%
X15715449Y-17165017D03*
X17165017Y-15715449D03*
%TD*%
D40*
%TO.C,JP18*%
X10575000Y-11362500D03*
D41*
X9125000Y-11362500D03*
%TD*%
D42*
%TO.C,D7*%
X17165017Y15715449D03*
X15715449Y17165017D03*
%TD*%
D43*
%TO.C,L1*%
X11525000Y-3800000D03*
X8475000Y-3800000D03*
%TD*%
D44*
%TO.C,D10*%
X-7950413Y21872450D03*
X-9844367Y21087948D03*
%TD*%
D45*
%TO.C,D8*%
X9844367Y21087948D03*
X7950413Y21872450D03*
%TD*%
D46*
%TO.C,JP15*%
X-19082201Y-12750357D03*
X-16504645Y-11028089D03*
%TD*%
D47*
%TO.C,C5*%
X-6200000Y-15537500D03*
X-6200000Y-13462500D03*
%TD*%
D48*
%TO.C,R3*%
X-19468583Y3872510D03*
X-22509017Y4477290D03*
%TD*%
D49*
%TO.C,BT1*%
X12900000Y10400000D03*
D50*
X-9750000Y10400000D03*
%TD*%
D51*
%TO.C,D18*%
X1330000Y-6730000D03*
X1330000Y-9930000D03*
X6230000Y-9930000D03*
X6230000Y-6730000D03*
%TD*%
D52*
%TO.C,JP12*%
X-19082236Y12750305D03*
X-16504680Y11028037D03*
%TD*%
D53*
%TO.C,U2*%
X5062500Y-550000D03*
X5062500Y400000D03*
X5062500Y1350000D03*
X7337500Y1350000D03*
X7337500Y400000D03*
X7337500Y-550000D03*
%TD*%
D54*
%TO.C,JP10*%
X-4477351Y22509005D03*
X-3872571Y19468571D03*
%TD*%
D55*
%TO.C,D1*%
X-1025000Y-23250000D03*
X1025000Y-23250000D03*
%TD*%
D56*
%TO.C,D9*%
X1025000Y23250000D03*
X-1025000Y23250000D03*
%TD*%
D57*
%TO.C,R1*%
X19468583Y-3872510D03*
X22509017Y-4477290D03*
%TD*%
D37*
%TO.C,R10*%
X-8087500Y-13400000D03*
X-9912500Y-13400000D03*
%TD*%
D27*
%TO.C,R7*%
X13450000Y-7250000D03*
X13450000Y-9075000D03*
%TD*%
D51*
%TO.C,D19*%
X-6595000Y-6730000D03*
X-6595000Y-9930000D03*
X-1695000Y-9930000D03*
X-1695000Y-6730000D03*
%TD*%
D58*
%TO.C,R5*%
X887500Y-600000D03*
X2712500Y-600000D03*
%TD*%
D59*
%TO.C,C3*%
X-1400000Y-3350000D03*
X-1400000Y-250000D03*
%TD*%
D27*
%TO.C,R8*%
X8250000Y-7250000D03*
X8250000Y-9075000D03*
%TD*%
D60*
%TO.C,D2*%
X7950413Y-21872450D03*
X9844367Y-21087948D03*
%TD*%
D61*
%TO.C,D11*%
X-15715449Y17165017D03*
X-17165017Y15715449D03*
%TD*%
M02*
