%TF.GenerationSoftware,KiCad,Pcbnew,(6.0.1-0)*%
%TF.CreationDate,2022-01-28T16:02:21+01:00*%
%TF.ProjectId,badge,62616467-652e-46b6-9963-61645f706362,rev?*%
%TF.SameCoordinates,Original*%
%TF.FileFunction,Profile,NP*%
%FSLAX46Y46*%
G04 Gerber Fmt 4.6, Leading zero omitted, Abs format (unit mm)*
G04 Created by KiCad (PCBNEW (6.0.1-0)) date 2022-01-28 16:02:21*
%MOMM*%
%LPD*%
G01*
G04 APERTURE LIST*
%TA.AperFunction,Profile*%
%ADD10C,0.100000*%
%TD*%
G04 APERTURE END LIST*
D10*
%TO.C,Ref\u002A\u002A*%
X178661900Y-128623400D02*
X178727800Y-128698600D01*
X173482500Y-105054500D02*
X173454700Y-105150300D01*
X203338300Y-87000000D02*
X203238500Y-87000000D01*
X179265300Y-129290400D02*
X179334200Y-129363700D01*
X201945500Y-87000000D02*
X201846000Y-87000000D01*
X181903100Y-131730600D02*
X181980900Y-131792700D01*
X186529800Y-134671400D02*
X186619600Y-134715300D01*
X222709800Y-101514100D02*
X222709800Y-101414400D01*
X222709800Y-111587700D02*
X222709800Y-111487500D01*
X199122500Y-137186800D02*
X199221600Y-137180600D01*
X222709800Y-111287700D02*
X222709800Y-111187900D01*
X195363700Y-87097500D02*
X195264700Y-87106400D01*
X195230900Y-137123100D02*
X195330400Y-137132100D01*
X198656700Y-87000000D02*
X198556500Y-87000000D01*
X188760000Y-88596900D02*
X188666000Y-88632500D01*
X173618200Y-119626700D02*
X173648200Y-119721900D01*
X192302600Y-87558000D02*
X192205200Y-87579100D01*
X175920100Y-124818400D02*
X175970900Y-124904400D01*
X222709800Y-100717200D02*
X222709800Y-100617500D01*
X184122200Y-90913900D02*
X184037700Y-90967900D01*
X177548400Y-96979000D02*
X177487900Y-97059300D01*
X194734700Y-137071800D02*
X194834500Y-137082900D01*
X212703000Y-87000000D02*
X212602900Y-87000000D01*
X178727800Y-128698600D02*
X178793700Y-128773200D01*
X200813900Y-137027900D02*
X200913400Y-137015000D01*
X198857100Y-87000000D02*
X198757200Y-87000000D01*
X172810900Y-116227400D02*
X172827200Y-116325500D01*
X175200400Y-123504800D02*
X175246200Y-123594200D01*
X172512600Y-110750200D02*
X172507400Y-110850400D01*
X181670000Y-131541700D02*
X181747900Y-131605300D01*
X188108400Y-88852200D02*
X188016100Y-88890100D01*
X214098600Y-87000000D02*
X213999500Y-87000000D01*
X182560600Y-91992900D02*
X182480800Y-92052900D01*
X199522100Y-137159600D02*
X199621800Y-137151800D01*
X183182700Y-132690500D02*
X183265000Y-132748000D01*
X197591400Y-87000000D02*
X197558300Y-87000000D01*
X173237800Y-118279600D02*
X173262700Y-118377200D01*
X178273300Y-128167300D02*
X178337600Y-128244300D01*
X173127900Y-106406800D02*
X173105500Y-106504000D01*
X209314700Y-87000000D02*
X209215300Y-87000000D01*
X179751300Y-129794700D02*
X179821500Y-129865200D01*
X188636800Y-135589000D02*
X188730600Y-135624600D01*
X220805800Y-121723500D02*
X220843900Y-121631000D01*
X192108200Y-87600500D02*
X192011200Y-87622300D01*
X206330300Y-135670900D02*
X206423600Y-135636100D01*
X195561900Y-87080900D02*
X195462600Y-87089000D01*
X216292000Y-87000000D02*
X216192300Y-87000000D01*
X222709800Y-102211600D02*
X222709800Y-102111200D01*
X220528400Y-122367300D02*
X220569200Y-122275500D01*
X172749000Y-115831700D02*
X172763900Y-115930700D01*
X222709800Y-93942200D02*
X222709800Y-93842500D01*
X183265000Y-132748000D02*
X183347000Y-132804800D01*
X178358300Y-95963700D02*
X178293900Y-96040600D01*
X217289800Y-87000000D02*
X217189500Y-87000000D01*
X172489600Y-112948400D02*
X172493000Y-113047500D01*
X219923100Y-123624300D02*
X219968500Y-123535900D01*
X222709800Y-108094300D02*
X222709800Y-107995100D01*
X172505800Y-113348200D02*
X172510800Y-113448000D01*
X222709800Y-105301500D02*
X222709800Y-105201900D01*
X222547700Y-114975900D02*
X222558800Y-114876100D01*
X200452700Y-87000000D02*
X200352500Y-87000000D01*
X208916100Y-87000000D02*
X208816300Y-87000000D01*
X196660200Y-87017000D02*
X196560100Y-87020800D01*
X173740700Y-120007200D02*
X173772300Y-120102400D01*
X175215500Y-100698300D02*
X175170500Y-100786600D01*
X222709800Y-95338200D02*
X222709800Y-95238500D01*
X186203200Y-89724700D02*
X186113800Y-89770400D01*
X172604900Y-109556600D02*
X172595000Y-109656100D01*
X213102200Y-87000000D02*
X213003100Y-87000000D01*
X219447100Y-124502600D02*
X219496300Y-124415500D01*
X218186400Y-87000000D02*
X218086700Y-87000000D01*
X174302500Y-102695800D02*
X174265300Y-102788200D01*
X222709800Y-108293500D02*
X222709800Y-108193900D01*
X219981400Y-87000000D02*
X219881400Y-87000000D01*
X177232600Y-126826900D02*
X177291300Y-126907500D01*
X222709800Y-87000000D02*
X222582200Y-87000000D01*
X214794400Y-87000000D02*
X214694500Y-87000000D01*
X176353400Y-98703600D02*
X176300300Y-98788100D01*
X198523600Y-137215700D02*
X198623600Y-137211800D01*
X173055000Y-117502600D02*
X173076400Y-117599700D01*
X221135200Y-120886000D02*
X221170100Y-120791900D01*
X203172400Y-136610600D02*
X203270000Y-136588200D01*
X179493600Y-94701800D02*
X179424300Y-94774100D01*
X173945800Y-103630400D02*
X173912300Y-103724300D01*
X174682200Y-122424700D02*
X174723400Y-122515700D01*
X187070200Y-134929000D02*
X187161000Y-134970700D01*
X177191800Y-97462300D02*
X177133300Y-97544000D01*
X222709800Y-104804000D02*
X222709800Y-104704200D01*
X181387700Y-92926100D02*
X181311900Y-92990400D01*
X204933000Y-87000000D02*
X204833400Y-87000000D01*
X209414000Y-87000000D02*
X209314700Y-87000000D01*
X222709800Y-89760200D02*
X222709800Y-89660400D01*
X199456400Y-87000000D02*
X199356900Y-87000000D01*
X176514900Y-98451900D02*
X176460800Y-98535500D01*
X182216600Y-131977600D02*
X182296000Y-132039000D01*
X188824200Y-135659700D02*
X188918300Y-135694500D01*
X222706100Y-112484800D02*
X222707300Y-112384800D01*
X222709800Y-96730400D02*
X222709800Y-96630700D01*
X178293900Y-96040600D02*
X178230200Y-96117300D01*
X192174100Y-136646700D02*
X192272100Y-136668000D01*
X222709800Y-106998300D02*
X222709800Y-106898400D01*
X219583100Y-87000000D02*
X219483800Y-87000000D01*
X211812200Y-132822500D02*
X211894000Y-132765900D01*
X174949800Y-101233700D02*
X174906800Y-101323400D01*
X213300600Y-87000000D02*
X213201300Y-87000000D01*
X174560900Y-122151200D02*
X174600800Y-122242200D01*
X173879100Y-103818600D02*
X173846400Y-103912500D01*
X222709800Y-97826000D02*
X222709800Y-97726700D01*
X205032700Y-87000000D02*
X204933000Y-87000000D01*
X222709800Y-105899700D02*
X222709800Y-105800000D01*
X196526500Y-137210400D02*
X196626500Y-137214400D01*
X218776800Y-125614700D02*
X218830400Y-125530400D01*
X218086700Y-87000000D02*
X217987100Y-87000000D01*
X220190700Y-123090400D02*
X220234300Y-123000500D01*
X222709800Y-105999300D02*
X222709800Y-105899700D01*
X189388400Y-135862200D02*
X189483300Y-135894700D01*
X183953800Y-91022000D02*
X183870400Y-91076300D01*
X203465100Y-136542300D02*
X203562100Y-136518900D01*
X206625700Y-87000000D02*
X206526400Y-87000000D01*
X173105500Y-106504000D02*
X173083500Y-106601000D01*
X176569700Y-98367900D02*
X176514900Y-98451900D01*
X186920200Y-89373500D02*
X186829700Y-89416300D01*
X222524400Y-115174700D02*
X222536200Y-115075400D01*
X184518100Y-133565600D02*
X184603800Y-133617700D01*
X221370300Y-120227000D02*
X221402500Y-120131900D01*
X181084800Y-93186200D02*
X181009600Y-93252100D01*
X222709800Y-92945300D02*
X222709800Y-92845800D01*
X222709800Y-96332100D02*
X222709800Y-96232600D01*
X202783100Y-136695600D02*
X202881000Y-136674800D01*
X219483800Y-87000000D02*
X219383900Y-87000000D01*
X186709500Y-134758800D02*
X186799200Y-134801800D01*
X202740600Y-87000000D02*
X202640700Y-87000000D01*
X218280200Y-126362800D02*
X218336600Y-126280600D01*
X215620900Y-129603600D02*
X215690100Y-129532000D01*
X172992700Y-117209000D02*
X173013100Y-117307300D01*
X221863300Y-118602100D02*
X221888700Y-118506100D01*
X205830600Y-87000000D02*
X205730700Y-87000000D01*
X207621200Y-87000000D02*
X207521700Y-87000000D01*
X180395300Y-130421800D02*
X180467800Y-130489700D01*
X182321400Y-92174100D02*
X182242600Y-92234800D01*
X204633800Y-87000000D02*
X204534300Y-87000000D01*
X172559600Y-110053600D02*
X172551700Y-110153200D01*
X192272100Y-136668000D02*
X192370200Y-136689000D01*
X177957500Y-127779900D02*
X178020000Y-127857800D01*
X222224900Y-117046900D02*
X222244300Y-116948400D01*
X215694000Y-87000000D02*
X215594500Y-87000000D01*
X185585200Y-90050600D02*
X185497600Y-90098600D01*
X177487900Y-97059300D02*
X177428100Y-97139300D01*
X174935100Y-122968400D02*
X174978300Y-123057900D01*
X218504000Y-126032800D02*
X218559300Y-125949500D01*
X192565100Y-136729400D02*
X192663500Y-136749200D01*
X222709800Y-97329000D02*
X222709800Y-97229200D01*
X222709800Y-103008400D02*
X222709800Y-102908200D01*
X183371500Y-91410900D02*
X183289600Y-91467500D01*
X222709800Y-98324100D02*
X222709800Y-98224300D01*
X187342700Y-135052900D02*
X187434500Y-135093700D01*
X188079200Y-135368400D02*
X188171700Y-135406100D01*
X176606700Y-125921000D02*
X176661900Y-126004400D01*
X182535100Y-132220500D02*
X182615100Y-132280300D01*
X172601600Y-114643000D02*
X172611800Y-114742900D01*
X175307100Y-100520800D02*
X175260900Y-100609800D01*
X211509100Y-87000000D02*
X211409300Y-87000000D01*
X222709800Y-106698200D02*
X222709800Y-106597800D01*
X208533500Y-134730700D02*
X208623000Y-134687100D01*
X175590300Y-99993100D02*
X175542300Y-100080500D01*
X173678500Y-119816600D02*
X173709200Y-119911500D01*
X174144100Y-121135400D02*
X174180100Y-121228400D01*
X221305100Y-120415700D02*
X221337800Y-120321800D01*
X192957100Y-136805800D02*
X193054700Y-136823800D01*
X187374900Y-89165300D02*
X187283300Y-89206400D01*
X172576600Y-109854400D02*
X172567900Y-109954100D01*
X172510800Y-113448000D02*
X172516200Y-113547400D01*
X186113800Y-89770400D02*
X186025000Y-89816400D01*
X172779200Y-116030000D02*
X172794900Y-116128900D01*
X172484800Y-111449600D02*
X172482300Y-111550400D01*
X189796400Y-88233400D02*
X189700700Y-88264800D01*
X172595000Y-109656100D02*
X172585600Y-109754900D01*
X185731800Y-134261300D02*
X185819900Y-134308400D01*
X222486400Y-115472800D02*
X222499400Y-115373600D01*
X222709800Y-106798400D02*
X222709800Y-106698200D01*
X200252800Y-87000000D02*
X200152900Y-87000000D01*
X178145400Y-128012200D02*
X178209100Y-128089700D01*
X187192300Y-89247600D02*
X187101800Y-89289100D01*
X195661600Y-87073100D02*
X195561900Y-87080900D01*
X191718500Y-87690600D02*
X191621500Y-87714000D01*
X172498300Y-111050500D02*
X172494300Y-111150400D01*
X195132100Y-137113600D02*
X195230900Y-137123100D01*
X172668200Y-115238200D02*
X172680800Y-115338000D01*
X181540900Y-92797600D02*
X181464000Y-92861800D01*
X222709800Y-111088500D02*
X222709800Y-110988900D01*
X197625400Y-137232600D02*
X197724700Y-137232300D01*
X222709800Y-98523100D02*
X222709800Y-98423500D01*
X177589200Y-127307400D02*
X177649900Y-127386800D01*
X222709800Y-102609500D02*
X222709800Y-102510400D01*
X178337600Y-128244300D02*
X178401800Y-128320600D01*
X220767300Y-121815800D02*
X220805800Y-121723500D01*
X222709800Y-93344100D02*
X222709800Y-93244900D01*
X222709800Y-91153300D02*
X222709800Y-91053100D01*
X219830400Y-123802100D02*
X219876900Y-123713300D01*
X173098200Y-117696600D02*
X173120500Y-117794200D01*
X222709800Y-104003000D02*
X222709800Y-103903400D01*
X175736900Y-99731500D02*
X175687600Y-99818600D01*
X222709800Y-103804000D02*
X222709800Y-103704700D01*
X198924000Y-137197900D02*
X199023400Y-137192500D01*
X222709800Y-103506800D02*
X222709800Y-103407800D01*
X191785300Y-136557900D02*
X191882700Y-136580800D01*
X185672800Y-90003000D02*
X185585200Y-90050600D01*
X205132000Y-87000000D02*
X205032700Y-87000000D01*
X222179100Y-87000000D02*
X222079000Y-87000000D01*
X185644100Y-134214000D02*
X185731800Y-134261300D01*
X174228300Y-102881200D02*
X174191800Y-102974200D01*
X177649900Y-127386800D02*
X177710500Y-127465600D01*
X208353900Y-134816800D02*
X208443900Y-134773900D01*
X222666600Y-113583800D02*
X222672100Y-113484500D01*
X221204400Y-120698100D02*
X221238400Y-120603900D01*
X217206000Y-127806500D02*
X217268000Y-127728700D01*
X201545800Y-87000000D02*
X201446700Y-87000000D01*
X191913700Y-87644600D02*
X191815900Y-87667500D01*
X197925700Y-137230400D02*
X198026200Y-137228900D01*
X192988800Y-87420900D02*
X192890500Y-87439400D01*
X173836500Y-120291300D02*
X173869000Y-120385100D01*
X209069800Y-134462800D02*
X209158600Y-134416800D01*
X173648200Y-119721900D02*
X173678500Y-119816600D01*
X213333200Y-131689200D02*
X213410600Y-131626700D01*
X217789000Y-87000000D02*
X217689600Y-87000000D01*
X172660200Y-109059800D02*
X172648300Y-109159200D01*
X221337800Y-120321800D02*
X221370300Y-120227000D01*
X177468700Y-127147600D02*
X177528600Y-127227400D01*
X175836200Y-99558100D02*
X175786300Y-99644800D01*
X220180800Y-87000000D02*
X220081200Y-87000000D01*
X222709800Y-89960400D02*
X222709800Y-89860400D01*
X210121100Y-133889500D02*
X210207800Y-133839300D01*
X187283300Y-89206400D02*
X187192300Y-89247600D01*
X202640700Y-87000000D02*
X202540400Y-87000000D01*
X222709800Y-92447500D02*
X222709800Y-92347400D01*
X190273000Y-88083200D02*
X190176900Y-88112600D01*
X173373100Y-105439900D02*
X173346800Y-105536500D01*
X173969400Y-120667800D02*
X174003500Y-120761500D01*
X186292200Y-89679600D02*
X186203200Y-89724700D01*
X177915800Y-96505100D02*
X177853600Y-96583700D01*
X177977800Y-96427300D02*
X177915800Y-96505100D01*
X215198900Y-130028300D02*
X215270100Y-129958100D01*
X184263900Y-133408200D02*
X184348900Y-133461300D01*
X181696000Y-92669600D02*
X181618500Y-92733300D01*
X219593600Y-124241000D02*
X219641700Y-124153600D01*
X222654300Y-113782700D02*
X222660700Y-113682800D01*
X222709800Y-111687500D02*
X222709800Y-111587700D01*
X222709800Y-96530500D02*
X222709800Y-96431200D01*
X219196300Y-124934200D02*
X219247000Y-124848500D01*
X213700500Y-87000000D02*
X213600200Y-87000000D01*
X220362500Y-122730000D02*
X220404400Y-122639800D01*
X176830200Y-126254300D02*
X176886700Y-126336700D01*
X192597500Y-87496700D02*
X192498800Y-87516800D01*
X179913600Y-94275600D02*
X179843100Y-94345700D01*
X222379400Y-87000000D02*
X222279000Y-87000000D01*
X213796000Y-131307400D02*
X213871700Y-131243200D01*
X177368700Y-97219600D02*
X177309100Y-97300600D01*
X172999400Y-106991300D02*
X172979300Y-107089100D01*
X205767000Y-135872300D02*
X205860800Y-135839900D01*
X180860700Y-93384100D02*
X180786100Y-93451100D01*
X218387000Y-87000000D02*
X218286700Y-87000000D01*
X176090800Y-99128000D02*
X176038900Y-99214100D01*
X222709800Y-100418900D02*
X222709800Y-100318900D01*
X211975600Y-132709000D02*
X212057500Y-132651500D01*
X174534500Y-102142000D02*
X174494900Y-102233900D01*
X203755300Y-136470900D02*
X203853000Y-136446100D01*
X180105900Y-130145500D02*
X180177500Y-130214700D01*
X196858400Y-87010500D02*
X196759300Y-87013500D01*
X180322600Y-130353300D02*
X180395300Y-130421800D01*
X199023400Y-137192500D02*
X199122500Y-137186800D01*
X172959500Y-107187500D02*
X172940100Y-107286100D01*
X175623000Y-124298500D02*
X175671900Y-124386000D01*
X222079000Y-87000000D02*
X221979000Y-87000000D01*
X214495100Y-87000000D02*
X214395700Y-87000000D01*
X212383000Y-132417900D02*
X212463100Y-132359200D01*
X219496300Y-124415500D02*
X219545100Y-124328500D01*
X199555700Y-87000000D02*
X199456400Y-87000000D01*
X222709800Y-92845800D02*
X222709800Y-92746100D01*
X207122600Y-87000000D02*
X207023300Y-87000000D01*
X222704400Y-112584300D02*
X222706100Y-112484800D01*
X222709800Y-109788600D02*
X222709800Y-109688900D01*
X173400000Y-105343000D02*
X173373100Y-105439900D01*
X175246200Y-123594200D02*
X175292200Y-123683100D01*
X208716400Y-87000000D02*
X208617200Y-87000000D01*
X175447200Y-100256000D02*
X175400100Y-100344100D01*
X222672100Y-113484500D02*
X222677300Y-113384300D01*
X193777100Y-87287900D02*
X193677800Y-87303200D01*
X191590900Y-136511100D02*
X191687700Y-136534600D01*
X222660700Y-113682800D02*
X222666600Y-113583800D01*
X175542300Y-100080500D02*
X175494500Y-100168300D01*
X222709800Y-94241300D02*
X222709800Y-94141800D01*
X196560100Y-87020800D02*
X196459600Y-87025100D01*
X216032900Y-129168700D02*
X216101000Y-129094700D01*
X222709800Y-112118400D02*
X222709800Y-111990800D01*
X183677000Y-133028600D02*
X183760300Y-133083900D01*
X188357100Y-135480300D02*
X188450000Y-135516800D01*
X211906100Y-87000000D02*
X211806300Y-87000000D01*
X212941000Y-131998700D02*
X213019600Y-131937700D01*
X172524000Y-110551800D02*
X172518100Y-110650800D01*
X215270100Y-129958100D02*
X215340600Y-129888000D01*
X222536200Y-115075400D02*
X222547700Y-114975900D01*
X172739600Y-108464900D02*
X172725400Y-108563800D01*
X198824200Y-137202900D02*
X198924000Y-137197900D01*
X177730800Y-96740800D02*
X177669400Y-96820300D01*
X183019700Y-132575200D02*
X183101100Y-132633000D01*
X196957800Y-87007800D02*
X196858400Y-87010500D01*
X205292300Y-136030300D02*
X205387200Y-135999600D01*
X179286500Y-94919600D02*
X179218600Y-94992100D01*
X193578900Y-87318900D02*
X193480400Y-87334900D01*
X217689600Y-87000000D02*
X217589900Y-87000000D01*
X202840000Y-87000000D02*
X202740600Y-87000000D01*
X182857100Y-132458100D02*
X182938100Y-132516600D01*
X172720600Y-115635200D02*
X172734600Y-115733400D01*
X173321000Y-105632300D02*
X173295600Y-105728300D01*
X182640700Y-91933300D02*
X182560600Y-91992900D01*
X205631400Y-87000000D02*
X205531400Y-87000000D01*
X200352500Y-87000000D02*
X200252800Y-87000000D01*
X176460800Y-98535500D02*
X176407100Y-98619300D01*
X177291300Y-126907500D02*
X177350000Y-126987600D01*
X205006700Y-136120300D02*
X205102400Y-136090600D01*
X208802500Y-134598300D02*
X208891400Y-134553600D01*
X196359500Y-87029700D02*
X196259700Y-87034700D01*
X184546200Y-90649800D02*
X184461500Y-90701600D01*
X185497600Y-90098600D02*
X185409600Y-90147300D01*
X222078900Y-117730400D02*
X222100800Y-117633400D01*
X183594400Y-132973300D02*
X183677000Y-133028600D01*
X189510900Y-88328500D02*
X189416600Y-88360700D01*
X218989100Y-125276400D02*
X219041000Y-125191700D01*
X210910800Y-87000000D02*
X210810500Y-87000000D01*
X173062000Y-106698100D02*
X173040600Y-106796200D01*
X216889900Y-128193300D02*
X216953600Y-128116600D01*
X213800300Y-87000000D02*
X213700500Y-87000000D01*
X222640500Y-113981400D02*
X222647600Y-113882300D01*
X217635400Y-127254900D02*
X217695900Y-127174600D01*
X210976300Y-133373400D02*
X211061400Y-133319500D01*
X215410700Y-129817600D02*
X215481000Y-129746500D01*
X219283700Y-87000000D02*
X219184200Y-87000000D01*
X217815200Y-127014300D02*
X217874700Y-126933300D01*
X200318200Y-137086400D02*
X200417300Y-137075500D01*
X209813100Y-87000000D02*
X209713800Y-87000000D01*
X176847300Y-97953300D02*
X176790900Y-98036100D01*
X222625100Y-114181000D02*
X222633000Y-114081400D01*
X181160700Y-93120300D02*
X181084800Y-93186200D01*
X194766400Y-87157200D02*
X194667700Y-87168400D01*
X209774000Y-134086000D02*
X209861500Y-134037200D01*
X186980000Y-134887100D02*
X187070200Y-134929000D01*
X183620400Y-91241800D02*
X183536800Y-91298100D01*
X222709800Y-93543000D02*
X222709800Y-93443800D01*
X189200200Y-135796300D02*
X189294500Y-135829500D01*
X199919000Y-137126300D02*
X200018800Y-137116900D01*
X175786300Y-99644800D02*
X175736900Y-99731500D01*
X177309100Y-97300600D02*
X177250300Y-97381300D01*
X222444900Y-115769700D02*
X222459100Y-115670700D01*
X174328100Y-121599600D02*
X174365900Y-121691800D01*
X180935000Y-93318000D02*
X180860700Y-93384100D01*
X202978400Y-136653700D02*
X203075500Y-136632300D01*
X188730600Y-135624600D02*
X188824200Y-135659700D01*
X222709800Y-89460500D02*
X222709800Y-89360500D01*
X214692500Y-130512500D02*
X214765800Y-130444100D01*
X186174100Y-134493100D02*
X186262400Y-134538000D01*
X221729600Y-119084100D02*
X221757100Y-118987900D01*
X187832500Y-88966700D02*
X187740100Y-89006000D01*
X191882700Y-136580800D02*
X191980000Y-136603200D01*
X198126200Y-137227100D02*
X198226000Y-137224800D01*
X222700000Y-112785100D02*
X222702400Y-112684300D01*
X197126500Y-137228400D02*
X197225900Y-137230000D01*
X222709800Y-107395500D02*
X222709800Y-107296600D01*
X211313200Y-133157100D02*
X211396400Y-133102500D01*
X175638900Y-99905600D02*
X175590300Y-99993100D01*
X172979300Y-107089100D02*
X172959500Y-107187500D01*
X221888700Y-118506100D02*
X221913700Y-118409900D01*
X183289600Y-91467500D02*
X183208000Y-91524400D01*
X217268000Y-127728700D02*
X217330200Y-127650100D01*
X193250400Y-136858700D02*
X193348200Y-136875500D01*
X222709800Y-103308000D02*
X222709800Y-103208500D01*
X217143700Y-127884000D02*
X217206000Y-127806500D01*
X172477500Y-111849900D02*
X172476600Y-111950200D01*
X175037200Y-101054000D02*
X174993300Y-101143700D01*
X173781700Y-104102500D02*
X173750000Y-104197200D01*
X222709800Y-97129500D02*
X222709800Y-97029200D01*
X182881300Y-91756900D02*
X182800600Y-91815500D01*
X222709800Y-88364000D02*
X222709800Y-88264700D01*
X188918300Y-135694500D02*
X189012100Y-135728800D01*
X198157600Y-87000000D02*
X198057000Y-87000000D01*
X176229600Y-125331200D02*
X176282400Y-125416100D01*
X206517600Y-135600600D02*
X206611100Y-135564800D01*
X204534300Y-87000000D02*
X204434600Y-87000000D01*
X214197500Y-87000000D02*
X214098600Y-87000000D01*
X172476100Y-112149300D02*
X172476400Y-112248600D01*
X222709800Y-110689100D02*
X222709800Y-110588800D01*
X200052800Y-87000000D02*
X199952900Y-87000000D01*
X190081200Y-88142400D02*
X189986000Y-88172400D01*
X175671900Y-124386000D02*
X175720900Y-124472900D01*
X183870400Y-91076300D02*
X183787200Y-91130900D01*
X220881600Y-121538500D02*
X220918800Y-121446100D01*
X215965100Y-129241600D02*
X216032900Y-129168700D01*
X184775600Y-133720800D02*
X184861400Y-133771600D01*
X179821500Y-129865200D02*
X179891800Y-129935300D01*
X207322500Y-87000000D02*
X207222800Y-87000000D01*
X219689500Y-124065800D02*
X219736800Y-123978100D01*
X174821500Y-101504200D02*
X174779600Y-101594400D01*
X173339000Y-118667500D02*
X173365100Y-118763400D01*
X180637600Y-93586000D02*
X180564200Y-93653400D01*
X195629300Y-137157000D02*
X195729200Y-137164600D01*
X172478700Y-111749800D02*
X172477500Y-111849900D01*
X190559000Y-87998100D02*
X190463400Y-88026100D01*
X172625800Y-109358500D02*
X172615100Y-109457600D01*
X200152900Y-87000000D02*
X200052800Y-87000000D01*
X221913700Y-118409900D02*
X221938300Y-118313600D01*
X178082500Y-127935200D02*
X178145400Y-128012200D01*
X189578400Y-135927000D02*
X189673100Y-135958600D01*
X218614200Y-125866100D02*
X218669000Y-125782100D01*
X222334500Y-116460100D02*
X222351300Y-116362200D01*
X209614200Y-87000000D02*
X209513800Y-87000000D01*
X203139500Y-87000000D02*
X203039700Y-87000000D01*
X190339100Y-136169400D02*
X190435100Y-136198100D01*
X217987100Y-87000000D02*
X217888200Y-87000000D01*
X173709200Y-119911500D02*
X173740700Y-120007200D01*
X222569500Y-114777000D02*
X222579700Y-114678000D01*
X196027800Y-137184700D02*
X196126800Y-137190600D01*
X222709800Y-91948200D02*
X222709800Y-91848200D01*
X219397600Y-124589300D02*
X219447100Y-124502600D01*
X215481000Y-129746500D02*
X215551300Y-129675000D01*
X221526800Y-119752600D02*
X221557000Y-119657300D01*
X220446100Y-122549100D02*
X220487500Y-122458300D01*
X177895000Y-127701300D02*
X177957500Y-127779900D01*
X202440500Y-87000000D02*
X202341700Y-87000000D01*
X213201300Y-87000000D02*
X213102200Y-87000000D01*
X222709800Y-93045000D02*
X222709800Y-92945300D01*
X220649500Y-122092200D02*
X220689100Y-122000300D01*
X222709800Y-94041600D02*
X222709800Y-93942200D01*
X222010300Y-118022700D02*
X222033600Y-117925100D01*
X222512100Y-115274200D02*
X222524400Y-115174700D01*
X190915800Y-136335500D02*
X191012400Y-136361900D01*
X177000100Y-126500200D02*
X177057600Y-126582100D01*
X181287800Y-131221600D02*
X181363400Y-131286000D01*
X173539200Y-104863200D02*
X173510500Y-104959200D01*
X222709800Y-105201900D02*
X222709800Y-105102300D01*
X222709800Y-95834700D02*
X222709800Y-95735400D01*
X222709800Y-107795400D02*
X222709800Y-107695100D01*
X207351000Y-135266300D02*
X207443500Y-135227100D01*
X184207300Y-90860000D02*
X184122200Y-90913900D01*
X188171700Y-135406100D02*
X188264100Y-135443300D01*
X222709800Y-110087900D02*
X222709800Y-109988400D01*
X222709800Y-102011100D02*
X222709800Y-101911300D01*
X222709800Y-101712800D02*
X222709800Y-101613700D01*
X187924400Y-88928200D02*
X187832500Y-88966700D01*
X172953100Y-117012600D02*
X172972600Y-117110300D01*
X222709800Y-90953500D02*
X222709800Y-90854400D01*
X182720600Y-91874200D02*
X182640700Y-91933300D01*
X191428300Y-87762000D02*
X191330600Y-87786800D01*
X194171300Y-87231000D02*
X194072600Y-87244700D01*
X220234300Y-123000500D02*
X220277300Y-122910800D01*
X174779600Y-101594400D02*
X174737900Y-101685100D01*
X172480300Y-111650400D02*
X172478700Y-111749800D01*
X176903700Y-97871200D02*
X176847300Y-97953300D01*
X222709800Y-95238500D02*
X222709800Y-95138600D01*
X177133300Y-97544000D02*
X177075400Y-97625400D01*
X222709800Y-96232600D02*
X222709800Y-96133300D01*
X211209400Y-87000000D02*
X211110100Y-87000000D01*
X222709800Y-88464300D02*
X222709800Y-88364000D01*
X180034400Y-130075900D02*
X180105900Y-130145500D01*
X201209300Y-136974100D02*
X201307600Y-136959700D01*
X211646800Y-132935300D02*
X211729800Y-132878900D01*
X177528600Y-127227400D02*
X177589200Y-127307400D01*
X174614800Y-101958700D02*
X174574600Y-102050200D01*
X173846400Y-103912500D02*
X173813900Y-104007400D01*
X201604800Y-136913900D02*
X201703300Y-136897800D01*
X172861100Y-116521300D02*
X172878800Y-116620400D01*
X217490100Y-87000000D02*
X217390000Y-87000000D01*
X222709800Y-108991500D02*
X222709800Y-108892300D01*
X204434600Y-87000000D02*
X204334800Y-87000000D01*
X184433400Y-133513700D02*
X184518100Y-133565600D01*
X174849300Y-122787800D02*
X174892100Y-122878400D01*
X193186500Y-87385100D02*
X193087400Y-87402900D01*
X222709800Y-92048500D02*
X222709800Y-91948200D01*
X221170100Y-120791900D02*
X221204400Y-120698100D01*
X190848400Y-87915700D02*
X190751500Y-87942900D01*
X183044500Y-91639800D02*
X182962600Y-91698300D01*
X222709800Y-108892300D02*
X222709800Y-108792400D01*
X219783800Y-123890000D02*
X219830400Y-123802100D01*
X215055300Y-130168400D02*
X215127100Y-130098600D01*
X184717300Y-90546500D02*
X184631500Y-90598100D01*
X181363400Y-131286000D02*
X181439400Y-131350100D01*
X222709800Y-95437200D02*
X222709800Y-95338200D01*
X219041000Y-125191700D02*
X219093100Y-125106100D01*
X174378300Y-102510700D02*
X174340200Y-102603300D01*
X208172300Y-134902200D02*
X208263400Y-134859600D01*
X222122400Y-117536300D02*
X222143800Y-117438300D01*
X212006200Y-87000000D02*
X211906100Y-87000000D01*
X222415300Y-115967600D02*
X222430300Y-115868900D01*
X187617900Y-135174000D02*
X187709800Y-135213600D01*
X202293100Y-136793500D02*
X202391000Y-136774700D01*
X173174000Y-106211700D02*
X173150700Y-106309300D01*
X209015500Y-87000000D02*
X208916100Y-87000000D01*
X212782900Y-132120000D02*
X212862200Y-132059400D01*
X172843900Y-116423300D02*
X172861100Y-116521300D01*
X217888200Y-87000000D02*
X217789000Y-87000000D01*
X203039700Y-87000000D02*
X202939600Y-87000000D01*
X182800600Y-91815500D02*
X182720600Y-91874200D01*
X173246000Y-105920800D02*
X173221600Y-106017600D01*
X222709800Y-92148400D02*
X222709800Y-92048500D01*
X193677800Y-87303200D02*
X193578900Y-87318900D01*
X213500000Y-87000000D02*
X213400200Y-87000000D01*
X204833400Y-87000000D02*
X204734000Y-87000000D01*
X175526400Y-124122900D02*
X175574400Y-124210500D01*
X173750000Y-104197200D02*
X173718700Y-104292100D01*
X176773800Y-126171300D02*
X176830200Y-126254300D01*
X215495100Y-87000000D02*
X215395700Y-87000000D01*
X188479500Y-88704300D02*
X188387000Y-88740500D01*
X222709800Y-98025200D02*
X222709800Y-97926000D01*
X222709800Y-94739800D02*
X222709800Y-94639800D01*
X195264700Y-87106400D02*
X195164900Y-87115800D01*
X221557000Y-119657300D02*
X221586500Y-119562500D01*
X180564200Y-93653400D02*
X180491200Y-93721100D01*
X207808700Y-135067800D02*
X207900200Y-135026800D01*
X208980300Y-134508500D02*
X209069800Y-134462800D01*
X174864000Y-101413700D02*
X174821500Y-101504200D01*
X178530600Y-128471800D02*
X178596000Y-128547600D01*
X205930300Y-87000000D02*
X205830600Y-87000000D01*
X221701800Y-119179900D02*
X221729600Y-119084100D01*
X189134300Y-88459700D02*
X189040200Y-88493600D01*
X177669400Y-96820300D02*
X177608800Y-96899500D01*
X222709800Y-108692200D02*
X222709800Y-108592600D01*
X189673100Y-135958600D02*
X189768000Y-135989900D01*
X222709800Y-88064400D02*
X222709800Y-87964100D01*
X172707000Y-115536500D02*
X172720600Y-115635200D01*
X178551800Y-95736200D02*
X178486800Y-95812000D01*
X194369700Y-87204800D02*
X194270300Y-87217700D01*
X222056500Y-117827700D02*
X222078900Y-117730400D01*
X176443700Y-125670400D02*
X176497800Y-125754400D01*
X213871700Y-131243200D02*
X213947200Y-131178700D01*
X220479800Y-87000000D02*
X220380200Y-87000000D01*
X222558800Y-114876100D02*
X222569500Y-114777000D01*
X222709800Y-103704700D02*
X222709800Y-103605700D01*
X204910600Y-136149700D02*
X205006700Y-136120300D01*
X207443500Y-135227100D02*
X207535400Y-135187700D01*
X181980900Y-131792700D02*
X182059500Y-131854900D01*
X196426300Y-137206000D02*
X196526500Y-137210400D01*
X174003500Y-120761500D02*
X174037900Y-120854700D01*
X222205100Y-117145300D02*
X222224900Y-117046900D01*
X221680000Y-87000000D02*
X221580400Y-87000000D01*
X222709800Y-89660400D02*
X222709800Y-89560600D01*
X175819500Y-124645600D02*
X175869700Y-124732300D01*
X179355100Y-94846900D02*
X179286500Y-94919600D01*
X222143800Y-117438300D02*
X222164700Y-117340300D01*
X172685100Y-108860900D02*
X172672400Y-108960400D01*
X208816300Y-87000000D02*
X208716400Y-87000000D01*
X189040200Y-88493600D02*
X188946500Y-88527700D01*
X183453900Y-91354500D02*
X183371500Y-91410900D01*
X196626500Y-137214400D02*
X196725800Y-137217900D01*
X184011300Y-133247700D02*
X184095100Y-133301400D01*
X190243100Y-136140300D02*
X190339100Y-136169400D01*
X193348200Y-136875500D02*
X193446300Y-136892000D01*
X190435100Y-136198100D02*
X190530400Y-136226200D01*
X176943200Y-126418500D02*
X177000100Y-126500200D01*
X199755000Y-87000000D02*
X199655600Y-87000000D01*
X208081800Y-134944100D02*
X208172300Y-134902200D01*
X208418000Y-87000000D02*
X208318700Y-87000000D01*
X190052900Y-136081400D02*
X190147700Y-136110900D01*
X222686400Y-113184200D02*
X222690400Y-113084200D01*
X173588500Y-119531000D02*
X173618200Y-119626700D01*
X211229800Y-133211300D02*
X211313200Y-133157100D01*
X198356600Y-87000000D02*
X198257400Y-87000000D01*
X179196800Y-129217100D02*
X179265300Y-129290400D01*
X217874700Y-126933300D02*
X217933500Y-126852600D01*
X174404000Y-121783600D02*
X174442600Y-121875400D01*
X192498800Y-87516800D02*
X192400500Y-87537200D01*
X172585600Y-109754900D02*
X172576600Y-109854400D01*
X178859900Y-128847500D02*
X178926800Y-128922100D01*
X208020200Y-87000000D02*
X207921000Y-87000000D01*
X209247000Y-134370700D02*
X209334800Y-134324400D01*
X215395700Y-87000000D02*
X215295900Y-87000000D01*
X187709800Y-135213600D02*
X187801700Y-135252800D01*
X211396400Y-133102500D02*
X211479900Y-133047200D01*
X201307600Y-136959700D02*
X201406600Y-136944900D01*
X215992900Y-87000000D02*
X215893200Y-87000000D01*
X212105900Y-87000000D02*
X212006200Y-87000000D01*
X181773100Y-92606800D02*
X181696000Y-92669600D01*
X222709800Y-99920000D02*
X222709800Y-99820100D01*
X184376900Y-90753800D02*
X184292000Y-90806700D01*
X213487600Y-131563900D02*
X213565100Y-131500200D01*
X177174000Y-126745600D02*
X177232600Y-126826900D01*
X178422400Y-95887700D02*
X178358300Y-95963700D01*
X173454700Y-105150300D02*
X173427200Y-105246500D01*
X222164700Y-117340300D02*
X222185000Y-117243100D01*
X213255300Y-131751700D02*
X213333200Y-131689200D01*
X221100100Y-120979600D02*
X221135200Y-120886000D01*
X194469600Y-87192200D02*
X194369700Y-87204800D01*
X184803700Y-90495100D02*
X184717300Y-90546500D01*
X211894000Y-132765900D02*
X211975600Y-132709000D01*
X218223400Y-126444700D02*
X218280200Y-126362800D01*
X222709800Y-88864100D02*
X222709800Y-88764600D01*
X172940100Y-107286100D02*
X172921300Y-107383800D01*
X213003100Y-87000000D02*
X212903300Y-87000000D01*
X222709800Y-90755400D02*
X222709800Y-90655500D01*
X179129200Y-129144100D02*
X179196800Y-129217100D01*
X194865400Y-87146300D02*
X194766400Y-87157200D01*
X218785500Y-87000000D02*
X218685900Y-87000000D01*
X222709800Y-99820100D02*
X222709800Y-99719800D01*
X175869700Y-124732300D02*
X175920100Y-124818400D01*
X172534700Y-113845600D02*
X172541700Y-113946000D01*
X191493600Y-136487000D02*
X191590900Y-136511100D01*
X219347700Y-124676000D02*
X219397600Y-124589300D01*
X222430300Y-115868900D02*
X222444900Y-115769700D01*
X205954700Y-135806900D02*
X206049300Y-135773300D01*
X177018000Y-97706900D02*
X176960500Y-97789200D01*
X181236500Y-93054900D02*
X181160700Y-93120300D01*
X213400200Y-87000000D02*
X213300600Y-87000000D01*
X215594500Y-87000000D02*
X215495100Y-87000000D01*
X196061200Y-87045900D02*
X195962100Y-87052000D01*
X215127100Y-130098600D02*
X215198900Y-130028300D01*
X172896900Y-116719100D02*
X172915300Y-116817300D01*
X221480600Y-87000000D02*
X221380300Y-87000000D01*
X222709800Y-108393500D02*
X222709800Y-108293500D01*
X172528100Y-113745600D02*
X172534700Y-113845600D01*
X218165900Y-126527000D02*
X218223400Y-126444700D01*
X172483900Y-112749900D02*
X172486600Y-112849300D01*
X172591800Y-114542800D02*
X172601600Y-114643000D01*
X185556300Y-134166200D02*
X185644100Y-134214000D01*
X213899800Y-87000000D02*
X213800300Y-87000000D01*
X222100800Y-117633400D02*
X222122400Y-117536300D01*
X173869000Y-120385100D02*
X173901900Y-120479000D01*
X191012400Y-136361900D02*
X191108200Y-136387600D01*
X178617500Y-95660200D02*
X178551800Y-95736200D01*
X222709800Y-111788000D02*
X222709800Y-111687500D01*
X186650100Y-89502500D02*
X186560600Y-89546100D01*
X204135200Y-87000000D02*
X204036000Y-87000000D01*
X199321600Y-137174000D02*
X199422000Y-137167000D01*
X215897200Y-129314200D02*
X215965100Y-129241600D01*
X217189500Y-87000000D02*
X217089000Y-87000000D01*
X195927900Y-137178300D02*
X196027800Y-137184700D01*
X204624600Y-136234900D02*
X204720200Y-136206800D01*
X174108300Y-121041900D02*
X174144100Y-121135400D01*
X222709800Y-100218600D02*
X222709800Y-100118700D01*
X193876100Y-87273000D02*
X193777100Y-87287900D01*
X199952900Y-87000000D02*
X199853900Y-87000000D01*
X222709800Y-98822000D02*
X222709800Y-98722800D01*
X207023300Y-87000000D02*
X206924100Y-87000000D01*
X194667700Y-87168400D02*
X194569000Y-87180100D01*
X214911600Y-130306300D02*
X214983600Y-130237500D01*
X200750700Y-87000000D02*
X200651800Y-87000000D01*
X197358800Y-87001000D02*
X197258000Y-87002200D01*
X173627300Y-104577000D02*
X173597700Y-104671800D01*
X214322900Y-130849500D02*
X214397500Y-130782500D01*
X207821200Y-87000000D02*
X207721500Y-87000000D01*
X181211900Y-131156600D02*
X181287800Y-131221600D01*
X173935500Y-120573600D02*
X173969400Y-120667800D01*
X181311900Y-92990400D02*
X181236500Y-93054900D01*
X222709800Y-90455700D02*
X222709800Y-90356200D01*
X195828400Y-137171600D02*
X195927900Y-137178300D01*
X199655600Y-87000000D02*
X199555700Y-87000000D01*
X222709800Y-93742600D02*
X222709800Y-93642600D01*
X212543000Y-132300200D02*
X212623000Y-132240500D01*
X222709800Y-107594800D02*
X222709800Y-107495100D01*
X216435200Y-128723400D02*
X216500800Y-128648700D01*
X200218800Y-137096900D02*
X200318200Y-137086400D01*
X222709800Y-98722800D02*
X222709800Y-98623400D01*
X198257400Y-87000000D02*
X198157600Y-87000000D01*
X173510500Y-104959200D02*
X173482500Y-105054500D01*
X174253000Y-121413600D02*
X174290400Y-121506800D01*
X179702700Y-94487200D02*
X179632400Y-94558700D01*
X201899100Y-136864800D02*
X201997200Y-136847700D01*
X222709800Y-109888200D02*
X222709800Y-109788600D01*
X222709800Y-96431200D02*
X222709800Y-96332100D01*
X216092600Y-87000000D02*
X215992900Y-87000000D01*
X179984800Y-94205400D02*
X179913600Y-94275600D01*
X176960500Y-97789200D02*
X176903700Y-97871200D01*
X208623000Y-134687100D02*
X208713000Y-134642800D01*
X176282400Y-125416100D02*
X176335700Y-125500900D01*
X181618500Y-92733300D02*
X181540900Y-92797600D01*
X222263200Y-116850700D02*
X222281500Y-116753300D01*
X180344600Y-93858500D02*
X180272000Y-93927400D01*
X222709800Y-94939300D02*
X222709800Y-94839300D01*
X172565000Y-114245100D02*
X172573500Y-114344100D01*
X187648200Y-89045400D02*
X187556800Y-89085100D01*
X222709800Y-100118700D02*
X222709800Y-100019300D01*
X222697200Y-112885100D02*
X222700000Y-112785100D01*
X174806700Y-122696700D02*
X174849300Y-122787800D01*
X194569000Y-87180100D02*
X194469600Y-87192200D01*
X202540400Y-87000000D02*
X202440500Y-87000000D01*
X176717600Y-126087800D02*
X176773800Y-126171300D01*
X222709800Y-91053100D02*
X222709800Y-90953500D01*
X220277300Y-122910800D02*
X220320100Y-122820500D01*
X176177400Y-125246600D02*
X176229600Y-125331200D01*
X220878900Y-87000000D02*
X220778900Y-87000000D01*
X201247800Y-87000000D02*
X201147600Y-87000000D01*
X203562100Y-136518900D02*
X203658600Y-136495100D01*
X197753100Y-87000000D02*
X197626500Y-87000000D01*
X181747900Y-131605300D02*
X181825600Y-131668300D01*
X179218600Y-94992100D02*
X179150800Y-95065100D01*
X222709800Y-109190500D02*
X222709800Y-109090800D01*
X175338300Y-123771400D02*
X175384600Y-123859300D01*
X222709800Y-103108700D02*
X222709800Y-103008400D01*
X217589900Y-87000000D02*
X217490100Y-87000000D01*
X178596000Y-128547600D02*
X178661900Y-128623400D01*
X210293900Y-133788900D02*
X210379900Y-133738200D01*
X181928400Y-92481800D02*
X181850400Y-92544300D01*
X216368900Y-128798200D02*
X216435200Y-128723400D01*
X175081200Y-100964900D02*
X175037200Y-101054000D01*
X172496900Y-113147600D02*
X172501100Y-113248000D01*
X222709800Y-96929700D02*
X222709800Y-96830300D01*
X173804300Y-120197100D02*
X173836500Y-120291300D01*
X205730700Y-87000000D02*
X205631400Y-87000000D01*
X220579900Y-87000000D02*
X220479800Y-87000000D01*
X174696600Y-101776000D02*
X174655700Y-101866900D01*
X211479900Y-133047200D02*
X211563200Y-132991600D01*
X185207300Y-133971700D02*
X185294400Y-134020900D01*
X221837500Y-118697900D02*
X221863300Y-118602100D01*
X175353600Y-100432100D02*
X175307100Y-100520800D01*
X222709800Y-94539900D02*
X222709800Y-94440600D01*
X222709800Y-89063300D02*
X222709800Y-88963400D01*
X187011300Y-89331000D02*
X186920200Y-89373500D01*
X195862100Y-87058600D02*
X195761700Y-87065700D01*
X177428100Y-97139300D02*
X177368700Y-97219600D01*
X220013500Y-123447500D02*
X220058300Y-123358500D01*
X210512000Y-87000000D02*
X210412000Y-87000000D01*
X199056700Y-87000000D02*
X198956400Y-87000000D01*
X221580400Y-87000000D02*
X221480600Y-87000000D01*
X197592400Y-87000000D02*
X197591400Y-87000000D01*
X204239100Y-136343700D02*
X204335200Y-136317200D01*
X178486800Y-95812000D02*
X178422400Y-95887700D01*
X212302300Y-132476600D02*
X212383000Y-132417900D01*
X190530400Y-136226200D02*
X190626200Y-136254000D01*
X214619500Y-130580200D02*
X214692500Y-130512500D01*
X182400800Y-92113500D02*
X182321400Y-92174100D01*
X180911300Y-130893500D02*
X180986200Y-130959800D01*
X174119600Y-103160900D02*
X174084000Y-103254700D01*
X190368300Y-88054400D02*
X190273000Y-88083200D01*
X222709800Y-101314200D02*
X222709800Y-101214500D01*
X181439400Y-131350100D02*
X181516300Y-131414500D01*
X192762000Y-136768600D02*
X192859800Y-136787400D01*
X209948400Y-133988200D02*
X210034800Y-133939000D01*
X222709800Y-90655500D02*
X222709800Y-90555400D01*
X222709800Y-100917200D02*
X222709800Y-100817400D01*
X218830400Y-125530400D02*
X218883600Y-125446000D01*
X210212000Y-87000000D02*
X210112800Y-87000000D01*
X211309100Y-87000000D02*
X211209400Y-87000000D01*
X202881000Y-136674800D02*
X202978400Y-136653700D01*
X173718700Y-104292100D02*
X173688000Y-104386500D01*
X176790900Y-98036100D02*
X176735200Y-98118600D01*
X219145100Y-125019900D02*
X219196300Y-124934200D01*
X174265300Y-102788200D02*
X174228300Y-102881200D01*
X202143700Y-87000000D02*
X202044600Y-87000000D01*
X190655000Y-87970300D02*
X190559000Y-87998100D01*
X214296500Y-87000000D02*
X214197500Y-87000000D01*
X180056600Y-94135100D02*
X179984800Y-94205400D01*
X208263400Y-134859600D02*
X208353900Y-134816800D01*
X189012100Y-135728800D02*
X189106300Y-135762800D01*
X198956400Y-87000000D02*
X198857100Y-87000000D01*
X184292000Y-90806700D02*
X184207300Y-90860000D01*
X211806300Y-87000000D02*
X211707000Y-87000000D01*
X210412000Y-87000000D02*
X210311800Y-87000000D01*
X175021900Y-123147400D02*
X175066200Y-123237400D01*
X222616800Y-114280500D02*
X222625100Y-114181000D01*
X192400500Y-87537200D02*
X192302600Y-87558000D01*
X179962900Y-130005700D02*
X180034400Y-130075900D01*
X202939600Y-87000000D02*
X202840000Y-87000000D01*
X175431400Y-123947000D02*
X175478800Y-124035200D01*
X176389600Y-125585900D02*
X176443700Y-125670400D01*
X222709800Y-107495100D02*
X222709800Y-107395500D01*
X202341700Y-87000000D02*
X202242800Y-87000000D01*
X173979800Y-103536200D02*
X173945800Y-103630400D01*
X181464000Y-92861800D02*
X181387700Y-92926100D01*
X185033900Y-133872300D02*
X185120600Y-133922200D01*
X202391000Y-136774700D02*
X202488400Y-136755700D01*
X192467300Y-136709300D02*
X192565100Y-136729400D01*
X222709800Y-107895400D02*
X222709800Y-107795400D01*
X206327500Y-87000000D02*
X206227900Y-87000000D01*
X198026200Y-137228900D02*
X198126200Y-137227100D01*
X191233500Y-87811900D02*
X191136700Y-87837400D01*
X200913400Y-137015000D02*
X201012400Y-137001700D01*
X181135900Y-131090900D02*
X181211900Y-131156600D01*
X200119000Y-137107100D02*
X200218800Y-137096900D01*
X222709800Y-109988400D02*
X222709800Y-109888200D01*
X222709800Y-107197400D02*
X222709800Y-107097900D01*
X222709800Y-109289800D02*
X222709800Y-109190500D01*
X184861400Y-133771600D02*
X184947600Y-133822200D01*
X173166500Y-117989400D02*
X173189900Y-118086300D01*
X180836300Y-130826600D02*
X180911300Y-130893500D01*
X222709800Y-87665000D02*
X222709800Y-87565200D01*
X195430100Y-137140800D02*
X195529600Y-137149100D01*
X191980000Y-136603200D02*
X192077000Y-136625100D01*
X209513800Y-87000000D02*
X209414000Y-87000000D01*
X197724700Y-137232300D02*
X197825000Y-137231600D01*
X185848800Y-89908900D02*
X185761000Y-89955600D01*
X214839000Y-130375200D02*
X214911600Y-130306300D01*
X204734000Y-87000000D02*
X204633800Y-87000000D01*
X222709800Y-94141800D02*
X222709800Y-94041600D01*
X187556800Y-89085100D02*
X187465800Y-89125000D01*
X172734600Y-115733400D02*
X172749000Y-115831700D01*
X217080700Y-127961700D02*
X217143700Y-127884000D01*
X222709800Y-100318900D02*
X222709800Y-100218600D01*
X222709800Y-109589200D02*
X222709800Y-109489600D01*
X221496200Y-119847800D02*
X221526800Y-119752600D01*
X196759300Y-87013500D02*
X196660200Y-87017000D01*
X180762200Y-130759900D02*
X180836300Y-130826600D01*
X197855400Y-87000000D02*
X197753100Y-87000000D01*
X222709800Y-92547300D02*
X222709800Y-92447500D01*
X221434200Y-120037200D02*
X221465500Y-119942300D01*
X174072800Y-120948000D02*
X174108300Y-121041900D01*
X172615100Y-109457600D02*
X172604900Y-109556600D01*
X222690400Y-113084200D02*
X222694000Y-112984900D01*
X222480200Y-87000000D02*
X222379400Y-87000000D01*
X222709800Y-93244900D02*
X222709800Y-93144900D01*
X174481800Y-121967900D02*
X174521200Y-122059800D01*
X187465800Y-89125000D02*
X187374900Y-89165300D01*
X219876900Y-123713300D02*
X219923100Y-123624300D01*
X222299500Y-116655700D02*
X222317200Y-116557900D01*
X200516000Y-137064300D02*
X200614700Y-137052600D01*
X219247000Y-124848500D02*
X219297600Y-124762200D01*
X192890500Y-87439400D02*
X192792700Y-87458100D01*
X209913000Y-87000000D02*
X209813100Y-87000000D01*
X222709800Y-91848200D02*
X222709800Y-91749500D01*
X209422500Y-134277600D02*
X209510800Y-134230200D01*
X176038900Y-99214100D02*
X175987700Y-99299900D01*
X193152500Y-136841400D02*
X193250400Y-136858700D01*
X207222800Y-87000000D02*
X207122600Y-87000000D01*
X188450000Y-135516800D02*
X188543500Y-135553200D01*
X194436400Y-137036200D02*
X194535800Y-137048500D01*
X217330200Y-127650100D02*
X217391800Y-127571700D01*
X221180300Y-87000000D02*
X221079800Y-87000000D01*
X216101000Y-129094700D02*
X216168500Y-129020900D01*
X210552100Y-133635200D02*
X210637400Y-133583500D01*
X174993300Y-101143700D02*
X174949800Y-101233700D01*
X218936700Y-125361000D02*
X218989100Y-125276400D01*
X187740100Y-89006000D02*
X187648200Y-89045400D01*
X173313300Y-118571200D02*
X173339000Y-118667500D01*
X211729800Y-132878900D02*
X211812200Y-132822500D01*
X222709800Y-87160700D02*
X222709800Y-87034100D01*
X172644400Y-115040000D02*
X172656100Y-115138700D01*
X222709800Y-98423500D02*
X222709800Y-98324100D01*
X183429100Y-132861200D02*
X183511900Y-132917600D01*
X172479700Y-112550100D02*
X172481600Y-112650200D01*
X190463400Y-88026100D02*
X190368300Y-88054400D01*
X198424400Y-137219100D02*
X198523600Y-137215700D01*
X210710600Y-87000000D02*
X210611200Y-87000000D01*
X172794900Y-116128900D02*
X172810900Y-116227400D01*
X187801700Y-135252800D02*
X187894400Y-135291800D01*
X219641700Y-124153600D02*
X219689500Y-124065800D01*
X222709800Y-98623400D02*
X222709800Y-98523100D01*
X173189900Y-118086300D02*
X173213600Y-118182800D01*
X181825600Y-131668300D02*
X181903100Y-131730600D01*
X173120500Y-117794200D02*
X173143400Y-117892000D01*
X175970900Y-124904400D02*
X176022300Y-124990800D01*
X221879100Y-87000000D02*
X221779400Y-87000000D01*
X208518000Y-87000000D02*
X208418000Y-87000000D01*
X186262400Y-134538000D02*
X186351500Y-134582900D01*
X222709800Y-95635800D02*
X222709800Y-95536600D01*
X186351500Y-134582900D02*
X186440700Y-134627400D01*
X221645000Y-119371200D02*
X221673700Y-119275200D01*
X183927700Y-133193600D02*
X184011300Y-133247700D01*
X217017000Y-128039600D02*
X217080700Y-127961700D01*
X215340600Y-129888000D02*
X215410700Y-129817600D01*
X212602900Y-87000000D02*
X212503200Y-87000000D01*
X212903300Y-87000000D02*
X212803400Y-87000000D01*
X197459000Y-87000300D02*
X197358800Y-87001000D01*
X221986800Y-118119500D02*
X222010300Y-118022700D01*
X195164900Y-87115800D02*
X195064700Y-87125600D01*
X221028700Y-121166700D02*
X221064500Y-121073400D01*
X186560600Y-89546100D02*
X186470600Y-89590400D01*
X222709800Y-92347400D02*
X222709800Y-92247800D01*
X172494300Y-111150400D02*
X172490700Y-111249700D01*
X195330400Y-137132100D02*
X195430100Y-137140800D01*
X195032600Y-137103800D02*
X195132100Y-137113600D01*
X172476400Y-112248600D02*
X172477100Y-112348900D01*
X180467800Y-130489700D02*
X180540800Y-130557500D01*
X197225900Y-137230000D02*
X197326000Y-137231200D01*
X178230200Y-96117300D02*
X178166700Y-96194300D01*
X196459600Y-87025100D02*
X196359500Y-87029700D01*
X201446700Y-87000000D02*
X201347700Y-87000000D01*
X222384000Y-116165400D02*
X222399900Y-116066200D01*
X222709800Y-89261600D02*
X222709800Y-89162600D01*
X187526000Y-135134000D02*
X187617900Y-135174000D01*
X209215300Y-87000000D02*
X209115100Y-87000000D01*
X220320100Y-122820500D02*
X220362500Y-122730000D01*
X214395700Y-87000000D02*
X214296500Y-87000000D01*
X203936300Y-87000000D02*
X203837100Y-87000000D01*
X222709800Y-87863900D02*
X222709800Y-87764200D01*
X222709800Y-92247800D02*
X222709800Y-92148400D01*
X193974300Y-87258600D02*
X193876100Y-87273000D01*
X192077000Y-136625100D02*
X192174100Y-136646700D01*
X173262700Y-118377200D02*
X173287800Y-118474400D01*
X222709800Y-108493300D02*
X222709800Y-108393500D01*
X185936600Y-89862600D02*
X185848800Y-89908900D01*
X216988900Y-87000000D02*
X216889500Y-87000000D01*
X178994300Y-128996800D02*
X179061800Y-129070700D01*
X176886700Y-126336700D02*
X176943200Y-126418500D01*
X174521200Y-122059800D02*
X174560900Y-122151200D01*
X172698100Y-108761800D02*
X172685100Y-108860900D01*
X172711500Y-108663100D02*
X172698100Y-108761800D01*
X203537500Y-87000000D02*
X203437900Y-87000000D01*
X219881400Y-87000000D02*
X219782100Y-87000000D01*
X174737900Y-101685100D02*
X174696600Y-101776000D01*
X212463100Y-132359200D02*
X212543000Y-132300200D01*
X202096200Y-136829900D02*
X202194900Y-136811900D01*
X179610800Y-129651800D02*
X179681100Y-129723500D01*
X194336900Y-137023600D02*
X194436400Y-137036200D01*
X194039800Y-136983300D02*
X194139100Y-136997200D01*
X178948400Y-95286500D02*
X178881800Y-95360500D01*
X221757100Y-118987900D02*
X221784300Y-118891400D01*
X222709800Y-89860400D02*
X222709800Y-89760200D01*
X220280500Y-87000000D02*
X220180800Y-87000000D01*
X176661900Y-126004400D02*
X176717600Y-126087800D01*
X222709800Y-89560600D02*
X222709800Y-89460500D01*
X180540800Y-130557500D02*
X180614700Y-130625600D01*
X192792700Y-87458100D02*
X192695200Y-87477100D01*
X219682400Y-87000000D02*
X219583100Y-87000000D01*
X222279000Y-87000000D02*
X222179100Y-87000000D01*
X203270000Y-136588200D02*
X203367800Y-136565400D01*
X216192300Y-87000000D02*
X216092600Y-87000000D01*
X222702400Y-112684300D02*
X222704400Y-112584300D01*
X174048900Y-103348300D02*
X174014100Y-103442400D01*
X222709800Y-104503200D02*
X222709800Y-104402900D01*
X222709800Y-99719800D02*
X222709800Y-99620100D01*
X212803400Y-87000000D02*
X212703000Y-87000000D01*
X210806600Y-133479500D02*
X210891600Y-133426600D01*
X173213600Y-118182800D02*
X173237800Y-118279600D01*
X178209100Y-128089700D02*
X178273300Y-128167300D01*
X179334200Y-129363700D02*
X179403100Y-129436300D01*
X222709800Y-97926000D02*
X222709800Y-97826000D01*
X222709800Y-111990800D02*
X222709800Y-111888800D01*
X173901900Y-120479000D02*
X173935500Y-120573600D01*
X200614700Y-137052600D02*
X200714100Y-137040500D01*
X185468900Y-134118200D02*
X185556300Y-134166200D01*
X220609500Y-122184100D02*
X220649500Y-122092200D01*
X222709800Y-95138600D02*
X222709800Y-95039300D01*
X208119500Y-87000000D02*
X208020200Y-87000000D01*
X222459100Y-115670700D02*
X222473000Y-115571500D01*
X196725800Y-137217900D02*
X196825600Y-137221100D01*
X172544100Y-110253200D02*
X172537100Y-110352300D01*
X222709800Y-97726700D02*
X222709800Y-97627400D01*
X220081200Y-87000000D02*
X219981400Y-87000000D01*
X174180100Y-121228400D02*
X174216300Y-121321000D01*
X222709800Y-99221100D02*
X222709800Y-99121800D01*
X182480800Y-92052900D02*
X182400800Y-92113500D01*
X185148800Y-90294200D02*
X185062500Y-90343800D01*
X222709800Y-87464600D02*
X222709800Y-87363700D01*
X180986200Y-130959800D02*
X181060900Y-131025400D01*
X172833100Y-107872300D02*
X172816700Y-107970300D01*
X214397500Y-130782500D02*
X214472100Y-130715000D01*
X182454800Y-132160100D02*
X182535100Y-132220500D01*
X176335700Y-125500900D02*
X176389600Y-125585900D01*
X222633000Y-114081400D02*
X222640500Y-113981400D01*
X194834500Y-137082900D02*
X194933600Y-137093600D01*
X172582400Y-114443100D02*
X172591800Y-114542800D01*
X204334800Y-87000000D02*
X204234800Y-87000000D01*
X174600800Y-122242200D02*
X174641100Y-122333100D01*
X211010800Y-87000000D02*
X210910800Y-87000000D01*
X187434500Y-135093700D02*
X187526000Y-135134000D01*
X197558300Y-87000000D02*
X197459000Y-87000300D01*
X218985000Y-87000000D02*
X218885100Y-87000000D01*
X189228900Y-88426100D02*
X189134300Y-88459700D01*
X180491200Y-93721100D02*
X180417900Y-93789500D01*
X175936900Y-99385600D02*
X175886300Y-99471800D01*
X173688000Y-104386500D02*
X173657400Y-104481700D01*
X207075200Y-135380800D02*
X207167500Y-135343000D01*
X179681100Y-129723500D02*
X179751300Y-129794700D01*
X192011200Y-87622300D02*
X191913700Y-87644600D01*
X218108400Y-126608600D02*
X218165900Y-126527000D01*
X221586500Y-119562500D02*
X221615900Y-119467100D01*
X222709800Y-104402900D02*
X222709800Y-104302700D01*
X216631900Y-128497600D02*
X216697000Y-128421800D01*
X185322100Y-90196100D02*
X185235200Y-90245100D01*
X197326000Y-137231200D02*
X197426300Y-137232100D01*
X179082700Y-95139000D02*
X179015200Y-95212800D01*
X185120600Y-133922200D02*
X185207300Y-133971700D01*
X175886300Y-99471800D02*
X175836200Y-99558100D01*
X173473900Y-119148900D02*
X173502000Y-119244500D01*
X222709800Y-94440600D02*
X222709800Y-94340800D01*
X172476200Y-112049800D02*
X172476100Y-112149300D01*
X222709800Y-108193900D02*
X222709800Y-108094300D01*
X221779400Y-87000000D02*
X221680000Y-87000000D01*
X210810500Y-87000000D02*
X210710600Y-87000000D01*
X178683000Y-95585100D02*
X178617500Y-95660200D01*
X182375300Y-132099700D02*
X182454800Y-132160100D01*
X222709800Y-106098900D02*
X222709800Y-105999300D01*
X172573500Y-114344100D02*
X172582400Y-114443100D01*
X194237800Y-137010500D02*
X194336900Y-137023600D01*
X172800400Y-108069200D02*
X172784600Y-108168300D01*
X222709800Y-99022300D02*
X222709800Y-98921900D01*
X174442600Y-121875400D02*
X174481800Y-121967900D01*
X172530400Y-110451900D02*
X172524000Y-110551800D01*
X173813900Y-104007400D02*
X173781700Y-104102500D01*
X177409000Y-127067500D02*
X177468700Y-127147600D01*
X194270300Y-87217700D02*
X194171300Y-87231000D01*
X222709800Y-89360500D02*
X222709800Y-89261600D01*
X188201100Y-88814600D02*
X188108400Y-88852200D01*
X220679400Y-87000000D02*
X220579900Y-87000000D01*
X172486600Y-112849300D02*
X172489600Y-112948400D01*
X173287800Y-118474400D02*
X173313300Y-118571200D01*
X222599000Y-114479700D02*
X222608100Y-114380200D01*
X190944500Y-87889200D02*
X190848400Y-87915700D01*
X174416800Y-102418500D02*
X174378300Y-102510700D01*
X172754200Y-108365600D02*
X172739600Y-108464900D01*
X179891800Y-129935300D02*
X179962900Y-130005700D01*
X174892100Y-122878400D02*
X174935100Y-122968400D01*
X222709800Y-102510400D02*
X222709800Y-102411200D01*
X222708600Y-112184800D02*
X222708700Y-112118400D01*
X197525900Y-137232500D02*
X197625400Y-137232600D01*
X222709800Y-105500900D02*
X222709800Y-105401200D01*
X214472100Y-130715000D02*
X214546100Y-130647600D01*
X186025000Y-89816400D02*
X185936600Y-89862600D01*
X173221600Y-106017600D02*
X173197600Y-106114900D01*
X219736800Y-123978100D02*
X219783800Y-123890000D01*
X222709800Y-107695100D02*
X222709800Y-107594800D01*
X222709800Y-106397200D02*
X222709800Y-106297800D01*
X199853900Y-87000000D02*
X199755000Y-87000000D01*
X207626800Y-135148000D02*
X207717800Y-135108100D01*
X210013400Y-87000000D02*
X209913000Y-87000000D01*
X173143400Y-117892000D02*
X173166500Y-117989400D01*
X189768000Y-135989900D02*
X189862400Y-136020600D01*
X222709800Y-110287400D02*
X222709800Y-110187400D01*
X222709800Y-97029200D02*
X222709800Y-96929700D01*
X222709800Y-91253800D02*
X222709800Y-91153300D01*
X178881800Y-95360500D02*
X178814900Y-95435600D01*
X172516200Y-113547400D02*
X172521900Y-113646500D01*
X189986000Y-88172400D02*
X189891300Y-88202700D01*
X184037700Y-90967900D02*
X183953800Y-91022000D01*
X189322800Y-88393200D02*
X189228900Y-88426100D01*
X216235300Y-128947300D02*
X216301900Y-128873200D01*
X183843700Y-133138800D02*
X183927700Y-133193600D01*
X172487600Y-111349500D02*
X172484800Y-111449600D01*
X206824600Y-87000000D02*
X206725300Y-87000000D01*
X207717800Y-135108100D02*
X207808700Y-135067800D01*
X222709800Y-104302700D02*
X222709800Y-104202600D01*
X206143400Y-135739400D02*
X206237100Y-135705300D01*
X190751500Y-87942900D02*
X190655000Y-87970300D01*
X222709800Y-91353300D02*
X222709800Y-91253800D01*
X174340200Y-102603300D02*
X174302500Y-102695800D01*
X212057500Y-132651500D02*
X212139200Y-132593600D01*
X218586700Y-87000000D02*
X218487000Y-87000000D01*
X222709800Y-104704200D02*
X222709800Y-104603700D01*
X206924100Y-87000000D02*
X206824600Y-87000000D01*
X217695900Y-127174600D02*
X217755700Y-127094600D01*
X188387000Y-88740500D02*
X188294400Y-88777200D01*
X222709800Y-100518200D02*
X222709800Y-100418900D01*
X172481600Y-112650200D02*
X172483900Y-112749900D01*
X173365100Y-118763400D02*
X173391600Y-118859400D01*
X194964900Y-87135800D02*
X194865400Y-87146300D01*
X221064500Y-121073400D02*
X221100100Y-120979600D01*
X221784300Y-118891400D02*
X221811200Y-118794500D01*
X222709800Y-108592600D02*
X222709800Y-108493300D01*
X202586100Y-136736200D02*
X202684800Y-136716000D01*
X213999500Y-87000000D02*
X213899800Y-87000000D01*
X217575000Y-127334400D02*
X217635400Y-127254900D01*
X216953600Y-128116600D02*
X217017000Y-128039600D01*
X222709800Y-111187900D02*
X222709800Y-111088500D01*
X220778900Y-87000000D02*
X220679400Y-87000000D01*
X184689900Y-133669600D02*
X184775600Y-133720800D01*
X175125700Y-100875600D02*
X175081200Y-100964900D01*
X209713800Y-87000000D02*
X209614200Y-87000000D01*
X190818900Y-136308700D02*
X190915800Y-136335500D01*
X177075400Y-97625400D02*
X177018000Y-97706900D01*
X198057000Y-87000000D02*
X197956100Y-87000000D01*
X221402500Y-120131900D02*
X221434200Y-120037200D01*
X176679800Y-98201200D02*
X176624600Y-98284500D01*
X222709800Y-106297800D02*
X222709800Y-106198400D01*
X222709800Y-101613700D02*
X222709800Y-101514100D01*
X198623600Y-137211800D02*
X198724100Y-137207600D01*
X172680800Y-115338000D02*
X172693700Y-115437500D01*
X193480400Y-87334900D02*
X193382200Y-87351300D01*
X194535800Y-137048500D02*
X194635200Y-137060400D01*
X188294400Y-88777200D02*
X188201100Y-88814600D01*
X180128400Y-94065200D02*
X180056600Y-94135100D01*
X204815300Y-136178500D02*
X204910600Y-136149700D01*
X222709800Y-101214500D02*
X222709800Y-101115100D01*
X212205500Y-87000000D02*
X212105900Y-87000000D01*
X214098800Y-131047400D02*
X214174000Y-130981500D01*
X192663500Y-136749200D02*
X192762000Y-136768600D01*
X218487000Y-87000000D02*
X218387000Y-87000000D01*
X212221000Y-132535100D02*
X212302300Y-132476600D01*
X216690500Y-87000000D02*
X216591000Y-87000000D01*
X175384600Y-123859300D02*
X175431400Y-123947000D01*
X214594700Y-87000000D02*
X214495100Y-87000000D01*
X201703300Y-136897800D02*
X201801400Y-136881500D01*
X221615900Y-119467100D02*
X221645000Y-119371200D01*
X201347700Y-87000000D02*
X201247800Y-87000000D01*
X204046900Y-136395500D02*
X204143200Y-136369800D01*
X197057500Y-87005600D02*
X196957800Y-87007800D01*
X180786100Y-93451100D02*
X180711500Y-93518600D01*
X172636900Y-109258600D02*
X172625800Y-109358500D01*
X218559300Y-125949500D02*
X218614200Y-125866100D01*
X222709800Y-101911300D02*
X222709800Y-101811900D01*
X183787200Y-91130900D02*
X183703700Y-91186200D01*
X205578000Y-135936500D02*
X205672700Y-135904500D01*
X184095100Y-133301400D02*
X184179400Y-133355000D01*
X221465500Y-119942300D02*
X221496200Y-119847800D01*
X175260900Y-100609800D02*
X175215500Y-100698300D01*
X172902900Y-107481200D02*
X172884900Y-107578800D01*
X209115100Y-87000000D02*
X209015500Y-87000000D01*
X185381400Y-134069700D02*
X185468900Y-134118200D01*
X183347000Y-132804800D02*
X183429100Y-132861200D01*
X192859800Y-136787400D02*
X192957100Y-136805800D01*
X213098300Y-131876100D02*
X213176700Y-131814200D01*
X179424300Y-94774100D02*
X179355100Y-94846900D01*
X222709800Y-90854400D02*
X222709800Y-90755400D01*
X186829700Y-89416300D02*
X186739600Y-89459300D01*
X219782100Y-87000000D02*
X219682400Y-87000000D01*
X182242600Y-92234800D02*
X182164000Y-92295800D01*
X180272000Y-93927400D02*
X180200100Y-93996200D01*
X222709800Y-106898400D02*
X222709800Y-106798400D01*
X173502000Y-119244500D02*
X173530300Y-119339600D01*
X172476600Y-111950200D02*
X172476200Y-112049800D01*
X174216300Y-121321000D02*
X174253000Y-121413600D01*
X180688600Y-130693100D02*
X180762200Y-130759900D01*
X222709800Y-88564800D02*
X222709800Y-88464300D01*
X222647600Y-113882300D02*
X222654300Y-113782700D01*
X179843100Y-94345700D02*
X179773000Y-94416100D01*
X207921000Y-87000000D02*
X207821200Y-87000000D01*
X222709800Y-99620100D02*
X222709800Y-99520900D01*
X194635200Y-137060400D02*
X194734700Y-137071800D01*
X177710500Y-127465600D02*
X177771500Y-127544200D01*
X172693700Y-115437500D02*
X172707000Y-115536500D01*
X210722100Y-133531700D02*
X210806600Y-133479500D01*
X222582200Y-87000000D02*
X222480200Y-87000000D01*
X172541700Y-113946000D02*
X172549100Y-114046100D01*
X206611100Y-135564800D02*
X206704100Y-135528800D01*
X214765800Y-130444100D02*
X214839000Y-130375200D01*
X198325400Y-137222100D02*
X198424400Y-137219100D01*
X172656100Y-115138700D02*
X172668200Y-115238200D01*
X174084000Y-103254700D02*
X174048900Y-103348300D01*
X222709800Y-98921900D02*
X222709800Y-98822000D01*
X222709800Y-90059500D02*
X222709800Y-89960400D01*
X222709800Y-103903400D02*
X222709800Y-103804000D01*
X222709800Y-91650500D02*
X222709800Y-91551400D01*
X222707300Y-112384800D02*
X222708200Y-112284500D01*
X175066200Y-123237400D02*
X175110700Y-123326900D01*
X221673700Y-119275200D02*
X221701800Y-119179900D01*
X211145900Y-133265400D02*
X211229800Y-133211300D01*
X181516300Y-131414500D02*
X181593000Y-131478200D01*
X191136700Y-87837400D02*
X191040400Y-87863200D01*
X201645400Y-87000000D02*
X201545800Y-87000000D01*
X176497800Y-125754400D02*
X176552000Y-125837700D01*
X204335200Y-136317200D02*
X204432100Y-136290100D01*
X191621500Y-87714000D02*
X191525000Y-87737700D01*
X186799200Y-134801800D02*
X186889500Y-134844600D01*
X216889500Y-87000000D02*
X216790100Y-87000000D01*
X182085300Y-92357400D02*
X182006900Y-92419300D01*
X172501100Y-113248000D02*
X172505800Y-113348200D01*
X209686000Y-134134700D02*
X209774000Y-134086000D01*
X184603800Y-133617700D02*
X184689900Y-133669600D01*
X194072600Y-87244700D02*
X193974300Y-87258600D01*
X208713000Y-134642800D02*
X208802500Y-134598300D01*
X221380300Y-87000000D02*
X221280600Y-87000000D01*
X182296000Y-132039000D02*
X182375300Y-132099700D01*
X221280600Y-87000000D02*
X221180300Y-87000000D01*
X213600200Y-87000000D02*
X213500000Y-87000000D01*
X210207800Y-133839300D02*
X210293900Y-133788900D01*
X189106300Y-135762800D02*
X189200200Y-135796300D01*
X222709800Y-97229200D02*
X222709800Y-97129500D01*
X172556900Y-114145800D02*
X172565000Y-114245100D01*
X201012400Y-137001700D02*
X201111100Y-136988100D01*
X189605600Y-88296500D02*
X189510900Y-88328500D01*
X206128700Y-87000000D02*
X206029300Y-87000000D01*
X215295900Y-87000000D02*
X215195400Y-87000000D01*
X217755700Y-127094600D02*
X217815200Y-127014300D01*
X222709800Y-100019300D02*
X222709800Y-99920000D01*
X206725300Y-87000000D02*
X206625700Y-87000000D01*
X176735200Y-98118600D02*
X176679800Y-98201200D01*
X172518100Y-110650800D02*
X172512600Y-110750200D01*
X180200100Y-93996200D02*
X180128400Y-94065200D01*
X190722400Y-136281500D02*
X190818900Y-136308700D01*
X213565100Y-131500200D02*
X213642700Y-131436000D01*
X205387200Y-135999600D02*
X205482900Y-135968200D01*
X192695200Y-87477100D02*
X192597500Y-87496700D01*
X222709800Y-90257400D02*
X222709800Y-90158400D01*
X206982400Y-135418500D02*
X207075200Y-135380800D01*
X188543500Y-135553200D02*
X188636800Y-135589000D01*
X222709800Y-99421500D02*
X222709800Y-99321000D01*
X222709800Y-109090800D02*
X222709800Y-108991500D01*
X222709800Y-96630700D02*
X222709800Y-96530500D01*
X210034800Y-133939000D02*
X210121100Y-133889500D01*
X216168500Y-129020900D02*
X216235300Y-128947300D01*
X189416600Y-88360700D02*
X189322800Y-88393200D01*
X218448700Y-126115400D02*
X218504000Y-126032800D01*
X193382200Y-87351300D02*
X193284500Y-87368000D01*
X221962700Y-118216800D02*
X221986800Y-118119500D01*
X215828600Y-129386800D02*
X215897200Y-129314200D01*
X176073900Y-125076600D02*
X176125500Y-125161900D01*
X197157600Y-87003700D02*
X197057500Y-87005600D01*
X172921300Y-107383800D02*
X172902900Y-107481200D01*
X196160300Y-87040100D02*
X196061200Y-87045900D01*
X193742900Y-136939500D02*
X193841600Y-136954400D01*
X200552700Y-87000000D02*
X200452700Y-87000000D01*
X212304700Y-87000000D02*
X212205500Y-87000000D01*
X178040100Y-96349900D02*
X177977800Y-96427300D01*
X200018800Y-137116900D02*
X200119000Y-137107100D01*
X173772300Y-120102400D02*
X173804300Y-120197100D01*
X172537100Y-110352300D02*
X172530400Y-110451900D01*
X210637400Y-133583500D02*
X210722100Y-133531700D01*
X178020000Y-127857800D02*
X178082500Y-127935200D01*
X184179400Y-133355000D02*
X184263900Y-133408200D01*
X178814900Y-95435600D02*
X178748600Y-95510400D01*
X185907900Y-134354900D02*
X185996600Y-134401400D01*
X219968500Y-123535900D02*
X220013500Y-123447500D01*
X220918800Y-121446100D02*
X220955800Y-121353000D01*
X203737100Y-87000000D02*
X203637200Y-87000000D01*
X216500800Y-128648700D02*
X216566200Y-128573600D01*
X175574400Y-124210500D02*
X175623000Y-124298500D01*
X189483300Y-135894700D02*
X189578400Y-135927000D01*
X222709800Y-93443800D02*
X222709800Y-93344100D01*
X193644300Y-136924100D02*
X193742900Y-136939500D01*
X183101100Y-132633000D02*
X183182700Y-132690500D01*
X218685900Y-87000000D02*
X218586700Y-87000000D01*
X182137900Y-131916400D02*
X182216600Y-131977600D01*
X182059500Y-131854900D02*
X182137900Y-131916400D01*
X222317200Y-116557900D02*
X222334500Y-116460100D01*
X172725400Y-108563800D02*
X172711500Y-108663100D01*
X222709800Y-101115100D02*
X222709800Y-101016200D01*
X220843900Y-121631000D02*
X220881600Y-121538500D01*
X222709800Y-110988900D02*
X222709800Y-110889100D01*
X222709800Y-96033700D02*
X222709800Y-95934300D01*
X195962100Y-87052000D02*
X195862100Y-87058600D01*
X173197600Y-106114900D02*
X173174000Y-106211700D01*
X201147600Y-87000000D02*
X201048000Y-87000000D01*
X198556500Y-87000000D02*
X198456300Y-87000000D01*
X206426800Y-87000000D02*
X206327500Y-87000000D01*
X205431400Y-87000000D02*
X205331900Y-87000000D01*
X175170500Y-100786600D02*
X175125700Y-100875600D01*
X222682000Y-113284400D02*
X222686400Y-113184200D01*
X210379900Y-133738200D02*
X210466300Y-133686800D01*
X191330600Y-87786800D02*
X191233500Y-87811900D01*
X222709800Y-97627400D02*
X222709800Y-97527400D01*
X222709800Y-89162600D02*
X222709800Y-89063300D01*
X222709800Y-109489600D02*
X222709800Y-109389800D01*
X207259200Y-135304900D02*
X207351000Y-135266300D01*
X211110100Y-87000000D02*
X211010800Y-87000000D01*
X216301900Y-128873200D02*
X216368900Y-128798200D01*
X222709800Y-94839300D02*
X222709800Y-94739800D01*
X202044600Y-87000000D02*
X201945500Y-87000000D01*
X174155400Y-103067600D02*
X174119600Y-103160900D01*
X195462600Y-87089000D02*
X195363700Y-87097500D01*
X194933600Y-137093600D02*
X195032600Y-137103800D01*
X204528600Y-136262600D02*
X204624600Y-136234900D01*
X222709800Y-100817400D02*
X222709800Y-100717200D01*
X204432100Y-136290100D02*
X204528600Y-136262600D01*
X178466100Y-128396300D02*
X178530600Y-128471800D01*
X203637200Y-87000000D02*
X203537500Y-87000000D01*
X179061800Y-129070700D02*
X179129200Y-129144100D01*
X190147700Y-136110900D02*
X190243100Y-136140300D01*
X222677300Y-113384300D02*
X222682000Y-113284400D01*
X208891400Y-134553600D02*
X208980300Y-134508500D01*
X176142900Y-99042300D02*
X176090800Y-99128000D01*
X213642700Y-131436000D02*
X213719700Y-131371700D01*
X205860800Y-135839900D02*
X205954700Y-135806900D01*
X222709800Y-98124400D02*
X222709800Y-98025200D01*
X174655700Y-101866900D02*
X174614800Y-101958700D01*
X219297600Y-124762200D02*
X219347700Y-124676000D01*
X203238500Y-87000000D02*
X203139500Y-87000000D01*
X200651800Y-87000000D02*
X200552700Y-87000000D01*
X188016100Y-88890100D02*
X187924400Y-88928200D01*
X222709800Y-105401200D02*
X222709800Y-105301500D01*
X222709800Y-91551400D02*
X222709800Y-91452300D01*
X218393000Y-126197800D02*
X218448700Y-126115400D01*
X205672700Y-135904500D02*
X205767000Y-135872300D01*
X213019600Y-131937700D02*
X213098300Y-131876100D01*
X173040600Y-106796200D02*
X173019700Y-106894200D01*
X177608800Y-96899500D02*
X177548400Y-96979000D01*
X220146900Y-123180200D02*
X220190700Y-123090400D01*
X176300300Y-98788100D02*
X176247200Y-98873100D01*
X222709800Y-105102300D02*
X222709800Y-105002800D01*
X175770000Y-124559300D02*
X175819500Y-124645600D01*
X172934000Y-116915100D02*
X172953100Y-117012600D01*
X172648300Y-109159200D02*
X172636900Y-109258600D01*
X222399900Y-116066200D02*
X222415300Y-115967600D01*
X172622300Y-114842300D02*
X172633200Y-114941400D01*
X222709800Y-105700300D02*
X222709800Y-105600600D01*
X173295600Y-105728300D02*
X173270600Y-105824500D01*
X205531400Y-87000000D02*
X205431400Y-87000000D01*
X172490700Y-111249700D02*
X172487600Y-111349500D01*
X221271900Y-120510000D02*
X221305100Y-120415700D01*
X222709800Y-91749500D02*
X222709800Y-91650500D01*
X173346800Y-105536500D02*
X173321000Y-105632300D01*
X172477100Y-112348900D02*
X172478200Y-112449700D01*
X184975800Y-90394000D02*
X184889700Y-90444300D01*
X188666000Y-88632500D02*
X188572500Y-88668200D01*
X220955800Y-121353000D02*
X220992400Y-121260100D01*
X222244300Y-116948400D02*
X222263200Y-116850700D01*
X208617200Y-87000000D02*
X208518000Y-87000000D01*
X212403800Y-87000000D02*
X212304700Y-87000000D01*
X208318700Y-87000000D02*
X208219400Y-87000000D01*
X189294500Y-135829500D02*
X189388400Y-135862200D01*
X220058300Y-123358500D02*
X220102900Y-123269200D01*
X205482900Y-135968200D02*
X205578000Y-135936500D01*
X172878800Y-116620400D02*
X172896900Y-116719100D01*
X215195400Y-87000000D02*
X215094900Y-87000000D01*
X217514400Y-127413600D02*
X217575000Y-127334400D01*
X221811200Y-118794500D02*
X221837500Y-118697900D01*
X181009600Y-93252100D02*
X180935000Y-93318000D01*
X174037900Y-120854700D02*
X174072800Y-120948000D01*
X183511900Y-132917600D02*
X183594400Y-132973300D01*
X216591000Y-87000000D02*
X216491300Y-87000000D01*
X185409600Y-90147300D02*
X185322100Y-90196100D01*
X172611800Y-114742900D02*
X172622300Y-114842300D01*
X215551300Y-129675000D02*
X215620900Y-129603600D01*
X206704100Y-135528800D02*
X206796600Y-135492600D01*
X196259700Y-87034700D02*
X196160300Y-87040100D01*
X179403100Y-129436300D02*
X179471900Y-129508200D01*
X173391600Y-118859400D02*
X173418700Y-118956400D01*
X186381100Y-89634900D02*
X186292200Y-89679600D01*
X222367800Y-116264200D02*
X222384000Y-116165400D01*
X191300400Y-136438000D02*
X191396700Y-136462700D01*
X180711500Y-93518600D02*
X180637600Y-93586000D01*
X199157100Y-87000000D02*
X199056700Y-87000000D01*
X222708700Y-112118400D02*
X222709800Y-112118400D01*
X172521900Y-113646500D02*
X172528100Y-113745600D01*
X209510800Y-134230200D02*
X209598400Y-134182700D01*
X191108200Y-136387600D02*
X191204300Y-136413000D01*
X173427200Y-105246500D02*
X173400000Y-105343000D01*
X218885100Y-87000000D02*
X218785500Y-87000000D01*
X222709800Y-95039300D02*
X222709800Y-94939300D01*
X213410600Y-131626700D02*
X213487600Y-131563900D01*
X184631500Y-90598100D02*
X184546200Y-90649800D01*
X211563200Y-132991600D02*
X211646800Y-132935300D01*
X222709800Y-103208500D02*
X222709800Y-103108700D01*
X214694500Y-87000000D02*
X214594700Y-87000000D01*
X178401800Y-128320600D02*
X178466100Y-128396300D01*
X222709800Y-102111200D02*
X222709800Y-102011100D01*
X199221600Y-137180600D02*
X199321600Y-137174000D01*
X205197600Y-136060600D02*
X205292300Y-136030300D01*
X172769200Y-108266900D02*
X172754200Y-108365600D01*
X222709800Y-104603700D02*
X222709800Y-104503200D01*
X196925700Y-137223900D02*
X197026400Y-137226400D01*
X219545100Y-124328500D02*
X219593600Y-124241000D01*
X213176700Y-131814200D02*
X213255300Y-131751700D01*
X222709800Y-90356200D02*
X222709800Y-90257400D01*
X211608000Y-87000000D02*
X211509100Y-87000000D01*
X179471900Y-129508200D02*
X179541000Y-129579900D01*
X187161000Y-134970700D02*
X187251800Y-135012000D01*
X212862200Y-132059400D02*
X212941000Y-131998700D01*
X204036000Y-87000000D02*
X203936300Y-87000000D01*
X191204300Y-136413000D02*
X191300400Y-136438000D01*
X177771500Y-127544200D02*
X177833100Y-127622900D01*
X185819900Y-134308400D02*
X185907900Y-134354900D01*
X188946500Y-88527700D02*
X188853300Y-88562100D01*
X222709800Y-107097900D02*
X222709800Y-106998300D01*
X222709800Y-109688900D02*
X222709800Y-109589200D01*
X201801400Y-136881500D02*
X201899100Y-136864800D01*
X219084900Y-87000000D02*
X218985000Y-87000000D01*
X199422000Y-137167000D02*
X199522100Y-137159600D01*
X175155300Y-123415900D02*
X175200400Y-123504800D01*
X174494900Y-102233900D02*
X174455800Y-102325900D01*
X194139100Y-136997200D02*
X194237800Y-137010500D01*
X220569200Y-122275500D02*
X220609500Y-122184100D01*
X215759400Y-129459600D02*
X215828600Y-129386800D01*
X173150700Y-106309300D02*
X173127900Y-106406800D01*
X203853000Y-136446100D02*
X203950200Y-136420900D01*
X222709800Y-94340800D02*
X222709800Y-94241300D01*
X222709800Y-88264700D02*
X222709800Y-88164900D01*
X222709800Y-87034100D02*
X222709800Y-87000000D01*
X217992000Y-126771600D02*
X218050600Y-126690000D01*
X222709800Y-110387700D02*
X222709800Y-110287400D01*
X201745500Y-87000000D02*
X201645400Y-87000000D01*
X200417300Y-137075500D02*
X200516000Y-137064300D01*
X206029300Y-87000000D02*
X205930300Y-87000000D01*
X222709800Y-96830300D02*
X222709800Y-96730400D01*
X182164000Y-92295800D02*
X182085300Y-92357400D01*
X185062500Y-90343800D02*
X184975800Y-90394000D01*
X172850000Y-107774400D02*
X172833100Y-107872300D01*
X209861500Y-134037200D02*
X209948400Y-133988200D01*
X217933500Y-126852600D02*
X217992000Y-126771600D01*
X195729200Y-137164600D02*
X195828400Y-137171600D01*
X207991300Y-134985500D02*
X208081800Y-134944100D01*
X210611200Y-87000000D02*
X210512000Y-87000000D01*
X182776400Y-132399300D02*
X182857100Y-132458100D01*
X222709800Y-104903300D02*
X222709800Y-104804000D01*
X217453000Y-127493100D02*
X217514400Y-127413600D01*
X174365900Y-121691800D02*
X174404000Y-121783600D01*
X214174000Y-130981500D02*
X214248600Y-130915600D01*
X222033600Y-117925100D02*
X222056500Y-117827700D01*
X175478800Y-124035200D02*
X175526400Y-124122900D01*
X173013100Y-117307300D02*
X173033900Y-117405200D01*
X222709800Y-87764200D02*
X222709800Y-87665000D01*
X200849700Y-87000000D02*
X200750700Y-87000000D01*
X179015200Y-95212800D02*
X178948400Y-95286500D01*
X180417900Y-93789500D02*
X180344600Y-93858500D01*
X189700700Y-88264800D02*
X189605600Y-88296500D01*
X174978300Y-123057900D02*
X175021900Y-123147400D01*
X208219400Y-87000000D02*
X208119500Y-87000000D01*
X218336600Y-126280600D02*
X218393000Y-126197800D01*
X178926800Y-128922100D02*
X178994300Y-128996800D01*
X193054700Y-136823800D02*
X193152500Y-136841400D01*
X207721500Y-87000000D02*
X207621200Y-87000000D01*
X203437900Y-87000000D02*
X203338300Y-87000000D01*
X201111100Y-136988100D02*
X201209300Y-136974100D01*
X222709800Y-107995100D02*
X222709800Y-107895400D01*
X177853600Y-96583700D02*
X177792000Y-96662100D01*
X216790100Y-87000000D02*
X216690500Y-87000000D01*
X222709800Y-101811900D02*
X222709800Y-101712800D01*
X198724100Y-137207600D02*
X198824200Y-137202900D01*
X214983600Y-130237500D02*
X215055300Y-130168400D01*
X222709800Y-110187400D02*
X222709800Y-110087900D01*
X222709800Y-110488300D02*
X222709800Y-110387700D01*
X203658600Y-136495100D02*
X203755300Y-136470900D01*
X175110700Y-123326900D02*
X175155300Y-123415900D01*
X222709800Y-93842500D02*
X222709800Y-93742600D01*
X222709800Y-104102700D02*
X222709800Y-104003000D01*
X222709800Y-102908200D02*
X222709800Y-102808400D01*
X183208000Y-91524400D02*
X183126100Y-91581900D01*
X172633200Y-114941400D02*
X172644400Y-115040000D01*
X191525000Y-87737700D02*
X191428300Y-87762000D01*
X222709800Y-111487500D02*
X222709800Y-111387500D01*
X222709800Y-88164900D02*
X222709800Y-88064400D01*
X222709800Y-97428200D02*
X222709800Y-97329000D01*
X205331900Y-87000000D02*
X205231900Y-87000000D01*
X204143200Y-136369800D02*
X204239100Y-136343700D01*
X222709800Y-101414400D02*
X222709800Y-101314200D01*
X222499400Y-115373600D02*
X222512100Y-115274200D01*
X188572500Y-88668200D02*
X188479500Y-88704300D01*
X172827200Y-116325500D02*
X172843900Y-116423300D01*
X181850400Y-92544300D02*
X181773100Y-92606800D01*
X222281500Y-116753300D02*
X222299500Y-116655700D01*
X199820000Y-137135200D02*
X199919000Y-137126300D01*
X180177500Y-130214700D02*
X180249800Y-130284000D01*
X172507400Y-110850400D02*
X172502700Y-110950200D01*
X181060900Y-131025400D02*
X181135900Y-131090900D01*
X219093100Y-125106100D02*
X219145100Y-125019900D01*
X173657400Y-104481700D02*
X173627300Y-104577000D01*
X173912300Y-103724300D02*
X173879100Y-103818600D01*
X222708200Y-112284500D02*
X222708600Y-112184800D01*
X214248600Y-130915600D02*
X214322900Y-130849500D01*
X197258000Y-87002200D02*
X197157600Y-87003700D01*
X222709800Y-105002800D02*
X222709800Y-104903300D01*
X205102400Y-136090600D02*
X205197600Y-136060600D01*
X176247200Y-98873100D02*
X176194800Y-98957700D01*
X213719700Y-131371700D02*
X213796000Y-131307400D01*
X181593000Y-131478200D02*
X181670000Y-131541700D01*
X172551700Y-110153200D02*
X172544100Y-110253200D01*
X191815900Y-87667500D02*
X191718500Y-87690600D01*
X196226200Y-137196100D02*
X196326400Y-137201300D01*
X222709800Y-106497400D02*
X222709800Y-106397200D01*
X186085600Y-134447600D02*
X186174100Y-134493100D01*
X195064700Y-87125600D02*
X194964900Y-87135800D01*
X222709800Y-88764600D02*
X222709800Y-88664900D01*
X212503200Y-87000000D02*
X212403800Y-87000000D01*
X222709800Y-102708800D02*
X222709800Y-102609500D01*
X203950200Y-136420900D02*
X204046900Y-136395500D01*
X183760300Y-133083900D02*
X183843700Y-133138800D01*
X173019700Y-106894200D02*
X172999400Y-106991300D01*
X192205200Y-87579100D02*
X192108200Y-87600500D01*
X187986600Y-135330300D02*
X188079200Y-135368400D01*
X198456300Y-87000000D02*
X198356600Y-87000000D01*
X215793600Y-87000000D02*
X215694000Y-87000000D01*
X172972600Y-117110300D02*
X172992700Y-117209000D01*
X212702900Y-132180600D02*
X212782900Y-132120000D01*
X218723100Y-125698500D02*
X218776800Y-125614700D01*
X221938300Y-118313600D02*
X221962700Y-118216800D01*
X190626200Y-136254000D02*
X190722400Y-136281500D01*
X222709800Y-91452300D02*
X222709800Y-91353300D01*
X189957600Y-136051200D02*
X190052900Y-136081400D01*
X178793700Y-128773200D02*
X178859900Y-128847500D01*
X193446300Y-136892000D02*
X193545100Y-136908200D01*
X197956100Y-87000000D02*
X197855400Y-87000000D01*
X195529600Y-137149100D02*
X195629300Y-137157000D01*
X196126800Y-137190600D02*
X196226200Y-137196100D01*
X220992400Y-121260100D02*
X221028700Y-121166700D01*
X195761700Y-87065700D02*
X195661600Y-87073100D01*
X197825000Y-137231600D02*
X197925700Y-137230400D01*
X222709800Y-87263000D02*
X222709800Y-87160700D01*
X188853300Y-88562100D02*
X188760000Y-88596900D01*
X186440700Y-134627400D02*
X186529800Y-134671400D01*
X222709800Y-96133300D02*
X222709800Y-96033700D01*
X179150800Y-95065100D02*
X179082700Y-95139000D01*
X220380200Y-87000000D02*
X220280500Y-87000000D01*
X182962600Y-91698300D02*
X182881300Y-91756900D01*
X203837100Y-87000000D02*
X203737100Y-87000000D01*
X216697000Y-128421800D02*
X216761300Y-128346100D01*
X222709800Y-95536600D02*
X222709800Y-95437200D01*
X222589600Y-114578500D02*
X222599000Y-114479700D01*
X222709800Y-95735400D02*
X222709800Y-95635800D01*
X193940900Y-136969100D02*
X194039800Y-136983300D01*
X222709800Y-87565200D02*
X222709800Y-87464600D01*
X191040400Y-87863200D02*
X190944500Y-87889200D01*
X222709800Y-99520900D02*
X222709800Y-99421500D01*
X222709800Y-92646300D02*
X222709800Y-92547300D01*
X198226000Y-137224800D02*
X198325400Y-137222100D01*
X222709800Y-108792400D02*
X222709800Y-108692200D01*
X201048000Y-87000000D02*
X200948500Y-87000000D01*
X179541000Y-129579900D02*
X179610800Y-129651800D01*
X216491300Y-87000000D02*
X216391700Y-87000000D01*
X182938100Y-132516600D02*
X183019700Y-132575200D01*
X222185000Y-117243100D02*
X222205100Y-117145300D01*
X222709800Y-90555400D02*
X222709800Y-90455700D01*
X179562800Y-94630100D02*
X179493600Y-94701800D01*
X209334800Y-134324400D02*
X209422500Y-134277600D01*
X199257300Y-87000000D02*
X199157100Y-87000000D01*
X216825500Y-128270100D02*
X216889900Y-128193300D01*
X172478200Y-112449700D02*
X172479700Y-112550100D01*
X202488400Y-136755700D02*
X202586100Y-136736200D01*
X222709800Y-92746100D02*
X222709800Y-92646300D01*
X174455800Y-102325900D02*
X174416800Y-102418500D01*
X186739600Y-89459300D02*
X186650100Y-89502500D01*
X200714100Y-137040500D02*
X200813900Y-137027900D01*
X208443900Y-134773900D02*
X208533500Y-134730700D01*
X199621800Y-137151800D02*
X199721100Y-137143700D01*
X222709800Y-110788900D02*
X222709800Y-110689100D01*
X221979000Y-87000000D02*
X221879100Y-87000000D01*
X189891300Y-88202700D02*
X189796400Y-88233400D01*
X180614700Y-130625600D02*
X180688600Y-130693100D01*
X220487500Y-122458300D02*
X220528400Y-122367300D01*
X209158600Y-134416800D02*
X209247000Y-134370700D01*
X216566200Y-128573600D02*
X216631900Y-128497600D01*
X211409300Y-87000000D02*
X211309100Y-87000000D01*
X203367800Y-136565400D02*
X203465100Y-136542300D01*
X215893200Y-87000000D02*
X215793600Y-87000000D01*
X174290400Y-121506800D02*
X174328100Y-121599600D01*
X193087400Y-87402900D02*
X192988800Y-87420900D01*
X214894400Y-87000000D02*
X214794400Y-87000000D01*
X222709800Y-102311500D02*
X222709800Y-102211600D01*
X177250300Y-97381300D02*
X177191800Y-97462300D01*
X178166700Y-96194300D02*
X178103100Y-96272200D01*
X221079800Y-87000000D02*
X220979200Y-87000000D01*
X215094900Y-87000000D02*
X214994600Y-87000000D01*
X201846000Y-87000000D02*
X201745500Y-87000000D01*
X214023000Y-131113300D02*
X214098800Y-131047400D01*
X203075500Y-136632300D02*
X203172400Y-136610600D01*
X189862400Y-136020600D02*
X189957600Y-136051200D01*
X222709800Y-111387500D02*
X222709800Y-111287700D01*
X177057600Y-126582100D02*
X177115500Y-126663700D01*
X222709800Y-90158400D02*
X222709800Y-90059500D01*
X177792000Y-96662100D02*
X177730800Y-96740800D01*
X207521700Y-87000000D02*
X207422300Y-87000000D01*
X200948500Y-87000000D02*
X200849700Y-87000000D01*
X222709800Y-88664900D02*
X222709800Y-88564800D01*
X222709800Y-109389800D02*
X222709800Y-109289800D01*
X175720900Y-124472900D02*
X175770000Y-124559300D01*
X197026400Y-137226400D02*
X197126500Y-137228400D01*
X197626500Y-87000000D02*
X197592400Y-87000000D01*
X172549100Y-114046100D02*
X172556900Y-114145800D01*
X173559100Y-119434900D02*
X173588500Y-119531000D01*
X193545100Y-136908200D02*
X193644300Y-136924100D01*
X184889700Y-90444300D02*
X184803700Y-90495100D01*
X184947600Y-133822200D02*
X185033900Y-133872300D01*
X173033900Y-117405200D02*
X173055000Y-117502600D01*
X202194900Y-136811900D02*
X202293100Y-136793500D01*
X199721100Y-137143700D02*
X199820000Y-137135200D01*
X222709800Y-103605700D02*
X222709800Y-103506800D01*
X198757200Y-87000000D02*
X198656700Y-87000000D01*
X215690100Y-129532000D02*
X215759400Y-129459600D01*
X196326400Y-137201300D02*
X196426300Y-137206000D01*
X222709800Y-99321000D02*
X222709800Y-99221100D01*
X207422300Y-87000000D02*
X207322500Y-87000000D01*
X222608100Y-114380200D02*
X222616800Y-114280500D01*
X222709800Y-88963400D02*
X222709800Y-88864100D01*
X205231900Y-87000000D02*
X205132000Y-87000000D01*
X202684800Y-136716000D02*
X202783100Y-136695600D01*
X216391700Y-87000000D02*
X216292000Y-87000000D01*
X210112800Y-87000000D02*
X210013400Y-87000000D01*
X219383900Y-87000000D02*
X219283700Y-87000000D01*
X222709800Y-110889100D02*
X222709800Y-110788900D01*
X211061400Y-133319500D02*
X211145900Y-133265400D01*
X219184200Y-87000000D02*
X219084900Y-87000000D01*
X182695300Y-132339800D02*
X182776400Y-132399300D01*
X172672400Y-108960400D02*
X172660200Y-109059800D01*
X201505900Y-136929500D02*
X201604800Y-136913900D01*
X222709800Y-100617500D02*
X222709800Y-100518200D01*
X179773000Y-94416100D02*
X179702700Y-94487200D01*
X222709800Y-105800000D02*
X222709800Y-105700300D01*
X173568300Y-104767200D02*
X173539200Y-104863200D01*
X176407100Y-98619300D02*
X176353400Y-98703600D01*
X206237100Y-135705300D02*
X206330300Y-135670900D01*
X186470600Y-89590400D02*
X186381100Y-89634900D01*
X222709800Y-97527400D02*
X222709800Y-97428200D01*
X174014100Y-103442400D02*
X173979800Y-103536200D01*
X207167500Y-135343000D02*
X207259200Y-135304900D01*
X183126100Y-91581900D02*
X183044500Y-91639800D01*
X222351300Y-116362200D02*
X222367800Y-116264200D01*
X206423600Y-135636100D02*
X206517600Y-135600600D01*
X217391800Y-127571700D02*
X217453000Y-127493100D01*
X222709800Y-101016200D02*
X222709800Y-100917200D01*
X175987700Y-99299900D02*
X175936900Y-99385600D01*
X187101800Y-89289100D02*
X187011300Y-89331000D01*
X187894400Y-135291800D02*
X187986600Y-135330300D01*
X222709800Y-104202600D02*
X222709800Y-104102700D01*
X216761300Y-128346100D02*
X216825500Y-128270100D01*
X175400100Y-100344100D02*
X175353600Y-100432100D01*
X190176900Y-88112600D02*
X190081200Y-88142400D01*
X179632400Y-94558700D02*
X179562800Y-94630100D01*
X222709800Y-110588800D02*
X222709800Y-110488300D01*
X174641100Y-122333100D02*
X174682200Y-122424700D01*
X222709800Y-107296600D02*
X222709800Y-107197400D01*
X172884900Y-107578800D02*
X172867200Y-107676600D01*
X214994600Y-87000000D02*
X214894400Y-87000000D01*
X222709800Y-87964100D02*
X222709800Y-87863900D01*
X220689100Y-122000300D02*
X220728300Y-121908400D01*
X176194800Y-98957700D02*
X176142900Y-99042300D01*
X207900200Y-135026800D02*
X207991300Y-134985500D01*
X192370200Y-136689000D02*
X192467300Y-136709300D01*
X176125500Y-125161900D02*
X176177400Y-125246600D01*
X177115500Y-126663700D02*
X177174000Y-126745600D01*
X206889200Y-135455900D02*
X206982400Y-135418500D01*
X173418700Y-118956400D02*
X173446200Y-119052900D01*
X207535400Y-135187700D02*
X207626800Y-135148000D01*
X186619600Y-134715300D02*
X186709500Y-134758800D01*
X185235200Y-90245100D02*
X185148800Y-90294200D01*
X222709800Y-93144900D02*
X222709800Y-93045000D01*
X172482300Y-111550400D02*
X172480300Y-111650400D01*
X176552000Y-125837700D02*
X176606700Y-125921000D01*
X206227900Y-87000000D02*
X206128700Y-87000000D01*
X172816700Y-107970300D02*
X172800400Y-108069200D01*
X174723400Y-122515700D02*
X174764900Y-122606200D01*
X222709800Y-98224300D02*
X222709800Y-98124400D01*
X218669000Y-125782100D02*
X218723100Y-125698500D01*
X222709800Y-106198400D02*
X222709800Y-106098900D01*
X176624600Y-98284500D02*
X176569700Y-98367900D01*
X206796600Y-135492600D02*
X206889200Y-135455900D01*
X187251800Y-135012000D02*
X187342700Y-135052900D01*
X184348900Y-133461300D02*
X184433400Y-133513700D01*
X206526400Y-87000000D02*
X206426800Y-87000000D01*
X221238400Y-120603900D02*
X221271900Y-120510000D01*
X222709800Y-106597800D02*
X222709800Y-106497400D01*
X222709800Y-95934300D02*
X222709800Y-95834700D01*
X182615100Y-132280300D02*
X182695300Y-132339800D01*
X174574600Y-102050200D02*
X174534500Y-102142000D01*
X173270600Y-105824500D02*
X173246000Y-105920800D01*
X220404400Y-122639800D02*
X220446100Y-122549100D01*
X185996600Y-134401400D02*
X186085600Y-134447600D01*
X172567900Y-109954100D02*
X172559600Y-110053600D01*
X182006900Y-92419300D02*
X181928400Y-92481800D01*
X220979200Y-87000000D02*
X220878900Y-87000000D01*
X222709800Y-93642600D02*
X222709800Y-93543000D01*
X202242800Y-87000000D02*
X202143700Y-87000000D01*
X222579700Y-114678000D02*
X222589600Y-114578500D01*
X183703700Y-91186200D02*
X183620400Y-91241800D01*
X218286700Y-87000000D02*
X218186400Y-87000000D01*
X222709800Y-111888800D02*
X222709800Y-111788000D01*
X214546100Y-130647600D02*
X214619500Y-130580200D01*
X193841600Y-136954400D02*
X193940900Y-136969100D01*
X193284500Y-87368000D02*
X193186500Y-87385100D01*
X172502700Y-110950200D02*
X172498300Y-111050500D01*
X172763900Y-115930700D02*
X172779200Y-116030000D01*
X222473000Y-115571500D02*
X222486400Y-115472800D01*
X173083500Y-106601000D02*
X173062000Y-106698100D01*
X209598400Y-134182700D02*
X209686000Y-134134700D01*
X212139200Y-132593600D02*
X212221000Y-132535100D01*
X222709800Y-87363700D02*
X222709800Y-87263000D01*
X218050600Y-126690000D02*
X218108400Y-126608600D01*
X174191800Y-102974200D02*
X174155400Y-103067600D01*
X174906800Y-101323400D02*
X174864000Y-101413700D01*
X197426300Y-137232100D02*
X197525900Y-137232500D01*
X173597700Y-104671800D02*
X173568300Y-104767200D01*
X220102900Y-123269200D02*
X220146900Y-123180200D01*
X178748600Y-95510400D02*
X178683000Y-95585100D01*
X172915300Y-116817300D02*
X172934000Y-116915100D01*
X172493000Y-113047500D02*
X172496900Y-113147600D01*
X173076400Y-117599700D02*
X173098200Y-117696600D01*
X186889500Y-134844600D02*
X186980000Y-134887100D01*
X178103100Y-96272200D02*
X178040100Y-96349900D01*
X217089000Y-87000000D02*
X216988900Y-87000000D01*
X206049300Y-135773300D02*
X206143400Y-135739400D01*
X222709800Y-105600600D02*
X222709800Y-105500900D01*
X185294400Y-134020900D02*
X185381400Y-134069700D01*
X222709800Y-103407800D02*
X222709800Y-103308000D01*
X222694000Y-112984900D02*
X222697200Y-112885100D01*
X184461500Y-90701600D02*
X184376900Y-90753800D01*
X201406600Y-136944900D02*
X201505900Y-136929500D01*
X191687700Y-136534600D02*
X191785300Y-136557900D01*
X218883600Y-125446000D02*
X218936700Y-125361000D01*
X175292200Y-123683100D02*
X175338300Y-123771400D01*
X185761000Y-89955600D02*
X185672800Y-90003000D01*
X222709800Y-99121800D02*
X222709800Y-99022300D01*
X172784600Y-108168300D02*
X172769200Y-108266900D01*
X191396700Y-136462700D02*
X191493600Y-136487000D01*
X196825600Y-137221100D02*
X196925700Y-137223900D01*
X204234800Y-87000000D02*
X204135200Y-87000000D01*
X173446200Y-119052900D02*
X173473900Y-119148900D01*
X183536800Y-91298100D02*
X183453900Y-91354500D01*
X176022300Y-124990800D02*
X176073900Y-125076600D01*
X211707000Y-87000000D02*
X211608000Y-87000000D01*
X210311800Y-87000000D02*
X210212000Y-87000000D01*
X217390000Y-87000000D02*
X217289800Y-87000000D01*
X175494500Y-100168300D02*
X175447200Y-100256000D01*
X222709800Y-94639800D02*
X222709800Y-94539900D01*
X212623000Y-132240500D02*
X212702900Y-132180600D01*
X188264100Y-135443300D02*
X188357100Y-135480300D01*
X220728300Y-121908400D02*
X220767300Y-121815800D01*
X173530300Y-119339600D02*
X173559100Y-119434900D01*
X222709800Y-102411200D02*
X222709800Y-102311500D01*
X175687600Y-99818600D02*
X175638900Y-99905600D01*
X177350000Y-126987600D02*
X177409000Y-127067500D01*
X210891600Y-133426600D02*
X210976300Y-133373400D01*
X180249800Y-130284000D02*
X180322600Y-130353300D01*
X177833100Y-127622900D02*
X177895000Y-127701300D01*
X172867200Y-107676600D02*
X172850000Y-107774400D01*
X210466300Y-133686800D02*
X210552100Y-133635200D01*
X213947200Y-131178700D02*
X214023000Y-131113300D01*
X201997200Y-136847700D02*
X202096200Y-136829900D01*
X222709800Y-102808400D02*
X222709800Y-102708800D01*
X204720200Y-136206800D02*
X204815300Y-136178500D01*
X199356900Y-87000000D02*
X199257300Y-87000000D01*
X174764900Y-122606200D02*
X174806700Y-122696700D01*
%TD*%
M02*
