%TF.GenerationSoftware,KiCad,Pcbnew,(6.0.1-0)*%
%TF.CreationDate,2022-01-28T16:02:20+01:00*%
%TF.ProjectId,badge,62616467-652e-46b6-9963-61645f706362,rev?*%
%TF.SameCoordinates,Original*%
%TF.FileFunction,Copper,L1,Top*%
%TF.FilePolarity,Positive*%
%FSLAX46Y46*%
G04 Gerber Fmt 4.6, Leading zero omitted, Abs format (unit mm)*
G04 Created by KiCad (PCBNEW (6.0.1-0)) date 2022-01-28 16:02:20*
%MOMM*%
%LPD*%
G01*
G04 APERTURE LIST*
%TA.AperFunction,EtchedComponent*%
%ADD10C,0.010000*%
%TD*%
%TA.AperFunction,SMDPad,CuDef*%
%ADD11R,2.600000X3.600000*%
%TD*%
G04 APERTURE END LIST*
D10*
%TO.C,Ref\u002A\u002A*%
X222722899Y-99611412D02*
X222722872Y-100513988D01*
X222722872Y-100513988D02*
X222722826Y-101375281D01*
X222722826Y-101375281D02*
X222722756Y-102196337D01*
X222722756Y-102196337D02*
X222722656Y-102978208D01*
X222722656Y-102978208D02*
X222722521Y-103721943D01*
X222722521Y-103721943D02*
X222722345Y-104428589D01*
X222722345Y-104428589D02*
X222722123Y-105099197D01*
X222722123Y-105099197D02*
X222721850Y-105734815D01*
X222721850Y-105734815D02*
X222721519Y-106336493D01*
X222721519Y-106336493D02*
X222721125Y-106905280D01*
X222721125Y-106905280D02*
X222720664Y-107442225D01*
X222720664Y-107442225D02*
X222720129Y-107948377D01*
X222720129Y-107948377D02*
X222719515Y-108424785D01*
X222719515Y-108424785D02*
X222718816Y-108872498D01*
X222718816Y-108872498D02*
X222718028Y-109292566D01*
X222718028Y-109292566D02*
X222717144Y-109686037D01*
X222717144Y-109686037D02*
X222716159Y-110053961D01*
X222716159Y-110053961D02*
X222715068Y-110397386D01*
X222715068Y-110397386D02*
X222713864Y-110717363D01*
X222713864Y-110717363D02*
X222712544Y-111014939D01*
X222712544Y-111014939D02*
X222711100Y-111291165D01*
X222711100Y-111291165D02*
X222709529Y-111547089D01*
X222709529Y-111547089D02*
X222707823Y-111783761D01*
X222707823Y-111783761D02*
X222705978Y-112002229D01*
X222705978Y-112002229D02*
X222703988Y-112203542D01*
X222703988Y-112203542D02*
X222701849Y-112388751D01*
X222701849Y-112388751D02*
X222699553Y-112558903D01*
X222699553Y-112558903D02*
X222697096Y-112715048D01*
X222697096Y-112715048D02*
X222694473Y-112858236D01*
X222694473Y-112858236D02*
X222691677Y-112989514D01*
X222691677Y-112989514D02*
X222688704Y-113109934D01*
X222688704Y-113109934D02*
X222685548Y-113220542D01*
X222685548Y-113220542D02*
X222682203Y-113322390D01*
X222682203Y-113322390D02*
X222678664Y-113416525D01*
X222678664Y-113416525D02*
X222674926Y-113503997D01*
X222674926Y-113503997D02*
X222670982Y-113585855D01*
X222670982Y-113585855D02*
X222666828Y-113663148D01*
X222666828Y-113663148D02*
X222662459Y-113736925D01*
X222662459Y-113736925D02*
X222657867Y-113808236D01*
X222657867Y-113808236D02*
X222653049Y-113878129D01*
X222653049Y-113878129D02*
X222648059Y-113946834D01*
X222648059Y-113946834D02*
X222550262Y-114985901D01*
X222550262Y-114985901D02*
X222411850Y-116013155D01*
X222411850Y-116013155D02*
X222232909Y-117028323D01*
X222232909Y-117028323D02*
X222013526Y-118031132D01*
X222013526Y-118031132D02*
X221753787Y-119021308D01*
X221753787Y-119021308D02*
X221453779Y-119998579D01*
X221453779Y-119998579D02*
X221113588Y-120962672D01*
X221113588Y-120962672D02*
X220733300Y-121913313D01*
X220733300Y-121913313D02*
X220313001Y-122850231D01*
X220313001Y-122850231D02*
X219852779Y-123773152D01*
X219852779Y-123773152D02*
X219352719Y-124681804D01*
X219352719Y-124681804D02*
X219131477Y-125058044D01*
X219131477Y-125058044D02*
X219021594Y-125237598D01*
X219021594Y-125237598D02*
X218891714Y-125443512D01*
X218891714Y-125443512D02*
X218746971Y-125668082D01*
X218746971Y-125668082D02*
X218592498Y-125903601D01*
X218592498Y-125903601D02*
X218433430Y-126142363D01*
X218433430Y-126142363D02*
X218274899Y-126376662D01*
X218274899Y-126376662D02*
X218122040Y-126598793D01*
X218122040Y-126598793D02*
X217979986Y-126801048D01*
X217979986Y-126801048D02*
X217854464Y-126974917D01*
X217854464Y-126974917D02*
X217238414Y-127777825D01*
X217238414Y-127777825D02*
X216588657Y-128557283D01*
X216588657Y-128557283D02*
X215907210Y-129311352D01*
X215907210Y-129311352D02*
X215196090Y-130038091D01*
X215196090Y-130038091D02*
X214457316Y-130735561D01*
X214457316Y-130735561D02*
X213692903Y-131401825D01*
X213692903Y-131401825D02*
X212904870Y-132034942D01*
X212904870Y-132034942D02*
X212095235Y-132632974D01*
X212095235Y-132632974D02*
X211643680Y-132944736D01*
X211643680Y-132944736D02*
X210768372Y-133509399D01*
X210768372Y-133509399D02*
X209876964Y-134034927D01*
X209876964Y-134034927D02*
X208969791Y-134521201D01*
X208969791Y-134521201D02*
X208047195Y-134968096D01*
X208047195Y-134968096D02*
X207109513Y-135375490D01*
X207109513Y-135375490D02*
X206157083Y-135743260D01*
X206157083Y-135743260D02*
X205190245Y-136071284D01*
X205190245Y-136071284D02*
X204209337Y-136359440D01*
X204209337Y-136359440D02*
X203214698Y-136607605D01*
X203214698Y-136607605D02*
X202206667Y-136815655D01*
X202206667Y-136815655D02*
X201185581Y-136983469D01*
X201185581Y-136983469D02*
X200151781Y-137110924D01*
X200151781Y-137110924D02*
X200127750Y-137113391D01*
X200127750Y-137113391D02*
X199914165Y-137134671D01*
X199914165Y-137134671D02*
X199718452Y-137152805D01*
X199718452Y-137152805D02*
X199534591Y-137168063D01*
X199534591Y-137168063D02*
X199356564Y-137180714D01*
X199356564Y-137180714D02*
X199178351Y-137191027D01*
X199178351Y-137191027D02*
X198993932Y-137199270D01*
X198993932Y-137199270D02*
X198797287Y-137205713D01*
X198797287Y-137205713D02*
X198582397Y-137210626D01*
X198582397Y-137210626D02*
X198343242Y-137214276D01*
X198343242Y-137214276D02*
X198073803Y-137216933D01*
X198073803Y-137216933D02*
X197768059Y-137218866D01*
X197768059Y-137218866D02*
X197767667Y-137218868D01*
X197767667Y-137218868D02*
X197543066Y-137219871D01*
X197543066Y-137219871D02*
X197328467Y-137220556D01*
X197328467Y-137220556D02*
X197128098Y-137220928D01*
X197128098Y-137220928D02*
X196946187Y-137220994D01*
X196946187Y-137220994D02*
X196786960Y-137220756D01*
X196786960Y-137220756D02*
X196654647Y-137220220D01*
X196654647Y-137220220D02*
X196553473Y-137219391D01*
X196553473Y-137219391D02*
X196487668Y-137218274D01*
X196487668Y-137218274D02*
X196465917Y-137217399D01*
X196465917Y-137217399D02*
X196409292Y-137213603D01*
X196409292Y-137213603D02*
X196319992Y-137207914D01*
X196319992Y-137207914D02*
X196207602Y-137200930D01*
X196207602Y-137200930D02*
X196081708Y-137193247D01*
X196081708Y-137193247D02*
X195989667Y-137187713D01*
X195989667Y-137187713D02*
X194995945Y-137107443D01*
X194995945Y-137107443D02*
X194001580Y-136985612D01*
X194001580Y-136985612D02*
X193009361Y-136822851D01*
X193009361Y-136822851D02*
X192022082Y-136619792D01*
X192022082Y-136619792D02*
X191042535Y-136377069D01*
X191042535Y-136377069D02*
X190073511Y-136095312D01*
X190073511Y-136095312D02*
X189117802Y-135775153D01*
X189117802Y-135775153D02*
X188189750Y-135421896D01*
X188189750Y-135421896D02*
X187466110Y-135115352D01*
X187466110Y-135115352D02*
X186738812Y-134779782D01*
X186738812Y-134779782D02*
X186019393Y-134420929D01*
X186019393Y-134420929D02*
X185319392Y-134044536D01*
X185319392Y-134044536D02*
X184686667Y-133678220D01*
X184686667Y-133678220D02*
X183817280Y-133131999D01*
X183817280Y-133131999D02*
X182975274Y-132554350D01*
X182975274Y-132554350D02*
X182157114Y-131942762D01*
X182157114Y-131942762D02*
X181522250Y-131431421D01*
X181522250Y-131431421D02*
X180978113Y-130963493D01*
X180978113Y-130963493D02*
X180430720Y-130463157D01*
X180430720Y-130463157D02*
X179888386Y-129938726D01*
X179888386Y-129938726D02*
X179359425Y-129398514D01*
X179359425Y-129398514D02*
X178852151Y-128850833D01*
X178852151Y-128850833D02*
X178374878Y-128303998D01*
X178374878Y-128303998D02*
X178272051Y-128181417D01*
X178272051Y-128181417D02*
X177631450Y-127379052D01*
X177631450Y-127379052D02*
X177025523Y-126553126D01*
X177025523Y-126553126D02*
X176454826Y-125704861D01*
X176454826Y-125704861D02*
X175919920Y-124835475D01*
X175919920Y-124835475D02*
X175421362Y-123946190D01*
X175421362Y-123946190D02*
X174959712Y-123038226D01*
X174959712Y-123038226D02*
X174535527Y-122112803D01*
X174535527Y-122112803D02*
X174149366Y-121171142D01*
X174149366Y-121171142D02*
X173801788Y-120214462D01*
X173801788Y-120214462D02*
X173493351Y-119243985D01*
X173493351Y-119243985D02*
X173224613Y-118260931D01*
X173224613Y-118260931D02*
X172996134Y-117266519D01*
X172996134Y-117266519D02*
X172808471Y-116261971D01*
X172808471Y-116261971D02*
X172803666Y-116232834D01*
X172803666Y-116232834D02*
X172700495Y-115552858D01*
X172700495Y-115552858D02*
X172617782Y-114889443D01*
X172617782Y-114889443D02*
X172554651Y-114231638D01*
X172554651Y-114231638D02*
X172510223Y-113568492D01*
X172510223Y-113568492D02*
X172483623Y-112889054D01*
X172483623Y-112889054D02*
X172478497Y-112513673D01*
X172478497Y-112513673D02*
X175366161Y-112513673D01*
X175366161Y-112513673D02*
X175402428Y-113459424D01*
X175402428Y-113459424D02*
X175478589Y-114400059D01*
X175478589Y-114400059D02*
X175501569Y-114613584D01*
X175501569Y-114613584D02*
X175629038Y-115558291D01*
X175629038Y-115558291D02*
X175797030Y-116492388D01*
X175797030Y-116492388D02*
X176004820Y-117414794D01*
X176004820Y-117414794D02*
X176251687Y-118324429D01*
X176251687Y-118324429D02*
X176536904Y-119220212D01*
X176536904Y-119220212D02*
X176859750Y-120101062D01*
X176859750Y-120101062D02*
X177219500Y-120965901D01*
X177219500Y-120965901D02*
X177615430Y-121813646D01*
X177615430Y-121813646D02*
X178046817Y-122643218D01*
X178046817Y-122643218D02*
X178512936Y-123453537D01*
X178512936Y-123453537D02*
X179013065Y-124243521D01*
X179013065Y-124243521D02*
X179546478Y-125012091D01*
X179546478Y-125012091D02*
X180112454Y-125758165D01*
X180112454Y-125758165D02*
X180710267Y-126480665D01*
X180710267Y-126480665D02*
X181339193Y-127178508D01*
X181339193Y-127178508D02*
X181998511Y-127850615D01*
X181998511Y-127850615D02*
X182687494Y-128495906D01*
X182687494Y-128495906D02*
X183405421Y-129113300D01*
X183405421Y-129113300D02*
X184151566Y-129701716D01*
X184151566Y-129701716D02*
X184925206Y-130260075D01*
X184925206Y-130260075D02*
X185725618Y-130787295D01*
X185725618Y-130787295D02*
X186552077Y-131282297D01*
X186552077Y-131282297D02*
X186738283Y-131387302D01*
X186738283Y-131387302D02*
X187587666Y-131836851D01*
X187587666Y-131836851D02*
X188454563Y-132248190D01*
X188454563Y-132248190D02*
X189337634Y-132621011D01*
X189337634Y-132621011D02*
X190235544Y-132955008D01*
X190235544Y-132955008D02*
X191146951Y-133249874D01*
X191146951Y-133249874D02*
X192070520Y-133505303D01*
X192070520Y-133505303D02*
X193004910Y-133720988D01*
X193004910Y-133720988D02*
X193948785Y-133896623D01*
X193948785Y-133896623D02*
X194900806Y-134031901D01*
X194900806Y-134031901D02*
X195859634Y-134126514D01*
X195859634Y-134126514D02*
X196823931Y-134180157D01*
X196823931Y-134180157D02*
X197792359Y-134192524D01*
X197792359Y-134192524D02*
X198763579Y-134163306D01*
X198763579Y-134163306D02*
X198836584Y-134159425D01*
X198836584Y-134159425D02*
X199803215Y-134085508D01*
X199803215Y-134085508D02*
X200761404Y-133970435D01*
X200761404Y-133970435D02*
X201710034Y-133814747D01*
X201710034Y-133814747D02*
X202647989Y-133618982D01*
X202647989Y-133618982D02*
X203574152Y-133383679D01*
X203574152Y-133383679D02*
X204487406Y-133109379D01*
X204487406Y-133109379D02*
X205386635Y-132796620D01*
X205386635Y-132796620D02*
X206270723Y-132445943D01*
X206270723Y-132445943D02*
X207138553Y-132057885D01*
X207138553Y-132057885D02*
X207989007Y-131632987D01*
X207989007Y-131632987D02*
X208820971Y-131171788D01*
X208820971Y-131171788D02*
X209633326Y-130674827D01*
X209633326Y-130674827D02*
X210424957Y-130142644D01*
X210424957Y-130142644D02*
X211194747Y-129575778D01*
X211194747Y-129575778D02*
X211941579Y-128974768D01*
X211941579Y-128974768D02*
X212664337Y-128340155D01*
X212664337Y-128340155D02*
X213361904Y-127672476D01*
X213361904Y-127672476D02*
X214033164Y-126972271D01*
X214033164Y-126972271D02*
X214279360Y-126699750D01*
X214279360Y-126699750D02*
X214899454Y-125970544D01*
X214899454Y-125970544D02*
X215485671Y-125216896D01*
X215485671Y-125216896D02*
X216037424Y-124440164D01*
X216037424Y-124440164D02*
X216554122Y-123641705D01*
X216554122Y-123641705D02*
X217035176Y-122822877D01*
X217035176Y-122822877D02*
X217479996Y-121985037D01*
X217479996Y-121985037D02*
X217887992Y-121129543D01*
X217887992Y-121129543D02*
X218258575Y-120257752D01*
X218258575Y-120257752D02*
X218591155Y-119371022D01*
X218591155Y-119371022D02*
X218885142Y-118470709D01*
X218885142Y-118470709D02*
X219139947Y-117558173D01*
X219139947Y-117558173D02*
X219354981Y-116634769D01*
X219354981Y-116634769D02*
X219529653Y-115701855D01*
X219529653Y-115701855D02*
X219663374Y-114760789D01*
X219663374Y-114760789D02*
X219726860Y-114158500D01*
X219726860Y-114158500D02*
X219755873Y-113796204D01*
X219755873Y-113796204D02*
X219779245Y-113412139D01*
X219779245Y-113412139D02*
X219796821Y-113014883D01*
X219796821Y-113014883D02*
X219808441Y-112613014D01*
X219808441Y-112613014D02*
X219813951Y-112215109D01*
X219813951Y-112215109D02*
X219813191Y-111829746D01*
X219813191Y-111829746D02*
X219806005Y-111465502D01*
X219806005Y-111465502D02*
X219792236Y-111130955D01*
X219792236Y-111130955D02*
X219784671Y-111004667D01*
X219784671Y-111004667D02*
X219701481Y-110038301D01*
X219701481Y-110038301D02*
X219580266Y-109084035D01*
X219580266Y-109084035D02*
X219420199Y-108137127D01*
X219420199Y-108137127D02*
X219220452Y-107192837D01*
X219220452Y-107192837D02*
X218980197Y-106246422D01*
X218980197Y-106246422D02*
X218910802Y-105998750D01*
X218910802Y-105998750D02*
X218845710Y-105771508D01*
X218845710Y-105771508D02*
X218790031Y-105578992D01*
X218790031Y-105578992D02*
X218741864Y-105415134D01*
X218741864Y-105415134D02*
X218699309Y-105273865D01*
X218699309Y-105273865D02*
X218660465Y-105149117D01*
X218660465Y-105149117D02*
X218623433Y-105034824D01*
X218623433Y-105034824D02*
X218586311Y-104924915D01*
X218586311Y-104924915D02*
X218547199Y-104813324D01*
X218547199Y-104813324D02*
X218504197Y-104693983D01*
X218504197Y-104693983D02*
X218489853Y-104654667D01*
X218489853Y-104654667D02*
X218291499Y-104129802D01*
X218291499Y-104129802D02*
X218088310Y-103628618D01*
X218088310Y-103628618D02*
X217876532Y-103143360D01*
X217876532Y-103143360D02*
X217652412Y-102666273D01*
X217652412Y-102666273D02*
X217412196Y-102189604D01*
X217412196Y-102189604D02*
X217152129Y-101705597D01*
X217152129Y-101705597D02*
X216868459Y-101206498D01*
X216868459Y-101206498D02*
X216609590Y-100770584D01*
X216609590Y-100770584D02*
X216246818Y-100191228D01*
X216246818Y-100191228D02*
X215861820Y-99615864D01*
X215861820Y-99615864D02*
X215458429Y-99049295D01*
X215458429Y-99049295D02*
X215040477Y-98496323D01*
X215040477Y-98496323D02*
X214611797Y-97961751D01*
X214611797Y-97961751D02*
X214176221Y-97450384D01*
X214176221Y-97450384D02*
X213737582Y-96967023D01*
X213737582Y-96967023D02*
X213299712Y-96516473D01*
X213299712Y-96516473D02*
X212938681Y-96170013D01*
X212938681Y-96170013D02*
X212373200Y-95661790D01*
X212373200Y-95661790D02*
X211799885Y-95178980D01*
X211799885Y-95178980D02*
X211213530Y-94717851D01*
X211213530Y-94717851D02*
X210608930Y-94274672D01*
X210608930Y-94274672D02*
X209980878Y-93845709D01*
X209980878Y-93845709D02*
X209324169Y-93427230D01*
X209324169Y-93427230D02*
X208633598Y-93015504D01*
X208633598Y-93015504D02*
X208181667Y-92759493D01*
X208181667Y-92759493D02*
X207430668Y-92361342D01*
X207430668Y-92361342D02*
X206679105Y-92002190D01*
X206679105Y-92002190D02*
X205920094Y-91679177D01*
X205920094Y-91679177D02*
X205146747Y-91389443D01*
X205146747Y-91389443D02*
X204352180Y-91130130D01*
X204352180Y-91130130D02*
X204028931Y-91034871D01*
X204028931Y-91034871D02*
X203659979Y-90930872D01*
X203659979Y-90930872D02*
X203321789Y-90839032D01*
X203321789Y-90839032D02*
X203005290Y-90757178D01*
X203005290Y-90757178D02*
X202701409Y-90683137D01*
X202701409Y-90683137D02*
X202401076Y-90614735D01*
X202401076Y-90614735D02*
X202095219Y-90549801D01*
X202095219Y-90549801D02*
X201774766Y-90486160D01*
X201774766Y-90486160D02*
X201598834Y-90452760D01*
X201598834Y-90452760D02*
X200644091Y-90293667D01*
X200644091Y-90293667D02*
X199697630Y-90175660D01*
X199697630Y-90175660D02*
X198757619Y-90098716D01*
X198757619Y-90098716D02*
X197822228Y-90062814D01*
X197822228Y-90062814D02*
X196889629Y-90067931D01*
X196889629Y-90067931D02*
X195957990Y-90114046D01*
X195957990Y-90114046D02*
X195025481Y-90201135D01*
X195025481Y-90201135D02*
X194090273Y-90329178D01*
X194090273Y-90329178D02*
X193904750Y-90359364D01*
X193904750Y-90359364D02*
X192947151Y-90540451D01*
X192947151Y-90540451D02*
X192002824Y-90761560D01*
X192002824Y-90761560D02*
X191072675Y-91022222D01*
X191072675Y-91022222D02*
X190157606Y-91321974D01*
X190157606Y-91321974D02*
X189258522Y-91660350D01*
X189258522Y-91660350D02*
X188376327Y-92036884D01*
X188376327Y-92036884D02*
X187511923Y-92451111D01*
X187511923Y-92451111D02*
X186666216Y-92902565D01*
X186666216Y-92902565D02*
X185840108Y-93390780D01*
X185840108Y-93390780D02*
X185034503Y-93915292D01*
X185034503Y-93915292D02*
X184250306Y-94475634D01*
X184250306Y-94475634D02*
X183488420Y-95071341D01*
X183488420Y-95071341D02*
X182749748Y-95701947D01*
X182749748Y-95701947D02*
X182035195Y-96366987D01*
X182035195Y-96366987D02*
X181808605Y-96590167D01*
X181808605Y-96590167D02*
X181142533Y-97284961D01*
X181142533Y-97284961D02*
X180509445Y-98005639D01*
X180509445Y-98005639D02*
X179909947Y-98751007D01*
X179909947Y-98751007D02*
X179344645Y-99519873D01*
X179344645Y-99519873D02*
X178814145Y-100311045D01*
X178814145Y-100311045D02*
X178319054Y-101123331D01*
X178319054Y-101123331D02*
X177859978Y-101955538D01*
X177859978Y-101955538D02*
X177437524Y-102806474D01*
X177437524Y-102806474D02*
X177052298Y-103674948D01*
X177052298Y-103674948D02*
X176704906Y-104559766D01*
X176704906Y-104559766D02*
X176395955Y-105459736D01*
X176395955Y-105459736D02*
X176126052Y-106373667D01*
X176126052Y-106373667D02*
X175895802Y-107300365D01*
X175895802Y-107300365D02*
X175705812Y-108238640D01*
X175705812Y-108238640D02*
X175618418Y-108761000D01*
X175618418Y-108761000D02*
X175495918Y-109686469D01*
X175495918Y-109686469D02*
X175412988Y-110623120D01*
X175412988Y-110623120D02*
X175369709Y-111566880D01*
X175369709Y-111566880D02*
X175366161Y-112513673D01*
X175366161Y-112513673D02*
X172478497Y-112513673D01*
X172478497Y-112513673D02*
X172473972Y-112182374D01*
X172473972Y-112182374D02*
X172473905Y-112115917D01*
X172473905Y-112115917D02*
X172482047Y-111406194D01*
X172482047Y-111406194D02*
X172507059Y-110724717D01*
X172507059Y-110724717D02*
X172549817Y-110060535D01*
X172549817Y-110060535D02*
X172611200Y-109402696D01*
X172611200Y-109402696D02*
X172692083Y-108740251D01*
X172692083Y-108740251D02*
X172793344Y-108062247D01*
X172793344Y-108062247D02*
X172803666Y-107999000D01*
X172803666Y-107999000D02*
X172989854Y-106995233D01*
X172989854Y-106995233D02*
X173216203Y-106003600D01*
X173216203Y-106003600D02*
X173482023Y-105025130D01*
X173482023Y-105025130D02*
X173786627Y-104060847D01*
X173786627Y-104060847D02*
X174129325Y-103111778D01*
X174129325Y-103111778D02*
X174509428Y-102178952D01*
X174509428Y-102178952D02*
X174926247Y-101263393D01*
X174926247Y-101263393D02*
X175379093Y-100366129D01*
X175379093Y-100366129D02*
X175867278Y-99488186D01*
X175867278Y-99488186D02*
X176390111Y-98630591D01*
X176390111Y-98630591D02*
X176946904Y-97794371D01*
X176946904Y-97794371D02*
X177536969Y-96980551D01*
X177536969Y-96980551D02*
X178159616Y-96190160D01*
X178159616Y-96190160D02*
X178814156Y-95424223D01*
X178814156Y-95424223D02*
X179499900Y-94683767D01*
X179499900Y-94683767D02*
X180216159Y-93969819D01*
X180216159Y-93969819D02*
X180962245Y-93283405D01*
X180962245Y-93283405D02*
X181737468Y-92625552D01*
X181737468Y-92625552D02*
X182541139Y-91997287D01*
X182541139Y-91997287D02*
X183372569Y-91399636D01*
X183372569Y-91399636D02*
X184231070Y-90833627D01*
X184231070Y-90833627D02*
X184390334Y-90733998D01*
X184390334Y-90733998D02*
X185259180Y-90219724D01*
X185259180Y-90219724D02*
X186150030Y-89741026D01*
X186150030Y-89741026D02*
X187060950Y-89298561D01*
X187060950Y-89298561D02*
X187990008Y-88892990D01*
X187990008Y-88892990D02*
X188935269Y-88524971D01*
X188935269Y-88524971D02*
X189894801Y-88195164D01*
X189894801Y-88195164D02*
X190866670Y-87904228D01*
X190866670Y-87904228D02*
X191848942Y-87652822D01*
X191848942Y-87652822D02*
X192839684Y-87441605D01*
X192839684Y-87441605D02*
X193836963Y-87271237D01*
X193836963Y-87271237D02*
X194838846Y-87142376D01*
X194838846Y-87142376D02*
X194963084Y-87129345D01*
X194963084Y-87129345D02*
X195037633Y-87121586D01*
X195037633Y-87121586D02*
X195106704Y-87114182D01*
X195106704Y-87114182D02*
X195171334Y-87107125D01*
X195171334Y-87107125D02*
X195232557Y-87100405D01*
X195232557Y-87100405D02*
X195291411Y-87094014D01*
X195291411Y-87094014D02*
X195348930Y-87087944D01*
X195348930Y-87087944D02*
X195406153Y-87082186D01*
X195406153Y-87082186D02*
X195464114Y-87076730D01*
X195464114Y-87076730D02*
X195523850Y-87071569D01*
X195523850Y-87071569D02*
X195586397Y-87066693D01*
X195586397Y-87066693D02*
X195652791Y-87062094D01*
X195652791Y-87062094D02*
X195724068Y-87057764D01*
X195724068Y-87057764D02*
X195801264Y-87053693D01*
X195801264Y-87053693D02*
X195885416Y-87049872D01*
X195885416Y-87049872D02*
X195977560Y-87046294D01*
X195977560Y-87046294D02*
X196078731Y-87042949D01*
X196078731Y-87042949D02*
X196189966Y-87039829D01*
X196189966Y-87039829D02*
X196312302Y-87036925D01*
X196312302Y-87036925D02*
X196446773Y-87034229D01*
X196446773Y-87034229D02*
X196594417Y-87031731D01*
X196594417Y-87031731D02*
X196756270Y-87029423D01*
X196756270Y-87029423D02*
X196933367Y-87027296D01*
X196933367Y-87027296D02*
X197126745Y-87025341D01*
X197126745Y-87025341D02*
X197337440Y-87023551D01*
X197337440Y-87023551D02*
X197566488Y-87021916D01*
X197566488Y-87021916D02*
X197814925Y-87020427D01*
X197814925Y-87020427D02*
X198083787Y-87019076D01*
X198083787Y-87019076D02*
X198374111Y-87017854D01*
X198374111Y-87017854D02*
X198686933Y-87016752D01*
X198686933Y-87016752D02*
X199023288Y-87015762D01*
X199023288Y-87015762D02*
X199384214Y-87014875D01*
X199384214Y-87014875D02*
X199770745Y-87014083D01*
X199770745Y-87014083D02*
X200183919Y-87013376D01*
X200183919Y-87013376D02*
X200624771Y-87012745D01*
X200624771Y-87012745D02*
X201094337Y-87012183D01*
X201094337Y-87012183D02*
X201593654Y-87011681D01*
X201593654Y-87011681D02*
X202123758Y-87011229D01*
X202123758Y-87011229D02*
X202685685Y-87010820D01*
X202685685Y-87010820D02*
X203280471Y-87010444D01*
X203280471Y-87010444D02*
X203909152Y-87010092D01*
X203909152Y-87010092D02*
X204572765Y-87009757D01*
X204572765Y-87009757D02*
X205272345Y-87009429D01*
X205272345Y-87009429D02*
X206008928Y-87009099D01*
X206008928Y-87009099D02*
X206783552Y-87008760D01*
X206783552Y-87008760D02*
X207597251Y-87008402D01*
X207597251Y-87008402D02*
X208451062Y-87008016D01*
X208451062Y-87008016D02*
X209346022Y-87007594D01*
X209346022Y-87007594D02*
X209478125Y-87007530D01*
X209478125Y-87007530D02*
X222723167Y-87001074D01*
X222723167Y-87001074D02*
X222722899Y-99611412D01*
X222722899Y-99611412D02*
X222722899Y-99611412D01*
G36*
X172473905Y-112115917D02*
G01*
X172482047Y-111406194D01*
X172507059Y-110724717D01*
X172549817Y-110060535D01*
X172611200Y-109402696D01*
X172692083Y-108740251D01*
X172793344Y-108062247D01*
X172803666Y-107999000D01*
X172989854Y-106995233D01*
X173216203Y-106003600D01*
X173482023Y-105025130D01*
X173786627Y-104060847D01*
X174129325Y-103111778D01*
X174509428Y-102178952D01*
X174926247Y-101263393D01*
X175379093Y-100366129D01*
X175867278Y-99488186D01*
X176390111Y-98630591D01*
X176946904Y-97794371D01*
X177536969Y-96980551D01*
X178159616Y-96190160D01*
X178814156Y-95424223D01*
X179499900Y-94683767D01*
X180216159Y-93969819D01*
X180962245Y-93283405D01*
X181737468Y-92625552D01*
X182541139Y-91997287D01*
X183372569Y-91399636D01*
X184231070Y-90833627D01*
X184390334Y-90733998D01*
X185259180Y-90219724D01*
X186150030Y-89741026D01*
X187060950Y-89298561D01*
X187990008Y-88892990D01*
X188935269Y-88524971D01*
X189894801Y-88195164D01*
X190866670Y-87904228D01*
X191848942Y-87652822D01*
X192839684Y-87441605D01*
X193836963Y-87271237D01*
X194838846Y-87142376D01*
X194963084Y-87129345D01*
X195037633Y-87121586D01*
X195106704Y-87114182D01*
X195171334Y-87107125D01*
X195232557Y-87100405D01*
X195291411Y-87094014D01*
X195348930Y-87087944D01*
X195406153Y-87082186D01*
X195464114Y-87076730D01*
X195523850Y-87071569D01*
X195586397Y-87066693D01*
X195652791Y-87062094D01*
X195724068Y-87057764D01*
X195801264Y-87053693D01*
X195885416Y-87049872D01*
X195977560Y-87046294D01*
X196078731Y-87042949D01*
X196189966Y-87039829D01*
X196312302Y-87036925D01*
X196446773Y-87034229D01*
X196594417Y-87031731D01*
X196756270Y-87029423D01*
X196933367Y-87027296D01*
X197126745Y-87025341D01*
X197337440Y-87023551D01*
X197566488Y-87021916D01*
X197814925Y-87020427D01*
X198083787Y-87019076D01*
X198374111Y-87017854D01*
X198686933Y-87016752D01*
X199023288Y-87015762D01*
X199384214Y-87014875D01*
X199770745Y-87014083D01*
X200183919Y-87013376D01*
X200624771Y-87012745D01*
X201094337Y-87012183D01*
X201593654Y-87011681D01*
X202123758Y-87011229D01*
X202685685Y-87010820D01*
X203280471Y-87010444D01*
X203909152Y-87010092D01*
X204572765Y-87009757D01*
X205272345Y-87009429D01*
X206008928Y-87009099D01*
X206783552Y-87008760D01*
X207597251Y-87008402D01*
X208451062Y-87008016D01*
X209346022Y-87007594D01*
X209478125Y-87007530D01*
X222723167Y-87001074D01*
X222722899Y-99611412D01*
X222722872Y-100513988D01*
X222722826Y-101375281D01*
X222722756Y-102196337D01*
X222722656Y-102978208D01*
X222722521Y-103721943D01*
X222722345Y-104428589D01*
X222722123Y-105099197D01*
X222721850Y-105734815D01*
X222721519Y-106336493D01*
X222721125Y-106905280D01*
X222720664Y-107442225D01*
X222720129Y-107948377D01*
X222719515Y-108424785D01*
X222718816Y-108872498D01*
X222718028Y-109292566D01*
X222717144Y-109686037D01*
X222716159Y-110053961D01*
X222715068Y-110397386D01*
X222713864Y-110717363D01*
X222712544Y-111014939D01*
X222711100Y-111291165D01*
X222709529Y-111547089D01*
X222707823Y-111783761D01*
X222705978Y-112002229D01*
X222703988Y-112203542D01*
X222701849Y-112388751D01*
X222699553Y-112558903D01*
X222697096Y-112715048D01*
X222694473Y-112858236D01*
X222691677Y-112989514D01*
X222688704Y-113109934D01*
X222685548Y-113220542D01*
X222682203Y-113322390D01*
X222678664Y-113416525D01*
X222674926Y-113503997D01*
X222670982Y-113585855D01*
X222666828Y-113663148D01*
X222662459Y-113736925D01*
X222657867Y-113808236D01*
X222653049Y-113878129D01*
X222648059Y-113946834D01*
X222550262Y-114985901D01*
X222411850Y-116013155D01*
X222232909Y-117028323D01*
X222013526Y-118031132D01*
X221753787Y-119021308D01*
X221453779Y-119998579D01*
X221113588Y-120962672D01*
X220733300Y-121913313D01*
X220313001Y-122850231D01*
X219852779Y-123773152D01*
X219352719Y-124681804D01*
X219131477Y-125058044D01*
X219021594Y-125237598D01*
X218891714Y-125443512D01*
X218746971Y-125668082D01*
X218592498Y-125903601D01*
X218433430Y-126142363D01*
X218274899Y-126376662D01*
X218122040Y-126598793D01*
X217979986Y-126801048D01*
X217854464Y-126974917D01*
X217238414Y-127777825D01*
X216588657Y-128557283D01*
X215907210Y-129311352D01*
X215196090Y-130038091D01*
X214457316Y-130735561D01*
X213692903Y-131401825D01*
X212904870Y-132034942D01*
X212095235Y-132632974D01*
X211643680Y-132944736D01*
X210768372Y-133509399D01*
X209876964Y-134034927D01*
X208969791Y-134521201D01*
X208047195Y-134968096D01*
X207109513Y-135375490D01*
X206157083Y-135743260D01*
X205190245Y-136071284D01*
X204209337Y-136359440D01*
X203214698Y-136607605D01*
X202206667Y-136815655D01*
X201185581Y-136983469D01*
X200151781Y-137110924D01*
X200127750Y-137113391D01*
X199914165Y-137134671D01*
X199718452Y-137152805D01*
X199534591Y-137168063D01*
X199356564Y-137180714D01*
X199178351Y-137191027D01*
X198993932Y-137199270D01*
X198797287Y-137205713D01*
X198582397Y-137210626D01*
X198343242Y-137214276D01*
X198073803Y-137216933D01*
X197768059Y-137218866D01*
X197767667Y-137218868D01*
X197543066Y-137219871D01*
X197328467Y-137220556D01*
X197128098Y-137220928D01*
X196946187Y-137220994D01*
X196786960Y-137220756D01*
X196654647Y-137220220D01*
X196553473Y-137219391D01*
X196487668Y-137218274D01*
X196465917Y-137217399D01*
X196409292Y-137213603D01*
X196319992Y-137207914D01*
X196207602Y-137200930D01*
X196081708Y-137193247D01*
X195989667Y-137187713D01*
X194995945Y-137107443D01*
X194001580Y-136985612D01*
X193009361Y-136822851D01*
X192022082Y-136619792D01*
X191042535Y-136377069D01*
X190073511Y-136095312D01*
X189117802Y-135775153D01*
X188189750Y-135421896D01*
X187466110Y-135115352D01*
X186738812Y-134779782D01*
X186019393Y-134420929D01*
X185319392Y-134044536D01*
X184686667Y-133678220D01*
X183817280Y-133131999D01*
X182975274Y-132554350D01*
X182157114Y-131942762D01*
X181522250Y-131431421D01*
X180978113Y-130963493D01*
X180430720Y-130463157D01*
X179888386Y-129938726D01*
X179359425Y-129398514D01*
X178852151Y-128850833D01*
X178374878Y-128303998D01*
X178272051Y-128181417D01*
X177631450Y-127379052D01*
X177025523Y-126553126D01*
X176454826Y-125704861D01*
X175919920Y-124835475D01*
X175421362Y-123946190D01*
X174959712Y-123038226D01*
X174535527Y-122112803D01*
X174149366Y-121171142D01*
X173801788Y-120214462D01*
X173493351Y-119243985D01*
X173224613Y-118260931D01*
X172996134Y-117266519D01*
X172808471Y-116261971D01*
X172803666Y-116232834D01*
X172700495Y-115552858D01*
X172617782Y-114889443D01*
X172554651Y-114231638D01*
X172510223Y-113568492D01*
X172483623Y-112889054D01*
X172478497Y-112513673D01*
X175366161Y-112513673D01*
X175402428Y-113459424D01*
X175478589Y-114400059D01*
X175501569Y-114613584D01*
X175629038Y-115558291D01*
X175797030Y-116492388D01*
X176004820Y-117414794D01*
X176251687Y-118324429D01*
X176536904Y-119220212D01*
X176859750Y-120101062D01*
X177219500Y-120965901D01*
X177615430Y-121813646D01*
X178046817Y-122643218D01*
X178512936Y-123453537D01*
X179013065Y-124243521D01*
X179546478Y-125012091D01*
X180112454Y-125758165D01*
X180710267Y-126480665D01*
X181339193Y-127178508D01*
X181998511Y-127850615D01*
X182687494Y-128495906D01*
X183405421Y-129113300D01*
X184151566Y-129701716D01*
X184925206Y-130260075D01*
X185725618Y-130787295D01*
X186552077Y-131282297D01*
X186738283Y-131387302D01*
X187587666Y-131836851D01*
X188454563Y-132248190D01*
X189337634Y-132621011D01*
X190235544Y-132955008D01*
X191146951Y-133249874D01*
X192070520Y-133505303D01*
X193004910Y-133720988D01*
X193948785Y-133896623D01*
X194900806Y-134031901D01*
X195859634Y-134126514D01*
X196823931Y-134180157D01*
X197792359Y-134192524D01*
X198763579Y-134163306D01*
X198836584Y-134159425D01*
X199803215Y-134085508D01*
X200761404Y-133970435D01*
X201710034Y-133814747D01*
X202647989Y-133618982D01*
X203574152Y-133383679D01*
X204487406Y-133109379D01*
X205386635Y-132796620D01*
X206270723Y-132445943D01*
X207138553Y-132057885D01*
X207989007Y-131632987D01*
X208820971Y-131171788D01*
X209633326Y-130674827D01*
X210424957Y-130142644D01*
X211194747Y-129575778D01*
X211941579Y-128974768D01*
X212664337Y-128340155D01*
X213361904Y-127672476D01*
X214033164Y-126972271D01*
X214279360Y-126699750D01*
X214899454Y-125970544D01*
X215485671Y-125216896D01*
X216037424Y-124440164D01*
X216554122Y-123641705D01*
X217035176Y-122822877D01*
X217479996Y-121985037D01*
X217887992Y-121129543D01*
X218258575Y-120257752D01*
X218591155Y-119371022D01*
X218885142Y-118470709D01*
X219139947Y-117558173D01*
X219354981Y-116634769D01*
X219529653Y-115701855D01*
X219663374Y-114760789D01*
X219726860Y-114158500D01*
X219755873Y-113796204D01*
X219779245Y-113412139D01*
X219796821Y-113014883D01*
X219808441Y-112613014D01*
X219813951Y-112215109D01*
X219813191Y-111829746D01*
X219806005Y-111465502D01*
X219792236Y-111130955D01*
X219784671Y-111004667D01*
X219701481Y-110038301D01*
X219580266Y-109084035D01*
X219420199Y-108137127D01*
X219220452Y-107192837D01*
X218980197Y-106246422D01*
X218910802Y-105998750D01*
X218845710Y-105771508D01*
X218790031Y-105578992D01*
X218741864Y-105415134D01*
X218699309Y-105273865D01*
X218660465Y-105149117D01*
X218623433Y-105034824D01*
X218586311Y-104924915D01*
X218547199Y-104813324D01*
X218504197Y-104693983D01*
X218489853Y-104654667D01*
X218291499Y-104129802D01*
X218088310Y-103628618D01*
X217876532Y-103143360D01*
X217652412Y-102666273D01*
X217412196Y-102189604D01*
X217152129Y-101705597D01*
X216868459Y-101206498D01*
X216609590Y-100770584D01*
X216246818Y-100191228D01*
X215861820Y-99615864D01*
X215458429Y-99049295D01*
X215040477Y-98496323D01*
X214611797Y-97961751D01*
X214176221Y-97450384D01*
X213737582Y-96967023D01*
X213299712Y-96516473D01*
X212938681Y-96170013D01*
X212373200Y-95661790D01*
X211799885Y-95178980D01*
X211213530Y-94717851D01*
X210608930Y-94274672D01*
X209980878Y-93845709D01*
X209324169Y-93427230D01*
X208633598Y-93015504D01*
X208181667Y-92759493D01*
X207430668Y-92361342D01*
X206679105Y-92002190D01*
X205920094Y-91679177D01*
X205146747Y-91389443D01*
X204352180Y-91130130D01*
X204028931Y-91034871D01*
X203659979Y-90930872D01*
X203321789Y-90839032D01*
X203005290Y-90757178D01*
X202701409Y-90683137D01*
X202401076Y-90614735D01*
X202095219Y-90549801D01*
X201774766Y-90486160D01*
X201598834Y-90452760D01*
X200644091Y-90293667D01*
X199697630Y-90175660D01*
X198757619Y-90098716D01*
X197822228Y-90062814D01*
X196889629Y-90067931D01*
X195957990Y-90114046D01*
X195025481Y-90201135D01*
X194090273Y-90329178D01*
X193904750Y-90359364D01*
X192947151Y-90540451D01*
X192002824Y-90761560D01*
X191072675Y-91022222D01*
X190157606Y-91321974D01*
X189258522Y-91660350D01*
X188376327Y-92036884D01*
X187511923Y-92451111D01*
X186666216Y-92902565D01*
X185840108Y-93390780D01*
X185034503Y-93915292D01*
X184250306Y-94475634D01*
X183488420Y-95071341D01*
X182749748Y-95701947D01*
X182035195Y-96366987D01*
X181808605Y-96590167D01*
X181142533Y-97284961D01*
X180509445Y-98005639D01*
X179909947Y-98751007D01*
X179344645Y-99519873D01*
X178814145Y-100311045D01*
X178319054Y-101123331D01*
X177859978Y-101955538D01*
X177437524Y-102806474D01*
X177052298Y-103674948D01*
X176704906Y-104559766D01*
X176395955Y-105459736D01*
X176126052Y-106373667D01*
X175895802Y-107300365D01*
X175705812Y-108238640D01*
X175618418Y-108761000D01*
X175495918Y-109686469D01*
X175412988Y-110623120D01*
X175369709Y-111566880D01*
X175366161Y-112513673D01*
X172478497Y-112513673D01*
X172473972Y-112182374D01*
X172473905Y-112115917D01*
G37*
X172473905Y-112115917D02*
X172482047Y-111406194D01*
X172507059Y-110724717D01*
X172549817Y-110060535D01*
X172611200Y-109402696D01*
X172692083Y-108740251D01*
X172793344Y-108062247D01*
X172803666Y-107999000D01*
X172989854Y-106995233D01*
X173216203Y-106003600D01*
X173482023Y-105025130D01*
X173786627Y-104060847D01*
X174129325Y-103111778D01*
X174509428Y-102178952D01*
X174926247Y-101263393D01*
X175379093Y-100366129D01*
X175867278Y-99488186D01*
X176390111Y-98630591D01*
X176946904Y-97794371D01*
X177536969Y-96980551D01*
X178159616Y-96190160D01*
X178814156Y-95424223D01*
X179499900Y-94683767D01*
X180216159Y-93969819D01*
X180962245Y-93283405D01*
X181737468Y-92625552D01*
X182541139Y-91997287D01*
X183372569Y-91399636D01*
X184231070Y-90833627D01*
X184390334Y-90733998D01*
X185259180Y-90219724D01*
X186150030Y-89741026D01*
X187060950Y-89298561D01*
X187990008Y-88892990D01*
X188935269Y-88524971D01*
X189894801Y-88195164D01*
X190866670Y-87904228D01*
X191848942Y-87652822D01*
X192839684Y-87441605D01*
X193836963Y-87271237D01*
X194838846Y-87142376D01*
X194963084Y-87129345D01*
X195037633Y-87121586D01*
X195106704Y-87114182D01*
X195171334Y-87107125D01*
X195232557Y-87100405D01*
X195291411Y-87094014D01*
X195348930Y-87087944D01*
X195406153Y-87082186D01*
X195464114Y-87076730D01*
X195523850Y-87071569D01*
X195586397Y-87066693D01*
X195652791Y-87062094D01*
X195724068Y-87057764D01*
X195801264Y-87053693D01*
X195885416Y-87049872D01*
X195977560Y-87046294D01*
X196078731Y-87042949D01*
X196189966Y-87039829D01*
X196312302Y-87036925D01*
X196446773Y-87034229D01*
X196594417Y-87031731D01*
X196756270Y-87029423D01*
X196933367Y-87027296D01*
X197126745Y-87025341D01*
X197337440Y-87023551D01*
X197566488Y-87021916D01*
X197814925Y-87020427D01*
X198083787Y-87019076D01*
X198374111Y-87017854D01*
X198686933Y-87016752D01*
X199023288Y-87015762D01*
X199384214Y-87014875D01*
X199770745Y-87014083D01*
X200183919Y-87013376D01*
X200624771Y-87012745D01*
X201094337Y-87012183D01*
X201593654Y-87011681D01*
X202123758Y-87011229D01*
X202685685Y-87010820D01*
X203280471Y-87010444D01*
X203909152Y-87010092D01*
X204572765Y-87009757D01*
X205272345Y-87009429D01*
X206008928Y-87009099D01*
X206783552Y-87008760D01*
X207597251Y-87008402D01*
X208451062Y-87008016D01*
X209346022Y-87007594D01*
X209478125Y-87007530D01*
X222723167Y-87001074D01*
X222722899Y-99611412D01*
X222722872Y-100513988D01*
X222722826Y-101375281D01*
X222722756Y-102196337D01*
X222722656Y-102978208D01*
X222722521Y-103721943D01*
X222722345Y-104428589D01*
X222722123Y-105099197D01*
X222721850Y-105734815D01*
X222721519Y-106336493D01*
X222721125Y-106905280D01*
X222720664Y-107442225D01*
X222720129Y-107948377D01*
X222719515Y-108424785D01*
X222718816Y-108872498D01*
X222718028Y-109292566D01*
X222717144Y-109686037D01*
X222716159Y-110053961D01*
X222715068Y-110397386D01*
X222713864Y-110717363D01*
X222712544Y-111014939D01*
X222711100Y-111291165D01*
X222709529Y-111547089D01*
X222707823Y-111783761D01*
X222705978Y-112002229D01*
X222703988Y-112203542D01*
X222701849Y-112388751D01*
X222699553Y-112558903D01*
X222697096Y-112715048D01*
X222694473Y-112858236D01*
X222691677Y-112989514D01*
X222688704Y-113109934D01*
X222685548Y-113220542D01*
X222682203Y-113322390D01*
X222678664Y-113416525D01*
X222674926Y-113503997D01*
X222670982Y-113585855D01*
X222666828Y-113663148D01*
X222662459Y-113736925D01*
X222657867Y-113808236D01*
X222653049Y-113878129D01*
X222648059Y-113946834D01*
X222550262Y-114985901D01*
X222411850Y-116013155D01*
X222232909Y-117028323D01*
X222013526Y-118031132D01*
X221753787Y-119021308D01*
X221453779Y-119998579D01*
X221113588Y-120962672D01*
X220733300Y-121913313D01*
X220313001Y-122850231D01*
X219852779Y-123773152D01*
X219352719Y-124681804D01*
X219131477Y-125058044D01*
X219021594Y-125237598D01*
X218891714Y-125443512D01*
X218746971Y-125668082D01*
X218592498Y-125903601D01*
X218433430Y-126142363D01*
X218274899Y-126376662D01*
X218122040Y-126598793D01*
X217979986Y-126801048D01*
X217854464Y-126974917D01*
X217238414Y-127777825D01*
X216588657Y-128557283D01*
X215907210Y-129311352D01*
X215196090Y-130038091D01*
X214457316Y-130735561D01*
X213692903Y-131401825D01*
X212904870Y-132034942D01*
X212095235Y-132632974D01*
X211643680Y-132944736D01*
X210768372Y-133509399D01*
X209876964Y-134034927D01*
X208969791Y-134521201D01*
X208047195Y-134968096D01*
X207109513Y-135375490D01*
X206157083Y-135743260D01*
X205190245Y-136071284D01*
X204209337Y-136359440D01*
X203214698Y-136607605D01*
X202206667Y-136815655D01*
X201185581Y-136983469D01*
X200151781Y-137110924D01*
X200127750Y-137113391D01*
X199914165Y-137134671D01*
X199718452Y-137152805D01*
X199534591Y-137168063D01*
X199356564Y-137180714D01*
X199178351Y-137191027D01*
X198993932Y-137199270D01*
X198797287Y-137205713D01*
X198582397Y-137210626D01*
X198343242Y-137214276D01*
X198073803Y-137216933D01*
X197768059Y-137218866D01*
X197767667Y-137218868D01*
X197543066Y-137219871D01*
X197328467Y-137220556D01*
X197128098Y-137220928D01*
X196946187Y-137220994D01*
X196786960Y-137220756D01*
X196654647Y-137220220D01*
X196553473Y-137219391D01*
X196487668Y-137218274D01*
X196465917Y-137217399D01*
X196409292Y-137213603D01*
X196319992Y-137207914D01*
X196207602Y-137200930D01*
X196081708Y-137193247D01*
X195989667Y-137187713D01*
X194995945Y-137107443D01*
X194001580Y-136985612D01*
X193009361Y-136822851D01*
X192022082Y-136619792D01*
X191042535Y-136377069D01*
X190073511Y-136095312D01*
X189117802Y-135775153D01*
X188189750Y-135421896D01*
X187466110Y-135115352D01*
X186738812Y-134779782D01*
X186019393Y-134420929D01*
X185319392Y-134044536D01*
X184686667Y-133678220D01*
X183817280Y-133131999D01*
X182975274Y-132554350D01*
X182157114Y-131942762D01*
X181522250Y-131431421D01*
X180978113Y-130963493D01*
X180430720Y-130463157D01*
X179888386Y-129938726D01*
X179359425Y-129398514D01*
X178852151Y-128850833D01*
X178374878Y-128303998D01*
X178272051Y-128181417D01*
X177631450Y-127379052D01*
X177025523Y-126553126D01*
X176454826Y-125704861D01*
X175919920Y-124835475D01*
X175421362Y-123946190D01*
X174959712Y-123038226D01*
X174535527Y-122112803D01*
X174149366Y-121171142D01*
X173801788Y-120214462D01*
X173493351Y-119243985D01*
X173224613Y-118260931D01*
X172996134Y-117266519D01*
X172808471Y-116261971D01*
X172803666Y-116232834D01*
X172700495Y-115552858D01*
X172617782Y-114889443D01*
X172554651Y-114231638D01*
X172510223Y-113568492D01*
X172483623Y-112889054D01*
X172478497Y-112513673D01*
X175366161Y-112513673D01*
X175402428Y-113459424D01*
X175478589Y-114400059D01*
X175501569Y-114613584D01*
X175629038Y-115558291D01*
X175797030Y-116492388D01*
X176004820Y-117414794D01*
X176251687Y-118324429D01*
X176536904Y-119220212D01*
X176859750Y-120101062D01*
X177219500Y-120965901D01*
X177615430Y-121813646D01*
X178046817Y-122643218D01*
X178512936Y-123453537D01*
X179013065Y-124243521D01*
X179546478Y-125012091D01*
X180112454Y-125758165D01*
X180710267Y-126480665D01*
X181339193Y-127178508D01*
X181998511Y-127850615D01*
X182687494Y-128495906D01*
X183405421Y-129113300D01*
X184151566Y-129701716D01*
X184925206Y-130260075D01*
X185725618Y-130787295D01*
X186552077Y-131282297D01*
X186738283Y-131387302D01*
X187587666Y-131836851D01*
X188454563Y-132248190D01*
X189337634Y-132621011D01*
X190235544Y-132955008D01*
X191146951Y-133249874D01*
X192070520Y-133505303D01*
X193004910Y-133720988D01*
X193948785Y-133896623D01*
X194900806Y-134031901D01*
X195859634Y-134126514D01*
X196823931Y-134180157D01*
X197792359Y-134192524D01*
X198763579Y-134163306D01*
X198836584Y-134159425D01*
X199803215Y-134085508D01*
X200761404Y-133970435D01*
X201710034Y-133814747D01*
X202647989Y-133618982D01*
X203574152Y-133383679D01*
X204487406Y-133109379D01*
X205386635Y-132796620D01*
X206270723Y-132445943D01*
X207138553Y-132057885D01*
X207989007Y-131632987D01*
X208820971Y-131171788D01*
X209633326Y-130674827D01*
X210424957Y-130142644D01*
X211194747Y-129575778D01*
X211941579Y-128974768D01*
X212664337Y-128340155D01*
X213361904Y-127672476D01*
X214033164Y-126972271D01*
X214279360Y-126699750D01*
X214899454Y-125970544D01*
X215485671Y-125216896D01*
X216037424Y-124440164D01*
X216554122Y-123641705D01*
X217035176Y-122822877D01*
X217479996Y-121985037D01*
X217887992Y-121129543D01*
X218258575Y-120257752D01*
X218591155Y-119371022D01*
X218885142Y-118470709D01*
X219139947Y-117558173D01*
X219354981Y-116634769D01*
X219529653Y-115701855D01*
X219663374Y-114760789D01*
X219726860Y-114158500D01*
X219755873Y-113796204D01*
X219779245Y-113412139D01*
X219796821Y-113014883D01*
X219808441Y-112613014D01*
X219813951Y-112215109D01*
X219813191Y-111829746D01*
X219806005Y-111465502D01*
X219792236Y-111130955D01*
X219784671Y-111004667D01*
X219701481Y-110038301D01*
X219580266Y-109084035D01*
X219420199Y-108137127D01*
X219220452Y-107192837D01*
X218980197Y-106246422D01*
X218910802Y-105998750D01*
X218845710Y-105771508D01*
X218790031Y-105578992D01*
X218741864Y-105415134D01*
X218699309Y-105273865D01*
X218660465Y-105149117D01*
X218623433Y-105034824D01*
X218586311Y-104924915D01*
X218547199Y-104813324D01*
X218504197Y-104693983D01*
X218489853Y-104654667D01*
X218291499Y-104129802D01*
X218088310Y-103628618D01*
X217876532Y-103143360D01*
X217652412Y-102666273D01*
X217412196Y-102189604D01*
X217152129Y-101705597D01*
X216868459Y-101206498D01*
X216609590Y-100770584D01*
X216246818Y-100191228D01*
X215861820Y-99615864D01*
X215458429Y-99049295D01*
X215040477Y-98496323D01*
X214611797Y-97961751D01*
X214176221Y-97450384D01*
X213737582Y-96967023D01*
X213299712Y-96516473D01*
X212938681Y-96170013D01*
X212373200Y-95661790D01*
X211799885Y-95178980D01*
X211213530Y-94717851D01*
X210608930Y-94274672D01*
X209980878Y-93845709D01*
X209324169Y-93427230D01*
X208633598Y-93015504D01*
X208181667Y-92759493D01*
X207430668Y-92361342D01*
X206679105Y-92002190D01*
X205920094Y-91679177D01*
X205146747Y-91389443D01*
X204352180Y-91130130D01*
X204028931Y-91034871D01*
X203659979Y-90930872D01*
X203321789Y-90839032D01*
X203005290Y-90757178D01*
X202701409Y-90683137D01*
X202401076Y-90614735D01*
X202095219Y-90549801D01*
X201774766Y-90486160D01*
X201598834Y-90452760D01*
X200644091Y-90293667D01*
X199697630Y-90175660D01*
X198757619Y-90098716D01*
X197822228Y-90062814D01*
X196889629Y-90067931D01*
X195957990Y-90114046D01*
X195025481Y-90201135D01*
X194090273Y-90329178D01*
X193904750Y-90359364D01*
X192947151Y-90540451D01*
X192002824Y-90761560D01*
X191072675Y-91022222D01*
X190157606Y-91321974D01*
X189258522Y-91660350D01*
X188376327Y-92036884D01*
X187511923Y-92451111D01*
X186666216Y-92902565D01*
X185840108Y-93390780D01*
X185034503Y-93915292D01*
X184250306Y-94475634D01*
X183488420Y-95071341D01*
X182749748Y-95701947D01*
X182035195Y-96366987D01*
X181808605Y-96590167D01*
X181142533Y-97284961D01*
X180509445Y-98005639D01*
X179909947Y-98751007D01*
X179344645Y-99519873D01*
X178814145Y-100311045D01*
X178319054Y-101123331D01*
X177859978Y-101955538D01*
X177437524Y-102806474D01*
X177052298Y-103674948D01*
X176704906Y-104559766D01*
X176395955Y-105459736D01*
X176126052Y-106373667D01*
X175895802Y-107300365D01*
X175705812Y-108238640D01*
X175618418Y-108761000D01*
X175495918Y-109686469D01*
X175412988Y-110623120D01*
X175369709Y-111566880D01*
X175366161Y-112513673D01*
X172478497Y-112513673D01*
X172473972Y-112182374D01*
X172473905Y-112115917D01*
X205006667Y-124255000D02*
X197852334Y-124255000D01*
X197852334Y-124255000D02*
X197852334Y-117248834D01*
X197852334Y-117248834D02*
X198042834Y-117248834D01*
X198042834Y-117248834D02*
X198042834Y-124064500D01*
X198042834Y-124064500D02*
X204858500Y-124064500D01*
X204858500Y-124064500D02*
X204858500Y-117248834D01*
X204858500Y-117248834D02*
X198042834Y-117248834D01*
X198042834Y-117248834D02*
X197852334Y-117248834D01*
X197852334Y-117248834D02*
X197852334Y-117100667D01*
X197852334Y-117100667D02*
X205006667Y-117100667D01*
X205006667Y-117100667D02*
X205006667Y-124255000D01*
X205006667Y-124255000D02*
X205006667Y-124255000D01*
G36*
X205006667Y-117100667D02*
G01*
X205006667Y-124255000D01*
X197852334Y-124255000D01*
X197852334Y-124064500D01*
X198042834Y-124064500D01*
X204858500Y-124064500D01*
X204858500Y-117248834D01*
X198042834Y-117248834D01*
X198042834Y-124064500D01*
X197852334Y-124064500D01*
X197852334Y-117100667D01*
X205006667Y-117100667D01*
G37*
X205006667Y-117100667D02*
X205006667Y-124255000D01*
X197852334Y-124255000D01*
X197852334Y-124064500D01*
X198042834Y-124064500D01*
X204858500Y-124064500D01*
X204858500Y-117248834D01*
X198042834Y-117248834D01*
X198042834Y-124064500D01*
X197852334Y-124064500D01*
X197852334Y-117100667D01*
X205006667Y-117100667D01*
X203398000Y-122646334D02*
X199461000Y-122646334D01*
X199461000Y-122646334D02*
X199461000Y-121058834D01*
X199461000Y-121058834D02*
X200244167Y-121058834D01*
X200244167Y-121058834D02*
X200244167Y-121863167D01*
X200244167Y-121863167D02*
X202614834Y-121863167D01*
X202614834Y-121863167D02*
X202614834Y-121058834D01*
X202614834Y-121058834D02*
X200244167Y-121058834D01*
X200244167Y-121058834D02*
X199461000Y-121058834D01*
X199461000Y-121058834D02*
X199461000Y-119492500D01*
X199461000Y-119492500D02*
X200244167Y-119492500D01*
X200244167Y-119492500D02*
X200244167Y-120275667D01*
X200244167Y-120275667D02*
X202614834Y-120275667D01*
X202614834Y-120275667D02*
X202614834Y-119492500D01*
X202614834Y-119492500D02*
X200244167Y-119492500D01*
X200244167Y-119492500D02*
X199461000Y-119492500D01*
X199461000Y-119492500D02*
X199461000Y-118709334D01*
X199461000Y-118709334D02*
X203398000Y-118709334D01*
X203398000Y-118709334D02*
X203398000Y-122646334D01*
X203398000Y-122646334D02*
X203398000Y-122646334D01*
G36*
X203398000Y-118709334D02*
G01*
X203398000Y-122646334D01*
X199461000Y-122646334D01*
X199461000Y-121863167D01*
X200244167Y-121863167D01*
X202614834Y-121863167D01*
X202614834Y-121058834D01*
X200244167Y-121058834D01*
X200244167Y-121863167D01*
X199461000Y-121863167D01*
X199461000Y-120275667D01*
X200244167Y-120275667D01*
X202614834Y-120275667D01*
X202614834Y-119492500D01*
X200244167Y-119492500D01*
X200244167Y-120275667D01*
X199461000Y-120275667D01*
X199461000Y-118709334D01*
X203398000Y-118709334D01*
G37*
X203398000Y-118709334D02*
X203398000Y-122646334D01*
X199461000Y-122646334D01*
X199461000Y-121863167D01*
X200244167Y-121863167D01*
X202614834Y-121863167D01*
X202614834Y-121058834D01*
X200244167Y-121058834D01*
X200244167Y-121863167D01*
X199461000Y-121863167D01*
X199461000Y-120275667D01*
X200244167Y-120275667D01*
X202614834Y-120275667D01*
X202614834Y-119492500D01*
X200244167Y-119492500D01*
X200244167Y-120275667D01*
X199461000Y-120275667D01*
X199461000Y-118709334D01*
X203398000Y-118709334D01*
X193915334Y-122646334D02*
X193111000Y-122646334D01*
X193111000Y-122646334D02*
X193111000Y-118709334D01*
X193111000Y-118709334D02*
X193915334Y-118709334D01*
X193915334Y-118709334D02*
X193915334Y-122646334D01*
X193915334Y-122646334D02*
X193915334Y-122646334D01*
G36*
X193915334Y-122646334D02*
G01*
X193111000Y-122646334D01*
X193111000Y-118709334D01*
X193915334Y-118709334D01*
X193915334Y-122646334D01*
G37*
X193915334Y-122646334D02*
X193111000Y-122646334D01*
X193111000Y-118709334D01*
X193915334Y-118709334D01*
X193915334Y-122646334D01*
X197946358Y-90196144D02*
X198187624Y-90199223D01*
X198187624Y-90199223D02*
X198409369Y-90203847D01*
X198409369Y-90203847D02*
X198603864Y-90210020D01*
X198603864Y-90210020D02*
X198751917Y-90217059D01*
X198751917Y-90217059D02*
X199689355Y-90289719D01*
X199689355Y-90289719D02*
X200606185Y-90396987D01*
X200606185Y-90396987D02*
X201507301Y-90539678D01*
X201507301Y-90539678D02*
X202397600Y-90718610D01*
X202397600Y-90718610D02*
X203281974Y-90934600D01*
X203281974Y-90934600D02*
X203641417Y-91033328D01*
X203641417Y-91033328D02*
X204500485Y-91297717D01*
X204500485Y-91297717D02*
X205356200Y-91602385D01*
X205356200Y-91602385D02*
X206204920Y-91945439D01*
X206204920Y-91945439D02*
X207043002Y-92324982D01*
X207043002Y-92324982D02*
X207866805Y-92739120D01*
X207866805Y-92739120D02*
X208672685Y-93185958D01*
X208672685Y-93185958D02*
X209457001Y-93663600D01*
X209457001Y-93663600D02*
X210216111Y-94170153D01*
X210216111Y-94170153D02*
X210946373Y-94703720D01*
X210946373Y-94703720D02*
X211430750Y-95086008D01*
X211430750Y-95086008D02*
X212004282Y-95570566D01*
X212004282Y-95570566D02*
X212570978Y-96083283D01*
X212570978Y-96083283D02*
X213125554Y-96618628D01*
X213125554Y-96618628D02*
X213662729Y-97171070D01*
X213662729Y-97171070D02*
X214177220Y-97735076D01*
X214177220Y-97735076D02*
X214663743Y-98305116D01*
X214663743Y-98305116D02*
X215117017Y-98875657D01*
X215117017Y-98875657D02*
X215357948Y-99198239D01*
X215357948Y-99198239D02*
X215426757Y-99293898D01*
X215426757Y-99293898D02*
X215506889Y-99407449D01*
X215506889Y-99407449D02*
X215595306Y-99534380D01*
X215595306Y-99534380D02*
X215688964Y-99670181D01*
X215688964Y-99670181D02*
X215784823Y-99810342D01*
X215784823Y-99810342D02*
X215879843Y-99950354D01*
X215879843Y-99950354D02*
X215970982Y-100085704D01*
X215970982Y-100085704D02*
X216055199Y-100211884D01*
X216055199Y-100211884D02*
X216129453Y-100324383D01*
X216129453Y-100324383D02*
X216190702Y-100418691D01*
X216190702Y-100418691D02*
X216235907Y-100490297D01*
X216235907Y-100490297D02*
X216262026Y-100534692D01*
X216262026Y-100534692D02*
X216267334Y-100546982D01*
X216267334Y-100546982D02*
X216248723Y-100563438D01*
X216248723Y-100563438D02*
X216202550Y-100578507D01*
X216202550Y-100578507D02*
X216187959Y-100581398D01*
X216187959Y-100581398D02*
X216036965Y-100609758D01*
X216036965Y-100609758D02*
X215849635Y-100648384D01*
X215849635Y-100648384D02*
X215630024Y-100696248D01*
X215630024Y-100696248D02*
X215382183Y-100752320D01*
X215382183Y-100752320D02*
X215110169Y-100815571D01*
X215110169Y-100815571D02*
X214818033Y-100884971D01*
X214818033Y-100884971D02*
X214509830Y-100959493D01*
X214509830Y-100959493D02*
X214189614Y-101038106D01*
X214189614Y-101038106D02*
X213861438Y-101119781D01*
X213861438Y-101119781D02*
X213529357Y-101203490D01*
X213529357Y-101203490D02*
X213197423Y-101288203D01*
X213197423Y-101288203D02*
X212869691Y-101372892D01*
X212869691Y-101372892D02*
X212550215Y-101456526D01*
X212550215Y-101456526D02*
X212243048Y-101538077D01*
X212243048Y-101538077D02*
X211952244Y-101616516D01*
X211952244Y-101616516D02*
X211681856Y-101690814D01*
X211681856Y-101690814D02*
X211435939Y-101759941D01*
X211435939Y-101759941D02*
X211218547Y-101822869D01*
X211218547Y-101822869D02*
X211033733Y-101878567D01*
X211033733Y-101878567D02*
X210885550Y-101926009D01*
X210885550Y-101926009D02*
X210867493Y-101932091D01*
X210867493Y-101932091D02*
X210664069Y-102001141D01*
X210664069Y-102001141D02*
X210607021Y-101952071D01*
X210607021Y-101952071D02*
X210527756Y-101909759D01*
X210527756Y-101909759D02*
X210435581Y-101903741D01*
X210435581Y-101903741D02*
X210335864Y-101932128D01*
X210335864Y-101932128D02*
X210233973Y-101993029D01*
X210233973Y-101993029D02*
X210135277Y-102084556D01*
X210135277Y-102084556D02*
X210095789Y-102132037D01*
X210095789Y-102132037D02*
X210049076Y-102187969D01*
X210049076Y-102187969D02*
X210009481Y-102227271D01*
X210009481Y-102227271D02*
X209987438Y-102240765D01*
X209987438Y-102240765D02*
X209941507Y-102248473D01*
X209941507Y-102248473D02*
X209859625Y-102268836D01*
X209859625Y-102268836D02*
X209745815Y-102300575D01*
X209745815Y-102300575D02*
X209604101Y-102342409D01*
X209604101Y-102342409D02*
X209438505Y-102393060D01*
X209438505Y-102393060D02*
X209253050Y-102451247D01*
X209253050Y-102451247D02*
X209051761Y-102515692D01*
X209051761Y-102515692D02*
X208838660Y-102585115D01*
X208838660Y-102585115D02*
X208617770Y-102658237D01*
X208617770Y-102658237D02*
X208393115Y-102733778D01*
X208393115Y-102733778D02*
X208168718Y-102810459D01*
X208168718Y-102810459D02*
X207948602Y-102886999D01*
X207948602Y-102886999D02*
X207885334Y-102909274D01*
X207885334Y-102909274D02*
X207277418Y-103126386D01*
X207277418Y-103126386D02*
X206694953Y-103339653D01*
X206694953Y-103339653D02*
X206130251Y-103552146D01*
X206130251Y-103552146D02*
X205575623Y-103766932D01*
X205575623Y-103766932D02*
X205023383Y-103987080D01*
X205023383Y-103987080D02*
X204465843Y-104215658D01*
X204465843Y-104215658D02*
X203895314Y-104455736D01*
X203895314Y-104455736D02*
X203304110Y-104710382D01*
X203304110Y-104710382D02*
X202684543Y-104982665D01*
X202684543Y-104982665D02*
X202625417Y-105008900D01*
X202625417Y-105008900D02*
X202378554Y-105118290D01*
X202378554Y-105118290D02*
X202167473Y-105211276D01*
X202167473Y-105211276D02*
X201989431Y-105288997D01*
X201989431Y-105288997D02*
X201841682Y-105352592D01*
X201841682Y-105352592D02*
X201721483Y-105403200D01*
X201721483Y-105403200D02*
X201626089Y-105441961D01*
X201626089Y-105441961D02*
X201552755Y-105470013D01*
X201552755Y-105470013D02*
X201498738Y-105488496D01*
X201498738Y-105488496D02*
X201461292Y-105498550D01*
X201461292Y-105498550D02*
X201439139Y-105501334D01*
X201439139Y-105501334D02*
X201430022Y-105497358D01*
X201430022Y-105497358D02*
X201420104Y-105482792D01*
X201420104Y-105482792D02*
X201408310Y-105453675D01*
X201408310Y-105453675D02*
X201393566Y-105406044D01*
X201393566Y-105406044D02*
X201374797Y-105335940D01*
X201374797Y-105335940D02*
X201350929Y-105239400D01*
X201350929Y-105239400D02*
X201320886Y-105112465D01*
X201320886Y-105112465D02*
X201283596Y-104951173D01*
X201283596Y-104951173D02*
X201249669Y-104802834D01*
X201249669Y-104802834D02*
X201169286Y-104467630D01*
X201169286Y-104467630D02*
X201082794Y-104138707D01*
X201082794Y-104138707D02*
X200991527Y-103819775D01*
X200991527Y-103819775D02*
X200896818Y-103514547D01*
X200896818Y-103514547D02*
X200799999Y-103226735D01*
X200799999Y-103226735D02*
X200702405Y-102960049D01*
X200702405Y-102960049D02*
X200605369Y-102718202D01*
X200605369Y-102718202D02*
X200510223Y-102504904D01*
X200510223Y-102504904D02*
X200418303Y-102323868D01*
X200418303Y-102323868D02*
X200330940Y-102178806D01*
X200330940Y-102178806D02*
X200283547Y-102113454D01*
X200283547Y-102113454D02*
X200196883Y-102022645D01*
X200196883Y-102022645D02*
X200100929Y-101953440D01*
X200100929Y-101953440D02*
X200005708Y-101912067D01*
X200005708Y-101912067D02*
X199944826Y-101903000D01*
X199944826Y-101903000D02*
X199863521Y-101920310D01*
X199863521Y-101920310D02*
X199770694Y-101968220D01*
X199770694Y-101968220D02*
X199676044Y-102040697D01*
X199676044Y-102040697D02*
X199602360Y-102115992D01*
X199602360Y-102115992D02*
X199506902Y-102242531D01*
X199506902Y-102242531D02*
X199411262Y-102399712D01*
X199411262Y-102399712D02*
X199315168Y-102588437D01*
X199315168Y-102588437D02*
X199218351Y-102809610D01*
X199218351Y-102809610D02*
X199120538Y-103064133D01*
X199120538Y-103064133D02*
X199021460Y-103352909D01*
X199021460Y-103352909D02*
X198920846Y-103676843D01*
X198920846Y-103676843D02*
X198818424Y-104036836D01*
X198818424Y-104036836D02*
X198713924Y-104433792D01*
X198713924Y-104433792D02*
X198607075Y-104868614D01*
X198607075Y-104868614D02*
X198497607Y-105342204D01*
X198497607Y-105342204D02*
X198385248Y-105855467D01*
X198385248Y-105855467D02*
X198269728Y-106409305D01*
X198269728Y-106409305D02*
X198178062Y-106865955D01*
X198178062Y-106865955D02*
X198153055Y-106990495D01*
X198153055Y-106990495D02*
X198130707Y-107082255D01*
X198130707Y-107082255D02*
X198104762Y-107149840D01*
X198104762Y-107149840D02*
X198068963Y-107201854D01*
X198068963Y-107201854D02*
X198017057Y-107246904D01*
X198017057Y-107246904D02*
X197942787Y-107293591D01*
X197942787Y-107293591D02*
X197839898Y-107350523D01*
X197839898Y-107350523D02*
X197816540Y-107363239D01*
X197816540Y-107363239D02*
X197344524Y-107621901D01*
X197344524Y-107621901D02*
X196873848Y-107882749D01*
X196873848Y-107882749D02*
X196410879Y-108142181D01*
X196410879Y-108142181D02*
X195961983Y-108396593D01*
X195961983Y-108396593D02*
X195533525Y-108642383D01*
X195533525Y-108642383D02*
X195131873Y-108875946D01*
X195131873Y-108875946D02*
X194846956Y-109043955D01*
X194846956Y-109043955D02*
X194307495Y-109364250D01*
X194307495Y-109364250D02*
X198471748Y-109369595D01*
X198471748Y-109369595D02*
X202636000Y-109374939D01*
X202636000Y-109374939D02*
X202636000Y-110052167D01*
X202636000Y-110052167D02*
X197915834Y-110052167D01*
X197915834Y-110052167D02*
X197915834Y-115449667D01*
X197915834Y-115449667D02*
X197217334Y-115449667D01*
X197217334Y-115449667D02*
X197217334Y-110052167D01*
X197217334Y-110052167D02*
X193177494Y-110052167D01*
X193177494Y-110052167D02*
X193054289Y-110133554D01*
X193054289Y-110133554D02*
X192986976Y-110177554D01*
X192986976Y-110177554D02*
X192896716Y-110235879D01*
X192896716Y-110235879D02*
X192789052Y-110305009D01*
X192789052Y-110305009D02*
X192669526Y-110381427D01*
X192669526Y-110381427D02*
X192543683Y-110461613D01*
X192543683Y-110461613D02*
X192417066Y-110542050D01*
X192417066Y-110542050D02*
X192295218Y-110619217D01*
X192295218Y-110619217D02*
X192183682Y-110689598D01*
X192183682Y-110689598D02*
X192088003Y-110749674D01*
X192088003Y-110749674D02*
X192013723Y-110795925D01*
X192013723Y-110795925D02*
X191966385Y-110824833D01*
X191966385Y-110824833D02*
X191953615Y-110832186D01*
X191953615Y-110832186D02*
X191926414Y-110843216D01*
X191926414Y-110843216D02*
X191909534Y-110834841D01*
X191909534Y-110834841D02*
X191896693Y-110799103D01*
X191896693Y-110799103D02*
X191885082Y-110745323D01*
X191885082Y-110745323D02*
X191859534Y-110611841D01*
X191859534Y-110611841D02*
X191835937Y-110476077D01*
X191835937Y-110476077D02*
X191815915Y-110348480D01*
X191815915Y-110348480D02*
X191801089Y-110239496D01*
X191801089Y-110239496D02*
X191793081Y-110159574D01*
X191793081Y-110159574D02*
X191792481Y-110148913D01*
X191792481Y-110148913D02*
X191788084Y-110052461D01*
X191788084Y-110052461D02*
X191655792Y-110052314D01*
X191655792Y-110052314D02*
X191587252Y-110054550D01*
X191587252Y-110054550D02*
X191539448Y-110060528D01*
X191539448Y-110060528D02*
X191523514Y-110068042D01*
X191523514Y-110068042D02*
X191527181Y-110093179D01*
X191527181Y-110093179D02*
X191537324Y-110152715D01*
X191537324Y-110152715D02*
X191552670Y-110239432D01*
X191552670Y-110239432D02*
X191571946Y-110346113D01*
X191571946Y-110346113D02*
X191587901Y-110433167D01*
X191587901Y-110433167D02*
X191610099Y-110558422D01*
X191610099Y-110558422D02*
X191629554Y-110677297D01*
X191629554Y-110677297D02*
X191644785Y-110780028D01*
X191644785Y-110780028D02*
X191654312Y-110856855D01*
X191654312Y-110856855D02*
X191656679Y-110886569D01*
X191656679Y-110886569D02*
X191657564Y-110941115D01*
X191657564Y-110941115D02*
X191650060Y-110979351D01*
X191650060Y-110979351D02*
X191627385Y-111013048D01*
X191627385Y-111013048D02*
X191582753Y-111053976D01*
X191582753Y-111053976D02*
X191540003Y-111089021D01*
X191540003Y-111089021D02*
X191494102Y-111123938D01*
X191494102Y-111123938D02*
X191418033Y-111179021D01*
X191418033Y-111179021D02*
X191316753Y-111250799D01*
X191316753Y-111250799D02*
X191195214Y-111335806D01*
X191195214Y-111335806D02*
X191058374Y-111430572D01*
X191058374Y-111430572D02*
X190911186Y-111531629D01*
X190911186Y-111531629D02*
X190781663Y-111619869D01*
X190781663Y-111619869D02*
X190144404Y-112052417D01*
X190144404Y-112052417D02*
X191008577Y-112063000D01*
X191008577Y-112063000D02*
X191872750Y-112073584D01*
X191872750Y-112073584D02*
X191872750Y-112750917D01*
X191872750Y-112750917D02*
X189125664Y-112761811D01*
X189125664Y-112761811D02*
X188752957Y-113029887D01*
X188752957Y-113029887D02*
X188644059Y-113108600D01*
X188644059Y-113108600D02*
X188508505Y-113207196D01*
X188508505Y-113207196D02*
X188353619Y-113320313D01*
X188353619Y-113320313D02*
X188186725Y-113442586D01*
X188186725Y-113442586D02*
X188015148Y-113568654D01*
X188015148Y-113568654D02*
X187846212Y-113693153D01*
X187846212Y-113693153D02*
X187748618Y-113765273D01*
X187748618Y-113765273D02*
X187591335Y-113881630D01*
X187591335Y-113881630D02*
X187432792Y-113998904D01*
X187432792Y-113998904D02*
X187279135Y-114112549D01*
X187279135Y-114112549D02*
X187136512Y-114218020D01*
X187136512Y-114218020D02*
X187011070Y-114310770D01*
X187011070Y-114310770D02*
X186908955Y-114386255D01*
X186908955Y-114386255D02*
X186851954Y-114428375D01*
X186851954Y-114428375D02*
X186759519Y-114495701D01*
X186759519Y-114495701D02*
X186678332Y-114553031D01*
X186678332Y-114553031D02*
X186614739Y-114596022D01*
X186614739Y-114596022D02*
X186575089Y-114620332D01*
X186575089Y-114620332D02*
X186565725Y-114624167D01*
X186565725Y-114624167D02*
X186554782Y-114604779D01*
X186554782Y-114604779D02*
X186555956Y-114550403D01*
X186555956Y-114550403D02*
X186559374Y-114523625D01*
X186559374Y-114523625D02*
X186568318Y-114466626D01*
X186568318Y-114466626D02*
X186582934Y-114377703D01*
X186582934Y-114377703D02*
X186602276Y-114262314D01*
X186602276Y-114262314D02*
X186625399Y-114125918D01*
X186625399Y-114125918D02*
X186651356Y-113973972D01*
X186651356Y-113973972D02*
X186679201Y-113811935D01*
X186679201Y-113811935D02*
X186707988Y-113645266D01*
X186707988Y-113645266D02*
X186736771Y-113479422D01*
X186736771Y-113479422D02*
X186764604Y-113319861D01*
X186764604Y-113319861D02*
X186790541Y-113172041D01*
X186790541Y-113172041D02*
X186813634Y-113041422D01*
X186813634Y-113041422D02*
X186832939Y-112933460D01*
X186832939Y-112933460D02*
X186847510Y-112853615D01*
X186847510Y-112853615D02*
X186856399Y-112807344D01*
X186856399Y-112807344D02*
X186858406Y-112798542D01*
X186858406Y-112798542D02*
X186859706Y-112778311D01*
X186859706Y-112778311D02*
X186842413Y-112767098D01*
X186842413Y-112767098D02*
X186798117Y-112762358D01*
X186798117Y-112762358D02*
X186735968Y-112761517D01*
X186735968Y-112761517D02*
X186602250Y-112761534D01*
X186602250Y-112761534D02*
X186596170Y-112855875D01*
X186596170Y-112855875D02*
X186591240Y-112896581D01*
X186591240Y-112896581D02*
X186579653Y-112974082D01*
X186579653Y-112974082D02*
X186562217Y-113083504D01*
X186562217Y-113083504D02*
X186539741Y-113219974D01*
X186539741Y-113219974D02*
X186513032Y-113378617D01*
X186513032Y-113378617D02*
X186482898Y-113554559D01*
X186482898Y-113554559D02*
X186450148Y-113742926D01*
X186450148Y-113742926D02*
X186432135Y-113845400D01*
X186432135Y-113845400D02*
X186398787Y-114034749D01*
X186398787Y-114034749D02*
X186367835Y-114211178D01*
X186367835Y-114211178D02*
X186340035Y-114370330D01*
X186340035Y-114370330D02*
X186316144Y-114507844D01*
X186316144Y-114507844D02*
X186296916Y-114619364D01*
X186296916Y-114619364D02*
X186283107Y-114700530D01*
X186283107Y-114700530D02*
X186275474Y-114746984D01*
X186275474Y-114746984D02*
X186274173Y-114756381D01*
X186274173Y-114756381D02*
X186294928Y-114758342D01*
X186294928Y-114758342D02*
X186355552Y-114760314D01*
X186355552Y-114760314D02*
X186453582Y-114762276D01*
X186453582Y-114762276D02*
X186586552Y-114764210D01*
X186586552Y-114764210D02*
X186751999Y-114766098D01*
X186751999Y-114766098D02*
X186947458Y-114767920D01*
X186947458Y-114767920D02*
X187170465Y-114769659D01*
X187170465Y-114769659D02*
X187418557Y-114771296D01*
X187418557Y-114771296D02*
X187689268Y-114772812D01*
X187689268Y-114772812D02*
X187980135Y-114774188D01*
X187980135Y-114774188D02*
X188288694Y-114775406D01*
X188288694Y-114775406D02*
X188612480Y-114776447D01*
X188612480Y-114776447D02*
X188949030Y-114777293D01*
X188949030Y-114777293D02*
X189073459Y-114777547D01*
X189073459Y-114777547D02*
X191872750Y-114782917D01*
X191872750Y-114782917D02*
X191872750Y-115439084D01*
X191872750Y-115439084D02*
X188655417Y-115449667D01*
X188655417Y-115449667D02*
X188290422Y-115450937D01*
X188290422Y-115450937D02*
X187937443Y-115452302D01*
X187937443Y-115452302D02*
X187598751Y-115453746D01*
X187598751Y-115453746D02*
X187276621Y-115455254D01*
X187276621Y-115455254D02*
X186973326Y-115456811D01*
X186973326Y-115456811D02*
X186691138Y-115458403D01*
X186691138Y-115458403D02*
X186432330Y-115460012D01*
X186432330Y-115460012D02*
X186199175Y-115461626D01*
X186199175Y-115461626D02*
X185993947Y-115463227D01*
X185993947Y-115463227D02*
X185818919Y-115464802D01*
X185818919Y-115464802D02*
X185676363Y-115466335D01*
X185676363Y-115466335D02*
X185568553Y-115467811D01*
X185568553Y-115467811D02*
X185497761Y-115469214D01*
X185497761Y-115469214D02*
X185466261Y-115470530D01*
X185466261Y-115470530D02*
X185464900Y-115470953D01*
X185464900Y-115470953D02*
X185455402Y-115486251D01*
X185455402Y-115486251D02*
X185416137Y-115525020D01*
X185416137Y-115525020D02*
X185350447Y-115584354D01*
X185350447Y-115584354D02*
X185261677Y-115661348D01*
X185261677Y-115661348D02*
X185153171Y-115753098D01*
X185153171Y-115753098D02*
X185028274Y-115856698D01*
X185028274Y-115856698D02*
X184904471Y-115957786D01*
X184904471Y-115957786D02*
X184676158Y-116143415D01*
X184676158Y-116143415D02*
X184444207Y-116332971D01*
X184444207Y-116332971D02*
X184212656Y-116523097D01*
X184212656Y-116523097D02*
X183985543Y-116710439D01*
X183985543Y-116710439D02*
X183766907Y-116891640D01*
X183766907Y-116891640D02*
X183560787Y-117063345D01*
X183560787Y-117063345D02*
X183371219Y-117222198D01*
X183371219Y-117222198D02*
X183202242Y-117364843D01*
X183202242Y-117364843D02*
X183057895Y-117487925D01*
X183057895Y-117487925D02*
X182942216Y-117588087D01*
X182942216Y-117588087D02*
X182935061Y-117594360D01*
X182935061Y-117594360D02*
X182677486Y-117820410D01*
X182677486Y-117820410D02*
X182657113Y-117740997D01*
X182657113Y-117740997D02*
X182641726Y-117678010D01*
X182641726Y-117678010D02*
X182623026Y-117595696D01*
X182623026Y-117595696D02*
X182600414Y-117491136D01*
X182600414Y-117491136D02*
X182573292Y-117361411D01*
X182573292Y-117361411D02*
X182541061Y-117203601D01*
X182541061Y-117203601D02*
X182503123Y-117014788D01*
X182503123Y-117014788D02*
X182458880Y-116792054D01*
X182458880Y-116792054D02*
X182407733Y-116532478D01*
X182407733Y-116532478D02*
X182371801Y-116349250D01*
X182371801Y-116349250D02*
X182197724Y-115460250D01*
X182197724Y-115460250D02*
X182063610Y-115453877D01*
X182063610Y-115453877D02*
X181991191Y-115451177D01*
X181991191Y-115451177D02*
X181952455Y-115453863D01*
X181952455Y-115453863D02*
X181938817Y-115464979D01*
X181938817Y-115464979D02*
X181941691Y-115487570D01*
X181941691Y-115487570D02*
X181944238Y-115496210D01*
X181944238Y-115496210D02*
X181952049Y-115530244D01*
X181952049Y-115530244D02*
X181966415Y-115601122D01*
X181966415Y-115601122D02*
X181986449Y-115704014D01*
X181986449Y-115704014D02*
X182011264Y-115834090D01*
X182011264Y-115834090D02*
X182039974Y-115986519D01*
X182039974Y-115986519D02*
X182071692Y-116156471D01*
X182071692Y-116156471D02*
X182105531Y-116339117D01*
X182105531Y-116339117D02*
X182140605Y-116529625D01*
X182140605Y-116529625D02*
X182176026Y-116723167D01*
X182176026Y-116723167D02*
X182210908Y-116914911D01*
X182210908Y-116914911D02*
X182244364Y-117100028D01*
X182244364Y-117100028D02*
X182275508Y-117273687D01*
X182275508Y-117273687D02*
X182303451Y-117431059D01*
X182303451Y-117431059D02*
X182327309Y-117567313D01*
X182327309Y-117567313D02*
X182346194Y-117677618D01*
X182346194Y-117677618D02*
X182358588Y-117753134D01*
X182358588Y-117753134D02*
X182406450Y-118056350D01*
X182406450Y-118056350D02*
X182324796Y-118123550D01*
X182324796Y-118123550D02*
X182266853Y-118172465D01*
X182266853Y-118172465D02*
X182181513Y-118246205D01*
X182181513Y-118246205D02*
X182072788Y-118341209D01*
X182072788Y-118341209D02*
X181944684Y-118453913D01*
X181944684Y-118453913D02*
X181801213Y-118580755D01*
X181801213Y-118580755D02*
X181646381Y-118718173D01*
X181646381Y-118718173D02*
X181484198Y-118862604D01*
X181484198Y-118862604D02*
X181318674Y-119010487D01*
X181318674Y-119010487D02*
X181153816Y-119158257D01*
X181153816Y-119158257D02*
X180993634Y-119302353D01*
X180993634Y-119302353D02*
X180842136Y-119439213D01*
X180842136Y-119439213D02*
X180740976Y-119531007D01*
X180740976Y-119531007D02*
X180588459Y-119670014D01*
X180588459Y-119670014D02*
X180442338Y-119803893D01*
X180442338Y-119803893D02*
X180299198Y-119935868D01*
X180299198Y-119935868D02*
X180155620Y-120069160D01*
X180155620Y-120069160D02*
X180008190Y-120206995D01*
X180008190Y-120206995D02*
X179853490Y-120352593D01*
X179853490Y-120352593D02*
X179688103Y-120509179D01*
X179688103Y-120509179D02*
X179508615Y-120679975D01*
X179508615Y-120679975D02*
X179311607Y-120868204D01*
X179311607Y-120868204D02*
X179093664Y-121077090D01*
X179093664Y-121077090D02*
X178851369Y-121309855D01*
X178851369Y-121309855D02*
X178651084Y-121502546D01*
X178651084Y-121502546D02*
X178502868Y-121644976D01*
X178502868Y-121644976D02*
X178363904Y-121778059D01*
X178363904Y-121778059D02*
X178237164Y-121898980D01*
X178237164Y-121898980D02*
X178125619Y-122004926D01*
X178125619Y-122004926D02*
X178032242Y-122093083D01*
X178032242Y-122093083D02*
X177960004Y-122160636D01*
X177960004Y-122160636D02*
X177911877Y-122204773D01*
X177911877Y-122204773D02*
X177890834Y-122222678D01*
X177890834Y-122222678D02*
X177890239Y-122222933D01*
X177890239Y-122222933D02*
X177874080Y-122205968D01*
X177874080Y-122205968D02*
X177845821Y-122162253D01*
X177845821Y-122162253D02*
X177823213Y-122122459D01*
X177823213Y-122122459D02*
X177778166Y-122035197D01*
X177778166Y-122035197D02*
X177719681Y-121915479D01*
X177719681Y-121915479D02*
X177650756Y-121769860D01*
X177650756Y-121769860D02*
X177574387Y-121604899D01*
X177574387Y-121604899D02*
X177493570Y-121427151D01*
X177493570Y-121427151D02*
X177411303Y-121243173D01*
X177411303Y-121243173D02*
X177330581Y-121059523D01*
X177330581Y-121059523D02*
X177254401Y-120882756D01*
X177254401Y-120882756D02*
X177225676Y-120814980D01*
X177225676Y-120814980D02*
X176888979Y-119965709D01*
X176888979Y-119965709D02*
X176585104Y-119094624D01*
X176585104Y-119094624D02*
X176316465Y-118209368D01*
X176316465Y-118209368D02*
X176085479Y-117317583D01*
X176085479Y-117317583D02*
X175996782Y-116926875D01*
X175996782Y-116926875D02*
X175938058Y-116647612D01*
X175938058Y-116647612D02*
X175891854Y-116408113D01*
X175891854Y-116408113D02*
X175858070Y-116207732D01*
X175858070Y-116207732D02*
X175836607Y-116045825D01*
X175836607Y-116045825D02*
X175827365Y-115921747D01*
X175827365Y-115921747D02*
X175829482Y-115841250D01*
X175829482Y-115841250D02*
X175834803Y-115804439D01*
X175834803Y-115804439D02*
X175846830Y-115729009D01*
X175846830Y-115729009D02*
X175865035Y-115618053D01*
X175865035Y-115618053D02*
X175888886Y-115474662D01*
X175888886Y-115474662D02*
X175917854Y-115301928D01*
X175917854Y-115301928D02*
X175951409Y-115102943D01*
X175951409Y-115102943D02*
X175989021Y-114880798D01*
X175989021Y-114880798D02*
X176030160Y-114638586D01*
X176030160Y-114638586D02*
X176074296Y-114379398D01*
X176074296Y-114379398D02*
X176120900Y-114106325D01*
X176120900Y-114106325D02*
X176169440Y-113822461D01*
X176169440Y-113822461D02*
X176219388Y-113530896D01*
X176219388Y-113530896D02*
X176270213Y-113234723D01*
X176270213Y-113234723D02*
X176321385Y-112937033D01*
X176321385Y-112937033D02*
X176372374Y-112640917D01*
X176372374Y-112640917D02*
X176422651Y-112349469D01*
X176422651Y-112349469D02*
X176471686Y-112065779D01*
X176471686Y-112065779D02*
X176518948Y-111792940D01*
X176518948Y-111792940D02*
X176563907Y-111534042D01*
X176563907Y-111534042D02*
X176606034Y-111292179D01*
X176606034Y-111292179D02*
X176644799Y-111070441D01*
X176644799Y-111070441D02*
X176679671Y-110871921D01*
X176679671Y-110871921D02*
X176710121Y-110699710D01*
X176710121Y-110699710D02*
X176727442Y-110602500D01*
X176727442Y-110602500D02*
X176841489Y-109971710D01*
X176841489Y-109971710D02*
X176951736Y-109375585D01*
X176951736Y-109375585D02*
X177057998Y-108815041D01*
X177057998Y-108815041D02*
X177160093Y-108290992D01*
X177160093Y-108290992D02*
X177257836Y-107804351D01*
X177257836Y-107804351D02*
X177351044Y-107356032D01*
X177351044Y-107356032D02*
X177439533Y-106946951D01*
X177439533Y-106946951D02*
X177523119Y-106578021D01*
X177523119Y-106578021D02*
X177601619Y-106250156D01*
X177601619Y-106250156D02*
X177603596Y-106242167D01*
X177603596Y-106242167D02*
X177660058Y-106018530D01*
X177660058Y-106018530D02*
X177720109Y-105788561D01*
X177720109Y-105788561D02*
X177782155Y-105557826D01*
X177782155Y-105557826D02*
X177844603Y-105331893D01*
X177844603Y-105331893D02*
X177905857Y-105116330D01*
X177905857Y-105116330D02*
X177964324Y-104916703D01*
X177964324Y-104916703D02*
X178018410Y-104738582D01*
X178018410Y-104738582D02*
X178066521Y-104587532D01*
X178066521Y-104587532D02*
X178107062Y-104469123D01*
X178107062Y-104469123D02*
X178124805Y-104421834D01*
X178124805Y-104421834D02*
X178187495Y-104274661D01*
X178187495Y-104274661D02*
X178261303Y-104121612D01*
X178261303Y-104121612D02*
X178342217Y-103969371D01*
X178342217Y-103969371D02*
X178426229Y-103824621D01*
X178426229Y-103824621D02*
X178509327Y-103694048D01*
X178509327Y-103694048D02*
X178587501Y-103584334D01*
X178587501Y-103584334D02*
X178656742Y-103502165D01*
X178656742Y-103502165D02*
X178700215Y-103462768D01*
X178700215Y-103462768D02*
X178755574Y-103435752D01*
X178755574Y-103435752D02*
X178830024Y-103415655D01*
X178830024Y-103415655D02*
X178863900Y-103410803D01*
X178863900Y-103410803D02*
X178989915Y-103418216D01*
X178989915Y-103418216D02*
X179108814Y-103465892D01*
X179108814Y-103465892D02*
X179221841Y-103554514D01*
X179221841Y-103554514D02*
X179309126Y-103655697D01*
X179309126Y-103655697D02*
X179403363Y-103795804D01*
X179403363Y-103795804D02*
X179497673Y-103965292D01*
X179497673Y-103965292D02*
X179592365Y-104165206D01*
X179592365Y-104165206D02*
X179687751Y-104396593D01*
X179687751Y-104396593D02*
X179784139Y-104660498D01*
X179784139Y-104660498D02*
X179881840Y-104957967D01*
X179881840Y-104957967D02*
X179981164Y-105290047D01*
X179981164Y-105290047D02*
X180082420Y-105657782D01*
X180082420Y-105657782D02*
X180185917Y-106062220D01*
X180185917Y-106062220D02*
X180291968Y-106504405D01*
X180291968Y-106504405D02*
X180400880Y-106985383D01*
X180400880Y-106985383D02*
X180512963Y-107506202D01*
X180512963Y-107506202D02*
X180628529Y-108067905D01*
X180628529Y-108067905D02*
X180653985Y-108194736D01*
X180653985Y-108194736D02*
X180701018Y-108433058D01*
X180701018Y-108433058D02*
X180752511Y-108699424D01*
X180752511Y-108699424D02*
X180807815Y-108990161D01*
X180807815Y-108990161D02*
X180866278Y-109301592D01*
X180866278Y-109301592D02*
X180927248Y-109630045D01*
X180927248Y-109630045D02*
X180990076Y-109971845D01*
X180990076Y-109971845D02*
X181054110Y-110323317D01*
X181054110Y-110323317D02*
X181118700Y-110680787D01*
X181118700Y-110680787D02*
X181183193Y-111040581D01*
X181183193Y-111040581D02*
X181246940Y-111399025D01*
X181246940Y-111399025D02*
X181309289Y-111752445D01*
X181309289Y-111752445D02*
X181369589Y-112097165D01*
X181369589Y-112097165D02*
X181427190Y-112429512D01*
X181427190Y-112429512D02*
X181481440Y-112745811D01*
X181481440Y-112745811D02*
X181531688Y-113042388D01*
X181531688Y-113042388D02*
X181577284Y-113315569D01*
X181577284Y-113315569D02*
X181617576Y-113561679D01*
X181617576Y-113561679D02*
X181651913Y-113777045D01*
X181651913Y-113777045D02*
X181679646Y-113957991D01*
X181679646Y-113957991D02*
X181699326Y-114095000D01*
X181699326Y-114095000D02*
X181704561Y-114120343D01*
X181704561Y-114120343D02*
X181708977Y-114112430D01*
X181708977Y-114112430D02*
X181712627Y-114069780D01*
X181712627Y-114069780D02*
X181715563Y-113990911D01*
X181715563Y-113990911D02*
X181717838Y-113874344D01*
X181717838Y-113874344D02*
X181719505Y-113718598D01*
X181719505Y-113718598D02*
X181720616Y-113522190D01*
X181720616Y-113522190D02*
X181720721Y-113494142D01*
X181720721Y-113494142D02*
X181723334Y-112755701D01*
X181723334Y-112755701D02*
X181510729Y-111525642D01*
X181510729Y-111525642D02*
X181405405Y-110917583D01*
X181405405Y-110917583D02*
X181306460Y-110349203D01*
X181306460Y-110349203D02*
X181213487Y-109818399D01*
X181213487Y-109818399D02*
X181168831Y-109565334D01*
X181168831Y-109565334D02*
X181913834Y-109565334D01*
X181913834Y-109565334D02*
X181913834Y-115280334D01*
X181913834Y-115280334D02*
X191692834Y-115280334D01*
X191692834Y-115280334D02*
X191692834Y-114962834D01*
X191692834Y-114962834D02*
X182273667Y-114962834D01*
X182273667Y-114962834D02*
X182272179Y-114640042D01*
X182272179Y-114640042D02*
X182270531Y-114517141D01*
X182270531Y-114517141D02*
X182266997Y-114426876D01*
X182266997Y-114426876D02*
X182261780Y-114372144D01*
X182261780Y-114372144D02*
X182255084Y-114355843D01*
X182255084Y-114355843D02*
X182252500Y-114359584D01*
X182252500Y-114359584D02*
X182247626Y-114350967D01*
X182247626Y-114350967D02*
X182243347Y-114303606D01*
X182243347Y-114303606D02*
X182239771Y-114221088D01*
X182239771Y-114221088D02*
X182237005Y-114107000D01*
X182237005Y-114107000D02*
X182235159Y-113964929D01*
X182235159Y-113964929D02*
X182234341Y-113798460D01*
X182234341Y-113798460D02*
X182234318Y-113766917D01*
X182234318Y-113766917D02*
X182410454Y-113766917D01*
X182410454Y-113766917D02*
X182410563Y-113950669D01*
X182410563Y-113950669D02*
X182410879Y-114105348D01*
X182410879Y-114105348D02*
X182411382Y-114229182D01*
X182411382Y-114229182D02*
X182412050Y-114320397D01*
X182412050Y-114320397D02*
X182412863Y-114377221D01*
X182412863Y-114377221D02*
X182413799Y-114397881D01*
X182413799Y-114397881D02*
X182414838Y-114380604D01*
X182414838Y-114380604D02*
X182415959Y-114323616D01*
X182415959Y-114323616D02*
X182416520Y-114281672D01*
X182416520Y-114281672D02*
X182418106Y-114100189D01*
X182418106Y-114100189D02*
X182418914Y-113892726D01*
X182418914Y-113892726D02*
X182418944Y-113675630D01*
X182418944Y-113675630D02*
X182418195Y-113465249D01*
X182418195Y-113465249D02*
X182416668Y-113277928D01*
X182416668Y-113277928D02*
X182416527Y-113265672D01*
X182416527Y-113265672D02*
X182415377Y-113186522D01*
X182415377Y-113186522D02*
X182414298Y-113147986D01*
X182414298Y-113147986D02*
X182413311Y-113148344D01*
X182413311Y-113148344D02*
X182412436Y-113185877D01*
X182412436Y-113185877D02*
X182411695Y-113258866D01*
X182411695Y-113258866D02*
X182411109Y-113365590D01*
X182411109Y-113365590D02*
X182410697Y-113504330D01*
X182410697Y-113504330D02*
X182410482Y-113673367D01*
X182410482Y-113673367D02*
X182410454Y-113766917D01*
X182410454Y-113766917D02*
X182234318Y-113766917D01*
X182234318Y-113766917D02*
X182234309Y-113756334D01*
X182234309Y-113756334D02*
X182234871Y-113584670D01*
X182234871Y-113584670D02*
X182236486Y-113436563D01*
X182236486Y-113436563D02*
X182239046Y-113315599D01*
X182239046Y-113315599D02*
X182242442Y-113225366D01*
X182242442Y-113225366D02*
X182246567Y-113169450D01*
X182246567Y-113169450D02*
X182251311Y-113151438D01*
X182251311Y-113151438D02*
X182252500Y-113153084D01*
X182252500Y-113153084D02*
X182259782Y-113150902D01*
X182259782Y-113150902D02*
X182265584Y-113109212D01*
X182265584Y-113109212D02*
X182269701Y-113030820D01*
X182269701Y-113030820D02*
X182271930Y-112918530D01*
X182271930Y-112918530D02*
X182272179Y-112883209D01*
X182272179Y-112883209D02*
X182273667Y-112571000D01*
X182273667Y-112571000D02*
X191692834Y-112571000D01*
X191692834Y-112571000D02*
X191692834Y-112253500D01*
X191692834Y-112253500D02*
X182273667Y-112253500D01*
X182273667Y-112253500D02*
X182272647Y-112039462D01*
X182272647Y-112039462D02*
X186743199Y-112039462D01*
X186743199Y-112039462D02*
X186751989Y-112055086D01*
X186751989Y-112055086D02*
X186783584Y-112061601D01*
X186783584Y-112061601D02*
X186846839Y-112062988D01*
X186846839Y-112062988D02*
X186864539Y-112063000D01*
X186864539Y-112063000D02*
X186936801Y-112061273D01*
X186936801Y-112061273D02*
X186976130Y-112054250D01*
X186976130Y-112054250D02*
X186991852Y-112039165D01*
X186991852Y-112039165D02*
X186993834Y-112024668D01*
X186993834Y-112024668D02*
X186997319Y-111997864D01*
X186997319Y-111997864D02*
X187007188Y-111934511D01*
X187007188Y-111934511D02*
X187022561Y-111839765D01*
X187022561Y-111839765D02*
X187042558Y-111718783D01*
X187042558Y-111718783D02*
X187066299Y-111576722D01*
X187066299Y-111576722D02*
X187092903Y-111418739D01*
X187092903Y-111418739D02*
X187121492Y-111249988D01*
X187121492Y-111249988D02*
X187151184Y-111075628D01*
X187151184Y-111075628D02*
X187181101Y-110900815D01*
X187181101Y-110900815D02*
X187210361Y-110730704D01*
X187210361Y-110730704D02*
X187238085Y-110570453D01*
X187238085Y-110570453D02*
X187263393Y-110425219D01*
X187263393Y-110425219D02*
X187285405Y-110300157D01*
X187285405Y-110300157D02*
X187303240Y-110200424D01*
X187303240Y-110200424D02*
X187316020Y-110131177D01*
X187316020Y-110131177D02*
X187322329Y-110099792D01*
X187322329Y-110099792D02*
X187325803Y-110075944D01*
X187325803Y-110075944D02*
X187317158Y-110061949D01*
X187317158Y-110061949D02*
X187288245Y-110055410D01*
X187288245Y-110055410D02*
X187230916Y-110053926D01*
X187230916Y-110053926D02*
X187168862Y-110054622D01*
X187168862Y-110054622D02*
X187097218Y-110056830D01*
X187097218Y-110056830D02*
X187050813Y-110060553D01*
X187050813Y-110060553D02*
X187037025Y-110065100D01*
X187037025Y-110065100D02*
X187040650Y-110066602D01*
X187040650Y-110066602D02*
X187066647Y-110087600D01*
X187066647Y-110087600D02*
X187067101Y-110132938D01*
X187067101Y-110132938D02*
X187061591Y-110165522D01*
X187061591Y-110165522D02*
X187049883Y-110235190D01*
X187049883Y-110235190D02*
X187032759Y-110337271D01*
X187032759Y-110337271D02*
X187011001Y-110467097D01*
X187011001Y-110467097D02*
X186985393Y-110619997D01*
X186985393Y-110619997D02*
X186956716Y-110791301D01*
X186956716Y-110791301D02*
X186925753Y-110976340D01*
X186925753Y-110976340D02*
X186909397Y-111074119D01*
X186909397Y-111074119D02*
X186877511Y-111264150D01*
X186877511Y-111264150D02*
X186847368Y-111442637D01*
X186847368Y-111442637D02*
X186819766Y-111604940D01*
X186819766Y-111604940D02*
X186795503Y-111746419D01*
X186795503Y-111746419D02*
X186775376Y-111862432D01*
X186775376Y-111862432D02*
X186760184Y-111948341D01*
X186760184Y-111948341D02*
X186750725Y-111999504D01*
X186750725Y-111999504D02*
X186748360Y-112010744D01*
X186748360Y-112010744D02*
X186743199Y-112039462D01*
X186743199Y-112039462D02*
X182272647Y-112039462D01*
X182272647Y-112039462D02*
X182272179Y-111941292D01*
X182272179Y-111941292D02*
X182270489Y-111820435D01*
X182270489Y-111820435D02*
X182266855Y-111732726D01*
X182266855Y-111732726D02*
X182261482Y-111680971D01*
X182261482Y-111680971D02*
X182254576Y-111667976D01*
X182254576Y-111667976D02*
X182252500Y-111671417D01*
X182252500Y-111671417D02*
X182247667Y-111662689D01*
X182247667Y-111662689D02*
X182243417Y-111615211D01*
X182243417Y-111615211D02*
X182239854Y-111532561D01*
X182239854Y-111532561D02*
X182237086Y-111418320D01*
X182237086Y-111418320D02*
X182235217Y-111276068D01*
X182235217Y-111276068D02*
X182234355Y-111109383D01*
X182234355Y-111109383D02*
X182234309Y-111057584D01*
X182234309Y-111057584D02*
X182410454Y-111057584D01*
X182410454Y-111057584D02*
X182410563Y-111241335D01*
X182410563Y-111241335D02*
X182410879Y-111396014D01*
X182410879Y-111396014D02*
X182411382Y-111519848D01*
X182411382Y-111519848D02*
X182412050Y-111611064D01*
X182412050Y-111611064D02*
X182412863Y-111667888D01*
X182412863Y-111667888D02*
X182413799Y-111688547D01*
X182413799Y-111688547D02*
X182414838Y-111671270D01*
X182414838Y-111671270D02*
X182415959Y-111614283D01*
X182415959Y-111614283D02*
X182416520Y-111572338D01*
X182416520Y-111572338D02*
X182418106Y-111390855D01*
X182418106Y-111390855D02*
X182418914Y-111183393D01*
X182418914Y-111183393D02*
X182418944Y-110966297D01*
X182418944Y-110966297D02*
X182418195Y-110755916D01*
X182418195Y-110755916D02*
X182416668Y-110568595D01*
X182416668Y-110568595D02*
X182416527Y-110556338D01*
X182416527Y-110556338D02*
X182415377Y-110477189D01*
X182415377Y-110477189D02*
X182414298Y-110438653D01*
X182414298Y-110438653D02*
X182413311Y-110439011D01*
X182413311Y-110439011D02*
X182412436Y-110476544D01*
X182412436Y-110476544D02*
X182411695Y-110549532D01*
X182411695Y-110549532D02*
X182411109Y-110656257D01*
X182411109Y-110656257D02*
X182410697Y-110794997D01*
X182410697Y-110794997D02*
X182410482Y-110964034D01*
X182410482Y-110964034D02*
X182410454Y-111057584D01*
X182410454Y-111057584D02*
X182234309Y-111057584D01*
X182234309Y-111057584D02*
X182234863Y-110884553D01*
X182234863Y-110884553D02*
X182236453Y-110734929D01*
X182236453Y-110734929D02*
X182238974Y-110612290D01*
X182238974Y-110612290D02*
X182242320Y-110520215D01*
X182242320Y-110520215D02*
X182246384Y-110462286D01*
X182246384Y-110462286D02*
X182251061Y-110442081D01*
X182251061Y-110442081D02*
X182252500Y-110443750D01*
X182252500Y-110443750D02*
X182259782Y-110441569D01*
X182259782Y-110441569D02*
X182265584Y-110399879D01*
X182265584Y-110399879D02*
X182269701Y-110321486D01*
X182269701Y-110321486D02*
X182271930Y-110209197D01*
X182271930Y-110209197D02*
X182272179Y-110173875D01*
X182272179Y-110173875D02*
X182273667Y-109861667D01*
X182273667Y-109861667D02*
X191692834Y-109861667D01*
X191692834Y-109861667D02*
X191692834Y-109565334D01*
X191692834Y-109565334D02*
X192666500Y-109565334D01*
X192666500Y-109565334D02*
X192666500Y-109861667D01*
X192666500Y-109861667D02*
X197365500Y-109861667D01*
X197365500Y-109861667D02*
X197365500Y-115280334D01*
X197365500Y-115280334D02*
X197725334Y-115280334D01*
X197725334Y-115280334D02*
X197725334Y-109861667D01*
X197725334Y-109861667D02*
X202445500Y-109861667D01*
X202445500Y-109861667D02*
X202445500Y-109565334D01*
X202445500Y-109565334D02*
X192666500Y-109565334D01*
X192666500Y-109565334D02*
X191692834Y-109565334D01*
X191692834Y-109565334D02*
X181913834Y-109565334D01*
X181913834Y-109565334D02*
X181168831Y-109565334D01*
X181168831Y-109565334D02*
X181133055Y-109362596D01*
X181133055Y-109362596D02*
X187205500Y-109362596D01*
X187205500Y-109362596D02*
X187224642Y-109369299D01*
X187224642Y-109369299D02*
X187274223Y-109371922D01*
X187274223Y-109371922D02*
X187327209Y-109370598D01*
X187327209Y-109370598D02*
X187448917Y-109364250D01*
X187448917Y-109364250D02*
X187495828Y-109142000D01*
X187495828Y-109142000D02*
X187511961Y-109064068D01*
X187511961Y-109064068D02*
X187534714Y-108952036D01*
X187534714Y-108952036D02*
X187562595Y-108813356D01*
X187562595Y-108813356D02*
X187594114Y-108655478D01*
X187594114Y-108655478D02*
X187627780Y-108485852D01*
X187627780Y-108485852D02*
X187662101Y-108311927D01*
X187662101Y-108311927D02*
X187671604Y-108263584D01*
X187671604Y-108263584D02*
X187772943Y-107760075D01*
X187772943Y-107760075D02*
X187875789Y-107273364D01*
X187875789Y-107273364D02*
X187979309Y-106806880D01*
X187979309Y-106806880D02*
X188082675Y-106364057D01*
X188082675Y-106364057D02*
X188185055Y-105948327D01*
X188185055Y-105948327D02*
X188285618Y-105563120D01*
X188285618Y-105563120D02*
X188383535Y-105211871D01*
X188383535Y-105211871D02*
X188477973Y-104898009D01*
X188477973Y-104898009D02*
X188511626Y-104792787D01*
X188511626Y-104792787D02*
X188583995Y-104584680D01*
X188583995Y-104584680D02*
X188663591Y-104380751D01*
X188663591Y-104380751D02*
X188747988Y-104185609D01*
X188747988Y-104185609D02*
X188834755Y-104003864D01*
X188834755Y-104003864D02*
X188921466Y-103840126D01*
X188921466Y-103840126D02*
X189005691Y-103699006D01*
X189005691Y-103699006D02*
X189085002Y-103585113D01*
X189085002Y-103585113D02*
X189156970Y-103503057D01*
X189156970Y-103503057D02*
X189213604Y-103460162D01*
X189213604Y-103460162D02*
X189306328Y-103427632D01*
X189306328Y-103427632D02*
X189412657Y-103413193D01*
X189412657Y-103413193D02*
X189512047Y-103418897D01*
X189512047Y-103418897D02*
X189544645Y-103427076D01*
X189544645Y-103427076D02*
X189644275Y-103478736D01*
X189644275Y-103478736D02*
X189744886Y-103568489D01*
X189744886Y-103568489D02*
X189846616Y-103696695D01*
X189846616Y-103696695D02*
X189949606Y-103863714D01*
X189949606Y-103863714D02*
X190053995Y-104069908D01*
X190053995Y-104069908D02*
X190159925Y-104315637D01*
X190159925Y-104315637D02*
X190267533Y-104601263D01*
X190267533Y-104601263D02*
X190376962Y-104927144D01*
X190376962Y-104927144D02*
X190488350Y-105293643D01*
X190488350Y-105293643D02*
X190601837Y-105701121D01*
X190601837Y-105701121D02*
X190717564Y-106149937D01*
X190717564Y-106149937D02*
X190835670Y-106640453D01*
X190835670Y-106640453D02*
X190900030Y-106920779D01*
X190900030Y-106920779D02*
X190916656Y-106996414D01*
X190916656Y-106996414D02*
X190939398Y-107102962D01*
X190939398Y-107102962D02*
X190967348Y-107235945D01*
X190967348Y-107235945D02*
X190999598Y-107390883D01*
X190999598Y-107390883D02*
X191035237Y-107563299D01*
X191035237Y-107563299D02*
X191073356Y-107748712D01*
X191073356Y-107748712D02*
X191113047Y-107942645D01*
X191113047Y-107942645D02*
X191153401Y-108140618D01*
X191153401Y-108140618D02*
X191193508Y-108338152D01*
X191193508Y-108338152D02*
X191232459Y-108530769D01*
X191232459Y-108530769D02*
X191269346Y-108713990D01*
X191269346Y-108713990D02*
X191303258Y-108883336D01*
X191303258Y-108883336D02*
X191333288Y-109034327D01*
X191333288Y-109034327D02*
X191358525Y-109162486D01*
X191358525Y-109162486D02*
X191378061Y-109263333D01*
X191378061Y-109263333D02*
X191390987Y-109332389D01*
X191390987Y-109332389D02*
X191396394Y-109365176D01*
X191396394Y-109365176D02*
X191396500Y-109366744D01*
X191396500Y-109366744D02*
X191415828Y-109370835D01*
X191415828Y-109370835D02*
X191466462Y-109373744D01*
X191466462Y-109373744D02*
X191536348Y-109374834D01*
X191536348Y-109374834D02*
X191612135Y-109373141D01*
X191612135Y-109373141D02*
X191653000Y-109366905D01*
X191653000Y-109366905D02*
X191666261Y-109354388D01*
X191666261Y-109354388D02*
X191664520Y-109344407D01*
X191664520Y-109344407D02*
X191654489Y-109315238D01*
X191654489Y-109315238D02*
X191643397Y-109276081D01*
X191643397Y-109276081D02*
X191630489Y-109223217D01*
X191630489Y-109223217D02*
X191615012Y-109152926D01*
X191615012Y-109152926D02*
X191596209Y-109061486D01*
X191596209Y-109061486D02*
X191573326Y-108945178D01*
X191573326Y-108945178D02*
X191545609Y-108800281D01*
X191545609Y-108800281D02*
X191512302Y-108623075D01*
X191512302Y-108623075D02*
X191472650Y-108409839D01*
X191472650Y-108409839D02*
X191449507Y-108284750D01*
X191449507Y-108284750D02*
X191339282Y-107694349D01*
X191339282Y-107694349D02*
X191234132Y-107144033D01*
X191234132Y-107144033D02*
X191133608Y-106631918D01*
X191133608Y-106631918D02*
X191037264Y-106156117D01*
X191037264Y-106156117D02*
X190944652Y-105714745D01*
X190944652Y-105714745D02*
X190855325Y-105305915D01*
X190855325Y-105305915D02*
X190768834Y-104927742D01*
X190768834Y-104927742D02*
X190684732Y-104578340D01*
X190684732Y-104578340D02*
X190602572Y-104255824D01*
X190602572Y-104255824D02*
X190521906Y-103958307D01*
X190521906Y-103958307D02*
X190442287Y-103683905D01*
X190442287Y-103683905D02*
X190363266Y-103430730D01*
X190363266Y-103430730D02*
X190284397Y-103196897D01*
X190284397Y-103196897D02*
X190205232Y-102980522D01*
X190205232Y-102980522D02*
X190167817Y-102884375D01*
X190167817Y-102884375D02*
X190087063Y-102687377D01*
X190087063Y-102687377D02*
X190014376Y-102525037D01*
X190014376Y-102525037D02*
X189946439Y-102391242D01*
X189946439Y-102391242D02*
X189879931Y-102279875D01*
X189879931Y-102279875D02*
X189811535Y-102184823D01*
X189811535Y-102184823D02*
X189747955Y-102110685D01*
X189747955Y-102110685D02*
X189657489Y-102018221D01*
X189657489Y-102018221D02*
X189583390Y-101956154D01*
X189583390Y-101956154D02*
X189518373Y-101919770D01*
X189518373Y-101919770D02*
X189455152Y-101904355D01*
X189455152Y-101904355D02*
X189426959Y-101903000D01*
X189426959Y-101903000D02*
X189324220Y-101923972D01*
X189324220Y-101923972D02*
X189219059Y-101986320D01*
X189219059Y-101986320D02*
X189112041Y-102089191D01*
X189112041Y-102089191D02*
X189003732Y-102231734D01*
X189003732Y-102231734D02*
X188894698Y-102413097D01*
X188894698Y-102413097D02*
X188785505Y-102632429D01*
X188785505Y-102632429D02*
X188676718Y-102888876D01*
X188676718Y-102888876D02*
X188568903Y-103181587D01*
X188568903Y-103181587D02*
X188559401Y-103209287D01*
X188559401Y-103209287D02*
X188472681Y-103477231D01*
X188472681Y-103477231D02*
X188381546Y-103785146D01*
X188381546Y-103785146D02*
X188286509Y-104130958D01*
X188286509Y-104130958D02*
X188188082Y-104512593D01*
X188188082Y-104512593D02*
X188086777Y-104927977D01*
X188086777Y-104927977D02*
X187983106Y-105375034D01*
X187983106Y-105375034D02*
X187877582Y-105851690D01*
X187877582Y-105851690D02*
X187770718Y-106355872D01*
X187770718Y-106355872D02*
X187713668Y-106633750D01*
X187713668Y-106633750D02*
X187695165Y-106726558D01*
X187695165Y-106726558D02*
X187671311Y-106848883D01*
X187671311Y-106848883D02*
X187642894Y-106996487D01*
X187642894Y-106996487D02*
X187610705Y-107165135D01*
X187610705Y-107165135D02*
X187575531Y-107350588D01*
X187575531Y-107350588D02*
X187538161Y-107548611D01*
X187538161Y-107548611D02*
X187499386Y-107754967D01*
X187499386Y-107754967D02*
X187459993Y-107965419D01*
X187459993Y-107965419D02*
X187420772Y-108175730D01*
X187420772Y-108175730D02*
X187382511Y-108381663D01*
X187382511Y-108381663D02*
X187346000Y-108578981D01*
X187346000Y-108578981D02*
X187312028Y-108763449D01*
X187312028Y-108763449D02*
X187281383Y-108930828D01*
X187281383Y-108930828D02*
X187254855Y-109076883D01*
X187254855Y-109076883D02*
X187233232Y-109197376D01*
X187233232Y-109197376D02*
X187217304Y-109288070D01*
X187217304Y-109288070D02*
X187207859Y-109344730D01*
X187207859Y-109344730D02*
X187205500Y-109362596D01*
X187205500Y-109362596D02*
X181133055Y-109362596D01*
X181133055Y-109362596D02*
X181126078Y-109323063D01*
X181126078Y-109323063D02*
X181043828Y-108861091D01*
X181043828Y-108861091D02*
X180966328Y-108430376D01*
X180966328Y-108430376D02*
X180893172Y-108028814D01*
X180893172Y-108028814D02*
X180823953Y-107654298D01*
X180823953Y-107654298D02*
X180758265Y-107304722D01*
X180758265Y-107304722D02*
X180695700Y-106977981D01*
X180695700Y-106977981D02*
X180635851Y-106671970D01*
X180635851Y-106671970D02*
X180578313Y-106384582D01*
X180578313Y-106384582D02*
X180522677Y-106113713D01*
X180522677Y-106113713D02*
X180468537Y-105857255D01*
X180468537Y-105857255D02*
X180415486Y-105613105D01*
X180415486Y-105613105D02*
X180363117Y-105379155D01*
X180363117Y-105379155D02*
X180311024Y-105153301D01*
X180311024Y-105153301D02*
X180258799Y-104933436D01*
X180258799Y-104933436D02*
X180206035Y-104717455D01*
X180206035Y-104717455D02*
X180158514Y-104527667D01*
X180158514Y-104527667D02*
X180069984Y-104184831D01*
X180069984Y-104184831D02*
X179987217Y-103879440D01*
X179987217Y-103879440D02*
X179908814Y-103607215D01*
X179908814Y-103607215D02*
X179833376Y-103363877D01*
X179833376Y-103363877D02*
X179759504Y-103145146D01*
X179759504Y-103145146D02*
X179685800Y-102946746D01*
X179685800Y-102946746D02*
X179610863Y-102764396D01*
X179610863Y-102764396D02*
X179533296Y-102593818D01*
X179533296Y-102593818D02*
X179511405Y-102548584D01*
X179511405Y-102548584D02*
X179398387Y-102336398D01*
X179398387Y-102336398D02*
X179288014Y-102166314D01*
X179288014Y-102166314D02*
X179180312Y-102038363D01*
X179180312Y-102038363D02*
X179075312Y-101952577D01*
X179075312Y-101952577D02*
X178973040Y-101908985D01*
X178973040Y-101908985D02*
X178919718Y-101903000D01*
X178919718Y-101903000D02*
X178815457Y-101923125D01*
X178815457Y-101923125D02*
X178710242Y-101983591D01*
X178710242Y-101983591D02*
X178604022Y-102084539D01*
X178604022Y-102084539D02*
X178496746Y-102226105D01*
X178496746Y-102226105D02*
X178388365Y-102408429D01*
X178388365Y-102408429D02*
X178278828Y-102631650D01*
X178278828Y-102631650D02*
X178168085Y-102895906D01*
X178168085Y-102895906D02*
X178056084Y-103201336D01*
X178056084Y-103201336D02*
X177942776Y-103548079D01*
X177942776Y-103548079D02*
X177828110Y-103936273D01*
X177828110Y-103936273D02*
X177712035Y-104366057D01*
X177712035Y-104366057D02*
X177594502Y-104837569D01*
X177594502Y-104837569D02*
X177475459Y-105350949D01*
X177475459Y-105350949D02*
X177354857Y-105906335D01*
X177354857Y-105906335D02*
X177232644Y-106503865D01*
X177232644Y-106503865D02*
X177217389Y-106580834D01*
X177217389Y-106580834D02*
X177176285Y-106789414D01*
X177176285Y-106789414D02*
X177136943Y-106990226D01*
X177136943Y-106990226D02*
X177098923Y-107185724D01*
X177098923Y-107185724D02*
X177061784Y-107378367D01*
X177061784Y-107378367D02*
X177025086Y-107570611D01*
X177025086Y-107570611D02*
X176988388Y-107764914D01*
X176988388Y-107764914D02*
X176951250Y-107963732D01*
X176951250Y-107963732D02*
X176913233Y-108169524D01*
X176913233Y-108169524D02*
X176873894Y-108384745D01*
X176873894Y-108384745D02*
X176832795Y-108611854D01*
X176832795Y-108611854D02*
X176789495Y-108853307D01*
X176789495Y-108853307D02*
X176743552Y-109111561D01*
X176743552Y-109111561D02*
X176694528Y-109389073D01*
X176694528Y-109389073D02*
X176641981Y-109688301D01*
X176641981Y-109688301D02*
X176585471Y-110011702D01*
X176585471Y-110011702D02*
X176524559Y-110361732D01*
X176524559Y-110361732D02*
X176458802Y-110740850D01*
X176458802Y-110740850D02*
X176387762Y-111151511D01*
X176387762Y-111151511D02*
X176310997Y-111596174D01*
X176310997Y-111596174D02*
X176228068Y-112077295D01*
X176228068Y-112077295D02*
X176138534Y-112597331D01*
X176138534Y-112597331D02*
X176124853Y-112676834D01*
X176124853Y-112676834D02*
X176067487Y-113009427D01*
X176067487Y-113009427D02*
X176012906Y-113324307D01*
X176012906Y-113324307D02*
X175961543Y-113619050D01*
X175961543Y-113619050D02*
X175913827Y-113891233D01*
X175913827Y-113891233D02*
X175870190Y-114138435D01*
X175870190Y-114138435D02*
X175831063Y-114358233D01*
X175831063Y-114358233D02*
X175796878Y-114548204D01*
X175796878Y-114548204D02*
X175768064Y-114705925D01*
X175768064Y-114705925D02*
X175745054Y-114828974D01*
X175745054Y-114828974D02*
X175728278Y-114914928D01*
X175728278Y-114914928D02*
X175718738Y-114959092D01*
X175718738Y-114959092D02*
X175704655Y-114992961D01*
X175704655Y-114992961D02*
X175689447Y-114987324D01*
X175689447Y-114987324D02*
X175673389Y-114944985D01*
X175673389Y-114944985D02*
X175656754Y-114868747D01*
X175656754Y-114868747D02*
X175639817Y-114761416D01*
X175639817Y-114761416D02*
X175622850Y-114625795D01*
X175622850Y-114625795D02*
X175606128Y-114464687D01*
X175606128Y-114464687D02*
X175589925Y-114280898D01*
X175589925Y-114280898D02*
X175574513Y-114077231D01*
X175574513Y-114077231D02*
X175560168Y-113856490D01*
X175560168Y-113856490D02*
X175547163Y-113621479D01*
X175547163Y-113621479D02*
X175535771Y-113375003D01*
X175535771Y-113375003D02*
X175526267Y-113119865D01*
X175526267Y-113119865D02*
X175520706Y-112930834D01*
X175520706Y-112930834D02*
X175510562Y-112243083D01*
X175510562Y-112243083D02*
X175517285Y-111586262D01*
X175517285Y-111586262D02*
X175541422Y-110952235D01*
X175541422Y-110952235D02*
X175583522Y-110332871D01*
X175583522Y-110332871D02*
X175644132Y-109720036D01*
X175644132Y-109720036D02*
X175723800Y-109105597D01*
X175723800Y-109105597D02*
X175818664Y-108507000D01*
X175818664Y-108507000D02*
X176003478Y-107552783D01*
X176003478Y-107552783D02*
X176227139Y-106615269D01*
X176227139Y-106615269D02*
X176489791Y-105694105D01*
X176489791Y-105694105D02*
X176791574Y-104788937D01*
X176791574Y-104788937D02*
X177132630Y-103899410D01*
X177132630Y-103899410D02*
X177513101Y-103025171D01*
X177513101Y-103025171D02*
X177933130Y-102165865D01*
X177933130Y-102165865D02*
X178392857Y-101321139D01*
X178392857Y-101321139D02*
X178892425Y-100490639D01*
X178892425Y-100490639D02*
X179251193Y-99939456D01*
X179251193Y-99939456D02*
X179640413Y-99377838D01*
X179640413Y-99377838D02*
X180040192Y-98838161D01*
X180040192Y-98838161D02*
X180455881Y-98314019D01*
X180455881Y-98314019D02*
X180892829Y-97799007D01*
X180892829Y-97799007D02*
X181356385Y-97286720D01*
X181356385Y-97286720D02*
X181851900Y-96770753D01*
X181851900Y-96770753D02*
X182128379Y-96494524D01*
X182128379Y-96494524D02*
X182770276Y-95885257D01*
X182770276Y-95885257D02*
X183425124Y-95311014D01*
X183425124Y-95311014D02*
X184097558Y-94768321D01*
X184097558Y-94768321D02*
X184792215Y-94253706D01*
X184792215Y-94253706D02*
X185513729Y-93763694D01*
X185513729Y-93763694D02*
X186266735Y-93294814D01*
X186266735Y-93294814D02*
X186845667Y-92960130D01*
X186845667Y-92960130D02*
X187005145Y-92873024D01*
X187005145Y-92873024D02*
X187195773Y-92772653D01*
X187195773Y-92772653D02*
X187409932Y-92662753D01*
X187409932Y-92662753D02*
X187640003Y-92547058D01*
X187640003Y-92547058D02*
X187878365Y-92429305D01*
X187878365Y-92429305D02*
X188117400Y-92313229D01*
X188117400Y-92313229D02*
X188349487Y-92202565D01*
X188349487Y-92202565D02*
X188567007Y-92101048D01*
X188567007Y-92101048D02*
X188762342Y-92012414D01*
X188762342Y-92012414D02*
X188912090Y-91947080D01*
X188912090Y-91947080D02*
X189787132Y-91596178D01*
X189787132Y-91596178D02*
X190667312Y-91285262D01*
X190667312Y-91285262D02*
X191555016Y-91013777D01*
X191555016Y-91013777D02*
X192452630Y-90781169D01*
X192452630Y-90781169D02*
X193362540Y-90586884D01*
X193362540Y-90586884D02*
X194287132Y-90430368D01*
X194287132Y-90430368D02*
X195228792Y-90311068D01*
X195228792Y-90311068D02*
X196189905Y-90228429D01*
X196189905Y-90228429D02*
X196360084Y-90217706D01*
X196360084Y-90217706D02*
X196521604Y-90210021D01*
X196521604Y-90210021D02*
X196717702Y-90203868D01*
X196717702Y-90203868D02*
X196940649Y-90199247D01*
X196940649Y-90199247D02*
X197182716Y-90196163D01*
X197182716Y-90196163D02*
X197436176Y-90194616D01*
X197436176Y-90194616D02*
X197693299Y-90194609D01*
X197693299Y-90194609D02*
X197946358Y-90196144D01*
X197946358Y-90196144D02*
X197946358Y-90196144D01*
G36*
X181043828Y-108861091D02*
G01*
X180966328Y-108430376D01*
X180893172Y-108028814D01*
X180823953Y-107654298D01*
X180758265Y-107304722D01*
X180695700Y-106977981D01*
X180635851Y-106671970D01*
X180578313Y-106384582D01*
X180522677Y-106113713D01*
X180468537Y-105857255D01*
X180415486Y-105613105D01*
X180363117Y-105379155D01*
X180311024Y-105153301D01*
X180258799Y-104933436D01*
X180206035Y-104717455D01*
X180158514Y-104527667D01*
X180069984Y-104184831D01*
X179987217Y-103879440D01*
X179908814Y-103607215D01*
X179833376Y-103363877D01*
X179759504Y-103145146D01*
X179685800Y-102946746D01*
X179610863Y-102764396D01*
X179533296Y-102593818D01*
X179511405Y-102548584D01*
X179398387Y-102336398D01*
X179288014Y-102166314D01*
X179180312Y-102038363D01*
X179075312Y-101952577D01*
X178973040Y-101908985D01*
X178919718Y-101903000D01*
X178815457Y-101923125D01*
X178710242Y-101983591D01*
X178604022Y-102084539D01*
X178496746Y-102226105D01*
X178388365Y-102408429D01*
X178278828Y-102631650D01*
X178168085Y-102895906D01*
X178056084Y-103201336D01*
X177942776Y-103548079D01*
X177828110Y-103936273D01*
X177712035Y-104366057D01*
X177594502Y-104837569D01*
X177475459Y-105350949D01*
X177354857Y-105906335D01*
X177232644Y-106503865D01*
X177217389Y-106580834D01*
X177176285Y-106789414D01*
X177136943Y-106990226D01*
X177098923Y-107185724D01*
X177061784Y-107378367D01*
X177025086Y-107570611D01*
X176988388Y-107764914D01*
X176951250Y-107963732D01*
X176913233Y-108169524D01*
X176873894Y-108384745D01*
X176832795Y-108611854D01*
X176789495Y-108853307D01*
X176743552Y-109111561D01*
X176694528Y-109389073D01*
X176641981Y-109688301D01*
X176585471Y-110011702D01*
X176524559Y-110361732D01*
X176458802Y-110740850D01*
X176387762Y-111151511D01*
X176310997Y-111596174D01*
X176228068Y-112077295D01*
X176138534Y-112597331D01*
X176124853Y-112676834D01*
X176067487Y-113009427D01*
X176012906Y-113324307D01*
X175961543Y-113619050D01*
X175913827Y-113891233D01*
X175870190Y-114138435D01*
X175831063Y-114358233D01*
X175796878Y-114548204D01*
X175768064Y-114705925D01*
X175745054Y-114828974D01*
X175728278Y-114914928D01*
X175718738Y-114959092D01*
X175704655Y-114992961D01*
X175689447Y-114987324D01*
X175673389Y-114944985D01*
X175656754Y-114868747D01*
X175639817Y-114761416D01*
X175622850Y-114625795D01*
X175606128Y-114464687D01*
X175589925Y-114280898D01*
X175574513Y-114077231D01*
X175560168Y-113856490D01*
X175547163Y-113621479D01*
X175535771Y-113375003D01*
X175526267Y-113119865D01*
X175520706Y-112930834D01*
X175510562Y-112243083D01*
X175517285Y-111586262D01*
X175541422Y-110952235D01*
X175583522Y-110332871D01*
X175644132Y-109720036D01*
X175723800Y-109105597D01*
X175818664Y-108507000D01*
X176003478Y-107552783D01*
X176227139Y-106615269D01*
X176489791Y-105694105D01*
X176791574Y-104788937D01*
X177132630Y-103899410D01*
X177513101Y-103025171D01*
X177933130Y-102165865D01*
X178392857Y-101321139D01*
X178892425Y-100490639D01*
X179251193Y-99939456D01*
X179640413Y-99377838D01*
X180040192Y-98838161D01*
X180455881Y-98314019D01*
X180892829Y-97799007D01*
X181356385Y-97286720D01*
X181851900Y-96770753D01*
X182128379Y-96494524D01*
X182770276Y-95885257D01*
X183425124Y-95311014D01*
X184097558Y-94768321D01*
X184792215Y-94253706D01*
X185513729Y-93763694D01*
X186266735Y-93294814D01*
X186845667Y-92960130D01*
X187005145Y-92873024D01*
X187195773Y-92772653D01*
X187409932Y-92662753D01*
X187640003Y-92547058D01*
X187878365Y-92429305D01*
X188117400Y-92313229D01*
X188349487Y-92202565D01*
X188567007Y-92101048D01*
X188762342Y-92012414D01*
X188912090Y-91947080D01*
X189787132Y-91596178D01*
X190667312Y-91285262D01*
X191555016Y-91013777D01*
X192452630Y-90781169D01*
X193362540Y-90586884D01*
X194287132Y-90430368D01*
X195228792Y-90311068D01*
X196189905Y-90228429D01*
X196360084Y-90217706D01*
X196521604Y-90210021D01*
X196717702Y-90203868D01*
X196940649Y-90199247D01*
X197182716Y-90196163D01*
X197436176Y-90194616D01*
X197693299Y-90194609D01*
X197946358Y-90196144D01*
X198187624Y-90199223D01*
X198409369Y-90203847D01*
X198603864Y-90210020D01*
X198751917Y-90217059D01*
X199689355Y-90289719D01*
X200606185Y-90396987D01*
X201507301Y-90539678D01*
X202397600Y-90718610D01*
X203281974Y-90934600D01*
X203641417Y-91033328D01*
X204500485Y-91297717D01*
X205356200Y-91602385D01*
X206204920Y-91945439D01*
X207043002Y-92324982D01*
X207866805Y-92739120D01*
X208672685Y-93185958D01*
X209457001Y-93663600D01*
X210216111Y-94170153D01*
X210946373Y-94703720D01*
X211430750Y-95086008D01*
X212004282Y-95570566D01*
X212570978Y-96083283D01*
X213125554Y-96618628D01*
X213662729Y-97171070D01*
X214177220Y-97735076D01*
X214663743Y-98305116D01*
X215117017Y-98875657D01*
X215357948Y-99198239D01*
X215426757Y-99293898D01*
X215506889Y-99407449D01*
X215595306Y-99534380D01*
X215688964Y-99670181D01*
X215784823Y-99810342D01*
X215879843Y-99950354D01*
X215970982Y-100085704D01*
X216055199Y-100211884D01*
X216129453Y-100324383D01*
X216190702Y-100418691D01*
X216235907Y-100490297D01*
X216262026Y-100534692D01*
X216267334Y-100546982D01*
X216248723Y-100563438D01*
X216202550Y-100578507D01*
X216187959Y-100581398D01*
X216036965Y-100609758D01*
X215849635Y-100648384D01*
X215630024Y-100696248D01*
X215382183Y-100752320D01*
X215110169Y-100815571D01*
X214818033Y-100884971D01*
X214509830Y-100959493D01*
X214189614Y-101038106D01*
X213861438Y-101119781D01*
X213529357Y-101203490D01*
X213197423Y-101288203D01*
X212869691Y-101372892D01*
X212550215Y-101456526D01*
X212243048Y-101538077D01*
X211952244Y-101616516D01*
X211681856Y-101690814D01*
X211435939Y-101759941D01*
X211218547Y-101822869D01*
X211033733Y-101878567D01*
X210885550Y-101926009D01*
X210867493Y-101932091D01*
X210664069Y-102001141D01*
X210607021Y-101952071D01*
X210527756Y-101909759D01*
X210435581Y-101903741D01*
X210335864Y-101932128D01*
X210233973Y-101993029D01*
X210135277Y-102084556D01*
X210095789Y-102132037D01*
X210049076Y-102187969D01*
X210009481Y-102227271D01*
X209987438Y-102240765D01*
X209941507Y-102248473D01*
X209859625Y-102268836D01*
X209745815Y-102300575D01*
X209604101Y-102342409D01*
X209438505Y-102393060D01*
X209253050Y-102451247D01*
X209051761Y-102515692D01*
X208838660Y-102585115D01*
X208617770Y-102658237D01*
X208393115Y-102733778D01*
X208168718Y-102810459D01*
X207948602Y-102886999D01*
X207885334Y-102909274D01*
X207277418Y-103126386D01*
X206694953Y-103339653D01*
X206130251Y-103552146D01*
X205575623Y-103766932D01*
X205023383Y-103987080D01*
X204465843Y-104215658D01*
X203895314Y-104455736D01*
X203304110Y-104710382D01*
X202684543Y-104982665D01*
X202625417Y-105008900D01*
X202378554Y-105118290D01*
X202167473Y-105211276D01*
X201989431Y-105288997D01*
X201841682Y-105352592D01*
X201721483Y-105403200D01*
X201626089Y-105441961D01*
X201552755Y-105470013D01*
X201498738Y-105488496D01*
X201461292Y-105498550D01*
X201439139Y-105501334D01*
X201430022Y-105497358D01*
X201420104Y-105482792D01*
X201408310Y-105453675D01*
X201393566Y-105406044D01*
X201374797Y-105335940D01*
X201350929Y-105239400D01*
X201320886Y-105112465D01*
X201283596Y-104951173D01*
X201249669Y-104802834D01*
X201169286Y-104467630D01*
X201082794Y-104138707D01*
X200991527Y-103819775D01*
X200896818Y-103514547D01*
X200799999Y-103226735D01*
X200702405Y-102960049D01*
X200605369Y-102718202D01*
X200510223Y-102504904D01*
X200418303Y-102323868D01*
X200330940Y-102178806D01*
X200283547Y-102113454D01*
X200196883Y-102022645D01*
X200100929Y-101953440D01*
X200005708Y-101912067D01*
X199944826Y-101903000D01*
X199863521Y-101920310D01*
X199770694Y-101968220D01*
X199676044Y-102040697D01*
X199602360Y-102115992D01*
X199506902Y-102242531D01*
X199411262Y-102399712D01*
X199315168Y-102588437D01*
X199218351Y-102809610D01*
X199120538Y-103064133D01*
X199021460Y-103352909D01*
X198920846Y-103676843D01*
X198818424Y-104036836D01*
X198713924Y-104433792D01*
X198607075Y-104868614D01*
X198497607Y-105342204D01*
X198385248Y-105855467D01*
X198269728Y-106409305D01*
X198178062Y-106865955D01*
X198153055Y-106990495D01*
X198130707Y-107082255D01*
X198104762Y-107149840D01*
X198068963Y-107201854D01*
X198017057Y-107246904D01*
X197942787Y-107293591D01*
X197839898Y-107350523D01*
X197816540Y-107363239D01*
X197344524Y-107621901D01*
X196873848Y-107882749D01*
X196410879Y-108142181D01*
X195961983Y-108396593D01*
X195533525Y-108642383D01*
X195131873Y-108875946D01*
X194846956Y-109043955D01*
X194307495Y-109364250D01*
X198471748Y-109369595D01*
X202636000Y-109374939D01*
X202636000Y-110052167D01*
X197915834Y-110052167D01*
X197915834Y-115449667D01*
X197217334Y-115449667D01*
X197217334Y-110052167D01*
X193177494Y-110052167D01*
X193054289Y-110133554D01*
X192986976Y-110177554D01*
X192896716Y-110235879D01*
X192789052Y-110305009D01*
X192669526Y-110381427D01*
X192543683Y-110461613D01*
X192417066Y-110542050D01*
X192295218Y-110619217D01*
X192183682Y-110689598D01*
X192088003Y-110749674D01*
X192013723Y-110795925D01*
X191966385Y-110824833D01*
X191953615Y-110832186D01*
X191926414Y-110843216D01*
X191909534Y-110834841D01*
X191896693Y-110799103D01*
X191885082Y-110745323D01*
X191859534Y-110611841D01*
X191835937Y-110476077D01*
X191815915Y-110348480D01*
X191801089Y-110239496D01*
X191793081Y-110159574D01*
X191792481Y-110148913D01*
X191788084Y-110052461D01*
X191655792Y-110052314D01*
X191587252Y-110054550D01*
X191539448Y-110060528D01*
X191523514Y-110068042D01*
X191527181Y-110093179D01*
X191537324Y-110152715D01*
X191552670Y-110239432D01*
X191571946Y-110346113D01*
X191587901Y-110433167D01*
X191610099Y-110558422D01*
X191629554Y-110677297D01*
X191644785Y-110780028D01*
X191654312Y-110856855D01*
X191656679Y-110886569D01*
X191657564Y-110941115D01*
X191650060Y-110979351D01*
X191627385Y-111013048D01*
X191582753Y-111053976D01*
X191540003Y-111089021D01*
X191494102Y-111123938D01*
X191418033Y-111179021D01*
X191316753Y-111250799D01*
X191195214Y-111335806D01*
X191058374Y-111430572D01*
X190911186Y-111531629D01*
X190781663Y-111619869D01*
X190144404Y-112052417D01*
X191008577Y-112063000D01*
X191872750Y-112073584D01*
X191872750Y-112750917D01*
X189125664Y-112761811D01*
X188752957Y-113029887D01*
X188644059Y-113108600D01*
X188508505Y-113207196D01*
X188353619Y-113320313D01*
X188186725Y-113442586D01*
X188015148Y-113568654D01*
X187846212Y-113693153D01*
X187748618Y-113765273D01*
X187591335Y-113881630D01*
X187432792Y-113998904D01*
X187279135Y-114112549D01*
X187136512Y-114218020D01*
X187011070Y-114310770D01*
X186908955Y-114386255D01*
X186851954Y-114428375D01*
X186759519Y-114495701D01*
X186678332Y-114553031D01*
X186614739Y-114596022D01*
X186575089Y-114620332D01*
X186565725Y-114624167D01*
X186554782Y-114604779D01*
X186555956Y-114550403D01*
X186559374Y-114523625D01*
X186568318Y-114466626D01*
X186582934Y-114377703D01*
X186602276Y-114262314D01*
X186625399Y-114125918D01*
X186651356Y-113973972D01*
X186679201Y-113811935D01*
X186707988Y-113645266D01*
X186736771Y-113479422D01*
X186764604Y-113319861D01*
X186790541Y-113172041D01*
X186813634Y-113041422D01*
X186832939Y-112933460D01*
X186847510Y-112853615D01*
X186856399Y-112807344D01*
X186858406Y-112798542D01*
X186859706Y-112778311D01*
X186842413Y-112767098D01*
X186798117Y-112762358D01*
X186735968Y-112761517D01*
X186602250Y-112761534D01*
X186596170Y-112855875D01*
X186591240Y-112896581D01*
X186579653Y-112974082D01*
X186562217Y-113083504D01*
X186539741Y-113219974D01*
X186513032Y-113378617D01*
X186482898Y-113554559D01*
X186450148Y-113742926D01*
X186432135Y-113845400D01*
X186398787Y-114034749D01*
X186367835Y-114211178D01*
X186340035Y-114370330D01*
X186316144Y-114507844D01*
X186296916Y-114619364D01*
X186283107Y-114700530D01*
X186275474Y-114746984D01*
X186274173Y-114756381D01*
X186294928Y-114758342D01*
X186355552Y-114760314D01*
X186453582Y-114762276D01*
X186586552Y-114764210D01*
X186751999Y-114766098D01*
X186947458Y-114767920D01*
X187170465Y-114769659D01*
X187418557Y-114771296D01*
X187689268Y-114772812D01*
X187980135Y-114774188D01*
X188288694Y-114775406D01*
X188612480Y-114776447D01*
X188949030Y-114777293D01*
X189073459Y-114777547D01*
X191872750Y-114782917D01*
X191872750Y-115439084D01*
X188655417Y-115449667D01*
X188290422Y-115450937D01*
X187937443Y-115452302D01*
X187598751Y-115453746D01*
X187276621Y-115455254D01*
X186973326Y-115456811D01*
X186691138Y-115458403D01*
X186432330Y-115460012D01*
X186199175Y-115461626D01*
X185993947Y-115463227D01*
X185818919Y-115464802D01*
X185676363Y-115466335D01*
X185568553Y-115467811D01*
X185497761Y-115469214D01*
X185466261Y-115470530D01*
X185464900Y-115470953D01*
X185455402Y-115486251D01*
X185416137Y-115525020D01*
X185350447Y-115584354D01*
X185261677Y-115661348D01*
X185153171Y-115753098D01*
X185028274Y-115856698D01*
X184904471Y-115957786D01*
X184676158Y-116143415D01*
X184444207Y-116332971D01*
X184212656Y-116523097D01*
X183985543Y-116710439D01*
X183766907Y-116891640D01*
X183560787Y-117063345D01*
X183371219Y-117222198D01*
X183202242Y-117364843D01*
X183057895Y-117487925D01*
X182942216Y-117588087D01*
X182935061Y-117594360D01*
X182677486Y-117820410D01*
X182657113Y-117740997D01*
X182641726Y-117678010D01*
X182623026Y-117595696D01*
X182600414Y-117491136D01*
X182573292Y-117361411D01*
X182541061Y-117203601D01*
X182503123Y-117014788D01*
X182458880Y-116792054D01*
X182407733Y-116532478D01*
X182371801Y-116349250D01*
X182197724Y-115460250D01*
X182063610Y-115453877D01*
X181991191Y-115451177D01*
X181952455Y-115453863D01*
X181938817Y-115464979D01*
X181941691Y-115487570D01*
X181944238Y-115496210D01*
X181952049Y-115530244D01*
X181966415Y-115601122D01*
X181986449Y-115704014D01*
X182011264Y-115834090D01*
X182039974Y-115986519D01*
X182071692Y-116156471D01*
X182105531Y-116339117D01*
X182140605Y-116529625D01*
X182176026Y-116723167D01*
X182210908Y-116914911D01*
X182244364Y-117100028D01*
X182275508Y-117273687D01*
X182303451Y-117431059D01*
X182327309Y-117567313D01*
X182346194Y-117677618D01*
X182358588Y-117753134D01*
X182406450Y-118056350D01*
X182324796Y-118123550D01*
X182266853Y-118172465D01*
X182181513Y-118246205D01*
X182072788Y-118341209D01*
X181944684Y-118453913D01*
X181801213Y-118580755D01*
X181646381Y-118718173D01*
X181484198Y-118862604D01*
X181318674Y-119010487D01*
X181153816Y-119158257D01*
X180993634Y-119302353D01*
X180842136Y-119439213D01*
X180740976Y-119531007D01*
X180588459Y-119670014D01*
X180442338Y-119803893D01*
X180299198Y-119935868D01*
X180155620Y-120069160D01*
X180008190Y-120206995D01*
X179853490Y-120352593D01*
X179688103Y-120509179D01*
X179508615Y-120679975D01*
X179311607Y-120868204D01*
X179093664Y-121077090D01*
X178851369Y-121309855D01*
X178651084Y-121502546D01*
X178502868Y-121644976D01*
X178363904Y-121778059D01*
X178237164Y-121898980D01*
X178125619Y-122004926D01*
X178032242Y-122093083D01*
X177960004Y-122160636D01*
X177911877Y-122204773D01*
X177890834Y-122222678D01*
X177890239Y-122222933D01*
X177874080Y-122205968D01*
X177845821Y-122162253D01*
X177823213Y-122122459D01*
X177778166Y-122035197D01*
X177719681Y-121915479D01*
X177650756Y-121769860D01*
X177574387Y-121604899D01*
X177493570Y-121427151D01*
X177411303Y-121243173D01*
X177330581Y-121059523D01*
X177254401Y-120882756D01*
X177225676Y-120814980D01*
X176888979Y-119965709D01*
X176585104Y-119094624D01*
X176316465Y-118209368D01*
X176085479Y-117317583D01*
X175996782Y-116926875D01*
X175938058Y-116647612D01*
X175891854Y-116408113D01*
X175858070Y-116207732D01*
X175836607Y-116045825D01*
X175827365Y-115921747D01*
X175829482Y-115841250D01*
X175834803Y-115804439D01*
X175846830Y-115729009D01*
X175865035Y-115618053D01*
X175888886Y-115474662D01*
X175917854Y-115301928D01*
X175921495Y-115280334D01*
X181913834Y-115280334D01*
X191692834Y-115280334D01*
X191692834Y-114962834D01*
X182273667Y-114962834D01*
X182272179Y-114640042D01*
X182270531Y-114517141D01*
X182266997Y-114426876D01*
X182261780Y-114372144D01*
X182255084Y-114355843D01*
X182252500Y-114359584D01*
X182247626Y-114350967D01*
X182243347Y-114303606D01*
X182239771Y-114221088D01*
X182237005Y-114107000D01*
X182235159Y-113964929D01*
X182234341Y-113798460D01*
X182234318Y-113766917D01*
X182410454Y-113766917D01*
X182410563Y-113950669D01*
X182410879Y-114105348D01*
X182411382Y-114229182D01*
X182412050Y-114320397D01*
X182412863Y-114377221D01*
X182413799Y-114397881D01*
X182414838Y-114380604D01*
X182415959Y-114323616D01*
X182416520Y-114281672D01*
X182418106Y-114100189D01*
X182418914Y-113892726D01*
X182418944Y-113675630D01*
X182418195Y-113465249D01*
X182416668Y-113277928D01*
X182416527Y-113265672D01*
X182415377Y-113186522D01*
X182414298Y-113147986D01*
X182413311Y-113148344D01*
X182412436Y-113185877D01*
X182411695Y-113258866D01*
X182411109Y-113365590D01*
X182410697Y-113504330D01*
X182410482Y-113673367D01*
X182410454Y-113766917D01*
X182234318Y-113766917D01*
X182234309Y-113756334D01*
X182234871Y-113584670D01*
X182236486Y-113436563D01*
X182239046Y-113315599D01*
X182242442Y-113225366D01*
X182246567Y-113169450D01*
X182251311Y-113151438D01*
X182252500Y-113153084D01*
X182259782Y-113150902D01*
X182265584Y-113109212D01*
X182269701Y-113030820D01*
X182271930Y-112918530D01*
X182272179Y-112883209D01*
X182273667Y-112571000D01*
X191692834Y-112571000D01*
X191692834Y-112253500D01*
X182273667Y-112253500D01*
X182272647Y-112039462D01*
X186743199Y-112039462D01*
X186751989Y-112055086D01*
X186783584Y-112061601D01*
X186846839Y-112062988D01*
X186864539Y-112063000D01*
X186936801Y-112061273D01*
X186976130Y-112054250D01*
X186991852Y-112039165D01*
X186993834Y-112024668D01*
X186997319Y-111997864D01*
X187007188Y-111934511D01*
X187022561Y-111839765D01*
X187042558Y-111718783D01*
X187066299Y-111576722D01*
X187092903Y-111418739D01*
X187121492Y-111249988D01*
X187151184Y-111075628D01*
X187181101Y-110900815D01*
X187210361Y-110730704D01*
X187238085Y-110570453D01*
X187263393Y-110425219D01*
X187285405Y-110300157D01*
X187303240Y-110200424D01*
X187316020Y-110131177D01*
X187322329Y-110099792D01*
X187325803Y-110075944D01*
X187317158Y-110061949D01*
X187288245Y-110055410D01*
X187230916Y-110053926D01*
X187168862Y-110054622D01*
X187097218Y-110056830D01*
X187050813Y-110060553D01*
X187037025Y-110065100D01*
X187040650Y-110066602D01*
X187066647Y-110087600D01*
X187067101Y-110132938D01*
X187061591Y-110165522D01*
X187049883Y-110235190D01*
X187032759Y-110337271D01*
X187011001Y-110467097D01*
X186985393Y-110619997D01*
X186956716Y-110791301D01*
X186925753Y-110976340D01*
X186909397Y-111074119D01*
X186877511Y-111264150D01*
X186847368Y-111442637D01*
X186819766Y-111604940D01*
X186795503Y-111746419D01*
X186775376Y-111862432D01*
X186760184Y-111948341D01*
X186750725Y-111999504D01*
X186748360Y-112010744D01*
X186743199Y-112039462D01*
X182272647Y-112039462D01*
X182272179Y-111941292D01*
X182270489Y-111820435D01*
X182266855Y-111732726D01*
X182261482Y-111680971D01*
X182254576Y-111667976D01*
X182252500Y-111671417D01*
X182247667Y-111662689D01*
X182243417Y-111615211D01*
X182239854Y-111532561D01*
X182237086Y-111418320D01*
X182235217Y-111276068D01*
X182234355Y-111109383D01*
X182234309Y-111057584D01*
X182410454Y-111057584D01*
X182410563Y-111241335D01*
X182410879Y-111396014D01*
X182411382Y-111519848D01*
X182412050Y-111611064D01*
X182412863Y-111667888D01*
X182413799Y-111688547D01*
X182414838Y-111671270D01*
X182415959Y-111614283D01*
X182416520Y-111572338D01*
X182418106Y-111390855D01*
X182418914Y-111183393D01*
X182418944Y-110966297D01*
X182418195Y-110755916D01*
X182416668Y-110568595D01*
X182416527Y-110556338D01*
X182415377Y-110477189D01*
X182414298Y-110438653D01*
X182413311Y-110439011D01*
X182412436Y-110476544D01*
X182411695Y-110549532D01*
X182411109Y-110656257D01*
X182410697Y-110794997D01*
X182410482Y-110964034D01*
X182410454Y-111057584D01*
X182234309Y-111057584D01*
X182234863Y-110884553D01*
X182236453Y-110734929D01*
X182238974Y-110612290D01*
X182242320Y-110520215D01*
X182246384Y-110462286D01*
X182251061Y-110442081D01*
X182252500Y-110443750D01*
X182259782Y-110441569D01*
X182265584Y-110399879D01*
X182269701Y-110321486D01*
X182271930Y-110209197D01*
X182272179Y-110173875D01*
X182273667Y-109861667D01*
X191692834Y-109861667D01*
X192666500Y-109861667D01*
X197365500Y-109861667D01*
X197365500Y-115280334D01*
X197725334Y-115280334D01*
X197725334Y-109861667D01*
X202445500Y-109861667D01*
X202445500Y-109565334D01*
X192666500Y-109565334D01*
X192666500Y-109861667D01*
X191692834Y-109861667D01*
X191692834Y-109565334D01*
X181913834Y-109565334D01*
X181913834Y-115280334D01*
X175921495Y-115280334D01*
X175951409Y-115102943D01*
X175989021Y-114880798D01*
X176030160Y-114638586D01*
X176074296Y-114379398D01*
X176120900Y-114106325D01*
X176169440Y-113822461D01*
X176219388Y-113530896D01*
X176270213Y-113234723D01*
X176321385Y-112937033D01*
X176372374Y-112640917D01*
X176422651Y-112349469D01*
X176471686Y-112065779D01*
X176518948Y-111792940D01*
X176563907Y-111534042D01*
X176606034Y-111292179D01*
X176644799Y-111070441D01*
X176679671Y-110871921D01*
X176710121Y-110699710D01*
X176727442Y-110602500D01*
X176841489Y-109971710D01*
X176951736Y-109375585D01*
X177057998Y-108815041D01*
X177160093Y-108290992D01*
X177257836Y-107804351D01*
X177351044Y-107356032D01*
X177439533Y-106946951D01*
X177523119Y-106578021D01*
X177601619Y-106250156D01*
X177603596Y-106242167D01*
X177660058Y-106018530D01*
X177720109Y-105788561D01*
X177782155Y-105557826D01*
X177844603Y-105331893D01*
X177905857Y-105116330D01*
X177964324Y-104916703D01*
X178018410Y-104738582D01*
X178066521Y-104587532D01*
X178107062Y-104469123D01*
X178124805Y-104421834D01*
X178187495Y-104274661D01*
X178261303Y-104121612D01*
X178342217Y-103969371D01*
X178426229Y-103824621D01*
X178509327Y-103694048D01*
X178587501Y-103584334D01*
X178656742Y-103502165D01*
X178700215Y-103462768D01*
X178755574Y-103435752D01*
X178830024Y-103415655D01*
X178863900Y-103410803D01*
X178989915Y-103418216D01*
X179108814Y-103465892D01*
X179221841Y-103554514D01*
X179309126Y-103655697D01*
X179403363Y-103795804D01*
X179497673Y-103965292D01*
X179592365Y-104165206D01*
X179687751Y-104396593D01*
X179784139Y-104660498D01*
X179881840Y-104957967D01*
X179981164Y-105290047D01*
X180082420Y-105657782D01*
X180185917Y-106062220D01*
X180291968Y-106504405D01*
X180400880Y-106985383D01*
X180512963Y-107506202D01*
X180628529Y-108067905D01*
X180653985Y-108194736D01*
X180701018Y-108433058D01*
X180752511Y-108699424D01*
X180807815Y-108990161D01*
X180866278Y-109301592D01*
X180927248Y-109630045D01*
X180990076Y-109971845D01*
X181054110Y-110323317D01*
X181118700Y-110680787D01*
X181183193Y-111040581D01*
X181246940Y-111399025D01*
X181309289Y-111752445D01*
X181369589Y-112097165D01*
X181427190Y-112429512D01*
X181481440Y-112745811D01*
X181531688Y-113042388D01*
X181577284Y-113315569D01*
X181617576Y-113561679D01*
X181651913Y-113777045D01*
X181679646Y-113957991D01*
X181699326Y-114095000D01*
X181704561Y-114120343D01*
X181708977Y-114112430D01*
X181712627Y-114069780D01*
X181715563Y-113990911D01*
X181717838Y-113874344D01*
X181719505Y-113718598D01*
X181720616Y-113522190D01*
X181720721Y-113494142D01*
X181723334Y-112755701D01*
X181510729Y-111525642D01*
X181405405Y-110917583D01*
X181306460Y-110349203D01*
X181213487Y-109818399D01*
X181168831Y-109565334D01*
X181133055Y-109362596D01*
X187205500Y-109362596D01*
X187224642Y-109369299D01*
X187274223Y-109371922D01*
X187327209Y-109370598D01*
X187448917Y-109364250D01*
X187495828Y-109142000D01*
X187511961Y-109064068D01*
X187534714Y-108952036D01*
X187562595Y-108813356D01*
X187594114Y-108655478D01*
X187627780Y-108485852D01*
X187662101Y-108311927D01*
X187671604Y-108263584D01*
X187772943Y-107760075D01*
X187875789Y-107273364D01*
X187979309Y-106806880D01*
X188082675Y-106364057D01*
X188185055Y-105948327D01*
X188285618Y-105563120D01*
X188383535Y-105211871D01*
X188477973Y-104898009D01*
X188511626Y-104792787D01*
X188583995Y-104584680D01*
X188663591Y-104380751D01*
X188747988Y-104185609D01*
X188834755Y-104003864D01*
X188921466Y-103840126D01*
X189005691Y-103699006D01*
X189085002Y-103585113D01*
X189156970Y-103503057D01*
X189213604Y-103460162D01*
X189306328Y-103427632D01*
X189412657Y-103413193D01*
X189512047Y-103418897D01*
X189544645Y-103427076D01*
X189644275Y-103478736D01*
X189744886Y-103568489D01*
X189846616Y-103696695D01*
X189949606Y-103863714D01*
X190053995Y-104069908D01*
X190159925Y-104315637D01*
X190267533Y-104601263D01*
X190376962Y-104927144D01*
X190488350Y-105293643D01*
X190601837Y-105701121D01*
X190717564Y-106149937D01*
X190835670Y-106640453D01*
X190900030Y-106920779D01*
X190916656Y-106996414D01*
X190939398Y-107102962D01*
X190967348Y-107235945D01*
X190999598Y-107390883D01*
X191035237Y-107563299D01*
X191073356Y-107748712D01*
X191113047Y-107942645D01*
X191153401Y-108140618D01*
X191193508Y-108338152D01*
X191232459Y-108530769D01*
X191269346Y-108713990D01*
X191303258Y-108883336D01*
X191333288Y-109034327D01*
X191358525Y-109162486D01*
X191378061Y-109263333D01*
X191390987Y-109332389D01*
X191396394Y-109365176D01*
X191396500Y-109366744D01*
X191415828Y-109370835D01*
X191466462Y-109373744D01*
X191536348Y-109374834D01*
X191612135Y-109373141D01*
X191653000Y-109366905D01*
X191666261Y-109354388D01*
X191664520Y-109344407D01*
X191654489Y-109315238D01*
X191643397Y-109276081D01*
X191630489Y-109223217D01*
X191615012Y-109152926D01*
X191596209Y-109061486D01*
X191573326Y-108945178D01*
X191545609Y-108800281D01*
X191512302Y-108623075D01*
X191472650Y-108409839D01*
X191449507Y-108284750D01*
X191339282Y-107694349D01*
X191234132Y-107144033D01*
X191133608Y-106631918D01*
X191037264Y-106156117D01*
X190944652Y-105714745D01*
X190855325Y-105305915D01*
X190768834Y-104927742D01*
X190684732Y-104578340D01*
X190602572Y-104255824D01*
X190521906Y-103958307D01*
X190442287Y-103683905D01*
X190363266Y-103430730D01*
X190284397Y-103196897D01*
X190205232Y-102980522D01*
X190167817Y-102884375D01*
X190087063Y-102687377D01*
X190014376Y-102525037D01*
X189946439Y-102391242D01*
X189879931Y-102279875D01*
X189811535Y-102184823D01*
X189747955Y-102110685D01*
X189657489Y-102018221D01*
X189583390Y-101956154D01*
X189518373Y-101919770D01*
X189455152Y-101904355D01*
X189426959Y-101903000D01*
X189324220Y-101923972D01*
X189219059Y-101986320D01*
X189112041Y-102089191D01*
X189003732Y-102231734D01*
X188894698Y-102413097D01*
X188785505Y-102632429D01*
X188676718Y-102888876D01*
X188568903Y-103181587D01*
X188559401Y-103209287D01*
X188472681Y-103477231D01*
X188381546Y-103785146D01*
X188286509Y-104130958D01*
X188188082Y-104512593D01*
X188086777Y-104927977D01*
X187983106Y-105375034D01*
X187877582Y-105851690D01*
X187770718Y-106355872D01*
X187713668Y-106633750D01*
X187695165Y-106726558D01*
X187671311Y-106848883D01*
X187642894Y-106996487D01*
X187610705Y-107165135D01*
X187575531Y-107350588D01*
X187538161Y-107548611D01*
X187499386Y-107754967D01*
X187459993Y-107965419D01*
X187420772Y-108175730D01*
X187382511Y-108381663D01*
X187346000Y-108578981D01*
X187312028Y-108763449D01*
X187281383Y-108930828D01*
X187254855Y-109076883D01*
X187233232Y-109197376D01*
X187217304Y-109288070D01*
X187207859Y-109344730D01*
X187205500Y-109362596D01*
X181133055Y-109362596D01*
X181126078Y-109323063D01*
X181043828Y-108861091D01*
G37*
X181043828Y-108861091D02*
X180966328Y-108430376D01*
X180893172Y-108028814D01*
X180823953Y-107654298D01*
X180758265Y-107304722D01*
X180695700Y-106977981D01*
X180635851Y-106671970D01*
X180578313Y-106384582D01*
X180522677Y-106113713D01*
X180468537Y-105857255D01*
X180415486Y-105613105D01*
X180363117Y-105379155D01*
X180311024Y-105153301D01*
X180258799Y-104933436D01*
X180206035Y-104717455D01*
X180158514Y-104527667D01*
X180069984Y-104184831D01*
X179987217Y-103879440D01*
X179908814Y-103607215D01*
X179833376Y-103363877D01*
X179759504Y-103145146D01*
X179685800Y-102946746D01*
X179610863Y-102764396D01*
X179533296Y-102593818D01*
X179511405Y-102548584D01*
X179398387Y-102336398D01*
X179288014Y-102166314D01*
X179180312Y-102038363D01*
X179075312Y-101952577D01*
X178973040Y-101908985D01*
X178919718Y-101903000D01*
X178815457Y-101923125D01*
X178710242Y-101983591D01*
X178604022Y-102084539D01*
X178496746Y-102226105D01*
X178388365Y-102408429D01*
X178278828Y-102631650D01*
X178168085Y-102895906D01*
X178056084Y-103201336D01*
X177942776Y-103548079D01*
X177828110Y-103936273D01*
X177712035Y-104366057D01*
X177594502Y-104837569D01*
X177475459Y-105350949D01*
X177354857Y-105906335D01*
X177232644Y-106503865D01*
X177217389Y-106580834D01*
X177176285Y-106789414D01*
X177136943Y-106990226D01*
X177098923Y-107185724D01*
X177061784Y-107378367D01*
X177025086Y-107570611D01*
X176988388Y-107764914D01*
X176951250Y-107963732D01*
X176913233Y-108169524D01*
X176873894Y-108384745D01*
X176832795Y-108611854D01*
X176789495Y-108853307D01*
X176743552Y-109111561D01*
X176694528Y-109389073D01*
X176641981Y-109688301D01*
X176585471Y-110011702D01*
X176524559Y-110361732D01*
X176458802Y-110740850D01*
X176387762Y-111151511D01*
X176310997Y-111596174D01*
X176228068Y-112077295D01*
X176138534Y-112597331D01*
X176124853Y-112676834D01*
X176067487Y-113009427D01*
X176012906Y-113324307D01*
X175961543Y-113619050D01*
X175913827Y-113891233D01*
X175870190Y-114138435D01*
X175831063Y-114358233D01*
X175796878Y-114548204D01*
X175768064Y-114705925D01*
X175745054Y-114828974D01*
X175728278Y-114914928D01*
X175718738Y-114959092D01*
X175704655Y-114992961D01*
X175689447Y-114987324D01*
X175673389Y-114944985D01*
X175656754Y-114868747D01*
X175639817Y-114761416D01*
X175622850Y-114625795D01*
X175606128Y-114464687D01*
X175589925Y-114280898D01*
X175574513Y-114077231D01*
X175560168Y-113856490D01*
X175547163Y-113621479D01*
X175535771Y-113375003D01*
X175526267Y-113119865D01*
X175520706Y-112930834D01*
X175510562Y-112243083D01*
X175517285Y-111586262D01*
X175541422Y-110952235D01*
X175583522Y-110332871D01*
X175644132Y-109720036D01*
X175723800Y-109105597D01*
X175818664Y-108507000D01*
X176003478Y-107552783D01*
X176227139Y-106615269D01*
X176489791Y-105694105D01*
X176791574Y-104788937D01*
X177132630Y-103899410D01*
X177513101Y-103025171D01*
X177933130Y-102165865D01*
X178392857Y-101321139D01*
X178892425Y-100490639D01*
X179251193Y-99939456D01*
X179640413Y-99377838D01*
X180040192Y-98838161D01*
X180455881Y-98314019D01*
X180892829Y-97799007D01*
X181356385Y-97286720D01*
X181851900Y-96770753D01*
X182128379Y-96494524D01*
X182770276Y-95885257D01*
X183425124Y-95311014D01*
X184097558Y-94768321D01*
X184792215Y-94253706D01*
X185513729Y-93763694D01*
X186266735Y-93294814D01*
X186845667Y-92960130D01*
X187005145Y-92873024D01*
X187195773Y-92772653D01*
X187409932Y-92662753D01*
X187640003Y-92547058D01*
X187878365Y-92429305D01*
X188117400Y-92313229D01*
X188349487Y-92202565D01*
X188567007Y-92101048D01*
X188762342Y-92012414D01*
X188912090Y-91947080D01*
X189787132Y-91596178D01*
X190667312Y-91285262D01*
X191555016Y-91013777D01*
X192452630Y-90781169D01*
X193362540Y-90586884D01*
X194287132Y-90430368D01*
X195228792Y-90311068D01*
X196189905Y-90228429D01*
X196360084Y-90217706D01*
X196521604Y-90210021D01*
X196717702Y-90203868D01*
X196940649Y-90199247D01*
X197182716Y-90196163D01*
X197436176Y-90194616D01*
X197693299Y-90194609D01*
X197946358Y-90196144D01*
X198187624Y-90199223D01*
X198409369Y-90203847D01*
X198603864Y-90210020D01*
X198751917Y-90217059D01*
X199689355Y-90289719D01*
X200606185Y-90396987D01*
X201507301Y-90539678D01*
X202397600Y-90718610D01*
X203281974Y-90934600D01*
X203641417Y-91033328D01*
X204500485Y-91297717D01*
X205356200Y-91602385D01*
X206204920Y-91945439D01*
X207043002Y-92324982D01*
X207866805Y-92739120D01*
X208672685Y-93185958D01*
X209457001Y-93663600D01*
X210216111Y-94170153D01*
X210946373Y-94703720D01*
X211430750Y-95086008D01*
X212004282Y-95570566D01*
X212570978Y-96083283D01*
X213125554Y-96618628D01*
X213662729Y-97171070D01*
X214177220Y-97735076D01*
X214663743Y-98305116D01*
X215117017Y-98875657D01*
X215357948Y-99198239D01*
X215426757Y-99293898D01*
X215506889Y-99407449D01*
X215595306Y-99534380D01*
X215688964Y-99670181D01*
X215784823Y-99810342D01*
X215879843Y-99950354D01*
X215970982Y-100085704D01*
X216055199Y-100211884D01*
X216129453Y-100324383D01*
X216190702Y-100418691D01*
X216235907Y-100490297D01*
X216262026Y-100534692D01*
X216267334Y-100546982D01*
X216248723Y-100563438D01*
X216202550Y-100578507D01*
X216187959Y-100581398D01*
X216036965Y-100609758D01*
X215849635Y-100648384D01*
X215630024Y-100696248D01*
X215382183Y-100752320D01*
X215110169Y-100815571D01*
X214818033Y-100884971D01*
X214509830Y-100959493D01*
X214189614Y-101038106D01*
X213861438Y-101119781D01*
X213529357Y-101203490D01*
X213197423Y-101288203D01*
X212869691Y-101372892D01*
X212550215Y-101456526D01*
X212243048Y-101538077D01*
X211952244Y-101616516D01*
X211681856Y-101690814D01*
X211435939Y-101759941D01*
X211218547Y-101822869D01*
X211033733Y-101878567D01*
X210885550Y-101926009D01*
X210867493Y-101932091D01*
X210664069Y-102001141D01*
X210607021Y-101952071D01*
X210527756Y-101909759D01*
X210435581Y-101903741D01*
X210335864Y-101932128D01*
X210233973Y-101993029D01*
X210135277Y-102084556D01*
X210095789Y-102132037D01*
X210049076Y-102187969D01*
X210009481Y-102227271D01*
X209987438Y-102240765D01*
X209941507Y-102248473D01*
X209859625Y-102268836D01*
X209745815Y-102300575D01*
X209604101Y-102342409D01*
X209438505Y-102393060D01*
X209253050Y-102451247D01*
X209051761Y-102515692D01*
X208838660Y-102585115D01*
X208617770Y-102658237D01*
X208393115Y-102733778D01*
X208168718Y-102810459D01*
X207948602Y-102886999D01*
X207885334Y-102909274D01*
X207277418Y-103126386D01*
X206694953Y-103339653D01*
X206130251Y-103552146D01*
X205575623Y-103766932D01*
X205023383Y-103987080D01*
X204465843Y-104215658D01*
X203895314Y-104455736D01*
X203304110Y-104710382D01*
X202684543Y-104982665D01*
X202625417Y-105008900D01*
X202378554Y-105118290D01*
X202167473Y-105211276D01*
X201989431Y-105288997D01*
X201841682Y-105352592D01*
X201721483Y-105403200D01*
X201626089Y-105441961D01*
X201552755Y-105470013D01*
X201498738Y-105488496D01*
X201461292Y-105498550D01*
X201439139Y-105501334D01*
X201430022Y-105497358D01*
X201420104Y-105482792D01*
X201408310Y-105453675D01*
X201393566Y-105406044D01*
X201374797Y-105335940D01*
X201350929Y-105239400D01*
X201320886Y-105112465D01*
X201283596Y-104951173D01*
X201249669Y-104802834D01*
X201169286Y-104467630D01*
X201082794Y-104138707D01*
X200991527Y-103819775D01*
X200896818Y-103514547D01*
X200799999Y-103226735D01*
X200702405Y-102960049D01*
X200605369Y-102718202D01*
X200510223Y-102504904D01*
X200418303Y-102323868D01*
X200330940Y-102178806D01*
X200283547Y-102113454D01*
X200196883Y-102022645D01*
X200100929Y-101953440D01*
X200005708Y-101912067D01*
X199944826Y-101903000D01*
X199863521Y-101920310D01*
X199770694Y-101968220D01*
X199676044Y-102040697D01*
X199602360Y-102115992D01*
X199506902Y-102242531D01*
X199411262Y-102399712D01*
X199315168Y-102588437D01*
X199218351Y-102809610D01*
X199120538Y-103064133D01*
X199021460Y-103352909D01*
X198920846Y-103676843D01*
X198818424Y-104036836D01*
X198713924Y-104433792D01*
X198607075Y-104868614D01*
X198497607Y-105342204D01*
X198385248Y-105855467D01*
X198269728Y-106409305D01*
X198178062Y-106865955D01*
X198153055Y-106990495D01*
X198130707Y-107082255D01*
X198104762Y-107149840D01*
X198068963Y-107201854D01*
X198017057Y-107246904D01*
X197942787Y-107293591D01*
X197839898Y-107350523D01*
X197816540Y-107363239D01*
X197344524Y-107621901D01*
X196873848Y-107882749D01*
X196410879Y-108142181D01*
X195961983Y-108396593D01*
X195533525Y-108642383D01*
X195131873Y-108875946D01*
X194846956Y-109043955D01*
X194307495Y-109364250D01*
X198471748Y-109369595D01*
X202636000Y-109374939D01*
X202636000Y-110052167D01*
X197915834Y-110052167D01*
X197915834Y-115449667D01*
X197217334Y-115449667D01*
X197217334Y-110052167D01*
X193177494Y-110052167D01*
X193054289Y-110133554D01*
X192986976Y-110177554D01*
X192896716Y-110235879D01*
X192789052Y-110305009D01*
X192669526Y-110381427D01*
X192543683Y-110461613D01*
X192417066Y-110542050D01*
X192295218Y-110619217D01*
X192183682Y-110689598D01*
X192088003Y-110749674D01*
X192013723Y-110795925D01*
X191966385Y-110824833D01*
X191953615Y-110832186D01*
X191926414Y-110843216D01*
X191909534Y-110834841D01*
X191896693Y-110799103D01*
X191885082Y-110745323D01*
X191859534Y-110611841D01*
X191835937Y-110476077D01*
X191815915Y-110348480D01*
X191801089Y-110239496D01*
X191793081Y-110159574D01*
X191792481Y-110148913D01*
X191788084Y-110052461D01*
X191655792Y-110052314D01*
X191587252Y-110054550D01*
X191539448Y-110060528D01*
X191523514Y-110068042D01*
X191527181Y-110093179D01*
X191537324Y-110152715D01*
X191552670Y-110239432D01*
X191571946Y-110346113D01*
X191587901Y-110433167D01*
X191610099Y-110558422D01*
X191629554Y-110677297D01*
X191644785Y-110780028D01*
X191654312Y-110856855D01*
X191656679Y-110886569D01*
X191657564Y-110941115D01*
X191650060Y-110979351D01*
X191627385Y-111013048D01*
X191582753Y-111053976D01*
X191540003Y-111089021D01*
X191494102Y-111123938D01*
X191418033Y-111179021D01*
X191316753Y-111250799D01*
X191195214Y-111335806D01*
X191058374Y-111430572D01*
X190911186Y-111531629D01*
X190781663Y-111619869D01*
X190144404Y-112052417D01*
X191008577Y-112063000D01*
X191872750Y-112073584D01*
X191872750Y-112750917D01*
X189125664Y-112761811D01*
X188752957Y-113029887D01*
X188644059Y-113108600D01*
X188508505Y-113207196D01*
X188353619Y-113320313D01*
X188186725Y-113442586D01*
X188015148Y-113568654D01*
X187846212Y-113693153D01*
X187748618Y-113765273D01*
X187591335Y-113881630D01*
X187432792Y-113998904D01*
X187279135Y-114112549D01*
X187136512Y-114218020D01*
X187011070Y-114310770D01*
X186908955Y-114386255D01*
X186851954Y-114428375D01*
X186759519Y-114495701D01*
X186678332Y-114553031D01*
X186614739Y-114596022D01*
X186575089Y-114620332D01*
X186565725Y-114624167D01*
X186554782Y-114604779D01*
X186555956Y-114550403D01*
X186559374Y-114523625D01*
X186568318Y-114466626D01*
X186582934Y-114377703D01*
X186602276Y-114262314D01*
X186625399Y-114125918D01*
X186651356Y-113973972D01*
X186679201Y-113811935D01*
X186707988Y-113645266D01*
X186736771Y-113479422D01*
X186764604Y-113319861D01*
X186790541Y-113172041D01*
X186813634Y-113041422D01*
X186832939Y-112933460D01*
X186847510Y-112853615D01*
X186856399Y-112807344D01*
X186858406Y-112798542D01*
X186859706Y-112778311D01*
X186842413Y-112767098D01*
X186798117Y-112762358D01*
X186735968Y-112761517D01*
X186602250Y-112761534D01*
X186596170Y-112855875D01*
X186591240Y-112896581D01*
X186579653Y-112974082D01*
X186562217Y-113083504D01*
X186539741Y-113219974D01*
X186513032Y-113378617D01*
X186482898Y-113554559D01*
X186450148Y-113742926D01*
X186432135Y-113845400D01*
X186398787Y-114034749D01*
X186367835Y-114211178D01*
X186340035Y-114370330D01*
X186316144Y-114507844D01*
X186296916Y-114619364D01*
X186283107Y-114700530D01*
X186275474Y-114746984D01*
X186274173Y-114756381D01*
X186294928Y-114758342D01*
X186355552Y-114760314D01*
X186453582Y-114762276D01*
X186586552Y-114764210D01*
X186751999Y-114766098D01*
X186947458Y-114767920D01*
X187170465Y-114769659D01*
X187418557Y-114771296D01*
X187689268Y-114772812D01*
X187980135Y-114774188D01*
X188288694Y-114775406D01*
X188612480Y-114776447D01*
X188949030Y-114777293D01*
X189073459Y-114777547D01*
X191872750Y-114782917D01*
X191872750Y-115439084D01*
X188655417Y-115449667D01*
X188290422Y-115450937D01*
X187937443Y-115452302D01*
X187598751Y-115453746D01*
X187276621Y-115455254D01*
X186973326Y-115456811D01*
X186691138Y-115458403D01*
X186432330Y-115460012D01*
X186199175Y-115461626D01*
X185993947Y-115463227D01*
X185818919Y-115464802D01*
X185676363Y-115466335D01*
X185568553Y-115467811D01*
X185497761Y-115469214D01*
X185466261Y-115470530D01*
X185464900Y-115470953D01*
X185455402Y-115486251D01*
X185416137Y-115525020D01*
X185350447Y-115584354D01*
X185261677Y-115661348D01*
X185153171Y-115753098D01*
X185028274Y-115856698D01*
X184904471Y-115957786D01*
X184676158Y-116143415D01*
X184444207Y-116332971D01*
X184212656Y-116523097D01*
X183985543Y-116710439D01*
X183766907Y-116891640D01*
X183560787Y-117063345D01*
X183371219Y-117222198D01*
X183202242Y-117364843D01*
X183057895Y-117487925D01*
X182942216Y-117588087D01*
X182935061Y-117594360D01*
X182677486Y-117820410D01*
X182657113Y-117740997D01*
X182641726Y-117678010D01*
X182623026Y-117595696D01*
X182600414Y-117491136D01*
X182573292Y-117361411D01*
X182541061Y-117203601D01*
X182503123Y-117014788D01*
X182458880Y-116792054D01*
X182407733Y-116532478D01*
X182371801Y-116349250D01*
X182197724Y-115460250D01*
X182063610Y-115453877D01*
X181991191Y-115451177D01*
X181952455Y-115453863D01*
X181938817Y-115464979D01*
X181941691Y-115487570D01*
X181944238Y-115496210D01*
X181952049Y-115530244D01*
X181966415Y-115601122D01*
X181986449Y-115704014D01*
X182011264Y-115834090D01*
X182039974Y-115986519D01*
X182071692Y-116156471D01*
X182105531Y-116339117D01*
X182140605Y-116529625D01*
X182176026Y-116723167D01*
X182210908Y-116914911D01*
X182244364Y-117100028D01*
X182275508Y-117273687D01*
X182303451Y-117431059D01*
X182327309Y-117567313D01*
X182346194Y-117677618D01*
X182358588Y-117753134D01*
X182406450Y-118056350D01*
X182324796Y-118123550D01*
X182266853Y-118172465D01*
X182181513Y-118246205D01*
X182072788Y-118341209D01*
X181944684Y-118453913D01*
X181801213Y-118580755D01*
X181646381Y-118718173D01*
X181484198Y-118862604D01*
X181318674Y-119010487D01*
X181153816Y-119158257D01*
X180993634Y-119302353D01*
X180842136Y-119439213D01*
X180740976Y-119531007D01*
X180588459Y-119670014D01*
X180442338Y-119803893D01*
X180299198Y-119935868D01*
X180155620Y-120069160D01*
X180008190Y-120206995D01*
X179853490Y-120352593D01*
X179688103Y-120509179D01*
X179508615Y-120679975D01*
X179311607Y-120868204D01*
X179093664Y-121077090D01*
X178851369Y-121309855D01*
X178651084Y-121502546D01*
X178502868Y-121644976D01*
X178363904Y-121778059D01*
X178237164Y-121898980D01*
X178125619Y-122004926D01*
X178032242Y-122093083D01*
X177960004Y-122160636D01*
X177911877Y-122204773D01*
X177890834Y-122222678D01*
X177890239Y-122222933D01*
X177874080Y-122205968D01*
X177845821Y-122162253D01*
X177823213Y-122122459D01*
X177778166Y-122035197D01*
X177719681Y-121915479D01*
X177650756Y-121769860D01*
X177574387Y-121604899D01*
X177493570Y-121427151D01*
X177411303Y-121243173D01*
X177330581Y-121059523D01*
X177254401Y-120882756D01*
X177225676Y-120814980D01*
X176888979Y-119965709D01*
X176585104Y-119094624D01*
X176316465Y-118209368D01*
X176085479Y-117317583D01*
X175996782Y-116926875D01*
X175938058Y-116647612D01*
X175891854Y-116408113D01*
X175858070Y-116207732D01*
X175836607Y-116045825D01*
X175827365Y-115921747D01*
X175829482Y-115841250D01*
X175834803Y-115804439D01*
X175846830Y-115729009D01*
X175865035Y-115618053D01*
X175888886Y-115474662D01*
X175917854Y-115301928D01*
X175921495Y-115280334D01*
X181913834Y-115280334D01*
X191692834Y-115280334D01*
X191692834Y-114962834D01*
X182273667Y-114962834D01*
X182272179Y-114640042D01*
X182270531Y-114517141D01*
X182266997Y-114426876D01*
X182261780Y-114372144D01*
X182255084Y-114355843D01*
X182252500Y-114359584D01*
X182247626Y-114350967D01*
X182243347Y-114303606D01*
X182239771Y-114221088D01*
X182237005Y-114107000D01*
X182235159Y-113964929D01*
X182234341Y-113798460D01*
X182234318Y-113766917D01*
X182410454Y-113766917D01*
X182410563Y-113950669D01*
X182410879Y-114105348D01*
X182411382Y-114229182D01*
X182412050Y-114320397D01*
X182412863Y-114377221D01*
X182413799Y-114397881D01*
X182414838Y-114380604D01*
X182415959Y-114323616D01*
X182416520Y-114281672D01*
X182418106Y-114100189D01*
X182418914Y-113892726D01*
X182418944Y-113675630D01*
X182418195Y-113465249D01*
X182416668Y-113277928D01*
X182416527Y-113265672D01*
X182415377Y-113186522D01*
X182414298Y-113147986D01*
X182413311Y-113148344D01*
X182412436Y-113185877D01*
X182411695Y-113258866D01*
X182411109Y-113365590D01*
X182410697Y-113504330D01*
X182410482Y-113673367D01*
X182410454Y-113766917D01*
X182234318Y-113766917D01*
X182234309Y-113756334D01*
X182234871Y-113584670D01*
X182236486Y-113436563D01*
X182239046Y-113315599D01*
X182242442Y-113225366D01*
X182246567Y-113169450D01*
X182251311Y-113151438D01*
X182252500Y-113153084D01*
X182259782Y-113150902D01*
X182265584Y-113109212D01*
X182269701Y-113030820D01*
X182271930Y-112918530D01*
X182272179Y-112883209D01*
X182273667Y-112571000D01*
X191692834Y-112571000D01*
X191692834Y-112253500D01*
X182273667Y-112253500D01*
X182272647Y-112039462D01*
X186743199Y-112039462D01*
X186751989Y-112055086D01*
X186783584Y-112061601D01*
X186846839Y-112062988D01*
X186864539Y-112063000D01*
X186936801Y-112061273D01*
X186976130Y-112054250D01*
X186991852Y-112039165D01*
X186993834Y-112024668D01*
X186997319Y-111997864D01*
X187007188Y-111934511D01*
X187022561Y-111839765D01*
X187042558Y-111718783D01*
X187066299Y-111576722D01*
X187092903Y-111418739D01*
X187121492Y-111249988D01*
X187151184Y-111075628D01*
X187181101Y-110900815D01*
X187210361Y-110730704D01*
X187238085Y-110570453D01*
X187263393Y-110425219D01*
X187285405Y-110300157D01*
X187303240Y-110200424D01*
X187316020Y-110131177D01*
X187322329Y-110099792D01*
X187325803Y-110075944D01*
X187317158Y-110061949D01*
X187288245Y-110055410D01*
X187230916Y-110053926D01*
X187168862Y-110054622D01*
X187097218Y-110056830D01*
X187050813Y-110060553D01*
X187037025Y-110065100D01*
X187040650Y-110066602D01*
X187066647Y-110087600D01*
X187067101Y-110132938D01*
X187061591Y-110165522D01*
X187049883Y-110235190D01*
X187032759Y-110337271D01*
X187011001Y-110467097D01*
X186985393Y-110619997D01*
X186956716Y-110791301D01*
X186925753Y-110976340D01*
X186909397Y-111074119D01*
X186877511Y-111264150D01*
X186847368Y-111442637D01*
X186819766Y-111604940D01*
X186795503Y-111746419D01*
X186775376Y-111862432D01*
X186760184Y-111948341D01*
X186750725Y-111999504D01*
X186748360Y-112010744D01*
X186743199Y-112039462D01*
X182272647Y-112039462D01*
X182272179Y-111941292D01*
X182270489Y-111820435D01*
X182266855Y-111732726D01*
X182261482Y-111680971D01*
X182254576Y-111667976D01*
X182252500Y-111671417D01*
X182247667Y-111662689D01*
X182243417Y-111615211D01*
X182239854Y-111532561D01*
X182237086Y-111418320D01*
X182235217Y-111276068D01*
X182234355Y-111109383D01*
X182234309Y-111057584D01*
X182410454Y-111057584D01*
X182410563Y-111241335D01*
X182410879Y-111396014D01*
X182411382Y-111519848D01*
X182412050Y-111611064D01*
X182412863Y-111667888D01*
X182413799Y-111688547D01*
X182414838Y-111671270D01*
X182415959Y-111614283D01*
X182416520Y-111572338D01*
X182418106Y-111390855D01*
X182418914Y-111183393D01*
X182418944Y-110966297D01*
X182418195Y-110755916D01*
X182416668Y-110568595D01*
X182416527Y-110556338D01*
X182415377Y-110477189D01*
X182414298Y-110438653D01*
X182413311Y-110439011D01*
X182412436Y-110476544D01*
X182411695Y-110549532D01*
X182411109Y-110656257D01*
X182410697Y-110794997D01*
X182410482Y-110964034D01*
X182410454Y-111057584D01*
X182234309Y-111057584D01*
X182234863Y-110884553D01*
X182236453Y-110734929D01*
X182238974Y-110612290D01*
X182242320Y-110520215D01*
X182246384Y-110462286D01*
X182251061Y-110442081D01*
X182252500Y-110443750D01*
X182259782Y-110441569D01*
X182265584Y-110399879D01*
X182269701Y-110321486D01*
X182271930Y-110209197D01*
X182272179Y-110173875D01*
X182273667Y-109861667D01*
X191692834Y-109861667D01*
X192666500Y-109861667D01*
X197365500Y-109861667D01*
X197365500Y-115280334D01*
X197725334Y-115280334D01*
X197725334Y-109861667D01*
X202445500Y-109861667D01*
X202445500Y-109565334D01*
X192666500Y-109565334D01*
X192666500Y-109861667D01*
X191692834Y-109861667D01*
X191692834Y-109565334D01*
X181913834Y-109565334D01*
X181913834Y-115280334D01*
X175921495Y-115280334D01*
X175951409Y-115102943D01*
X175989021Y-114880798D01*
X176030160Y-114638586D01*
X176074296Y-114379398D01*
X176120900Y-114106325D01*
X176169440Y-113822461D01*
X176219388Y-113530896D01*
X176270213Y-113234723D01*
X176321385Y-112937033D01*
X176372374Y-112640917D01*
X176422651Y-112349469D01*
X176471686Y-112065779D01*
X176518948Y-111792940D01*
X176563907Y-111534042D01*
X176606034Y-111292179D01*
X176644799Y-111070441D01*
X176679671Y-110871921D01*
X176710121Y-110699710D01*
X176727442Y-110602500D01*
X176841489Y-109971710D01*
X176951736Y-109375585D01*
X177057998Y-108815041D01*
X177160093Y-108290992D01*
X177257836Y-107804351D01*
X177351044Y-107356032D01*
X177439533Y-106946951D01*
X177523119Y-106578021D01*
X177601619Y-106250156D01*
X177603596Y-106242167D01*
X177660058Y-106018530D01*
X177720109Y-105788561D01*
X177782155Y-105557826D01*
X177844603Y-105331893D01*
X177905857Y-105116330D01*
X177964324Y-104916703D01*
X178018410Y-104738582D01*
X178066521Y-104587532D01*
X178107062Y-104469123D01*
X178124805Y-104421834D01*
X178187495Y-104274661D01*
X178261303Y-104121612D01*
X178342217Y-103969371D01*
X178426229Y-103824621D01*
X178509327Y-103694048D01*
X178587501Y-103584334D01*
X178656742Y-103502165D01*
X178700215Y-103462768D01*
X178755574Y-103435752D01*
X178830024Y-103415655D01*
X178863900Y-103410803D01*
X178989915Y-103418216D01*
X179108814Y-103465892D01*
X179221841Y-103554514D01*
X179309126Y-103655697D01*
X179403363Y-103795804D01*
X179497673Y-103965292D01*
X179592365Y-104165206D01*
X179687751Y-104396593D01*
X179784139Y-104660498D01*
X179881840Y-104957967D01*
X179981164Y-105290047D01*
X180082420Y-105657782D01*
X180185917Y-106062220D01*
X180291968Y-106504405D01*
X180400880Y-106985383D01*
X180512963Y-107506202D01*
X180628529Y-108067905D01*
X180653985Y-108194736D01*
X180701018Y-108433058D01*
X180752511Y-108699424D01*
X180807815Y-108990161D01*
X180866278Y-109301592D01*
X180927248Y-109630045D01*
X180990076Y-109971845D01*
X181054110Y-110323317D01*
X181118700Y-110680787D01*
X181183193Y-111040581D01*
X181246940Y-111399025D01*
X181309289Y-111752445D01*
X181369589Y-112097165D01*
X181427190Y-112429512D01*
X181481440Y-112745811D01*
X181531688Y-113042388D01*
X181577284Y-113315569D01*
X181617576Y-113561679D01*
X181651913Y-113777045D01*
X181679646Y-113957991D01*
X181699326Y-114095000D01*
X181704561Y-114120343D01*
X181708977Y-114112430D01*
X181712627Y-114069780D01*
X181715563Y-113990911D01*
X181717838Y-113874344D01*
X181719505Y-113718598D01*
X181720616Y-113522190D01*
X181720721Y-113494142D01*
X181723334Y-112755701D01*
X181510729Y-111525642D01*
X181405405Y-110917583D01*
X181306460Y-110349203D01*
X181213487Y-109818399D01*
X181168831Y-109565334D01*
X181133055Y-109362596D01*
X187205500Y-109362596D01*
X187224642Y-109369299D01*
X187274223Y-109371922D01*
X187327209Y-109370598D01*
X187448917Y-109364250D01*
X187495828Y-109142000D01*
X187511961Y-109064068D01*
X187534714Y-108952036D01*
X187562595Y-108813356D01*
X187594114Y-108655478D01*
X187627780Y-108485852D01*
X187662101Y-108311927D01*
X187671604Y-108263584D01*
X187772943Y-107760075D01*
X187875789Y-107273364D01*
X187979309Y-106806880D01*
X188082675Y-106364057D01*
X188185055Y-105948327D01*
X188285618Y-105563120D01*
X188383535Y-105211871D01*
X188477973Y-104898009D01*
X188511626Y-104792787D01*
X188583995Y-104584680D01*
X188663591Y-104380751D01*
X188747988Y-104185609D01*
X188834755Y-104003864D01*
X188921466Y-103840126D01*
X189005691Y-103699006D01*
X189085002Y-103585113D01*
X189156970Y-103503057D01*
X189213604Y-103460162D01*
X189306328Y-103427632D01*
X189412657Y-103413193D01*
X189512047Y-103418897D01*
X189544645Y-103427076D01*
X189644275Y-103478736D01*
X189744886Y-103568489D01*
X189846616Y-103696695D01*
X189949606Y-103863714D01*
X190053995Y-104069908D01*
X190159925Y-104315637D01*
X190267533Y-104601263D01*
X190376962Y-104927144D01*
X190488350Y-105293643D01*
X190601837Y-105701121D01*
X190717564Y-106149937D01*
X190835670Y-106640453D01*
X190900030Y-106920779D01*
X190916656Y-106996414D01*
X190939398Y-107102962D01*
X190967348Y-107235945D01*
X190999598Y-107390883D01*
X191035237Y-107563299D01*
X191073356Y-107748712D01*
X191113047Y-107942645D01*
X191153401Y-108140618D01*
X191193508Y-108338152D01*
X191232459Y-108530769D01*
X191269346Y-108713990D01*
X191303258Y-108883336D01*
X191333288Y-109034327D01*
X191358525Y-109162486D01*
X191378061Y-109263333D01*
X191390987Y-109332389D01*
X191396394Y-109365176D01*
X191396500Y-109366744D01*
X191415828Y-109370835D01*
X191466462Y-109373744D01*
X191536348Y-109374834D01*
X191612135Y-109373141D01*
X191653000Y-109366905D01*
X191666261Y-109354388D01*
X191664520Y-109344407D01*
X191654489Y-109315238D01*
X191643397Y-109276081D01*
X191630489Y-109223217D01*
X191615012Y-109152926D01*
X191596209Y-109061486D01*
X191573326Y-108945178D01*
X191545609Y-108800281D01*
X191512302Y-108623075D01*
X191472650Y-108409839D01*
X191449507Y-108284750D01*
X191339282Y-107694349D01*
X191234132Y-107144033D01*
X191133608Y-106631918D01*
X191037264Y-106156117D01*
X190944652Y-105714745D01*
X190855325Y-105305915D01*
X190768834Y-104927742D01*
X190684732Y-104578340D01*
X190602572Y-104255824D01*
X190521906Y-103958307D01*
X190442287Y-103683905D01*
X190363266Y-103430730D01*
X190284397Y-103196897D01*
X190205232Y-102980522D01*
X190167817Y-102884375D01*
X190087063Y-102687377D01*
X190014376Y-102525037D01*
X189946439Y-102391242D01*
X189879931Y-102279875D01*
X189811535Y-102184823D01*
X189747955Y-102110685D01*
X189657489Y-102018221D01*
X189583390Y-101956154D01*
X189518373Y-101919770D01*
X189455152Y-101904355D01*
X189426959Y-101903000D01*
X189324220Y-101923972D01*
X189219059Y-101986320D01*
X189112041Y-102089191D01*
X189003732Y-102231734D01*
X188894698Y-102413097D01*
X188785505Y-102632429D01*
X188676718Y-102888876D01*
X188568903Y-103181587D01*
X188559401Y-103209287D01*
X188472681Y-103477231D01*
X188381546Y-103785146D01*
X188286509Y-104130958D01*
X188188082Y-104512593D01*
X188086777Y-104927977D01*
X187983106Y-105375034D01*
X187877582Y-105851690D01*
X187770718Y-106355872D01*
X187713668Y-106633750D01*
X187695165Y-106726558D01*
X187671311Y-106848883D01*
X187642894Y-106996487D01*
X187610705Y-107165135D01*
X187575531Y-107350588D01*
X187538161Y-107548611D01*
X187499386Y-107754967D01*
X187459993Y-107965419D01*
X187420772Y-108175730D01*
X187382511Y-108381663D01*
X187346000Y-108578981D01*
X187312028Y-108763449D01*
X187281383Y-108930828D01*
X187254855Y-109076883D01*
X187233232Y-109197376D01*
X187217304Y-109288070D01*
X187207859Y-109344730D01*
X187205500Y-109362596D01*
X181133055Y-109362596D01*
X181126078Y-109323063D01*
X181043828Y-108861091D01*
X203265214Y-109318312D02*
X203285065Y-109324124D01*
X203285065Y-109324124D02*
X203318720Y-109334926D01*
X203318720Y-109334926D02*
X203367197Y-109351077D01*
X203367197Y-109351077D02*
X203431512Y-109372938D01*
X203431512Y-109372938D02*
X203512685Y-109400871D01*
X203512685Y-109400871D02*
X203611732Y-109435234D01*
X203611732Y-109435234D02*
X203729671Y-109476389D01*
X203729671Y-109476389D02*
X203867520Y-109524697D01*
X203867520Y-109524697D02*
X204026297Y-109580517D01*
X204026297Y-109580517D02*
X204207018Y-109644210D01*
X204207018Y-109644210D02*
X204410702Y-109716137D01*
X204410702Y-109716137D02*
X204638367Y-109796659D01*
X204638367Y-109796659D02*
X204891029Y-109886135D01*
X204891029Y-109886135D02*
X205169708Y-109984926D01*
X205169708Y-109984926D02*
X205475419Y-110093394D01*
X205475419Y-110093394D02*
X205809181Y-110211897D01*
X205809181Y-110211897D02*
X206172012Y-110340797D01*
X206172012Y-110340797D02*
X206564929Y-110480455D01*
X206564929Y-110480455D02*
X206988950Y-110631230D01*
X206988950Y-110631230D02*
X207445092Y-110793483D01*
X207445092Y-110793483D02*
X207934374Y-110967576D01*
X207934374Y-110967576D02*
X208457812Y-111153867D01*
X208457812Y-111153867D02*
X209016424Y-111352719D01*
X209016424Y-111352719D02*
X209611229Y-111564490D01*
X209611229Y-111564490D02*
X210243243Y-111789543D01*
X210243243Y-111789543D02*
X210913485Y-112028236D01*
X210913485Y-112028236D02*
X211346084Y-112182311D01*
X211346084Y-112182311D02*
X211568171Y-112261421D01*
X211568171Y-112261421D02*
X211778892Y-112336502D01*
X211778892Y-112336502D02*
X211974788Y-112406318D01*
X211974788Y-112406318D02*
X212152402Y-112469638D01*
X212152402Y-112469638D02*
X212308277Y-112525228D01*
X212308277Y-112525228D02*
X212438954Y-112571855D01*
X212438954Y-112571855D02*
X212540977Y-112608285D01*
X212540977Y-112608285D02*
X212610888Y-112633287D01*
X212610888Y-112633287D02*
X212645229Y-112645626D01*
X212645229Y-112645626D02*
X212647834Y-112646581D01*
X212647834Y-112646581D02*
X212668963Y-112658916D01*
X212668963Y-112658916D02*
X212651242Y-112674036D01*
X212651242Y-112674036D02*
X212647834Y-112675923D01*
X212647834Y-112675923D02*
X212624807Y-112683305D01*
X212624807Y-112683305D02*
X212562904Y-112701830D01*
X212562904Y-112701830D02*
X212463941Y-112730973D01*
X212463941Y-112730973D02*
X212329736Y-112770209D01*
X212329736Y-112770209D02*
X212162105Y-112819013D01*
X212162105Y-112819013D02*
X211962865Y-112876860D01*
X211962865Y-112876860D02*
X211733835Y-112943225D01*
X211733835Y-112943225D02*
X211476830Y-113017584D01*
X211476830Y-113017584D02*
X211193667Y-113099411D01*
X211193667Y-113099411D02*
X210886165Y-113188182D01*
X210886165Y-113188182D02*
X210556139Y-113283371D01*
X210556139Y-113283371D02*
X210205407Y-113384454D01*
X210205407Y-113384454D02*
X209835786Y-113490906D01*
X209835786Y-113490906D02*
X209449093Y-113602202D01*
X209449093Y-113602202D02*
X209047144Y-113717816D01*
X209047144Y-113717816D02*
X208631758Y-113837224D01*
X208631758Y-113837224D02*
X208204750Y-113959902D01*
X208204750Y-113959902D02*
X207959417Y-114030354D01*
X207959417Y-114030354D02*
X207526550Y-114154639D01*
X207526550Y-114154639D02*
X207104210Y-114275905D01*
X207104210Y-114275905D02*
X206694218Y-114393628D01*
X206694218Y-114393628D02*
X206298395Y-114507285D01*
X206298395Y-114507285D02*
X205918563Y-114616352D01*
X205918563Y-114616352D02*
X205556542Y-114720308D01*
X205556542Y-114720308D02*
X205214154Y-114818628D01*
X205214154Y-114818628D02*
X204893221Y-114910791D01*
X204893221Y-114910791D02*
X204595563Y-114996272D01*
X204595563Y-114996272D02*
X204323002Y-115074548D01*
X204323002Y-115074548D02*
X204077359Y-115145098D01*
X204077359Y-115145098D02*
X203860455Y-115207397D01*
X203860455Y-115207397D02*
X203674112Y-115260923D01*
X203674112Y-115260923D02*
X203520151Y-115305152D01*
X203520151Y-115305152D02*
X203400394Y-115339562D01*
X203400394Y-115339562D02*
X203316661Y-115363629D01*
X203316661Y-115363629D02*
X203270774Y-115376831D01*
X203270774Y-115376831D02*
X203262282Y-115379285D01*
X203262282Y-115379285D02*
X203256705Y-115380200D01*
X203256705Y-115380200D02*
X203251678Y-115378144D01*
X203251678Y-115378144D02*
X203247182Y-115371083D01*
X203247182Y-115371083D02*
X203243199Y-115356984D01*
X203243199Y-115356984D02*
X203239709Y-115333814D01*
X203239709Y-115333814D02*
X203236695Y-115299541D01*
X203236695Y-115299541D02*
X203234137Y-115252131D01*
X203234137Y-115252131D02*
X203232017Y-115189551D01*
X203232017Y-115189551D02*
X203230316Y-115109768D01*
X203230316Y-115109768D02*
X203229015Y-115010750D01*
X203229015Y-115010750D02*
X203228097Y-114890463D01*
X203228097Y-114890463D02*
X203227542Y-114746875D01*
X203227542Y-114746875D02*
X203227331Y-114577952D01*
X203227331Y-114577952D02*
X203227447Y-114381661D01*
X203227447Y-114381661D02*
X203227870Y-114155970D01*
X203227870Y-114155970D02*
X203228581Y-113898846D01*
X203228581Y-113898846D02*
X203229563Y-113608255D01*
X203229563Y-113608255D02*
X203230797Y-113282164D01*
X203230797Y-113282164D02*
X203232263Y-112918541D01*
X203232263Y-112918541D02*
X203233943Y-112515353D01*
X203233943Y-112515353D02*
X203234600Y-112359543D01*
X203234600Y-112359543D02*
X203234646Y-112348954D01*
X203234646Y-112348954D02*
X203398000Y-112348954D01*
X203398000Y-112348954D02*
X203398000Y-115158271D01*
X203398000Y-115158271D02*
X203445625Y-115146379D01*
X203445625Y-115146379D02*
X203470308Y-115139496D01*
X203470308Y-115139496D02*
X203533800Y-115121527D01*
X203533800Y-115121527D02*
X203634202Y-115093015D01*
X203634202Y-115093015D02*
X203769618Y-115054499D01*
X203769618Y-115054499D02*
X203938149Y-115006521D01*
X203938149Y-115006521D02*
X204137899Y-114949622D01*
X204137899Y-114949622D02*
X204366971Y-114884344D01*
X204366971Y-114884344D02*
X204623466Y-114811226D01*
X204623466Y-114811226D02*
X204905487Y-114730809D01*
X204905487Y-114730809D02*
X205211138Y-114643636D01*
X205211138Y-114643636D02*
X205538520Y-114550247D01*
X205538520Y-114550247D02*
X205885737Y-114451183D01*
X205885737Y-114451183D02*
X206250890Y-114346985D01*
X206250890Y-114346985D02*
X206632083Y-114238195D01*
X206632083Y-114238195D02*
X207027418Y-114125352D01*
X207027418Y-114125352D02*
X207434998Y-114008998D01*
X207434998Y-114008998D02*
X207815471Y-113900368D01*
X207815471Y-113900368D02*
X208231657Y-113781458D01*
X208231657Y-113781458D02*
X208636801Y-113665550D01*
X208636801Y-113665550D02*
X209029040Y-113553185D01*
X209029040Y-113553185D02*
X209406513Y-113444899D01*
X209406513Y-113444899D02*
X209767358Y-113341234D01*
X209767358Y-113341234D02*
X210109712Y-113242726D01*
X210109712Y-113242726D02*
X210431713Y-113149916D01*
X210431713Y-113149916D02*
X210731501Y-113063342D01*
X210731501Y-113063342D02*
X211007212Y-112983544D01*
X211007212Y-112983544D02*
X211256985Y-112911059D01*
X211256985Y-112911059D02*
X211478957Y-112846426D01*
X211478957Y-112846426D02*
X211671267Y-112790186D01*
X211671267Y-112790186D02*
X211832053Y-112742876D01*
X211832053Y-112742876D02*
X211959453Y-112705035D01*
X211959453Y-112705035D02*
X212051604Y-112677202D01*
X212051604Y-112677202D02*
X212106645Y-112659917D01*
X212106645Y-112659917D02*
X212122888Y-112653771D01*
X212122888Y-112653771D02*
X212102449Y-112646065D01*
X212102449Y-112646065D02*
X212044339Y-112624936D01*
X212044339Y-112624936D02*
X211950765Y-112591172D01*
X211950765Y-112591172D02*
X211823933Y-112545560D01*
X211823933Y-112545560D02*
X211666050Y-112488887D01*
X211666050Y-112488887D02*
X211479322Y-112421942D01*
X211479322Y-112421942D02*
X211265955Y-112345513D01*
X211265955Y-112345513D02*
X211028156Y-112260385D01*
X211028156Y-112260385D02*
X210768131Y-112167348D01*
X210768131Y-112167348D02*
X210488087Y-112067189D01*
X210488087Y-112067189D02*
X210190229Y-111960694D01*
X210190229Y-111960694D02*
X209876765Y-111848653D01*
X209876765Y-111848653D02*
X209549900Y-111731853D01*
X209549900Y-111731853D02*
X209211842Y-111611080D01*
X209211842Y-111611080D02*
X208864795Y-111487124D01*
X208864795Y-111487124D02*
X208510968Y-111360770D01*
X208510968Y-111360770D02*
X208152566Y-111232808D01*
X208152566Y-111232808D02*
X207791795Y-111104024D01*
X207791795Y-111104024D02*
X207430863Y-110975206D01*
X207430863Y-110975206D02*
X207071974Y-110847142D01*
X207071974Y-110847142D02*
X206717337Y-110720619D01*
X206717337Y-110720619D02*
X206369156Y-110596426D01*
X206369156Y-110596426D02*
X206029639Y-110475348D01*
X206029639Y-110475348D02*
X205700992Y-110358175D01*
X205700992Y-110358175D02*
X205385421Y-110245693D01*
X205385421Y-110245693D02*
X205085133Y-110138691D01*
X205085133Y-110138691D02*
X204802334Y-110037955D01*
X204802334Y-110037955D02*
X204539230Y-109944274D01*
X204539230Y-109944274D02*
X204298029Y-109858435D01*
X204298029Y-109858435D02*
X204080935Y-109781225D01*
X204080935Y-109781225D02*
X203890156Y-109713433D01*
X203890156Y-109713433D02*
X203727897Y-109655846D01*
X203727897Y-109655846D02*
X203596367Y-109609250D01*
X203596367Y-109609250D02*
X203497769Y-109574435D01*
X203497769Y-109574435D02*
X203434312Y-109552188D01*
X203434312Y-109552188D02*
X203424459Y-109548772D01*
X203424459Y-109548772D02*
X203420543Y-109554965D01*
X203420543Y-109554965D02*
X203417009Y-109577582D01*
X203417009Y-109577582D02*
X203413839Y-109618426D01*
X203413839Y-109618426D02*
X203411016Y-109679299D01*
X203411016Y-109679299D02*
X203408523Y-109762002D01*
X203408523Y-109762002D02*
X203406344Y-109868336D01*
X203406344Y-109868336D02*
X203404460Y-110000104D01*
X203404460Y-110000104D02*
X203402856Y-110159107D01*
X203402856Y-110159107D02*
X203401514Y-110347146D01*
X203401514Y-110347146D02*
X203400417Y-110566024D01*
X203400417Y-110566024D02*
X203399547Y-110817542D01*
X203399547Y-110817542D02*
X203398889Y-111103501D01*
X203398889Y-111103501D02*
X203398425Y-111425704D01*
X203398425Y-111425704D02*
X203398138Y-111785952D01*
X203398138Y-111785952D02*
X203398010Y-112186046D01*
X203398010Y-112186046D02*
X203398000Y-112348954D01*
X203398000Y-112348954D02*
X203234646Y-112348954D01*
X203234646Y-112348954D02*
X203236170Y-112004696D01*
X203236170Y-112004696D02*
X203237832Y-111661492D01*
X203237832Y-111661492D02*
X203239568Y-111332311D01*
X203239568Y-111332311D02*
X203241360Y-111019531D01*
X203241360Y-111019531D02*
X203243189Y-110725531D01*
X203243189Y-110725531D02*
X203245036Y-110452692D01*
X203245036Y-110452692D02*
X203246884Y-110203391D01*
X203246884Y-110203391D02*
X203248714Y-109980008D01*
X203248714Y-109980008D02*
X203250506Y-109784922D01*
X203250506Y-109784922D02*
X203252244Y-109620512D01*
X203252244Y-109620512D02*
X203253909Y-109489157D01*
X203253909Y-109489157D02*
X203255481Y-109393236D01*
X203255481Y-109393236D02*
X203256943Y-109335128D01*
X203256943Y-109335128D02*
X203258150Y-109317128D01*
X203258150Y-109317128D02*
X203265214Y-109318312D01*
X203265214Y-109318312D02*
X203265214Y-109318312D01*
G36*
X203237832Y-111661492D02*
G01*
X203239568Y-111332311D01*
X203241360Y-111019531D01*
X203243189Y-110725531D01*
X203245036Y-110452692D01*
X203246884Y-110203391D01*
X203248714Y-109980008D01*
X203250506Y-109784922D01*
X203252244Y-109620512D01*
X203253909Y-109489157D01*
X203255481Y-109393236D01*
X203256943Y-109335128D01*
X203258150Y-109317128D01*
X203265214Y-109318312D01*
X203285065Y-109324124D01*
X203318720Y-109334926D01*
X203367197Y-109351077D01*
X203431512Y-109372938D01*
X203512685Y-109400871D01*
X203611732Y-109435234D01*
X203729671Y-109476389D01*
X203867520Y-109524697D01*
X204026297Y-109580517D01*
X204207018Y-109644210D01*
X204410702Y-109716137D01*
X204638367Y-109796659D01*
X204891029Y-109886135D01*
X205169708Y-109984926D01*
X205475419Y-110093394D01*
X205809181Y-110211897D01*
X206172012Y-110340797D01*
X206564929Y-110480455D01*
X206988950Y-110631230D01*
X207445092Y-110793483D01*
X207934374Y-110967576D01*
X208457812Y-111153867D01*
X209016424Y-111352719D01*
X209611229Y-111564490D01*
X210243243Y-111789543D01*
X210913485Y-112028236D01*
X211346084Y-112182311D01*
X211568171Y-112261421D01*
X211778892Y-112336502D01*
X211974788Y-112406318D01*
X212152402Y-112469638D01*
X212308277Y-112525228D01*
X212438954Y-112571855D01*
X212540977Y-112608285D01*
X212610888Y-112633287D01*
X212645229Y-112645626D01*
X212647834Y-112646581D01*
X212668963Y-112658916D01*
X212651242Y-112674036D01*
X212647834Y-112675923D01*
X212624807Y-112683305D01*
X212562904Y-112701830D01*
X212463941Y-112730973D01*
X212329736Y-112770209D01*
X212162105Y-112819013D01*
X211962865Y-112876860D01*
X211733835Y-112943225D01*
X211476830Y-113017584D01*
X211193667Y-113099411D01*
X210886165Y-113188182D01*
X210556139Y-113283371D01*
X210205407Y-113384454D01*
X209835786Y-113490906D01*
X209449093Y-113602202D01*
X209047144Y-113717816D01*
X208631758Y-113837224D01*
X208204750Y-113959902D01*
X207959417Y-114030354D01*
X207526550Y-114154639D01*
X207104210Y-114275905D01*
X206694218Y-114393628D01*
X206298395Y-114507285D01*
X205918563Y-114616352D01*
X205556542Y-114720308D01*
X205214154Y-114818628D01*
X204893221Y-114910791D01*
X204595563Y-114996272D01*
X204323002Y-115074548D01*
X204077359Y-115145098D01*
X203860455Y-115207397D01*
X203674112Y-115260923D01*
X203520151Y-115305152D01*
X203400394Y-115339562D01*
X203316661Y-115363629D01*
X203270774Y-115376831D01*
X203262282Y-115379285D01*
X203256705Y-115380200D01*
X203251678Y-115378144D01*
X203247182Y-115371083D01*
X203243199Y-115356984D01*
X203239709Y-115333814D01*
X203236695Y-115299541D01*
X203234137Y-115252131D01*
X203232017Y-115189551D01*
X203231350Y-115158271D01*
X203398000Y-115158271D01*
X203445625Y-115146379D01*
X203470308Y-115139496D01*
X203533800Y-115121527D01*
X203634202Y-115093015D01*
X203769618Y-115054499D01*
X203938149Y-115006521D01*
X204137899Y-114949622D01*
X204366971Y-114884344D01*
X204623466Y-114811226D01*
X204905487Y-114730809D01*
X205211138Y-114643636D01*
X205538520Y-114550247D01*
X205885737Y-114451183D01*
X206250890Y-114346985D01*
X206632083Y-114238195D01*
X207027418Y-114125352D01*
X207434998Y-114008998D01*
X207815471Y-113900368D01*
X208231657Y-113781458D01*
X208636801Y-113665550D01*
X209029040Y-113553185D01*
X209406513Y-113444899D01*
X209767358Y-113341234D01*
X210109712Y-113242726D01*
X210431713Y-113149916D01*
X210731501Y-113063342D01*
X211007212Y-112983544D01*
X211256985Y-112911059D01*
X211478957Y-112846426D01*
X211671267Y-112790186D01*
X211832053Y-112742876D01*
X211959453Y-112705035D01*
X212051604Y-112677202D01*
X212106645Y-112659917D01*
X212122888Y-112653771D01*
X212102449Y-112646065D01*
X212044339Y-112624936D01*
X211950765Y-112591172D01*
X211823933Y-112545560D01*
X211666050Y-112488887D01*
X211479322Y-112421942D01*
X211265955Y-112345513D01*
X211028156Y-112260385D01*
X210768131Y-112167348D01*
X210488087Y-112067189D01*
X210190229Y-111960694D01*
X209876765Y-111848653D01*
X209549900Y-111731853D01*
X209211842Y-111611080D01*
X208864795Y-111487124D01*
X208510968Y-111360770D01*
X208152566Y-111232808D01*
X207791795Y-111104024D01*
X207430863Y-110975206D01*
X207071974Y-110847142D01*
X206717337Y-110720619D01*
X206369156Y-110596426D01*
X206029639Y-110475348D01*
X205700992Y-110358175D01*
X205385421Y-110245693D01*
X205085133Y-110138691D01*
X204802334Y-110037955D01*
X204539230Y-109944274D01*
X204298029Y-109858435D01*
X204080935Y-109781225D01*
X203890156Y-109713433D01*
X203727897Y-109655846D01*
X203596367Y-109609250D01*
X203497769Y-109574435D01*
X203434312Y-109552188D01*
X203424459Y-109548772D01*
X203420543Y-109554965D01*
X203417009Y-109577582D01*
X203413839Y-109618426D01*
X203411016Y-109679299D01*
X203408523Y-109762002D01*
X203406344Y-109868336D01*
X203404460Y-110000104D01*
X203402856Y-110159107D01*
X203401514Y-110347146D01*
X203400417Y-110566024D01*
X203399547Y-110817542D01*
X203398889Y-111103501D01*
X203398425Y-111425704D01*
X203398138Y-111785952D01*
X203398010Y-112186046D01*
X203398000Y-112348954D01*
X203398000Y-115158271D01*
X203231350Y-115158271D01*
X203230316Y-115109768D01*
X203229015Y-115010750D01*
X203228097Y-114890463D01*
X203227542Y-114746875D01*
X203227331Y-114577952D01*
X203227447Y-114381661D01*
X203227870Y-114155970D01*
X203228581Y-113898846D01*
X203229563Y-113608255D01*
X203230797Y-113282164D01*
X203232263Y-112918541D01*
X203233943Y-112515353D01*
X203234600Y-112359543D01*
X203234646Y-112348954D01*
X203236170Y-112004696D01*
X203237832Y-111661492D01*
G37*
X203237832Y-111661492D02*
X203239568Y-111332311D01*
X203241360Y-111019531D01*
X203243189Y-110725531D01*
X203245036Y-110452692D01*
X203246884Y-110203391D01*
X203248714Y-109980008D01*
X203250506Y-109784922D01*
X203252244Y-109620512D01*
X203253909Y-109489157D01*
X203255481Y-109393236D01*
X203256943Y-109335128D01*
X203258150Y-109317128D01*
X203265214Y-109318312D01*
X203285065Y-109324124D01*
X203318720Y-109334926D01*
X203367197Y-109351077D01*
X203431512Y-109372938D01*
X203512685Y-109400871D01*
X203611732Y-109435234D01*
X203729671Y-109476389D01*
X203867520Y-109524697D01*
X204026297Y-109580517D01*
X204207018Y-109644210D01*
X204410702Y-109716137D01*
X204638367Y-109796659D01*
X204891029Y-109886135D01*
X205169708Y-109984926D01*
X205475419Y-110093394D01*
X205809181Y-110211897D01*
X206172012Y-110340797D01*
X206564929Y-110480455D01*
X206988950Y-110631230D01*
X207445092Y-110793483D01*
X207934374Y-110967576D01*
X208457812Y-111153867D01*
X209016424Y-111352719D01*
X209611229Y-111564490D01*
X210243243Y-111789543D01*
X210913485Y-112028236D01*
X211346084Y-112182311D01*
X211568171Y-112261421D01*
X211778892Y-112336502D01*
X211974788Y-112406318D01*
X212152402Y-112469638D01*
X212308277Y-112525228D01*
X212438954Y-112571855D01*
X212540977Y-112608285D01*
X212610888Y-112633287D01*
X212645229Y-112645626D01*
X212647834Y-112646581D01*
X212668963Y-112658916D01*
X212651242Y-112674036D01*
X212647834Y-112675923D01*
X212624807Y-112683305D01*
X212562904Y-112701830D01*
X212463941Y-112730973D01*
X212329736Y-112770209D01*
X212162105Y-112819013D01*
X211962865Y-112876860D01*
X211733835Y-112943225D01*
X211476830Y-113017584D01*
X211193667Y-113099411D01*
X210886165Y-113188182D01*
X210556139Y-113283371D01*
X210205407Y-113384454D01*
X209835786Y-113490906D01*
X209449093Y-113602202D01*
X209047144Y-113717816D01*
X208631758Y-113837224D01*
X208204750Y-113959902D01*
X207959417Y-114030354D01*
X207526550Y-114154639D01*
X207104210Y-114275905D01*
X206694218Y-114393628D01*
X206298395Y-114507285D01*
X205918563Y-114616352D01*
X205556542Y-114720308D01*
X205214154Y-114818628D01*
X204893221Y-114910791D01*
X204595563Y-114996272D01*
X204323002Y-115074548D01*
X204077359Y-115145098D01*
X203860455Y-115207397D01*
X203674112Y-115260923D01*
X203520151Y-115305152D01*
X203400394Y-115339562D01*
X203316661Y-115363629D01*
X203270774Y-115376831D01*
X203262282Y-115379285D01*
X203256705Y-115380200D01*
X203251678Y-115378144D01*
X203247182Y-115371083D01*
X203243199Y-115356984D01*
X203239709Y-115333814D01*
X203236695Y-115299541D01*
X203234137Y-115252131D01*
X203232017Y-115189551D01*
X203231350Y-115158271D01*
X203398000Y-115158271D01*
X203445625Y-115146379D01*
X203470308Y-115139496D01*
X203533800Y-115121527D01*
X203634202Y-115093015D01*
X203769618Y-115054499D01*
X203938149Y-115006521D01*
X204137899Y-114949622D01*
X204366971Y-114884344D01*
X204623466Y-114811226D01*
X204905487Y-114730809D01*
X205211138Y-114643636D01*
X205538520Y-114550247D01*
X205885737Y-114451183D01*
X206250890Y-114346985D01*
X206632083Y-114238195D01*
X207027418Y-114125352D01*
X207434998Y-114008998D01*
X207815471Y-113900368D01*
X208231657Y-113781458D01*
X208636801Y-113665550D01*
X209029040Y-113553185D01*
X209406513Y-113444899D01*
X209767358Y-113341234D01*
X210109712Y-113242726D01*
X210431713Y-113149916D01*
X210731501Y-113063342D01*
X211007212Y-112983544D01*
X211256985Y-112911059D01*
X211478957Y-112846426D01*
X211671267Y-112790186D01*
X211832053Y-112742876D01*
X211959453Y-112705035D01*
X212051604Y-112677202D01*
X212106645Y-112659917D01*
X212122888Y-112653771D01*
X212102449Y-112646065D01*
X212044339Y-112624936D01*
X211950765Y-112591172D01*
X211823933Y-112545560D01*
X211666050Y-112488887D01*
X211479322Y-112421942D01*
X211265955Y-112345513D01*
X211028156Y-112260385D01*
X210768131Y-112167348D01*
X210488087Y-112067189D01*
X210190229Y-111960694D01*
X209876765Y-111848653D01*
X209549900Y-111731853D01*
X209211842Y-111611080D01*
X208864795Y-111487124D01*
X208510968Y-111360770D01*
X208152566Y-111232808D01*
X207791795Y-111104024D01*
X207430863Y-110975206D01*
X207071974Y-110847142D01*
X206717337Y-110720619D01*
X206369156Y-110596426D01*
X206029639Y-110475348D01*
X205700992Y-110358175D01*
X205385421Y-110245693D01*
X205085133Y-110138691D01*
X204802334Y-110037955D01*
X204539230Y-109944274D01*
X204298029Y-109858435D01*
X204080935Y-109781225D01*
X203890156Y-109713433D01*
X203727897Y-109655846D01*
X203596367Y-109609250D01*
X203497769Y-109574435D01*
X203434312Y-109552188D01*
X203424459Y-109548772D01*
X203420543Y-109554965D01*
X203417009Y-109577582D01*
X203413839Y-109618426D01*
X203411016Y-109679299D01*
X203408523Y-109762002D01*
X203406344Y-109868336D01*
X203404460Y-110000104D01*
X203402856Y-110159107D01*
X203401514Y-110347146D01*
X203400417Y-110566024D01*
X203399547Y-110817542D01*
X203398889Y-111103501D01*
X203398425Y-111425704D01*
X203398138Y-111785952D01*
X203398010Y-112186046D01*
X203398000Y-112348954D01*
X203398000Y-115158271D01*
X203231350Y-115158271D01*
X203230316Y-115109768D01*
X203229015Y-115010750D01*
X203228097Y-114890463D01*
X203227542Y-114746875D01*
X203227331Y-114577952D01*
X203227447Y-114381661D01*
X203227870Y-114155970D01*
X203228581Y-113898846D01*
X203229563Y-113608255D01*
X203230797Y-113282164D01*
X203232263Y-112918541D01*
X203233943Y-112515353D01*
X203234600Y-112359543D01*
X203234646Y-112348954D01*
X203236170Y-112004696D01*
X203237832Y-111661492D01*
X200004403Y-103419999D02*
X200026032Y-103424196D01*
X200026032Y-103424196D02*
X200106460Y-103447183D01*
X200106460Y-103447183D02*
X200173640Y-103478456D01*
X200173640Y-103478456D02*
X200197643Y-103495893D01*
X200197643Y-103495893D02*
X200263211Y-103570107D01*
X200263211Y-103570107D02*
X200338683Y-103678298D01*
X200338683Y-103678298D02*
X200420625Y-103814270D01*
X200420625Y-103814270D02*
X200505604Y-103971823D01*
X200505604Y-103971823D02*
X200590186Y-104144758D01*
X200590186Y-104144758D02*
X200670936Y-104326877D01*
X200670936Y-104326877D02*
X200707557Y-104416315D01*
X200707557Y-104416315D02*
X200748095Y-104522651D01*
X200748095Y-104522651D02*
X200792993Y-104648061D01*
X200792993Y-104648061D02*
X200840535Y-104786954D01*
X200840535Y-104786954D02*
X200889004Y-104933742D01*
X200889004Y-104933742D02*
X200936687Y-105082836D01*
X200936687Y-105082836D02*
X200981868Y-105228646D01*
X200981868Y-105228646D02*
X201022831Y-105365584D01*
X201022831Y-105365584D02*
X201057861Y-105488061D01*
X201057861Y-105488061D02*
X201085243Y-105590488D01*
X201085243Y-105590488D02*
X201103261Y-105667276D01*
X201103261Y-105667276D02*
X201110200Y-105712835D01*
X201110200Y-105712835D02*
X201108511Y-105722716D01*
X201108511Y-105722716D02*
X201087130Y-105733469D01*
X201087130Y-105733469D02*
X201036516Y-105756551D01*
X201036516Y-105756551D02*
X200966335Y-105787580D01*
X200966335Y-105787580D02*
X200942667Y-105797889D01*
X200942667Y-105797889D02*
X200832946Y-105846900D01*
X200832946Y-105846900D02*
X200694776Y-105910827D01*
X200694776Y-105910827D02*
X200533075Y-105987230D01*
X200533075Y-105987230D02*
X200352759Y-106073668D01*
X200352759Y-106073668D02*
X200158748Y-106167702D01*
X200158748Y-106167702D02*
X199955959Y-106266892D01*
X199955959Y-106266892D02*
X199749310Y-106368798D01*
X199749310Y-106368798D02*
X199543719Y-106470979D01*
X199543719Y-106470979D02*
X199344103Y-106570995D01*
X199344103Y-106570995D02*
X199155380Y-106666408D01*
X199155380Y-106666408D02*
X198982469Y-106754776D01*
X198982469Y-106754776D02*
X198830286Y-106833660D01*
X198830286Y-106833660D02*
X198703751Y-106900619D01*
X198703751Y-106900619D02*
X198607780Y-106953214D01*
X198607780Y-106953214D02*
X198569231Y-106975477D01*
X198569231Y-106975477D02*
X198495207Y-107018424D01*
X198495207Y-107018424D02*
X198450919Y-107039953D01*
X198450919Y-107039953D02*
X198430483Y-107041519D01*
X198430483Y-107041519D02*
X198428012Y-107024576D01*
X198428012Y-107024576D02*
X198431721Y-107009459D01*
X198431721Y-107009459D02*
X198439146Y-106980852D01*
X198439146Y-106980852D02*
X198455455Y-106916071D01*
X198455455Y-106916071D02*
X198479423Y-106820050D01*
X198479423Y-106820050D02*
X198509824Y-106697723D01*
X198509824Y-106697723D02*
X198545429Y-106554024D01*
X198545429Y-106554024D02*
X198585014Y-106393887D01*
X198585014Y-106393887D02*
X198622443Y-106242167D01*
X198622443Y-106242167D02*
X198709122Y-105896080D01*
X198709122Y-105896080D02*
X198789567Y-105587367D01*
X198789567Y-105587367D02*
X198865150Y-105311758D01*
X198865150Y-105311758D02*
X198937244Y-105064985D01*
X198937244Y-105064985D02*
X199007223Y-104842776D01*
X199007223Y-104842776D02*
X199076460Y-104640863D01*
X199076460Y-104640863D02*
X199146327Y-104454976D01*
X199146327Y-104454976D02*
X199218198Y-104280844D01*
X199218198Y-104280844D02*
X199293446Y-104114199D01*
X199293446Y-104114199D02*
X199333795Y-104030250D01*
X199333795Y-104030250D02*
X199438538Y-103832598D01*
X199438538Y-103832598D02*
X199539597Y-103675274D01*
X199539597Y-103675274D02*
X199638337Y-103556578D01*
X199638337Y-103556578D02*
X199736126Y-103474805D01*
X199736126Y-103474805D02*
X199810623Y-103436316D01*
X199810623Y-103436316D02*
X199875092Y-103415814D01*
X199875092Y-103415814D02*
X199932651Y-103410771D01*
X199932651Y-103410771D02*
X200004403Y-103419999D01*
X200004403Y-103419999D02*
X200004403Y-103419999D01*
G36*
X200004403Y-103419999D02*
G01*
X200026032Y-103424196D01*
X200106460Y-103447183D01*
X200173640Y-103478456D01*
X200197643Y-103495893D01*
X200263211Y-103570107D01*
X200338683Y-103678298D01*
X200420625Y-103814270D01*
X200505604Y-103971823D01*
X200590186Y-104144758D01*
X200670936Y-104326877D01*
X200707557Y-104416315D01*
X200748095Y-104522651D01*
X200792993Y-104648061D01*
X200840535Y-104786954D01*
X200889004Y-104933742D01*
X200936687Y-105082836D01*
X200981868Y-105228646D01*
X201022831Y-105365584D01*
X201057861Y-105488061D01*
X201085243Y-105590488D01*
X201103261Y-105667276D01*
X201110200Y-105712835D01*
X201108511Y-105722716D01*
X201087130Y-105733469D01*
X201036516Y-105756551D01*
X200966335Y-105787580D01*
X200942667Y-105797889D01*
X200832946Y-105846900D01*
X200694776Y-105910827D01*
X200533075Y-105987230D01*
X200352759Y-106073668D01*
X200158748Y-106167702D01*
X199955959Y-106266892D01*
X199749310Y-106368798D01*
X199543719Y-106470979D01*
X199344103Y-106570995D01*
X199155380Y-106666408D01*
X198982469Y-106754776D01*
X198830286Y-106833660D01*
X198703751Y-106900619D01*
X198607780Y-106953214D01*
X198569231Y-106975477D01*
X198495207Y-107018424D01*
X198450919Y-107039953D01*
X198430483Y-107041519D01*
X198428012Y-107024576D01*
X198431721Y-107009459D01*
X198439146Y-106980852D01*
X198455455Y-106916071D01*
X198479423Y-106820050D01*
X198509824Y-106697723D01*
X198545429Y-106554024D01*
X198585014Y-106393887D01*
X198622443Y-106242167D01*
X198709122Y-105896080D01*
X198789567Y-105587367D01*
X198865150Y-105311758D01*
X198937244Y-105064985D01*
X199007223Y-104842776D01*
X199076460Y-104640863D01*
X199146327Y-104454976D01*
X199218198Y-104280844D01*
X199293446Y-104114199D01*
X199333795Y-104030250D01*
X199438538Y-103832598D01*
X199539597Y-103675274D01*
X199638337Y-103556578D01*
X199736126Y-103474805D01*
X199810623Y-103436316D01*
X199875092Y-103415814D01*
X199932651Y-103410771D01*
X200004403Y-103419999D01*
G37*
X200004403Y-103419999D02*
X200026032Y-103424196D01*
X200106460Y-103447183D01*
X200173640Y-103478456D01*
X200197643Y-103495893D01*
X200263211Y-103570107D01*
X200338683Y-103678298D01*
X200420625Y-103814270D01*
X200505604Y-103971823D01*
X200590186Y-104144758D01*
X200670936Y-104326877D01*
X200707557Y-104416315D01*
X200748095Y-104522651D01*
X200792993Y-104648061D01*
X200840535Y-104786954D01*
X200889004Y-104933742D01*
X200936687Y-105082836D01*
X200981868Y-105228646D01*
X201022831Y-105365584D01*
X201057861Y-105488061D01*
X201085243Y-105590488D01*
X201103261Y-105667276D01*
X201110200Y-105712835D01*
X201108511Y-105722716D01*
X201087130Y-105733469D01*
X201036516Y-105756551D01*
X200966335Y-105787580D01*
X200942667Y-105797889D01*
X200832946Y-105846900D01*
X200694776Y-105910827D01*
X200533075Y-105987230D01*
X200352759Y-106073668D01*
X200158748Y-106167702D01*
X199955959Y-106266892D01*
X199749310Y-106368798D01*
X199543719Y-106470979D01*
X199344103Y-106570995D01*
X199155380Y-106666408D01*
X198982469Y-106754776D01*
X198830286Y-106833660D01*
X198703751Y-106900619D01*
X198607780Y-106953214D01*
X198569231Y-106975477D01*
X198495207Y-107018424D01*
X198450919Y-107039953D01*
X198430483Y-107041519D01*
X198428012Y-107024576D01*
X198431721Y-107009459D01*
X198439146Y-106980852D01*
X198455455Y-106916071D01*
X198479423Y-106820050D01*
X198509824Y-106697723D01*
X198545429Y-106554024D01*
X198585014Y-106393887D01*
X198622443Y-106242167D01*
X198709122Y-105896080D01*
X198789567Y-105587367D01*
X198865150Y-105311758D01*
X198937244Y-105064985D01*
X199007223Y-104842776D01*
X199076460Y-104640863D01*
X199146327Y-104454976D01*
X199218198Y-104280844D01*
X199293446Y-104114199D01*
X199333795Y-104030250D01*
X199438538Y-103832598D01*
X199539597Y-103675274D01*
X199638337Y-103556578D01*
X199736126Y-103474805D01*
X199810623Y-103436316D01*
X199875092Y-103415814D01*
X199932651Y-103410771D01*
X200004403Y-103419999D01*
X204604500Y-113798667D02*
X205006667Y-113798667D01*
X205006667Y-113798667D02*
X205006667Y-113989167D01*
X205006667Y-113989167D02*
X204604500Y-113989167D01*
X204604500Y-113989167D02*
X204604500Y-114426611D01*
X204604500Y-114426611D02*
X204414000Y-114426611D01*
X204414000Y-114426611D02*
X204414000Y-113989167D01*
X204414000Y-113989167D02*
X203990667Y-113989167D01*
X203990667Y-113989167D02*
X203990667Y-113798667D01*
X203990667Y-113798667D02*
X204414000Y-113798667D01*
X204414000Y-113798667D02*
X204414000Y-113396500D01*
X204414000Y-113396500D02*
X204604500Y-113396500D01*
X204604500Y-113396500D02*
X204604500Y-113798667D01*
X204604500Y-113798667D02*
X204604500Y-113798667D01*
G36*
X204604500Y-113798667D02*
G01*
X205006667Y-113798667D01*
X205006667Y-113989167D01*
X204604500Y-113989167D01*
X204604500Y-114426611D01*
X204414000Y-114426611D01*
X204414000Y-113989167D01*
X203990667Y-113989167D01*
X203990667Y-113798667D01*
X204414000Y-113798667D01*
X204414000Y-113396500D01*
X204604500Y-113396500D01*
X204604500Y-113798667D01*
G37*
X204604500Y-113798667D02*
X205006667Y-113798667D01*
X205006667Y-113989167D01*
X204604500Y-113989167D01*
X204604500Y-114426611D01*
X204414000Y-114426611D01*
X204414000Y-113989167D01*
X203990667Y-113989167D01*
X203990667Y-113798667D01*
X204414000Y-113798667D01*
X204414000Y-113396500D01*
X204604500Y-113396500D01*
X204604500Y-113798667D01*
X197069167Y-124255000D02*
X189914834Y-124255000D01*
X189914834Y-124255000D02*
X189914834Y-117248834D01*
X189914834Y-117248834D02*
X190105334Y-117248834D01*
X190105334Y-117248834D02*
X190105334Y-124064500D01*
X190105334Y-124064500D02*
X196921000Y-124064500D01*
X196921000Y-124064500D02*
X196921000Y-117248834D01*
X196921000Y-117248834D02*
X190105334Y-117248834D01*
X190105334Y-117248834D02*
X189914834Y-117248834D01*
X189914834Y-117248834D02*
X189914834Y-117100667D01*
X189914834Y-117100667D02*
X197069167Y-117100667D01*
X197069167Y-117100667D02*
X197069167Y-124255000D01*
X197069167Y-124255000D02*
X197069167Y-124255000D01*
G36*
X197069167Y-117100667D02*
G01*
X197069167Y-124255000D01*
X189914834Y-124255000D01*
X189914834Y-124064500D01*
X190105334Y-124064500D01*
X196921000Y-124064500D01*
X196921000Y-117248834D01*
X190105334Y-117248834D01*
X190105334Y-124064500D01*
X189914834Y-124064500D01*
X189914834Y-117100667D01*
X197069167Y-117100667D01*
G37*
X197069167Y-117100667D02*
X197069167Y-124255000D01*
X189914834Y-124255000D01*
X189914834Y-124064500D01*
X190105334Y-124064500D01*
X196921000Y-124064500D01*
X196921000Y-117248834D01*
X190105334Y-117248834D01*
X190105334Y-124064500D01*
X189914834Y-124064500D01*
X189914834Y-117100667D01*
X197069167Y-117100667D01*
X205006667Y-110856500D02*
X203990667Y-110856500D01*
X203990667Y-110856500D02*
X203990667Y-110666000D01*
X203990667Y-110666000D02*
X205006667Y-110666000D01*
X205006667Y-110666000D02*
X205006667Y-110856500D01*
X205006667Y-110856500D02*
X205006667Y-110856500D01*
G36*
X205006667Y-110856500D02*
G01*
X203990667Y-110856500D01*
X203990667Y-110666000D01*
X205006667Y-110666000D01*
X205006667Y-110856500D01*
G37*
X205006667Y-110856500D02*
X203990667Y-110856500D01*
X203990667Y-110666000D01*
X205006667Y-110666000D01*
X205006667Y-110856500D01*
%TD*%
D11*
%TO.P,REF\u002A\u002A,1*%
%TO.N,N/C*%
X183050000Y-98500000D03*
%TO.P,REF\u002A\u002A,2*%
X212350000Y-98500000D03*
%TD*%
M02*
