%TF.GenerationSoftware,KiCad,Pcbnew,(6.0.1-0)*%
%TF.CreationDate,2022-01-28T16:02:20+01:00*%
%TF.ProjectId,badge,62616467-652e-46b6-9963-61645f706362,rev?*%
%TF.SameCoordinates,Original*%
%TF.FileFunction,Soldermask,Top*%
%TF.FilePolarity,Negative*%
%FSLAX46Y46*%
G04 Gerber Fmt 4.6, Leading zero omitted, Abs format (unit mm)*
G04 Created by KiCad (PCBNEW (6.0.1-0)) date 2022-01-28 16:02:20*
%MOMM*%
%LPD*%
G01*
G04 APERTURE LIST*
%ADD10C,0.010000*%
%ADD11R,2.600000X3.600000*%
G04 APERTURE END LIST*
D10*
%TO.C,Ref\u002A\u002A*%
X191872750Y-109385417D02*
X191872750Y-110041584D01*
X191872750Y-110041584D02*
X187136709Y-110046922D01*
X187136709Y-110046922D02*
X182400667Y-110052260D01*
X182400667Y-110052260D02*
X182400667Y-112059954D01*
X182400667Y-112059954D02*
X182511792Y-112073032D01*
X182511792Y-112073032D02*
X182569809Y-112077352D01*
X182569809Y-112077352D02*
X182666924Y-112081498D01*
X182666924Y-112081498D02*
X182799902Y-112085448D01*
X182799902Y-112085448D02*
X182965507Y-112089180D01*
X182965507Y-112089180D02*
X183160505Y-112092672D01*
X183160505Y-112092672D02*
X183381659Y-112095903D01*
X183381659Y-112095903D02*
X183625735Y-112098851D01*
X183625735Y-112098851D02*
X183889499Y-112101493D01*
X183889499Y-112101493D02*
X184169713Y-112103809D01*
X184169713Y-112103809D02*
X184463144Y-112105776D01*
X184463144Y-112105776D02*
X184766556Y-112107372D01*
X184766556Y-112107372D02*
X185076714Y-112108576D01*
X185076714Y-112108576D02*
X185390382Y-112109366D01*
X185390382Y-112109366D02*
X185704326Y-112109720D01*
X185704326Y-112109720D02*
X186015310Y-112109617D01*
X186015310Y-112109617D02*
X186320100Y-112109034D01*
X186320100Y-112109034D02*
X186615459Y-112107949D01*
X186615459Y-112107949D02*
X186898153Y-112106342D01*
X186898153Y-112106342D02*
X187152584Y-112104305D01*
X187152584Y-112104305D02*
X187469891Y-112101453D01*
X187469891Y-112101453D02*
X187813419Y-112098543D01*
X187813419Y-112098543D02*
X188174993Y-112095633D01*
X188174993Y-112095633D02*
X188546434Y-112092782D01*
X188546434Y-112092782D02*
X188919567Y-112090051D01*
X188919567Y-112090051D02*
X189286214Y-112087499D01*
X189286214Y-112087499D02*
X189638198Y-112085184D01*
X189638198Y-112085184D02*
X189967343Y-112083166D01*
X189967343Y-112083166D02*
X190265471Y-112081505D01*
X190265471Y-112081505D02*
X190369917Y-112080974D01*
X190369917Y-112080974D02*
X191872750Y-112073584D01*
X191872750Y-112073584D02*
X191872750Y-112750917D01*
X191872750Y-112750917D02*
X187136709Y-112756255D01*
X187136709Y-112756255D02*
X182400667Y-112761593D01*
X182400667Y-112761593D02*
X182400667Y-114772240D01*
X182400667Y-114772240D02*
X187136709Y-114777579D01*
X187136709Y-114777579D02*
X191872750Y-114782917D01*
X191872750Y-114782917D02*
X191872750Y-115439084D01*
X191872750Y-115439084D02*
X181723334Y-115449754D01*
X181723334Y-115449754D02*
X181723334Y-109374747D01*
X181723334Y-109374747D02*
X191872750Y-109385417D01*
X191872750Y-109385417D02*
X191872750Y-109385417D01*
G36*
X191872750Y-109385417D02*
G01*
X191872750Y-110041584D01*
X187136709Y-110046922D01*
X182400667Y-110052260D01*
X182400667Y-112059954D01*
X182511792Y-112073032D01*
X182569809Y-112077352D01*
X182666924Y-112081498D01*
X182799902Y-112085448D01*
X182965507Y-112089180D01*
X183160505Y-112092672D01*
X183381659Y-112095903D01*
X183625735Y-112098851D01*
X183889499Y-112101493D01*
X184169713Y-112103809D01*
X184463144Y-112105776D01*
X184766556Y-112107372D01*
X185076714Y-112108576D01*
X185390382Y-112109366D01*
X185704326Y-112109720D01*
X186015310Y-112109617D01*
X186320100Y-112109034D01*
X186615459Y-112107949D01*
X186898153Y-112106342D01*
X187152584Y-112104305D01*
X187469891Y-112101453D01*
X187813419Y-112098543D01*
X188174993Y-112095633D01*
X188546434Y-112092782D01*
X188919567Y-112090051D01*
X189286214Y-112087499D01*
X189638198Y-112085184D01*
X189967343Y-112083166D01*
X190265471Y-112081505D01*
X190369917Y-112080974D01*
X191872750Y-112073584D01*
X191872750Y-112750917D01*
X187136709Y-112756255D01*
X182400667Y-112761593D01*
X182400667Y-114772240D01*
X187136709Y-114777579D01*
X191872750Y-114782917D01*
X191872750Y-115439084D01*
X181723334Y-115449754D01*
X181723334Y-109374747D01*
X191872750Y-109385417D01*
G37*
X191872750Y-109385417D02*
X191872750Y-110041584D01*
X187136709Y-110046922D01*
X182400667Y-110052260D01*
X182400667Y-112059954D01*
X182511792Y-112073032D01*
X182569809Y-112077352D01*
X182666924Y-112081498D01*
X182799902Y-112085448D01*
X182965507Y-112089180D01*
X183160505Y-112092672D01*
X183381659Y-112095903D01*
X183625735Y-112098851D01*
X183889499Y-112101493D01*
X184169713Y-112103809D01*
X184463144Y-112105776D01*
X184766556Y-112107372D01*
X185076714Y-112108576D01*
X185390382Y-112109366D01*
X185704326Y-112109720D01*
X186015310Y-112109617D01*
X186320100Y-112109034D01*
X186615459Y-112107949D01*
X186898153Y-112106342D01*
X187152584Y-112104305D01*
X187469891Y-112101453D01*
X187813419Y-112098543D01*
X188174993Y-112095633D01*
X188546434Y-112092782D01*
X188919567Y-112090051D01*
X189286214Y-112087499D01*
X189638198Y-112085184D01*
X189967343Y-112083166D01*
X190265471Y-112081505D01*
X190369917Y-112080974D01*
X191872750Y-112073584D01*
X191872750Y-112750917D01*
X187136709Y-112756255D01*
X182400667Y-112761593D01*
X182400667Y-114772240D01*
X187136709Y-114777579D01*
X191872750Y-114782917D01*
X191872750Y-115439084D01*
X181723334Y-115449754D01*
X181723334Y-109374747D01*
X191872750Y-109385417D01*
X202636000Y-110052167D02*
X197915834Y-110052167D01*
X197915834Y-110052167D02*
X197915834Y-115449667D01*
X197915834Y-115449667D02*
X197217334Y-115449667D01*
X197217334Y-115449667D02*
X197217334Y-110052167D01*
X197217334Y-110052167D02*
X192476000Y-110052167D01*
X192476000Y-110052167D02*
X192476000Y-109374834D01*
X192476000Y-109374834D02*
X202636000Y-109374834D01*
X202636000Y-109374834D02*
X202636000Y-110052167D01*
X202636000Y-110052167D02*
X202636000Y-110052167D01*
G36*
X202636000Y-110052167D02*
G01*
X197915834Y-110052167D01*
X197915834Y-115449667D01*
X197217334Y-115449667D01*
X197217334Y-110052167D01*
X192476000Y-110052167D01*
X192476000Y-109374834D01*
X202636000Y-109374834D01*
X202636000Y-110052167D01*
G37*
X202636000Y-110052167D02*
X197915834Y-110052167D01*
X197915834Y-115449667D01*
X197217334Y-115449667D01*
X197217334Y-110052167D01*
X192476000Y-110052167D01*
X192476000Y-109374834D01*
X202636000Y-109374834D01*
X202636000Y-110052167D01*
X197069167Y-124255000D02*
X189914834Y-124255000D01*
X189914834Y-124255000D02*
X189914834Y-117100667D01*
X189914834Y-117100667D02*
X197069167Y-117100667D01*
X197069167Y-117100667D02*
X197069167Y-124255000D01*
X197069167Y-124255000D02*
X197069167Y-124255000D01*
G36*
X197069167Y-124255000D02*
G01*
X189914834Y-124255000D01*
X189914834Y-117100667D01*
X197069167Y-117100667D01*
X197069167Y-124255000D01*
G37*
X197069167Y-124255000D02*
X189914834Y-124255000D01*
X189914834Y-117100667D01*
X197069167Y-117100667D01*
X197069167Y-124255000D01*
X205006667Y-124255000D02*
X197852334Y-124255000D01*
X197852334Y-124255000D02*
X197852334Y-117100667D01*
X197852334Y-117100667D02*
X205006667Y-117100667D01*
X205006667Y-117100667D02*
X205006667Y-124255000D01*
X205006667Y-124255000D02*
X205006667Y-124255000D01*
G36*
X205006667Y-124255000D02*
G01*
X197852334Y-124255000D01*
X197852334Y-117100667D01*
X205006667Y-117100667D01*
X205006667Y-124255000D01*
G37*
X205006667Y-124255000D02*
X197852334Y-124255000D01*
X197852334Y-117100667D01*
X205006667Y-117100667D01*
X205006667Y-124255000D01*
X203274398Y-109327432D02*
X203332459Y-109347109D01*
X203332459Y-109347109D02*
X203426161Y-109379455D01*
X203426161Y-109379455D02*
X203553380Y-109423717D01*
X203553380Y-109423717D02*
X203711990Y-109479144D01*
X203711990Y-109479144D02*
X203899867Y-109544982D01*
X203899867Y-109544982D02*
X204114886Y-109620481D01*
X204114886Y-109620481D02*
X204354924Y-109704888D01*
X204354924Y-109704888D02*
X204617854Y-109797450D01*
X204617854Y-109797450D02*
X204901552Y-109897417D01*
X204901552Y-109897417D02*
X205203894Y-110004035D01*
X205203894Y-110004035D02*
X205522754Y-110116553D01*
X205522754Y-110116553D02*
X205856009Y-110234219D01*
X205856009Y-110234219D02*
X206201534Y-110356280D01*
X206201534Y-110356280D02*
X206557203Y-110481984D01*
X206557203Y-110481984D02*
X206920892Y-110610580D01*
X206920892Y-110610580D02*
X207290477Y-110741315D01*
X207290477Y-110741315D02*
X207663832Y-110873437D01*
X207663832Y-110873437D02*
X208038833Y-111006194D01*
X208038833Y-111006194D02*
X208413356Y-111138834D01*
X208413356Y-111138834D02*
X208785276Y-111270605D01*
X208785276Y-111270605D02*
X209152467Y-111400755D01*
X209152467Y-111400755D02*
X209512806Y-111528532D01*
X209512806Y-111528532D02*
X209864167Y-111653183D01*
X209864167Y-111653183D02*
X210204426Y-111773957D01*
X210204426Y-111773957D02*
X210531459Y-111890102D01*
X210531459Y-111890102D02*
X210843140Y-112000865D01*
X210843140Y-112000865D02*
X211137344Y-112105494D01*
X211137344Y-112105494D02*
X211411948Y-112203237D01*
X211411948Y-112203237D02*
X211664827Y-112293342D01*
X211664827Y-112293342D02*
X211893855Y-112375058D01*
X211893855Y-112375058D02*
X212096908Y-112447631D01*
X212096908Y-112447631D02*
X212271861Y-112510311D01*
X212271861Y-112510311D02*
X212416591Y-112562344D01*
X212416591Y-112562344D02*
X212528971Y-112602979D01*
X212528971Y-112602979D02*
X212606877Y-112631463D01*
X212606877Y-112631463D02*
X212626667Y-112638820D01*
X212626667Y-112638820D02*
X212660675Y-112655607D01*
X212660675Y-112655607D02*
X212657289Y-112670095D01*
X212657289Y-112670095D02*
X212647834Y-112675988D01*
X212647834Y-112675988D02*
X212624807Y-112683364D01*
X212624807Y-112683364D02*
X212562904Y-112701883D01*
X212562904Y-112701883D02*
X212463941Y-112731020D01*
X212463941Y-112731020D02*
X212329736Y-112770250D01*
X212329736Y-112770250D02*
X212162105Y-112819049D01*
X212162105Y-112819049D02*
X211962866Y-112876891D01*
X211962866Y-112876891D02*
X211733836Y-112943252D01*
X211733836Y-112943252D02*
X211476831Y-113017606D01*
X211476831Y-113017606D02*
X211193669Y-113099429D01*
X211193669Y-113099429D02*
X210886166Y-113188196D01*
X210886166Y-113188196D02*
X210556141Y-113283382D01*
X210556141Y-113283382D02*
X210205409Y-113384462D01*
X210205409Y-113384462D02*
X209835788Y-113490911D01*
X209835788Y-113490911D02*
X209449095Y-113602204D01*
X209449095Y-113602204D02*
X209047147Y-113717817D01*
X209047147Y-113717817D02*
X208631761Y-113837224D01*
X208631761Y-113837224D02*
X208204753Y-113959901D01*
X208204753Y-113959901D02*
X207959417Y-114030354D01*
X207959417Y-114030354D02*
X207526559Y-114154637D01*
X207526559Y-114154637D02*
X207104233Y-114275898D01*
X207104233Y-114275898D02*
X206694260Y-114393615D01*
X206694260Y-114393615D02*
X206298460Y-114507265D01*
X206298460Y-114507265D02*
X205918654Y-114616324D01*
X205918654Y-114616324D02*
X205556664Y-114720270D01*
X205556664Y-114720270D02*
X205214309Y-114818580D01*
X205214309Y-114818580D02*
X204893412Y-114910731D01*
X204893412Y-114910731D02*
X204595794Y-114996200D01*
X204595794Y-114996200D02*
X204323274Y-115074463D01*
X204323274Y-115074463D02*
X204077675Y-115144999D01*
X204077675Y-115144999D02*
X203860816Y-115207284D01*
X203860816Y-115207284D02*
X203674520Y-115260794D01*
X203674520Y-115260794D02*
X203520606Y-115305009D01*
X203520606Y-115305009D02*
X203400897Y-115339403D01*
X203400897Y-115339403D02*
X203317212Y-115363455D01*
X203317212Y-115363455D02*
X203271373Y-115376641D01*
X203271373Y-115376641D02*
X203262907Y-115379086D01*
X203262907Y-115379086D02*
X203257413Y-115379843D01*
X203257413Y-115379843D02*
X203252459Y-115377367D01*
X203252459Y-115377367D02*
X203248024Y-115369624D01*
X203248024Y-115369624D02*
X203244088Y-115354581D01*
X203244088Y-115354581D02*
X203240629Y-115330205D01*
X203240629Y-115330205D02*
X203237629Y-115294463D01*
X203237629Y-115294463D02*
X203235066Y-115245322D01*
X203235066Y-115245322D02*
X203232919Y-115180747D01*
X203232919Y-115180747D02*
X203231169Y-115098707D01*
X203231169Y-115098707D02*
X203229795Y-114997167D01*
X203229795Y-114997167D02*
X203228776Y-114874096D01*
X203228776Y-114874096D02*
X203228092Y-114727458D01*
X203228092Y-114727458D02*
X203227723Y-114555222D01*
X203227723Y-114555222D02*
X203227647Y-114355354D01*
X203227647Y-114355354D02*
X203227845Y-114125820D01*
X203227845Y-114125820D02*
X203228296Y-113864588D01*
X203228296Y-113864588D02*
X203228979Y-113569625D01*
X203228979Y-113569625D02*
X203229875Y-113238896D01*
X203229875Y-113238896D02*
X203230962Y-112870370D01*
X203230962Y-112870370D02*
X203232221Y-112462012D01*
X203232221Y-112462012D02*
X203232533Y-112362037D01*
X203232533Y-112362037D02*
X203233724Y-112007335D01*
X203233724Y-112007335D02*
X203235039Y-111664260D01*
X203235039Y-111664260D02*
X203236460Y-111335195D01*
X203236460Y-111335195D02*
X203237970Y-111022521D01*
X203237970Y-111022521D02*
X203239552Y-110728621D01*
X203239552Y-110728621D02*
X203241189Y-110455874D01*
X203241189Y-110455874D02*
X203242866Y-110206665D01*
X203242866Y-110206665D02*
X203244563Y-109983372D01*
X203244563Y-109983372D02*
X203246266Y-109788380D01*
X203246266Y-109788380D02*
X203247956Y-109624068D01*
X203247956Y-109624068D02*
X203249617Y-109492820D01*
X203249617Y-109492820D02*
X203251232Y-109397015D01*
X203251232Y-109397015D02*
X203252784Y-109339037D01*
X203252784Y-109339037D02*
X203254103Y-109321175D01*
X203254103Y-109321175D02*
X203274398Y-109327432D01*
X203274398Y-109327432D02*
X203274398Y-109327432D01*
G36*
X203274398Y-109327432D02*
G01*
X203332459Y-109347109D01*
X203426161Y-109379455D01*
X203553380Y-109423717D01*
X203711990Y-109479144D01*
X203899867Y-109544982D01*
X204114886Y-109620481D01*
X204354924Y-109704888D01*
X204617854Y-109797450D01*
X204901552Y-109897417D01*
X205203894Y-110004035D01*
X205522754Y-110116553D01*
X205856009Y-110234219D01*
X206201534Y-110356280D01*
X206557203Y-110481984D01*
X206920892Y-110610580D01*
X207290477Y-110741315D01*
X207663832Y-110873437D01*
X208038833Y-111006194D01*
X208413356Y-111138834D01*
X208785276Y-111270605D01*
X209152467Y-111400755D01*
X209512806Y-111528532D01*
X209864167Y-111653183D01*
X210204426Y-111773957D01*
X210531459Y-111890102D01*
X210843140Y-112000865D01*
X211137344Y-112105494D01*
X211411948Y-112203237D01*
X211664827Y-112293342D01*
X211893855Y-112375058D01*
X212096908Y-112447631D01*
X212271861Y-112510311D01*
X212416591Y-112562344D01*
X212528971Y-112602979D01*
X212606877Y-112631463D01*
X212626667Y-112638820D01*
X212660675Y-112655607D01*
X212657289Y-112670095D01*
X212647834Y-112675988D01*
X212624807Y-112683364D01*
X212562904Y-112701883D01*
X212463941Y-112731020D01*
X212329736Y-112770250D01*
X212162105Y-112819049D01*
X211962866Y-112876891D01*
X211733836Y-112943252D01*
X211476831Y-113017606D01*
X211193669Y-113099429D01*
X210886166Y-113188196D01*
X210556141Y-113283382D01*
X210205409Y-113384462D01*
X209835788Y-113490911D01*
X209449095Y-113602204D01*
X209047147Y-113717817D01*
X208631761Y-113837224D01*
X208204753Y-113959901D01*
X207959417Y-114030354D01*
X207526559Y-114154637D01*
X207104233Y-114275898D01*
X206694260Y-114393615D01*
X206298460Y-114507265D01*
X205918654Y-114616324D01*
X205556664Y-114720270D01*
X205214309Y-114818580D01*
X204893412Y-114910731D01*
X204595794Y-114996200D01*
X204323274Y-115074463D01*
X204077675Y-115144999D01*
X203860816Y-115207284D01*
X203674520Y-115260794D01*
X203520606Y-115305009D01*
X203400897Y-115339403D01*
X203317212Y-115363455D01*
X203271373Y-115376641D01*
X203262907Y-115379086D01*
X203257413Y-115379843D01*
X203252459Y-115377367D01*
X203248024Y-115369624D01*
X203244088Y-115354581D01*
X203240629Y-115330205D01*
X203237629Y-115294463D01*
X203235066Y-115245322D01*
X203232919Y-115180747D01*
X203231169Y-115098707D01*
X203229795Y-114997167D01*
X203228776Y-114874096D01*
X203228092Y-114727458D01*
X203227723Y-114555222D01*
X203227647Y-114355354D01*
X203227845Y-114125820D01*
X203228296Y-113864588D01*
X203228979Y-113569625D01*
X203229875Y-113238896D01*
X203230962Y-112870370D01*
X203232221Y-112462012D01*
X203232533Y-112362037D01*
X203233724Y-112007335D01*
X203235039Y-111664260D01*
X203236460Y-111335195D01*
X203237970Y-111022521D01*
X203239552Y-110728621D01*
X203241189Y-110455874D01*
X203242866Y-110206665D01*
X203244563Y-109983372D01*
X203246266Y-109788380D01*
X203247956Y-109624068D01*
X203249617Y-109492820D01*
X203251232Y-109397015D01*
X203252784Y-109339037D01*
X203254103Y-109321175D01*
X203274398Y-109327432D01*
G37*
X203274398Y-109327432D02*
X203332459Y-109347109D01*
X203426161Y-109379455D01*
X203553380Y-109423717D01*
X203711990Y-109479144D01*
X203899867Y-109544982D01*
X204114886Y-109620481D01*
X204354924Y-109704888D01*
X204617854Y-109797450D01*
X204901552Y-109897417D01*
X205203894Y-110004035D01*
X205522754Y-110116553D01*
X205856009Y-110234219D01*
X206201534Y-110356280D01*
X206557203Y-110481984D01*
X206920892Y-110610580D01*
X207290477Y-110741315D01*
X207663832Y-110873437D01*
X208038833Y-111006194D01*
X208413356Y-111138834D01*
X208785276Y-111270605D01*
X209152467Y-111400755D01*
X209512806Y-111528532D01*
X209864167Y-111653183D01*
X210204426Y-111773957D01*
X210531459Y-111890102D01*
X210843140Y-112000865D01*
X211137344Y-112105494D01*
X211411948Y-112203237D01*
X211664827Y-112293342D01*
X211893855Y-112375058D01*
X212096908Y-112447631D01*
X212271861Y-112510311D01*
X212416591Y-112562344D01*
X212528971Y-112602979D01*
X212606877Y-112631463D01*
X212626667Y-112638820D01*
X212660675Y-112655607D01*
X212657289Y-112670095D01*
X212647834Y-112675988D01*
X212624807Y-112683364D01*
X212562904Y-112701883D01*
X212463941Y-112731020D01*
X212329736Y-112770250D01*
X212162105Y-112819049D01*
X211962866Y-112876891D01*
X211733836Y-112943252D01*
X211476831Y-113017606D01*
X211193669Y-113099429D01*
X210886166Y-113188196D01*
X210556141Y-113283382D01*
X210205409Y-113384462D01*
X209835788Y-113490911D01*
X209449095Y-113602204D01*
X209047147Y-113717817D01*
X208631761Y-113837224D01*
X208204753Y-113959901D01*
X207959417Y-114030354D01*
X207526559Y-114154637D01*
X207104233Y-114275898D01*
X206694260Y-114393615D01*
X206298460Y-114507265D01*
X205918654Y-114616324D01*
X205556664Y-114720270D01*
X205214309Y-114818580D01*
X204893412Y-114910731D01*
X204595794Y-114996200D01*
X204323274Y-115074463D01*
X204077675Y-115144999D01*
X203860816Y-115207284D01*
X203674520Y-115260794D01*
X203520606Y-115305009D01*
X203400897Y-115339403D01*
X203317212Y-115363455D01*
X203271373Y-115376641D01*
X203262907Y-115379086D01*
X203257413Y-115379843D01*
X203252459Y-115377367D01*
X203248024Y-115369624D01*
X203244088Y-115354581D01*
X203240629Y-115330205D01*
X203237629Y-115294463D01*
X203235066Y-115245322D01*
X203232919Y-115180747D01*
X203231169Y-115098707D01*
X203229795Y-114997167D01*
X203228776Y-114874096D01*
X203228092Y-114727458D01*
X203227723Y-114555222D01*
X203227647Y-114355354D01*
X203227845Y-114125820D01*
X203228296Y-113864588D01*
X203228979Y-113569625D01*
X203229875Y-113238896D01*
X203230962Y-112870370D01*
X203232221Y-112462012D01*
X203232533Y-112362037D01*
X203233724Y-112007335D01*
X203235039Y-111664260D01*
X203236460Y-111335195D01*
X203237970Y-111022521D01*
X203239552Y-110728621D01*
X203241189Y-110455874D01*
X203242866Y-110206665D01*
X203244563Y-109983372D01*
X203246266Y-109788380D01*
X203247956Y-109624068D01*
X203249617Y-109492820D01*
X203251232Y-109397015D01*
X203252784Y-109339037D01*
X203254103Y-109321175D01*
X203274398Y-109327432D01*
%TD*%
D11*
%TO.C,REF\u002A\u002A*%
X183050000Y-98500000D03*
X212350000Y-98500000D03*
%TD*%
M02*
