<?xml version="1.0" encoding="UTF-8" standalone="no"?>
<!-- Created with Inkscape (http://www.inkscape.org/) -->

<svg
   xml:space="preserve"
   inkscape:version="1.2.1 (9c6d41e, 2022-07-14)"
   sodipodi:docname="layers.svg"
   width="100.0mm"
   height="100.0mm"
   viewBox="0 0 100.0 100.0"
   version="1.1"
   id="svg5"
   xmlns:inkscape="http://www.inkscape.org/namespaces/inkscape"
   xmlns:sodipodi="http://sodipodi.sourceforge.net/DTD/sodipodi-0.dtd"
   xmlns:xlink="http://www.w3.org/1999/xlink"
   xmlns="http://www.w3.org/2000/svg"
   xmlns:svg="http://www.w3.org/2000/svg"><sodipodi:namedview
     id="namedview7"
     pagecolor="#ffffff"
     bordercolor="#999999"
     borderopacity="1"
     inkscape:pageshadow="0"
     inkscape:pageopacity="0"
     inkscape:pagecheckerboard="0"
     inkscape:document-units="mm"
     showgrid="false"
     inkscape:zoom="1.6444713"
     inkscape:cx="31.925155"
     inkscape:cy="161.14602"
     inkscape:window-width="1680"
     inkscape:window-height="898"
     inkscape:window-x="0"
     inkscape:window-y="25"
     inkscape:window-maximized="1"
     inkscape:current-layer="layer2"
     showguides="true"
     inkscape:guide-bbox="true"
     inkscape:lockguides="false"
     inkscape:showpageshadow="0"
     inkscape:deskcolor="#d1d1d1"><sodipodi:guide
       position="69.97278,14.829162"
       orientation="1,0"
       id="guide33354"
       inkscape:locked="false" /><sodipodi:guide
       position="84.900821,30.027219"
       orientation="0,-1"
       id="guide33356"
       inkscape:locked="false" /><sodipodi:guide
       position="30,98.512382"
       orientation="-1,0"
       id="guide1778"
       inkscape:locked="false"
       inkscape:label=""
       inkscape:color="rgb(0,134,229)" /><sodipodi:guide
       position="15,69.999999"
       orientation="0,1"
       id="guide1780"
       inkscape:locked="false"
       inkscape:label=""
       inkscape:color="rgb(0,134,229)" /><sodipodi:guide
       position="40,65"
       orientation="-1,0"
       id="guide1782"
       inkscape:locked="false"
       inkscape:label=""
       inkscape:color="rgb(0,134,229)" /><sodipodi:guide
       position="35,60"
       orientation="0,1"
       id="guide1784"
       inkscape:locked="false"
       inkscape:label=""
       inkscape:color="rgb(0,134,229)" /><sodipodi:guide
       position="50,55"
       orientation="-1,0"
       id="guide1786"
       inkscape:locked="false"
       inkscape:label=""
       inkscape:color="rgb(0,134,229)" /><sodipodi:guide
       position="45,50"
       orientation="0,1"
       id="guide1788"
       inkscape:locked="false"
       inkscape:label=""
       inkscape:color="rgb(0,134,229)" /><sodipodi:guide
       position="42.5,55"
       orientation="0,1"
       id="guide2779"
       inkscape:locked="false"
       inkscape:label=""
       inkscape:color="rgb(0,134,229)" /><sodipodi:guide
       position="45,57.5"
       orientation="-1,0"
       id="guide2833"
       inkscape:locked="false"
       inkscape:label=""
       inkscape:color="rgb(0,134,229)" /></sodipodi:namedview><defs
     id="defs2"><pattern
       inkscape:collect="always"
       xlink:href="#pattern11326"
       id="pattern2837"
       patternTransform="matrix(0.1111924,0.0537186,-0.06526723,0.13509678,21.883338,29.587782)" /><pattern
       inkscape:collect="always"
       xlink:href="#pattern11326"
       id="pattern2835"
       patternTransform="matrix(0.1111924,0.0537186,-0.06526723,0.13509678,21.883338,29.587782)" /><pattern
       inkscape:collect="always"
       xlink:href="#pattern12598"
       id="pattern2357"
       patternTransform="matrix(0.07205089,0.15390834,0.08149431,-0.03814967,24.55054,24.530342)" /><pattern
       inkscape:collect="always"
       xlink:href="#Wavy"
       id="pattern12598"
       patternTransform="matrix(0.04323021,0.09234574,0.04889622,-0.02288998,84.730943,84.730943)" /><pattern
       inkscape:collect="always"
       patternUnits="userSpaceOnUse"
       width="30.066020"
       height="5.1805778"
       id="Wavy"
       inkscape:stockid="Wavy"
       inkscape:isstock="true"><path
         style="fill:black;stroke:none;"
         d="M 7.597,0.061 C 5.079,-0.187 2.656,0.302 -0.01,1.788 L -0.01,3.061 C 2.773,1.431 5.173,1.052 7.472,1.280 C 9.770,1.508 11.969,2.361 14.253,3.218 C 18.820,4.931 23.804,6.676 30.066,3.061 L 30.062,1.788 C 23.622,5.497 19.246,3.770 14.691,2.061 C 12.413,1.207 10.115,0.311 7.597,0.061 z "
         id="path4761" /></pattern><pattern
       inkscape:collect="always"
       xlink:href="#pattern11321"
       id="pattern11326"
       patternTransform="matrix(0.06671494,0.03223092,-0.03916005,0.08105746,83.130402,87.765454)" /><linearGradient
       id="linearGradient2200"
       inkscape:swatch="solid"><stop
         style="stop-color:#000000;stop-opacity:1;"
         offset="0"
         id="stop2198" /></linearGradient><linearGradient
       id="linearGradient2194"
       inkscape:swatch="solid"><stop
         style="stop-color:#000000;stop-opacity:1;"
         offset="0"
         id="stop2192" /></linearGradient><clipPath
       clipPathUnits="userSpaceOnUse"
       id="clipPath16809"><g
         inkscape:label="Clip"
         id="use16811"><a
           id="a419"><g
             id="g417" /></a></g></clipPath><pattern
       patternUnits="userSpaceOnUse"
       width="70.16578"
       height="34.942852"
       patternTransform="translate(80.147645,198.00029)"
       id="pattern9530"><path
         style="display:inline;opacity:1;fill:#000000;stroke-width:0.0755906"
         d="M 18.595276,26.854656 V 18.76647 h 8.088189 8.088189 v 8.088186 8.088196 h -8.088189 -8.088189 z m 15.874015,-0.03787 V 19.068734 H 26.72126 18.973228 v 7.748051 7.748016 h 7.748032 7.748031 z m -8.617322,0.03787 v -4.459839 h 0.869291 0.869291 v 4.459839 4.45985 H 26.72126 25.851969 Z m 10.733858,0 V 18.76647 h 8.088174 8.088189 v 8.088186 8.088196 h -8.088189 -8.088174 z m 15.874,-0.03787 V 19.068734 H 44.711796 36.96378 v 7.748051 7.748016 h 7.748016 7.748031 z m -12.245654,0.03787 v -4.459839 h 4.459828 4.459842 v 4.459839 4.45985 h -4.459842 -4.459828 z m 7.181087,1.776393 v -0.94489 h -2.721259 -2.721245 v 0.94489 0.944866 h 2.721245 2.721259 z m 0,-3.590567 v -0.907086 h -2.721259 -2.721245 v 0.907086 0.907087 h 2.721245 2.721259 z M 0,8.1082027 V 1.2294475 H 11.489764 22.979528 V 1.9853681 2.741266 H 12.245669 1.511811 v 2.3055194 2.3054967 h 10.733858 10.733859 v 0.7559206 0.755898 H 12.245669 1.511811 v 2.3055193 2.305497 h 10.733858 10.733859 v 0.75592 0.755898 H 11.489764 0 Z m 22.601575,6.1228343 v -0.37796 l -10.488189,-0.0011 -10.8661343,0.0011 v -0.193625 -2.490021 -2.683661 0 L 12.113386,8.4868812 22.601575,8.48577 V 8.1078172 7.7298569 L 12.113386,7.7287457 C 3.8092006,7.7278613 1.2472517,7.7298569 1.2472517,7.7298569 v 0 -2.6836611 c 0,-0.8300069 3.061e-4,-8.9636107 0,-2.6836611 v 0 l 10.8661343,0.00111 10.488189,-0.00111 V 1.984582 1.6066216 H 11.489764 0.37795276 v 6.500795 6.5007724 H 11.489764 22.601575 Z M 35.149606,8.8641007 V 2.741266 H 29.782677 24.415748 V 1.9853681 1.2294475 H 35.905512 47.39526 V 1.9853681 2.741266 h -5.366914 -5.366929 v 6.1228347 6.1228343 h -0.755905 -0.755906 z m 1.133859,-0.1923024 v -5.93729 l -0.0017,-0.3719811 0.372813,9.751e-4 h 5.181388 5.181385 V 1.9855495 1.6075892 H 35.905538 24.793727 v 0.3764409 0.3764032 l 5.276013,0.00206 5.382259,-2.27e-5 v 6.2463118 6.0001966 h 0.415748 0.415752 z M 48.816816,1.0783949 70.16578,8.6792629 48.771613,14.828161 48.81659,1.0785045 Z M 59.618744,11.376368 69.083134,8.6718437 59.108508,5.1135016 49.133843,1.5551596 v 6.4077505 6.4077729 l 0.510236,-0.144907 c 0.280441,-0.0796 4.769235,-1.361922 9.974665,-2.849408 z m -8.141594,1.267767 v -0.983078 h -0.983697 v -0.377802 h 0.983697 v -0.907872 h 0.375685 l 0.0023,0.907872 h 0.904781 v 0.377802 h -0.904781 l -0.0023,0.983078 c -0.0076,-0.0053 -0.375685,-7.2e-5 -0.375685,-7.2e-5 z M 50.494473,4.3665838 V 4.1776831 h 1.133858 1.133859 v 0.1889007 0.1889008 h -1.133859 -1.133858 z"
         id="path1788-6-0"
         sodipodi:nodetypes="cccccccccccccccccccccccccccccccccccccccccccccccccccccccccccccccccccccccccccccccccccccccccccccccccccccccccccccscccccccccccccccccccccccccccccccccccccccccccccccccccccccccscccccsscsccsccsccscccccccccccc"
         inkscape:label="black_2" /></pattern><pattern
       patternUnits="userSpaceOnUse"
       width="42.298828"
       height="83.137909"
       patternTransform="translate(98.589842,14.365999)"
       id="pattern11321"><path
         id="path11222"
         style="fill:#f9aab4;stroke-width:0.2"
         d="M 7.0371099,0.00118819 C 6.7459729,0.05765698 6.6992202,0.35163505 6.6992202,2.1144694 v 2.046875 H 4.0878917 C 1.3419969,4.1610685 0.60330709,4.3592647 0.85937764,5.0265788 0.96378709,5.2986666 1.4181694,5.3585978 3.7402356,5.4054848 l 2.7597657,0.054687 0.052736,1.9003906 c 0.029329,1.0449993 0.094817,2.012891 0.1445291,2.1503906 0.049701,0.1374992 0.2264693,0.2500002 0.3925796,0.2500002 0.2709543,0 4.609103,-2.5057806 5.941406,-3.4316405 0.291964,-0.2029078 0.582901,-0.3691408 0.648438,-0.3691408 0.06554,0 0.121444,0.7428914 0.123046,1.6503908 0.0033,1.8014517 0.147988,2.2265594 0.720703,2.1171874 C 14.855134,9.6644102 14.91179,9.4102094 15,7.5597818 l 0.09961,-2.0996095 2.031251,-0.05664 C 18.769228,5.3577278 19.184598,5.2854829 19.283206,5.0285317 19.542372,4.3531588 19.030764,4.1613444 16.97461,4.1613444 H 15 V 2.1730631 C 15,1.051582 14.910716,0.13013017 14.796877,0.05978183 14.685895,-0.0087977 14.41115,-0.00595814 14.18555,0.06564123 13.811603,0.1843286 13.778551,0.3387805 13.814457,1.8273599 13.836038,2.7253602 13.773294,3.4871693 13.675782,3.5187661 13.578255,3.5503577 12.121569,2.755986 10.437502,1.7550942 8.753435,0.75420274 7.2230249,-0.0348685 7.0371099,0.00118819 Z M 7.9433613,1.6554848 c 0.013667,9.52e-4 0.027693,0.00584 0.042969,0.011719 0.8122318,0.3125453 5.2162777,3.1676367 5.0761707,3.2910156 -0.08971,0.079008 -1.108675,0.7112391 -2.263673,1.4042971 C 9.6438312,7.055574 8.5020737,7.7520116 8.2597682,7.9093911 L 7.8183609,8.1945474 7.7597669,4.876188 C 7.7123565,2.231255 7.7383861,1.6412087 7.9433613,1.6554848 Z M 31.669924,12.196501 c -0.325977,-0.03688 -0.729804,0.663824 -1.27539,2.109375 -0.726131,1.923909 -0.759202,1.91212 -1.187502,-0.388672 -0.412943,-2.218302 -0.999998,-2.255449 -1.761717,-0.113282 l -0.333985,0.941407 -1.605468,0.05859 c -1.564101,0.05588 -1.607422,0.06959 -1.607422,0.55664 0,0.49824 0.0071,0.5 1.900388,0.5 1.778548,0 1.912838,-0.02799 2.097657,-0.449219 0.108586,-0.2475 0.256656,-0.451172 0.328127,-0.451172 0.07145,0 0.242869,0.609063 0.380859,1.351563 0.137987,0.742499 0.327085,1.55895 0.421875,1.814453 0.318161,0.857528 0.796823,0.412872 1.525391,-1.416016 0.383429,-0.962499 0.755822,-1.75 0.828125,-1.75 0.07231,0 0.25217,0.653673 0.398438,1.451172 0.484505,2.641894 0.913277,2.810606 1.773437,0.699219 0.324892,-0.797499 0.654637,-1.629611 0.73242,-1.849609 0.200662,-0.56765 0.400954,-0.130408 0.708986,1.542968 0.401726,2.182335 1.007104,2.272309 1.748047,0.257813 l 0.369139,-1 1.52539,-0.05859 c 1.662471,-0.06326 2.236226,-0.369666 1.761721,-0.941406 -0.362146,-0.436361 -3.445459,-0.425637 -3.884764,0.01367 -0.172876,0.172855 -0.314457,0.397858 -0.314457,0.5 0,0.102141 -0.07533,0.185547 -0.167966,0.185547 -0.09265,0 -0.313693,-0.732696 -0.490235,-1.628907 -0.517436,-2.626426 -0.882176,-2.590058 -2.009768,0.205079 -0.370102,0.917425 -0.718393,1.546259 -0.775389,1.396484 -0.057,-0.149775 -0.220943,-0.925758 -0.36328,-1.724609 -0.208997,-1.172966 -0.435031,-1.779962 -0.722657,-1.8125 z M 5.9628926,24.139861 C 4.9893694,24.135749 3.933154,24.62324 3.6972661,25.366424 3.5938847,25.692128 3.3903609,25.761105 2.5351597,25.762908 0.85582866,25.766472 0,25.967233 0,26.354702 c 0,0.187268 0.05948976,0.399334 0.1328126,0.472657 0.0733304,0.07336 1.0554595,0.134766 2.1835956,0.134766 h 2.0527332 l 0.230468,-0.703124 c 0.436853,-1.323693 1.792887,-1.444022 2.31055,-0.205077 0.156102,0.373564 0.3776541,0.738546 0.4941392,0.810546 0.3170041,0.195919 0.7319697,-0.236054 0.8652359,-0.902343 0.2225159,-1.112588 1.9339125,-1.01181 2.2207025,0.130858 0.133599,0.532301 0.420617,0.858433 0.761719,0.865236 0.08339,0.0017 0.292407,-0.353216 0.466794,-0.789063 0.542427,-1.355736 1.816721,-1.361114 2.357424,-0.0098 l 0.320311,0.80078 h 1.976564 c 1.537599,0 2.033314,-0.06675 2.23242,-0.30664 0.439385,-0.529429 -0.0707,-0.750562 -1.697265,-0.73242 -1.145862,0.01293 -1.574479,-0.05754 -1.761717,-0.29297 -0.988018,-1.242278 -1.322461,-1.466797 -2.1875,-1.466797 -0.484097,0 -1.079097,0.145459 -1.339846,0.328124 -0.435122,0.304781 -0.509447,0.304781 -1.02539,0 -0.7022474,-0.41497 -1.9709063,-0.423735 -2.5507803,-0.01757 -0.4023118,0.281798 -0.4863609,0.281798 -0.8886727,0 C 6.830948,24.245408 6.4054035,24.141728 5.9628926,24.139861 Z M 37.39844,32.061736 c -0.487672,0 -0.502061,0.04306 -0.59961,1.751951 -0.05507,0.964868 -0.188693,1.752306 -0.298829,1.753908 -0.109999,0.0017 -1.571932,-0.815746 -3.248046,-1.816406 -3.876707,-2.314428 -3.853516,-2.317255 -3.853516,0.517576 v 2.082032 l -2.849609,0.05469 -2.849609,0.05469 v 0.500001 0.499997 l 2.849609,0.05664 2.849609,0.05469 v 2.0625 c 0,1.133646 0.06144,2.120035 0.134767,2.193358 0.327552,0.32756 1.037794,0.01984 3.843749,-1.666016 1.647772,-0.989994 3.088354,-1.800779 3.201173,-1.800779 0.120113,0 0.229655,0.725148 0.263671,1.749997 0.05673,1.717875 0.0658,1.750001 0.556641,1.750001 0.495232,0 0.5025,-0.01961 0.601561,-2.099607 l 0.09961,-2.099611 2.09961,-0.09961 c 2.079965,-0.09905 2.099607,-0.106322 2.099607,-0.601561 0,-0.49872 -0.0048,-0.5001 -2.142576,-0.556641 l -2.142576,-0.05664 -0.05664,-2.142581 c -0.05655,-2.137629 -0.05989,-2.142576 -0.558592,-2.142576 z m -6.59961,1.718748 2.595704,1.541015 c 1.426854,0.847155 2.594305,1.583683 2.595703,1.638675 0.0013,0.055 -0.819976,0.596175 -1.826173,1.201171 -1.006197,0.605001 -2.175696,1.306825 -2.597658,1.560545 l -0.767576,0.46094 v -3.201173 z m -20.396485,6.216797 c -0.09173,0.01658 -0.128108,0.103264 -0.363281,0.18164 -0.2240127,0.07468 -0.2402344,1.230516 -0.2402344,3.494143 v 3.253905 l -2.1503887,0.05664 c -2.1448629,0.05662 -2.1484384,0.05785 -2.1484384,0.556642 v 0.500001 h 4.8984375 4.900388 v -0.500001 c 0,-0.498807 -0.0057,-0.500013 -2.150388,-0.556642 l -2.148439,-0.05664 v -3.373047 c 0,-2.89017 -0.04526,-3.388131 -0.316407,-3.492189 -0.151045,-0.05795 -0.226208,-0.0744 -0.281249,-0.06445 z m 0.150391,9.445312 c -2.2733596,-0.01263 -4.5775184,0.0353 -4.835936,0.138674 -0.435583,0.174237 -0.4108535,0.880177 -0.00195,1.03711 0.1740472,0.06678 1.1619666,0.121093 2.1953121,0.121093 h 1.8789052 l 0.05469,3.34961 0.054686,3.34961 h 0.5000007 0.499998 l 0.05664,-3.341798 0.05469,-3.343752 2.142576,-0.05664 c 1.903415,-0.05038 2.149708,-0.09796 2.212891,-0.427733 0.03912,-0.20417 -0.03039,-0.473794 -0.15625,-0.599611 -0.139408,-0.139407 -2.38289,-0.213932 -4.656249,-0.226563 z m 21.750002,6.734377 c -0.372586,-0.0014 -0.742893,0.0982 -1.130861,0.298828 -0.552654,0.28577 -0.66728,0.28577 -1.269532,0 -1.264963,-0.600264 -2.630722,-0.222013 -3.205078,0.888673 -0.300204,0.580358 -0.348476,0.595703 -1.787108,0.595703 -0.81318,0 -1.620914,0.05626 -1.794924,0.123046 -0.318803,0.122324 -0.428859,0.698094 -0.18164,0.945313 0.07333,0.07336 1.094555,0.132812 2.269531,0.132812 h 2.134768 l 0.314452,-0.800783 c 0.34452,-0.877043 0.698733,-1.106302 1.425782,-0.923826 0.318293,0.07989 0.582841,0.386959 0.796875,0.921876 0.414025,1.034751 0.866363,1.03435 1.273437,-0.002 0.458422,-1.167028 1.595017,-1.347655 2.08789,-0.332032 0.08984,0.185148 0.239497,0.493055 0.333986,0.685546 0.293034,0.59701 0.870803,0.418431 1.128903,-0.34961 0.249547,-0.742579 0.977064,-1.166321 1.593751,-0.929685 0.186694,0.07164 0.479467,0.489619 0.652343,0.929685 l 0.314453,0.800783 h 2.148438 c 1.725071,0 2.171225,-0.05987 2.263673,-0.300782 0.282217,-0.735477 -0.05588,-0.900389 -1.845703,-0.900389 -1.698489,0 -1.7334,-0.0097 -1.97461,-0.554687 -0.496191,-1.120952 -2.117529,-1.582768 -3.236326,-0.921876 -0.503044,0.297146 -0.597241,0.297146 -1.171877,0 C 33.04972,56.279966 32.67532,56.178387 32.302738,56.17697 Z m 1.027343,9.515626 c -0.116145,0.0018 -0.13389,0.09933 -0.392579,0.185544 -0.224013,0.07468 -0.240235,1.228562 -0.240235,3.492189 v 3.253905 l -2.148438,0.05664 c -2.144859,0.05662 -2.150389,0.05785 -2.150389,0.556641 v 0.500002 h 4.900388 4.898438 v -0.500002 c 0,-0.498806 -0.0037,-0.500012 -2.148435,-0.556641 l -2.150392,-0.05664 v -3.373047 c 0,-2.89017 -0.04526,-3.388127 -0.316407,-3.492185 -0.125869,-0.0483 -0.199158,-0.06724 -0.251951,-0.06641 z M 13.04883,67.145718 c -0.322605,-0.02767 -0.708298,0.52427 -1.154298,1.65625 -0.332972,0.845125 -0.661795,1.593437 -0.730469,1.662111 -0.06868,0.06868 -0.28145,-0.599421 -0.472656,-1.484375 C 10.432063,67.77939 10.248866,67.340825 9.9726576,67.25314 9.7689902,67.188359 9.5324561,67.179008 9.4472693,67.231657 9.3620674,67.284314 9.0236031,68.053629 8.6953134,68.942593 8.3670312,69.831556 8.044029,70.559384 7.9765644,70.559781 7.9090998,70.560257 7.7451628,69.999235 7.6113298,69.311735 7.257823,67.495831 7.0731137,67.121363 6.5664076,67.1965 6.2455408,67.244073 6.0248391,67.563281 5.6914091,68.460174 l -0.4472655,1.201171 -1.6035175,0.05664 c -1.6459653,0.05929 -1.9808957,0.244906 -1.7128894,0.943359 0.091695,0.23898 0.5204258,0.298829 2.1113272,0.298829 1.8291213,0 2.0057537,-0.03213 2.1015648,-0.398438 0.057562,-0.21998 0.1771804,-0.400392 0.2656214,-0.400392 0.1591559,0 0.249479,0.34879 0.4902349,1.900392 0.1974501,1.272434 0.3046867,1.5 0.7109405,1.5 0.4717342,0 0.8206715,-0.535714 1.3984365,-2.150389 0.2460019,-0.6875 0.5135849,-1.250003 0.5937487,-1.250003 0.080171,0 0.2536063,0.674838 0.3867175,1.5 0.1331108,0.825161 0.3730278,1.63084 0.5332048,1.791016 0.491554,0.491558 0.806173,0.151873 1.486329,-1.607422 0.359599,-0.930145 0.694061,-1.649688 0.74414,-1.599609 0.05007,0.05008 0.240571,0.793054 0.421875,1.652345 0.304796,1.444641 0.366372,1.562498 0.828124,1.562498 0.427155,0 0.5699,-0.17944 0.982424,-1.242187 l 0.482419,-1.242187 1.617188,-0.05664 c 1.576872,-0.05612 1.617188,-0.07122 1.617188,-0.558595 0,-0.494117 -0.02272,-0.500576 -1.900392,-0.558592 -1.749619,-0.05406 -1.927014,-0.02355 -2.253906,0.378905 -0.195246,0.240378 -0.384393,0.402463 -0.41992,0.359377 -0.03549,-0.04308 -0.172895,-0.750656 -0.304687,-1.572268 -0.190326,-1.186549 -0.448879,-1.794596 -0.771485,-1.822266 z m 19.550782,7.992189 c -1.967335,0.0022 -3.75826,0.05018 -3.984374,0.140625 -0.435583,0.174236 -0.4089,0.880177 0,1.03711 0.174047,0.06678 1.160012,0.121092 2.193358,0.121092 h 1.878905 l 0.05469,3.34961 0.05664,3.351565 h 0.499997 0.500002 l 0.05469,-3.343752 0.05469,-3.343752 2.142577,-0.05664 c 1.903415,-0.05038 2.149708,-0.09796 2.21289,-0.427733 0.03912,-0.20417 -0.03039,-0.473794 -0.156249,-0.599611 -0.156832,-0.156831 -2.978381,-0.231284 -5.507811,-0.228514 z" /></pattern></defs><g
     inkscape:label="[fixed] BG"
     inkscape:groupmode="layer"
     sodipodi:insensitive="true"
     id="g32897"
     style="display:inline;opacity:1"><rect
       x="0"
       y="0"
       width="100"
       height="100"
       style="fill:#ffffff;fill-opacity:1;stroke:none"
       id="rect32895" /></g><g
     inkscape:groupmode="layer"
     id="layer1"
     inkscape:label="new"
     style="display:none;opacity:1"><rect
       style="display:none;fill:#ff5555;fill-opacity:0.741722;stroke-width:0.2402;stroke-linecap:round;paint-order:markers fill stroke"
       id="rect624"
       width="30"
       height="30"
       x="70.001869"
       y="70.032089"
       inkscape:label="square_full" /><g
       id="g32591"
       style="display:inline"
       inkscape:label="ring"><circle
         style="display:inline;opacity:0.721068;fill:#ff0066;fill-opacity:0.741722;stroke-width:0.202482;stroke-linecap:round;paint-order:markers fill stroke"
         id="circle32571"
         cx="85.001869"
         cy="85.032089"
         inkscape:label="outter_ring"
         r="14.65" /><circle
         style="display:inline;opacity:0.721068;fill:#5fd35f;fill-opacity:0.741722;stroke-width:0.185208;stroke-linecap:round;paint-order:markers fill stroke"
         id="path738-2"
         cx="85.001869"
         cy="85.032089"
         inkscape:label="led_ring_diff"
         r="14.5" /><circle
         style="display:inline;opacity:0.721068;fill:#ff0066;fill-opacity:0.741722;stroke-width:0.185208;stroke-linecap:round;paint-order:markers fill stroke"
         id="path738-2-6-0"
         cx="85.001869"
         cy="85.032089"
         inkscape:label="inner_ring"
         r="13.4" /></g><circle
       style="display:inline;opacity:0.721068;fill:#ab37c8;fill-opacity:0.741722;stroke-width:0.185208;stroke-linecap:round;paint-order:markers fill stroke"
       id="path738-2-6"
       cx="85.001869"
       cy="85.032089"
       inkscape:label="inner"
       r="13.25" /><path
       style="display:inline;fill:#6d8db2;stroke-width:0.02"
       d="m 76.868529,91.410422 c -0.08607,-0.0348 -0.235073,-0.261264 -0.342404,-0.520434 -0.161529,-0.390048 -0.363795,-1.161348 -0.56644,-2.16 -0.0212,-0.104502 -0.05168,-0.253002 -0.06771,-0.33 -0.04228,-0.202986 -0.142104,-0.734778 -0.200861,-1.070004 -0.02796,-0.159498 -0.05542,-0.310248 -0.06102,-0.334998 -0.0068,-0.02994 -9e-4,-0.045 0.01759,-0.045 l 0.117735,0.0049 c 0.01422,0.0048 0.05123,0.149298 0.08872,0.346608 0.371309,1.953732 0.653731,2.902668 0.944971,3.175086 0.137147,0.128286 0.208348,0.129084 0.330212,0.0036 0.226913,-0.233478 0.412104,-0.738762 0.670827,-1.830312 0.06252,-0.26376 0.243616,-1.146216 0.310908,-1.515 l 0.03376,-0.184998 h 0.07792 c 0.04286,0 0.07792,0.0054 0.07792,0.01146 0,0.02364 -0.241168,1.330782 -0.300467,1.628526 -0.292984,1.471104 -0.558749,2.355516 -0.812301,2.703168 -0.08841,0.121218 -0.204298,0.16377 -0.319373,0.11727 z m 12.637141,0.0073 c -0.01886,-0.0084 -0.025,-0.11532 -0.025,-0.435966 V 90.55691 l 0.06332,0.0093 c 0.05815,0.0085 0.196165,-0.04356 0.196995,-0.07438 1.8e-4,-0.0065 0.02853,-0.04332 0.06301,-0.08185 0.273717,-0.305652 0.632442,-1.641378 1.007116,-3.75 0.04105,-0.231 0.08474,-0.430662 0.09709,-0.443688 0.01235,-0.01302 0.04721,-0.02976 0.07747,-0.03714 0.04411,-0.0108 0.055,-0.0066 0.055,0.02136 0,0.01914 -0.03642,0.242886 -0.08094,0.497166 -0.430162,2.457246 -0.70528,3.650532 -0.989545,4.292034 -0.07162,0.161622 -0.18602,0.339306 -0.255689,0.397122 -0.03503,0.0291 -0.168497,0.04884 -0.20883,0.03096 z m 6.295,-0.0018 c -0.04674,-0.0171 -0.11841,-0.08816 -0.178572,-0.177072 -0.319518,-0.47223 -0.663442,-1.875102 -1.142128,-4.658802 -0.0454,-0.264 -0.122582,-0.714 -0.171522,-1.000002 -0.420056,-2.45481 -0.611864,-3.45171 -0.83077,-4.317828 -0.354896,-1.40418 -0.675156,-1.846122 -0.995728,-1.374054 -0.305072,0.449238 -0.590524,1.537044 -1.002904,3.82188 -0.05857,0.324504 -0.108488,0.593076 -0.110934,0.596838 -0.0025,0.0036 -0.03503,-0.0042 -0.07241,-0.01776 l -0.06796,-0.0246 0.04642,-0.272262 c 0.04551,-0.266952 0.06407,-0.37167 0.227352,-1.28226 0.213942,-1.193148 0.45639,-2.305956 0.611582,-2.80707 0.107563,-0.347328 0.203818,-0.60282 0.279894,-0.742932 0.01792,-0.033 0.05016,-0.09332 0.07166,-0.134052 C 92.52707,78.90768 92.647956,78.81 92.731908,78.81 c 0.05891,0 0.08549,0.01572 0.154941,0.09154 0.08046,0.08786 0.173316,0.228408 0.213741,0.323526 0.01053,0.02478 0.03624,0.08329 0.05713,0.130002 0.1585,0.354474 0.371036,1.161072 0.580996,2.204934 0.05531,0.274998 0.127674,0.643998 0.1608,0.820002 0.05287,0.280908 0.09397,0.511932 0.279274,1.569996 0.02215,0.126504 0.0815,0.473004 0.13189,0.770004 0.48663,2.868552 0.760308,4.198536 1.030926,5.01 0.18114,0.543132 0.376158,0.84 0.551826,0.84 0.06283,0 0.08795,-0.01452 0.16086,-0.09278 0.325728,-0.349782 0.599202,-1.326276 1.055028,-3.76722 0.05214,-0.279294 0.114114,-0.632934 0.2523,-1.44 0.106302,-0.620862 0.2265,-1.321218 0.288336,-1.68 0.120306,-0.69807 0.260064,-1.43733 0.269868,-1.42752 0.006,0.006 0.03,0.09739 0.05364,0.203394 0.02976,0.133632 0.03744,0.207294 0.0249,0.240246 -0.01,0.02616 -0.0579,0.26046 -0.106608,0.520704 -0.132078,0.705828 -0.244362,1.342926 -0.47289,2.683176 -0.03282,0.192504 -0.07774,0.453504 -0.09981,0.580002 -0.02208,0.126498 -0.05814,0.333498 -0.08021,0.460002 -0.49905,2.863374 -0.835134,4.13673 -1.191642,4.514922 -0.0501,0.0531 -0.17175,0.07828 -0.24651,0.05094 z M 82.062871,87.675296 c -0.02458,-0.14025 -0.05335,-0.3 -0.06394,-0.354996 -0.02852,-0.148134 -0.1336,-0.751434 -0.337894,-1.940004 C 81.560829,84.7973 81.454049,84.1853 81.423747,84.0203 l -0.05509,-0.3 0.06864,-0.0064 c 0.03775,-0.0036 0.07537,0.0012 0.08359,0.01002 0.0082,0.009 0.03905,0.164862 0.06851,0.346362 0.04876,0.300372 0.08537,0.515856 0.242961,1.429998 0.157407,0.91311 0.375036,2.095104 0.439126,2.385 0.0091,0.04128 0.0028,0.045 -0.07699,0.045 h -0.08694 z m 2.209282,0.220002 c 0.03833,-0.17334 0.251864,-1.332414 0.426496,-2.314998 l 0.0782,-0.440004 0.0016,0.42 c 0.0014,0.36369 -0.0051,0.457542 -0.04815,0.700002 -0.02736,0.154002 -0.0718,0.406002 -0.09876,0.559998 -0.05791,0.330858 -0.113724,0.6456 -0.162245,0.915 l -0.03512,0.195 h -0.08488 c -0.07045,0 -0.08356,-0.006 -0.07714,-0.03498 z m 4.13962,0.01002 c -0.0042,-0.01374 -0.01318,-0.05652 -0.01994,-0.095 -0.0068,-0.03852 -0.06557,-0.371496 -0.130674,-0.739998 -0.06511,-0.368502 -0.150686,-0.859002 -0.190175,-1.090002 -0.168616,-0.986352 -0.364992,-2.11839 -0.383751,-2.212182 -0.01197,-0.05982 -0.0112,-0.06049 0.06551,-0.05418 l 0.07763,0.0064 0.02532,0.139998 c 0.02934,0.162234 0.156197,0.898626 0.244617,1.420002 0.126674,0.746946 0.305726,1.734966 0.411311,2.269644 0.03797,0.192306 0.06905,0.356556 0.06905,0.364998 0,0.0264 -0.16069,0.01722 -0.168897,-0.0097 z m -12.918575,-1.86501 c 0.0064,0.164646 -6e-5,0.130398 -0.324239,-1.719996 -0.499171,-2.849232 -0.827037,-4.112274 -1.16605,-4.49199 -0.07963,-0.08919 -0.186022,-0.119238 -0.285854,-0.08074 -0.113923,0.04392 -0.339966,0.442656 -0.432411,0.762726 -0.01112,0.03852 -0.052,0.173496 -0.09084,0.3 -0.06103,0.198762 -0.106917,0.37803 -0.263661,1.03005 -0.01587,0.06603 -0.07805,0.36753 -0.138159,0.670002 -0.158007,0.79503 -0.322224,1.706118 -0.571356,3.169944 -0.08437,0.495732 -0.148329,0.863304 -0.231424,1.330002 l -0.04807,0.27 c 1.36227,-10.236118 2.18014,-10.539341 3.554675,-1.833885 7.2e-4,0.0047 -0.0032,0.589189 -0.0026,0.593883 z m -3.61944,0.730446 c -0.0068,-0.03414 -0.0041,-0.07745 0.0059,-0.09625 0.0101,-0.01878 0.06015,-0.277188 0.111216,-0.574188 0.05107,-0.297 0.114,-0.6615 0.139857,-0.81 0.02586,-0.1485 0.09758,-0.567 0.159389,-0.93 0.06181,-0.363 0.124851,-0.7275 0.140097,-0.81 0.01525,-0.0825 0.05603,-0.312 0.09064,-0.51 0.181213,-1.036764 0.374965,-1.993248 0.532753,-2.629998 0.260865,-1.052718 0.519937,-1.600002 0.757406,-1.600002 0.29652,0 0.618249,0.831648 0.959408,2.480004 0.02846,0.137496 0.0602,0.290496 0.07054,0.339996 0.08102,0.387954 0.292663,1.558158 0.490136,2.710002 0.159024,0.927564 0.17167,1.01217 0.165509,1.107318 -1.201797,-7.050304 -1.929189,-9.246687 -3.555623,1.834173 0,0 -0.06574,-0.516994 -0.0673,-0.511005 z m 6.34691,-0.237162 c 0,-0.01518 0.05182,-0.310266 0.12877,-0.73326 0.01601,-0.088 0.04034,-0.229746 0.05407,-0.315 l 0.02496,-0.154998 h 0.0761 c 0.04186,0 0.0761,0.0091 0.0761,0.02022 0,0.01824 -0.05121,0.319974 -0.161172,0.949758 -0.02113,0.120996 -0.04261,0.243408 -0.04273,0.251658 l -0.160209,-0.0017 z m 0.276678,-1.602463 c 0,0 0.20457,-1.194298 0.20457,-1.215082 0,-0.0117 0.01678,-0.007 0.101704,-0.007 0.05612,0 0.06078,-0.0063 0.06078,0.0138 0,0.01578 -0.02575,0.164641 -0.05269,0.311125 -0.02693,0.146478 -0.07275,0.405828 -0.101827,0.57633 -0.02908,0.170502 -0.04823,0.315672 -0.05273,0.320256 l -0.09321,-6e-4 z m 0.283333,-1.639049 c -0.005,0.01875 0.01294,-0.08408 0.02875,-0.165 0.01,-0.05105 0.02827,-0.149988 0.04772,-0.257498 0.01138,-0.0629 0.02315,-0.128742 0.03387,-0.189646 0.224187,-1.27292 0.498769,-2.483628 0.693967,-3.06 0.195659,-0.577722 0.394586,-0.852516 0.580692,-0.802158 0.06375,0.01728 0.177536,0.129294 0.247973,0.24417 0.07,0.114168 0.22275,0.491994 0.28623,0.707988 0.02425,0.0825 0.05659,0.1905 0.07188,0.24 0.126079,0.40815 0.353142,1.464912 0.569395,2.650002 0.0562,0.307998 0.107063,0.580248 0.113021,0.604998 0.0074,0.0309 -0.100798,0.03886 -0.120664,0.03886 -0.188405,-0.367969 -0.81018,-9.072983 -2.534189,0.0062 -0.01026,0 -0.02024,-0.02105 -0.02024,-0.02105 z m -0.005,0.01875 c 0,0 1.323266,-9.64085 2.557815,-0.007 -0.02377,0.02376 -0.04915,-0.01962 -0.06215,-0.106308 -0.0197,-0.131388 -0.138749,-0.734688 -0.222239,-1.12626 -0.312609,-1.466148 -0.60387,-2.251554 -0.864281,-2.330592 -0.02521,-0.0077 -0.08202,-0.0078 -0.126232,-3.3e-4 -0.06519,0.01104 -0.09347,0.0312 -0.149576,0.106614 -0.08231,0.110688 -0.224687,0.397848 -0.294024,0.593034 -0.157124,0.442308 -0.359913,1.264998 -0.544754,2.209998 -0.122994,0.628806 -0.133923,0.66003 -0.133923,0.66003 z m 6.337317,-0.145902 c 0.300037,-1.67871 0.44684,-2.38545 0.638736,-3.075 0.190612,-0.684948 0.336562,-1.02684 0.505997,-1.18533 0.108887,-0.10185 0.164638,-0.116058 0.258922,-0.06599 0.169048,0.08976 0.352858,0.46332 0.541904,1.101324 0.146133,0.493176 0.367607,1.522422 0.582702,2.707962 0.05509,0.303618 0.105202,0.576786 0.111368,0.607038 0.01072,0.05256 0.0078,0.05502 -0.06762,0.05502 h -0.07883 l -0.12462,-0.635002 c -0.319826,-1.629426 -0.576402,-2.47014 -0.872473,-2.85879 -0.05892,-0.07735 -0.190016,-0.106854 -0.280756,-0.0632 -0.198594,0.09554 -0.446696,0.683964 -0.664924,1.576986 -0.15308,0.626424 -0.242123,1.037652 -0.352943,1.630002 -0.07024,0.375462 -0.05948,0.349998 -0.14792,0.349998 h -0.07544 z"
       id="path1798-4"
       sodipodi:nodetypes="csssssccsscsscsssscccsccscsscscsccccsssssscccsssssssssssscsscssscsssssccccsssscccsssscscsccssscscccssssccsssscccssssssssscsccssssssssssscsccssscssscccssssssccsscssscssssscccccssscccssccsssssssscsssssscss"
       inkscape:label="sin_2"
       sodipodi:insensitive="true" /><path
       id="rect11496"
       style="display:inline;opacity:1;fill:#ab37c8;fill-opacity:0.741722;fill-rule:nonzero;stroke:#fd1717;stroke-width:0.1;stroke-linecap:round;stroke-dasharray:none;stroke-opacity:1;paint-order:markers fill stroke"
       d="m 88.415792,83.27192 -0.0124,3.638021 5.660637,-1.626774 z m -12.916524,0.04031 v 1.820044 1.820044 h 3.040124 3.040125 V 86.752327 86.55234 H 78.73938 75.899243 v -0.610299 -0.609782 h 2.840137 2.840137 V 85.132271 84.932284 H 78.73938 75.899243 v -0.610299 -0.609782 h 2.840137 2.840137 v -0.199988 -0.199988 h -3.040125 z m 6.46007,0 v 0.199988 0.199988 h 1.420069 1.420068 v 1.620056 1.620056 h 0.199988 0.199988 v -1.620056 -1.620056 h 1.420068 1.420068 V 83.512218 83.31223 h -3.040124 z m -1.539957,4.640021 v 2.139921 2.139921 h 2.139921 2.139921 v -2.139921 -2.139921 h -2.139921 z m 4.759916,0 v 2.139921 2.139921 h 2.139921 2.140438 v -2.139921 -2.139921 h -2.140438 z"
       inkscape:label="No_mask_black"
       sodipodi:nodetypes="cccccccccccccccccccccccccccccccccccccccccccccccccccccccccccccccc" /><path
       style="display:inline;opacity:1;fill:#000000;stroke-width:0.02"
       d="m 80.419448,90.092087 v -2.139999 h 2.14 2.14 v 2.139999 2.140002 h -2.14 -2.14 z m 4.2,-0.01002 v -2.050005 h -2.05 -2.05 v 2.050005 2.049996 h 2.05 2.05 z m -2.28,0.01002 v -1.179999 h 0.23 0.23 v 1.179999 1.180002 h -0.23 -0.23 z m 2.84,0 v -2.139999 h 2.14 2.14 v 2.139999 2.140002 h -2.14 -2.14 z m 4.2,-0.01002 v -2.050005 h -2.05 -2.05 v 2.050005 2.049996 h 2.05 2.05 z m -3.24,0.01002 v -1.179999 h 1.18 1.18 v 1.179999 1.180002 h -1.18 -1.18 z m 1.9,0.470004 v -0.250002 h -0.72 -0.72 v 0.250002 0.249996 h 0.72 0.72 z m 0,-0.950004 v -0.24 h -0.72 -0.72 v 0.24 0.24 h 0.72 0.72 z m -12.54,-4.479999 v -1.820004 h 3.04 3.04 v 0.200004 0.199998 h -2.84 -2.84 v 0.610002 0.609996 h 2.84 2.84 v 0.200004 0.199998 h -2.84 -2.84 v 0.610002 0.609996 h 2.84 2.84 v 0.200004 0.199998 h -3.04 -3.04 z m 5.98,1.62 v -0.100002 l -2.775,-2.94e-4 -2.874998,2.94e-4 v -0.05123 -0.658818 -0.710052 0 l 2.874998,2.94e-4 2.775,-2.94e-4 v -0.1 -0.100002 l -2.775,-2.94e-4 c -2.197149,-2.34e-4 -2.874998,2.94e-4 -2.874998,2.94e-4 v 0 -0.710052 c 0,-0.219606 8.1e-5,-2.371622 0,-0.710052 v 0 l 2.874998,2.94e-4 2.775,-2.94e-4 v -0.1 -0.100002 h -2.94 -2.94 v 1.720002 1.719996 h 2.94 2.94 z m 3.32,-1.420002 v -1.62 h -1.42 -1.42 v -0.199998 -0.200004 h 3.04 3.04 v 0.200004 0.199998 h -1.42 -1.42 v 1.62 1.62 h -0.2 -0.2 z m 0.3,-0.05088 v -1.570908 l -4.51e-4,-0.09842 0.09864,2.58e-4 h 1.370909 1.370909 v -0.1 -0.100002 h -2.94 -2.94 v 0.0996 0.09959 l 1.395945,5.46e-4 1.424056,-6e-6 v 1.65267 1.587552 h 0.11 0.110001 z m 3.316116,-2.009088 5.648576,2.011063 -5.660541,1.626896 0.01195,-3.63793 z m 2.85801,2.724672 2.504124,-0.715572 -2.639124,-0.941478 -2.639126,-0.941478 v 1.695384 1.69539 l 0.135,-0.03834 c 0.07425,-0.02106 1.261856,-0.360342 2.639126,-0.753906 z m -2.154126,0.33543 v -0.260106 h -0.26027 v -0.09996 h 0.26027 v -0.240208 h 0.0994 l 5.98e-4,0.240208 h 0.239387 v 0.09996 h -0.239387 l -5.98e-4,0.260106 c -0.0019,-0.0014 -0.09938,-1.9e-5 -0.09938,-1.9e-5 z m -0.26,-2.190102 v -0.04998 h 0.3 0.3 v 0.04998 0.04998 h -0.3 -0.3 z"
       id="path11551"
       sodipodi:nodetypes="cccccccccccccccccccccccccccccccccccccccccccccccccccccccccccccccccccccccccccccccccccccccccccccccccccccccccccccscccccccccccccccccccccccccccccccccccccccccccccccccccccccccscccccsscsccsccsccscccccccccccc"
       inkscape:label="black_2" /><g
       id="g3125"
       inkscape:label="inside_no_cuts"
       style="display:inline"><path
         id="path3121"
         style="display:inline;fill:#ff7f2a;fill-opacity:0.741722;stroke-width:0.175286;stroke-linecap:round;paint-order:markers fill stroke"
         inkscape:label="inside_bot"
         d="m 85.002047,71.782182 a 13.25,13.25 0 0 1 0.955497,0.03462 13.25,13.25 0 0 0 -0.955497,-0.03462 z m 0,0 a 13.25,13.25 0 0 0 -0.949813,0.03566 13.25,13.25 0 0 1 0.949813,-0.03566 z m 0.955497,0.03462 a 13.25,13.25 0 0 1 0.946195,0.102836 13.25,13.25 0 0 0 -0.946195,-0.102836 z m -2.22002,0.03359 a 13.25,13.25 0 0 0 -0.625801,0.07028 13.25,13.25 0 0 1 0.625801,-0.07028 z m 3.178101,0.07131 A 13.25,13.25 0 0 1 87.8427,72.09069 13.25,13.25 0 0 0 86.915625,71.921708 Z m -4.181657,0.06356 a 13.25,13.25 0 0 0 -0.56379,0.10697 13.25,13.25 0 0 1 0.56379,-0.10697 z m 5.123718,0.109037 a 13.25,13.25 0 0 1 0.902271,0.232544 13.25,13.25 0 0 0 -0.902271,-0.232544 z m -6.070947,0.09147 a 13.25,13.25 0 0 0 -0.534334,0.143143 13.25,13.25 0 0 1 0.534334,-0.143143 z m 7.007324,0.151412 a 13.25,13.25 0 0 1 0.880567,0.297139 13.25,13.25 0 0 0 -0.880567,-0.297139 z m -7.931815,0.115755 a 13.25,13.25 0 0 0 -0.513147,0.179317 13.25,13.25 0 0 1 0.513147,-0.179317 z m 8.825818,0.186552 a 13.25,13.25 0 0 1 0.860929,0.360701 13.25,13.25 0 0 0 -0.860929,-0.360701 z m -9.731706,0.147794 a 13.25,13.25 0 0 0 -0.486792,0.212391 13.25,13.25 0 0 1 0.486792,-0.212391 z m 10.621574,0.226343 a 13.25,13.25 0 0 1 0.832507,0.422197 13.25,13.25 0 0 0 -0.832507,-0.422197 z m -11.478369,0.161747 a 13.25,13.25 0 0 0 -0.498678,0.26355 13.25,13.25 0 0 1 0.498678,-0.26355 z m 12.320695,0.265617 a 13.25,13.25 0 0 1 0.808219,0.486276 13.25,13.25 0 0 0 -0.808219,-0.486276 z m -13.160954,0.19017 a 13.25,13.25 0 0 0 -0.476974,0.299723 13.25,13.25 0 0 1 0.476974,-0.299723 z m 13.981059,0.303857 a 13.25,13.25 0 0 1 0.774629,0.545703 13.25,13.25 0 0 0 -0.774629,-0.545703 z m -14.784628,0.209806 a 13.25,13.25 0 0 0 -0.482658,0.356568 13.25,13.25 0 0 1 0.482658,-0.356568 z m 15.562875,0.338998 a 13.25,13.25 0 0 1 0.738456,0.604097 13.25,13.25 0 0 0 -0.738456,-0.604097 z m 0.738456,0.604097 a 13.25,13.25 0 0 1 0.694531,0.657324 13.25,13.25 0 0 0 -0.694531,-0.657324 z m 0.694531,0.657324 a 13.25,13.25 0 0 1 1.774569,2.247408 C 88.230036,79.663791 78.905065,85.049506 73.220854,91.092108 A 13.25,13.25 0 0 1 72.237968,88.584768 13.25,13.25 0 0 0 85.002047,98.28185 13.25,13.25 0 0 0 98.251884,85.032013 13.25,13.25 0 0 0 94.451599,75.745241 Z M 72.237968,88.584774 a 13.25,13.25 0 0 1 -0.211357,-0.871782 13.25,13.25 0 0 0 0.211357,0.871782 z m 4.456575,-13.872022 a 13.25,13.25 0 0 0 -0.534851,0.459921 13.25,13.25 0 0 1 0.534851,-0.459921 z m -0.720369,0.621668 a 13.25,13.25 0 0 0 -0.669727,0.669726 13.25,13.25 0 0 1 0.669727,-0.669726 z m -0.839225,0.864546 a 13.25,13.25 0 0 0 -0.449585,0.521932 13.25,13.25 0 0 1 0.449585,-0.521932 z m -0.672311,0.815455 a 13.25,13.25 0 0 0 -0.348816,0.472839 13.25,13.25 0 0 1 0.348816,-0.472839 z m -0.561206,0.79685 a 13.25,13.25 0 0 0 -0.297656,0.473356 13.25,13.25 0 0 1 0.297656,-0.473356 z m -0.502295,0.837675 a 13.25,13.25 0 0 0 -0.248563,0.469739 13.25,13.25 0 0 1 0.248563,-0.469739 z m -0.430981,0.853178 a 13.25,13.25 0 0 0 -0.212907,0.488859 13.25,13.25 0 0 1 0.212907,-0.488859 z m -0.366903,0.879533 a 13.25,13.25 0 0 0 -0.1757,0.500745 13.25,13.25 0 0 1 0.1757,-0.500745 z m -0.30334,0.903821 a 13.25,13.25 0 0 0 -0.140044,0.522448 13.25,13.25 0 0 1 0.140044,-0.522448 z m -0.237712,0.922941 a 13.25,13.25 0 0 0 -0.101803,0.536918 13.25,13.25 0 0 1 0.101803,-0.536918 z m -0.170532,0.935343 a 13.25,13.25 0 0 0 -0.06976,0.621151 13.25,13.25 0 0 1 0.06976,-0.621151 z m -0.10232,0.938444 a 13.25,13.25 0 0 0 -0.03566,0.949813 13.25,13.25 0 0 1 0.03566,-0.949813 z m -0.0047,1.848466 a 13.25,13.25 0 0 0 0.09147,0.894519 13.25,13.25 0 0 1 -0.09147,-0.894519 z m 0.09147,0.894519 a 13.25,13.25 0 0 0 0.128157,0.746725 13.25,13.25 0 0 1 -0.128157,-0.746725 z" /><path
         id="path3123"
         style="display:inline;fill:#2a7fff;fill-opacity:0.741722;stroke-width:0.175286;stroke-linecap:round;paint-order:markers fill stroke"
         inkscape:label="inside_top"
         d="m 85.002047,71.782182 a 13.25,13.25 0 0 0 -13.250354,13.249837 13.25,13.25 0 0 0 1.469161,6.060095 C 78.905071,85.049506 88.230028,79.663798 96.226168,77.992655 A 13.25,13.25 0 0 0 85.002047,71.782182 Z" /><path
         id="rect9342"
         style="display:inline;opacity:1;fill:url(#pattern11326);fill-opacity:1;stroke-width:0.2402;stroke-linecap:round;paint-order:markers fill stroke"
         inkscape:label="motif"
         d="m 85.002047,71.782182 a 13.25,13.25 0 0 0 -13.250354,13.249837 13.25,13.25 0 0 0 1.469161,6.060095 C 78.905059,85.049518 88.230044,79.663796 96.226168,77.992655 A 13.25,13.25 0 0 0 85.002047,71.782182 Z" /></g><g
       id="g32654"
       inkscape:label="outside"
       style="display:inline"><path
         id="path726"
         style="display:inline;opacity:0.721068;fill:#ffd42a;fill-opacity:0.741722;stroke-width:0.132292;stroke-linecap:round;paint-order:markers fill stroke"
         inkscape:label="form afpa"
         d="M 85.002047,70.031901 A 15,15 0 0 0 70.001929,85.032019 15,15 0 0 0 85.002047,100.03214 15,15 0 0 0 100.00165,85.032019 V 70.031901 Z m 0,0.350366 A 14.65,14.65 0 0 1 99.651799,85.032019 14.65,14.65 0 0 1 85.002047,99.682288 14.65,14.65 0 0 1 70.351778,85.032019 14.65,14.65 0 0 1 85.002047,70.382267 Z" /><path
         id="path32649"
         style="display:inline;fill:url(#pattern12598);fill-opacity:1;stroke-width:0.2402;stroke-linecap:round;paint-order:markers fill stroke"
         inkscape:label="wobbly_motif"
         d="M 85.002047,70.031901 A 15,15 0 0 0 70.001929,85.032019 15,15 0 0 0 85.002047,100.03214 15,15 0 0 0 100.00165,85.032019 V 70.031901 Z m 0,0.350366 A 14.65,14.65 0 0 1 99.651799,85.032019 14.65,14.65 0 0 1 85.002047,99.682288 14.65,14.65 0 0 1 70.351778,85.032019 14.65,14.65 0 0 1 85.002047,70.382267 Z" /></g></g><g
     inkscape:label="Edge.Cuts"
     inkscape:groupmode="layer"
     id="g32899"
     style="display:inline"><path
       id="path726-8"
       style="display:inline;opacity:1;fill:#14b557;fill-opacity:1;stroke:none;stroke-width:0.220486;stroke-linecap:round;stroke-opacity:1;paint-order:markers fill stroke"
       inkscape:label="form afpa"
       d="M 25.0024 0.0317989 L 23.716 0.0643192 L 22.4463 0.160853 L 21.1951 0.319828 L 19.9641 0.539678 L 18.7544 0.818827 L 17.5681 1.1557 L 16.4066 1.54875 L 15.2712 1.99637 L 14.1638 2.49703 L 13.0858 3.04912 L 12.0389 3.65107 L 11.0245 4.30135 L 10.0443 4.99836 L 9.0999 5.74053 L 8.19276 6.52629 L 7.32451 7.35409 L 6.49671 8.22231 L 5.71093 9.12944 L 4.96877 10.0739 L 4.27174 11.054 L 3.62146 12.0683 L 3.01949 13.1153 L 2.46738 14.1933 L 1.96672 15.3007 L 1.5191 16.4359 L 1.12606 17.5976 L 0.789167 18.7838 L 0.510013 19.9935 L 0.290162 21.2245 L 0.131183 22.4756 L 0.0346487 23.7454 L 0.00212792 25.0317 L 0.0346483 26.3183 L 0.131183 27.588 L 0.290162 28.8391 L 0.510013 30.0703 L 0.789166 31.2798 L 1.12604 32.4661 L 1.51909 33.6277 L 1.96672 34.7631 L 2.46738 35.8704 L 3.01949 36.9484 L 3.62146 37.9954 L 4.27174 39.0097 L 4.96877 39.9899 L 5.71093 40.9342 L 6.49671 41.8413 L 7.32451 42.7095 L 8.19276 43.5373 L 9.0999 44.3232 L 10.0443 45.0654 L 11.0245 45.7624 L 12.0389 46.4127 L 13.0858 47.0144 L 14.1638 47.5667 L 15.2712 48.0673 L 16.4066 48.515 L 17.5681 48.908 L 18.7544 49.2448 L 19.9641 49.524 L 21.1951 49.7438 L 22.4463 49.9028 L 23.716 49.9993 L 25.0024 50.0318 L 26.289 49.9993 L 27.5587 49.9028 L 28.8097 49.7437 L 30.0409 49.5238 L 31.2503 49.2447 L 32.4367 48.9078 L 33.5982 48.5147 L 34.7336 48.067 L 35.8409 47.5663 L 36.9189 47.0143 L 37.9658 46.4123 L 38.9801 45.7621 L 39.9602 45.0651 L 40.9046 44.3229 L 41.8118 43.537 L 42.68 42.7093 L 43.5078 41.841 L 44.2934 40.9339 L 45.0357 39.9895 L 45.7327 39.0094 L 46.3828 37.9951 L 46.9848 36.9481 L 47.5368 35.8702 L 48.0374 34.7627 L 48.4851 33.6275 L 48.8781 32.4659 L 49.215 31.2796 L 49.4941 30.0702 L 49.714 28.839 L 49.873 27.588 L 49.9694 26.3183 L 50.002 25.0317 L 50.002 0.0317989 L 25.0024 0.0317989"
       sodipodi:nodetypes="cccccc" /></g><g
     inkscape:label="F.Cu"
     inkscape:groupmode="layer"
     id="g32901"
     style="display:inline"><path
       id="circle458"
       style="display:inline;opacity:1;fill:#ff0000;fill-opacity:1;stroke-width:0.337472;stroke-linecap:round;paint-order:markers fill stroke"
       inkscape:label="outter_ring"
       d="M 25.002446,0.61527007 A 24.416848,24.416848 0 0 0 0.585151,25.032565 24.416848,24.416848 0 0 0 25.002446,49.449 24.416848,24.416848 0 0 0 49.418881,25.032565 24.416848,24.416848 0 0 0 25.002446,0.61527007 Z m 0,0.24977019 A 24.166847,24.166847 0 0 1 49.169109,25.032565 24.166847,24.166847 0 0 1 25.002446,49.199229 24.166847,24.166847 0 0 1 0.83492119,25.032565 24.166847,24.166847 0 0 1 25.002446,0.86504026 Z" /><path
       id="circle462"
       style="display:inline;opacity:1;fill:#ff0000;fill-opacity:1;stroke-width:0.308682;stroke-linecap:round;paint-order:markers fill stroke"
       inkscape:label="inner_ring"
       d="M 25.002446,2.6987072 A 22.333499,22.333499 0 0 0 2.6685864,25.032565 22.333499,22.333499 0 0 0 25.002446,47.365562 22.333499,22.333499 0 0 0 47.335443,25.032565 22.333499,22.333499 0 0 0 25.002446,2.6987072 Z m 0,0.2497703 A 22.083498,22.083498 0 0 1 47.085671,25.032565 22.083498,22.083498 0 0 1 25.002446,47.115792 22.083498,22.083498 0 0 1 2.9183583,25.032565 22.083498,22.083498 0 0 1 25.002446,2.9484775 Z" /><path
       id="path33362"
       style="display:inline;opacity:1;fill:url(#pattern2835);fill-opacity:1;stroke-width:0.400337;stroke-linecap:round;paint-order:markers fill stroke"
       inkscape:label="motif"
       d="M 25.002494,2.9484941 A 22.083498,22.083498 0 0 0 2.9184067,25.031721 22.083498,22.083498 0 0 0 3.1707619,28.299418 c -0.023717,-0.182257 -0.047967,-0.37382 -0.0491,-0.369488 -0.011333,-0.0569 -0.00717,-0.128868 0.0095,-0.160201 0.016833,-0.0313 0.1009344,-0.461879 0.1860364,-0.956882 0.085117,-0.495002 0.1894497,-1.102126 0.232545,-1.349626 0.0431,-0.247501 0.1631179,-0.945302 0.2661354,-1.550304 0.1030177,-0.605005 0.2079982,-1.212988 0.2334084,-1.350489 0.025417,-0.137501 0.093034,-0.51922 0.1507178,-0.849221 0.3020239,-1.727951 0.6249997,-3.32266 0.8879799,-4.383918 0.4347782,-1.754541 0.8668531,-2.666523 1.2626378,-2.666523 0.4942036,0 1.0299343,1.386007 1.5985352,4.133284 0.047433,0.229162 0.1007678,0.484222 0.1180009,0.566722 0.1350343,0.646594 0.4873702,2.596801 0.8164943,4.516555 0.265042,1.545949 0.2867388,1.687142 0.2764704,1.845723 -0.00633,-0.03757 -0.0125,-0.07025 -0.01895,-0.107667 0.00583,0.0363 0.0115,0.06946 0.017233,0.105934 0.0012,0.0078 -0.00533,0.981789 -0.00433,0.989612 0.010667,0.27441 2.784e-4,0.216807 -0.5400223,-2.867203 -0.8319583,-4.74875 -1.3788857,-6.853384 -1.9439115,-7.486247 -0.1327177,-0.148651 -0.309899,-0.198526 -0.4762869,-0.134368 -0.189873,0.0732 -0.5668159,0.737797 -0.720892,1.271251 -0.018533,0.0642 -0.086851,0.2887 -0.1515845,0.499543 -0.1017178,0.331272 -0.1780113,0.629824 -0.4392533,1.716531 -0.02645,0.110055 -0.1297842,0.612957 -0.2299617,1.11708 -0.263347,1.32506 -0.537354,2.843367 -0.9525771,5.283094 -0.1406177,0.826225 -0.2473601,1.4391 -0.3858528,2.216935 l -0.070618,0.395327 a 22.083498,22.083498 0 0 0 2.1239174,6.407065 C 6.7432923,33.668905 8.2487551,32.229228 9.856027,30.82812 9.84336,30.76637 9.82786,30.688086 9.818994,30.645527 9.748527,30.307216 9.5818839,29.421391 9.4839548,28.862677 c -0.0466,-0.265832 -0.092301,-0.517721 -0.1016345,-0.558971 -0.00933,-0.0414 -0.00333,-0.0644 0.016333,-0.07148 H 9.1635214 v -3.03343 -3.033429 h 5.0669126 5.066912 v 0.333316 0.333316 h -4.528613 c 0.003,0.0037 0.0043,0.0087 0.0043,0.01809 0,0.0263 -0.04294,0.274349 -0.08786,0.51849 -0.04489,0.244132 -0.121218,0.677017 -0.169671,0.961189 -0.04847,0.284172 -0.08034,0.525492 -0.08784,0.533132 l -0.155903,-8.61e-4 -0.1111,0.0017 c 0,0 0.341066,-1.99023 0.341066,-2.02487 0,-0.0037 0.0027,-0.005 0.0051,-0.0068 H 9.8301731 v 1.016309 1.017172 h 4.7335949 3.088552 c 0.489014,-0.329364 0.983023,-0.653628 1.48054,-0.974107 -0.02497,-0.141267 -0.0826,-0.479061 -0.09473,-0.545191 l -0.0913,-0.500403 0.114551,-0.01033 c 0.06292,-0.006 0.124968,0.0017 0.138668,0.01633 0.01367,0.015 0.06544,0.275417 0.114551,0.577919 0.01067,0.0653 0.04213,0.247533 0.05253,0.310922 0.480056,-0.307065 0.963432,-0.610409 1.450396,-0.90865 h -0.88711 v -0.333315 -0.333316 h 1.992142 c 1.180075,-0.699101 2.378158,-1.368366 3.58637,-2.009367 0.299749,-1.59543 0.500128,-2.490063 0.742423,-3.360716 0.317689,-1.141587 0.561662,-1.711625 0.844055,-1.975777 0.18148,-0.169751 0.274361,-0.19283 0.431502,-0.109389 0.281749,0.149601 0.587542,0.772041 0.902621,1.835389 0.125868,0.424811 0.285769,1.094727 0.459923,1.909458 2.846964,-1.351079 5.72553,-2.517299 8.564572,-3.455456 0.107067,-0.186562 0.297092,-0.337623 0.431502,-0.337623 0.08867,0 0.136001,0.02595 0.2291,0.123168 1.892333,-0.602883 3.764616,-1.103195 5.594876,-1.485708 A 22.083498,22.083498 0 0 0 25.002494,2.9484941 Z M 16.883206,14.666212 c 0.01956,10e-4 0.03918,0.0033 0.05857,0.0087 0.106256,0.0288 0.296019,0.215922 0.413416,0.407384 0.116666,0.190282 0.371348,0.819963 0.477148,1.179954 0.04042,0.137501 0.09423,0.317134 0.119717,0.399634 0.210134,0.680256 0.587847,2.441484 0.94827,4.416645 0.09367,0.513334 0.17869,0.967309 0.18862,1.00856 0.01233,0.0515 -0.167567,0.0646 -0.200677,0.0646 -0.03961,0.0396 -0.08256,-0.03208 -0.104223,-0.176564 -0.03283,-0.218981 -0.2312,-1.224966 -0.370351,-1.87759 -0.521019,-2.443596 -1.006039,-3.752643 -1.44006,-3.884374 -0.04202,-0.01283 -0.136468,-0.0125 -0.210152,0 -0.108656,0.0184 -0.156268,0.05173 -0.249772,0.177423 -0.137184,0.184481 -0.374506,0.663438 -0.490068,0.988751 -0.261876,0.737184 -0.59972,2.107824 -0.90779,3.682834 -0.20499,1.048016 -0.223072,1.099855 -0.223072,1.099855 l -0.267857,0.0017 c 0,0 0.420788,-3.06051 1.065402,-5.175432 0.1011,-0.386777 0.196896,-0.720517 0.283363,-0.975831 0.305718,-0.902697 0.616313,-1.361495 0.909512,-1.346182 z m 10.517954,1.534803 c -0.06573,-0.0048 -0.131901,0.0056 -0.188621,0.03273 -0.330991,0.159234 -0.74389,1.140249 -1.107607,2.628628 -0.101766,0.416461 -0.184944,0.771109 -0.261829,1.115357 0.906639,-0.475921 1.819201,-0.934247 2.735428,-1.373743 C 28.277,17.456999 27.992033,16.747015 27.681076,16.338823 27.619709,16.258257 27.510724,16.208989 27.40116,16.201022 Z M 9.8301814,25.532126 v 1.01631 1.017171 H 13.87303 c 3.2e-4,-2.41e-4 5.43e-4,-6.18e-4 8.61e-4,-8.61e-4 l -0.180868,-0.0017 0.0068,-0.02841 c 0,-0.0253 0.0862,-0.516301 0.214459,-1.221297 0.02668,-0.146668 0.06754,-0.383289 0.09043,-0.52538 l 0.04134,-0.2558 z m 4.3649676,0 c 0.05767,0.0032 0.105089,0.01483 0.105089,0.031 0,0.0304 -0.08546,0.533386 -0.268721,1.583033 -0.02891,0.165618 -0.0489,0.28242 -0.05857,0.344512 0.882298,-0.666453 1.784907,-1.319971 2.705282,-1.958551 h -2.114444 z m -4.7051734,2.700113 0.1180008,0.0051 c 0.0237,0.008 0.0848,0.248207 0.1472844,0.577059 0.1274176,0.67042 0.2480472,1.253076 0.3643232,1.786296 0.930771,-0.80339 1.893278,-1.594319 2.886149,-2.368522 z" /><path
       id="path33358"
       style="display:inline;opacity:1;fill:#ff0000;fill-opacity:1;stroke-width:0.292146;stroke-linecap:round;paint-order:markers fill stroke"
       inkscape:label="inside_bot"
       d="m 43.609592,13.145191 a 22.083498,22.083498 0 0 1 0.09819,0.154168 c 5.48e-4,-1.14e-4 0.0012,1.16e-4 0.0017,0 a 22.083498,22.083498 0 0 0 -0.0999,-0.154168 z m 0.09819,0.154168 c -7.050914,1.473847 -14.721234,4.681036 -21.785223,8.86602 h 3.074769 5.066913 v 0.333316 0.333315 h -2.366798 -2.3668 v 2.700113 2.700114 h -0.33332 -0.333314 V 25.532123 22.83201 H 22.29721 20.815809 c -1.072161,0.65668 -2.128102,1.335467 -3.164344,2.033482 h 1.645906 v 0.333316 0.333315 h -2.620876 c -0.954758,0.662524 -1.890711,1.341013 -2.804327,2.033483 h 0.691606 4.733597 v 0.333315 0.333316 H 14.230459 13.004857 C 10.192532,30.4255 7.6101899,32.747512 5.3678849,35.131091 A 22.083498,22.083498 0 0 0 25.002494,47.114948 22.083498,22.083498 0 0 0 47.08572,25.031721 22.083498,22.083498 0 0 0 43.70778,13.299361 Z M 5.3678882,35.131093 a 22.083498,22.083498 0 0 1 -0.013,-0.02412 22.083498,22.083498 0 0 0 0.012,0.02498 z M 30.69125,22.0982 l 9.413793,3.352103 -9.434463,2.71131 z m -13.327451,7.800616 h 3.566562 3.566561 v 3.566562 3.566561 h -3.566561 -3.566562 v -3.566561 z m 7.933252,0 h 3.566563 3.567422 v 3.566562 3.566561 h -3.567422 -3.566563 v -3.566561 z" /><path
       style="display:inline;opacity:1;fill:#ff0000;stroke-width:0.0333336"
       d="m 17.363796,33.466206 v -3.566691 h 3.566693 3.566693 v 3.566691 3.566696 h -3.566693 -3.566693 z m 7.000052,-0.0167 v -3.4167 h -3.416692 -3.416693 v 3.4167 3.416685 h 3.416693 3.416692 z m -3.800028,0.0167 v -1.966679 h 0.383336 0.383336 v 1.966679 1.966684 H 20.947156 20.56382 Z m 4.733368,0 v -3.566691 h 3.566693 3.566693 v 3.566691 3.566696 h -3.566693 -3.566693 z m 7.000052,-0.0167 v -3.4167 h -3.416692 -3.416692 v 3.4167 3.416685 h 3.416692 3.416692 z m -5.40004,0.0167 v -1.966679 h 1.966681 1.966681 v 1.966679 1.966684 H 28.863881 26.8972 Z m 3.16669,0.783345 v -0.416672 h -1.200009 -1.200009 v 0.416672 0.416664 h 1.200009 1.200009 z m 0,-1.583351 v -0.400003 h -1.200009 -1.200009 v 0.400003 0.400003 h 1.200009 1.200009 z M 9.1637348,25.199479 v -3.033362 h 5.0667042 5.066704 v 0.333342 0.333333 H 14.563774 9.8304064 v 1.016677 1.016668 h 4.7333676 4.733369 v 0.333342 0.333333 H 14.563774 9.8304064 v 1.016677 1.016668 h 4.7333676 4.733369 v 0.333342 0.333333 H 14.230439 9.1637348 Z m 9.9667412,2.70002 v -0.166671 l -4.625035,-4.9e-4 -4.7916988,4.9e-4 v -0.08538 -1.098039 -1.183428 0 l 4.7916988,4.9e-4 4.625035,-4.9e-4 v -0.166668 -0.166672 l -4.625035,-4.9e-4 c -3.661942,-3.9e-4 -4.7916988,4.9e-4 -4.7916988,4.9e-4 v 0 -1.183428 c 0,-0.366013 1.35e-4,-3.952733 0,-1.183429 v 0 l 4.7916988,4.9e-4 4.625035,-4.9e-4 V 22.499112 22.332441 H 14.230439 9.3304027 v 2.866691 2.866683 h 4.9000363 4.900037 z m 5.533374,-2.366687 v -2.70002 h -2.366684 -2.366685 v -0.333333 -0.333342 h 5.066705 5.066704 v 0.333342 0.333333 h -2.366684 -2.366685 v 2.70002 2.70002 H 24.997186 24.66385 Z m 0.500003,-0.0848 v -2.618199 l -7.51e-4,-0.164035 0.164401,4.3e-4 h 2.284866 2.284864 V 22.49954 22.332869 h -4.900035 -4.900037 v 0.166001 0.165985 l 2.326592,9.1e-4 2.373445,-10e-6 v 2.754471 2.64594 h 0.183334 0.183337 z m 5.526901,-3.348504 9.414364,3.351797 -9.434305,2.711513 0.01991,-6.063262 z m 4.763386,4.541153 4.173571,-1.192629 -4.398572,-1.569141 -4.398577,-1.569142 v 2.825661 2.825671 l 0.225002,-0.0639 c 0.123752,-0.0351 2.103109,-0.600574 4.398576,-1.256519 z m -3.590237,0.559055 V 26.766201 H 31.430117 V 26.5996 h 0.433786 v -0.40035 h 0.165668 l 9.97e-4,0.40035 h 0.398981 v 0.166601 h -0.398981 l -9.97e-4,0.433514 c -0.0031,-0.0023 -0.165634,-3.3e-5 -0.165634,-3.3e-5 z m -0.433336,-3.650199 v -0.0833 h 0.500004 0.500003 v 0.0833 0.0833 h -0.500003 -0.500004 z"
       id="path33687"
       sodipodi:nodetypes="cccccccccccccccccccccccccccccccccccccccccccccccccccccccccccccccccccccccccccccccccccccccccccccccccccccccccccccscccccccccccccccccccccccccccccccccccccccccccccccccccccccccscccccsscsccsccsccscccccccccccc"
       inkscape:label="black_2" /><path
       style="display:inline;opacity:1;fill:#ff0000;stroke-width:0.0333336"
       d="m 11.4463,35.663102 c -0.143451,-0.058 -0.391791,-0.435443 -0.570677,-0.867396 -0.269217,-0.650085 -0.60633,-1.935595 -0.9440739,-3.600027 -0.035334,-0.174171 -0.086134,-0.421673 -0.1128508,-0.550004 -0.070467,-0.338313 -0.2368417,-1.224639 -0.3347709,-1.783354 -0.0466,-0.265831 -0.092368,-0.517083 -0.1017011,-0.558333 -0.011333,-0.0499 -0.0015,-0.075 0.029317,-0.075 l 0.1962266,0.0081 c 0.0237,0.008 0.085383,0.248832 0.1478677,0.577684 0.6188524,3.256245 1.0895594,4.837816 1.5749634,5.29185 0.22858,0.213812 0.347249,0.215142 0.550358,0.006 0.378191,-0.389133 0.686844,-1.23128 1.118053,-3.050543 0.1042,-0.439603 0.406029,-1.910374 0.518184,-2.525019 l 0.05627,-0.308332 h 0.129867 c 0.07143,0 0.129868,0.009 0.129868,0.0191 0,0.0394 -0.401949,2.217987 -0.500783,2.71423 -0.488311,2.451859 -0.931255,3.92589 -1.353845,4.505314 -0.147351,0.202032 -0.340499,0.272952 -0.532292,0.195452 z m 21.062058,0.01217 c -0.03143,-0.014 -0.04167,-0.192201 -0.04167,-0.726616 v -0.708082 l 0.105533,0.0155 c 0.09692,0.01417 0.326945,-0.0726 0.328328,-0.123968 3e-4,-0.01089 0.04756,-0.0722 0.105022,-0.136417 0.456199,-0.509425 1.054078,-2.735651 1.67854,-6.250047 0.06842,-0.385003 0.141234,-0.717776 0.161818,-0.739486 0.02059,-0.0217 0.07868,-0.0496 0.129117,-0.0619 0.07352,-0.018 0.09167,-0.011 0.09167,0.0356 0,0.0319 -0.0607,0.404814 -0.134902,0.828616 -0.716942,4.095441 -1.175475,6.084266 -1.649253,7.153443 -0.119368,0.269373 -0.310035,0.565515 -0.426152,0.661876 -0.05839,0.0485 -0.28083,0.0814 -0.348052,0.0516 z m 10.491745,-0.003 c -0.0779,-0.0285 -0.197352,-0.146934 -0.297622,-0.295122 -0.532534,-0.787056 -1.105745,-3.125194 -1.903561,-7.764728 -0.07567,-0.440003 -0.204304,-1.190009 -0.285872,-1.666682 -0.700099,-4.09138 -1.019781,-5.752894 -1.384627,-7.196434 -0.591498,-2.340317 -1.125269,-3.076893 -1.659559,-2.290107 -0.508458,0.748735 -0.984214,2.56176 -1.67152,6.369847 -0.09761,0.540845 -0.180814,0.988468 -0.184891,0.994738 -0.0041,0.006 -0.05838,-0.007 -0.120684,-0.0296 l -0.113267,-0.041 0.07737,-0.453773 c 0.07586,-0.444923 0.106789,-0.619455 0.378923,-2.137116 0.356572,-1.988594 0.760656,-3.843289 1.019311,-4.678484 0.179272,-0.578885 0.339699,-1.004708 0.466493,-1.23823 0.02987,-0.055 0.0836,-0.155535 0.119434,-0.223421 0.104033,-0.197111 0.305513,-0.359914 0.445433,-0.359914 0.09819,0 0.142485,0.0262 0.258238,0.152568 0.134101,0.146435 0.288862,0.380684 0.356238,0.539215 0.01754,0.0413 0.0604,0.138817 0.09522,0.216671 0.264169,0.590794 0.618398,1.935134 0.968334,3.674918 0.09218,0.458333 0.212791,1.073337 0.268001,1.36668 0.08812,0.468183 0.156619,0.853226 0.465462,2.61668 0.03692,0.210841 0.135833,0.788345 0.219817,1.283348 0.811056,4.780956 1.26719,6.997613 1.718224,8.350063 0.301902,0.905226 0.626934,1.400011 0.919716,1.400011 0.104723,0 0.146585,-0.0242 0.268101,-0.154635 0.542885,-0.582974 0.998678,-2.210476 1.758394,-6.278746 0.0869,-0.465495 0.190192,-1.054899 0.420503,-2.400019 0.177171,-1.034777 0.377503,-2.202046 0.480563,-2.80002 0.200513,-1.163459 0.433444,-2.395568 0.449784,-2.379218 0.01,0.01 0.05,0.162318 0.0894,0.338992 0.0496,0.222722 0.0624,0.345492 0.0415,0.400414 -0.01667,0.0436 -0.0965,0.434103 -0.177681,0.867846 -0.220133,1.176388 -0.407274,2.238227 -0.788156,4.471992 -0.0547,0.320844 -0.129568,0.755847 -0.166351,0.966678 -0.0368,0.210831 -0.0969,0.555835 -0.133684,0.766676 -0.831757,4.772325 -1.391902,6.894601 -1.986086,7.524925 -0.0835,0.0885 -0.286252,0.130468 -0.410852,0.0849 z M 20.103601,29.437846 c -0.04097,-0.233751 -0.08892,-0.500004 -0.106567,-0.591665 -0.04753,-0.246891 -0.222667,-1.252399 -0.563161,-3.233363 -0.167014,-0.971668 -0.344982,-1.991676 -0.395485,-2.266677 l -0.09182,-0.500004 0.114401,-0.01067 c 0.06291,-0.006 0.125617,0.002 0.139317,0.0167 0.01367,0.015 0.06509,0.274772 0.114185,0.577275 0.08127,0.500623 0.142284,0.859766 0.404938,2.383347 0.262346,1.521861 0.625064,3.491866 0.731882,3.97503 0.01517,0.0688 0.0047,0.075 -0.128318,0.075 H 20.17807 Z m 3.682165,0.366673 c 0.06389,-0.288902 0.419775,-2.220707 0.710831,-3.858359 l 0.130334,-0.733345 0.0027,0.700005 c 0.0023,0.606155 -0.0084,0.762576 -0.08025,1.166678 -0.0456,0.256672 -0.119667,0.676675 -0.164601,0.933338 -0.09652,0.551433 -0.189542,1.076007 -0.270411,1.525011 l -0.05853,0.325002 H 23.91434 c -0.117418,0 -0.139268,-0.01 -0.128568,-0.0583 z m 6.899417,0.0167 c -0.007,-0.0229 -0.02197,-0.0942 -0.03323,-0.158334 -0.01133,-0.0642 -0.109289,-0.619165 -0.217792,-1.233339 -0.108522,-0.614176 -0.251146,-1.431681 -0.316961,-1.816685 -0.281028,-1.643932 -0.608325,-3.530675 -0.639589,-3.686996 -0.01996,-0.0997 -0.01867,-0.100823 0.109189,-0.0903 l 0.129384,0.01067 0.0422,0.233332 c 0.0489,0.270393 0.26033,1.497722 0.407698,2.366688 0.211124,1.244919 0.509547,2.891631 0.685523,3.782768 0.06328,0.320512 0.115085,0.594264 0.115085,0.608334 0,0.044 -0.267819,0.0287 -0.281498,-0.01617 z M 9.154065,26.712846 c 0.010667,0.274412 -10e-5,0.217331 -0.5404023,-2.866681 C 7.7817048,19.097409 7.2352574,16.992323 6.6702316,16.359459 6.5375139,16.210808 6.3601926,16.160727 6.1938047,16.224891 c -0.189873,0.0732 -0.5666143,0.737766 -0.7206904,1.271219 -0.018533,0.0642 -0.086668,0.289162 -0.1514011,0.500005 -0.1017178,0.331272 -0.1781963,0.630054 -0.4394383,1.716762 -0.02645,0.110055 -0.1300842,0.612554 -0.2302667,1.116679 -0.263347,1.32506 -0.537044,2.843551 -0.9522671,5.283279 -0.1406177,0.826226 -0.2472168,1.438851 -0.3857094,2.216686 l -0.080118,0.450004 c 2.2704669,-17.060324 3.6335937,-17.565699 5.9245024,-3.056498 0.0012,0.0078 -0.00533,0.981989 -0.00433,0.989812 z m -6.0324448,1.217419 c -0.011333,-0.0569 -0.00683,-0.129085 0.00983,-0.160418 0.016833,-0.0313 0.1002511,-0.461984 0.1853614,-0.956987 0.085118,-0.495004 0.1900013,-1.102509 0.2330967,-1.35001 0.0431,-0.247502 0.1626345,-0.945008 0.2656503,-1.550012 0.1030178,-0.605005 0.2080866,-1.212509 0.2334968,-1.35001 0.025417,-0.137501 0.093384,-0.520003 0.1510678,-0.850006 0.3020238,-1.727953 0.6249463,-3.322105 0.8879282,-4.383363 0.4347782,-1.754542 0.8665681,-2.66669 1.2623528,-2.66669 0.4942036,0 1.0304226,1.386091 1.5990252,4.133371 0.047433,0.229162 0.1003344,0.484163 0.1175675,0.566665 0.1350344,0.646594 0.4877753,2.596948 0.8168994,4.516703 0.265042,1.545951 0.2861187,1.686962 0.2758504,1.845543 -2.0030099,-11.750593 -3.2153389,-15.411259 -5.9260824,3.056978 0,0 -0.1095678,-0.861662 -0.1121675,-0.851681 z M 13.699882,27.534992 c 0,-0.0253 0.08637,-0.517114 0.214618,-1.22211 0.02669,-0.146667 0.06723,-0.382912 0.09012,-0.525003 l 0.0416,-0.258332 h 0.126835 c 0.06977,0 0.126834,0.01517 0.126834,0.0337 0,0.0304 -0.08535,0.533294 -0.268622,1.582942 -0.03521,0.201661 -0.07101,0.405683 -0.07122,0.419433 l -0.267018,-0.0028 z M 14.161016,24.8642 c 0,0 0.340952,-1.990511 0.340952,-2.025151 0,-0.0195 0.02797,-0.01167 0.169508,-0.01167 0.09353,0 0.1013,-0.01056 0.1013,0.023 0,0.0263 -0.04292,0.274404 -0.08782,0.518546 -0.04489,0.244131 -0.121251,0.676384 -0.169713,0.960557 -0.04847,0.284172 -0.08039,0.526124 -0.08789,0.533764 l -0.155351,-0.001 z m 0.472225,-2.731769 c -0.0083,0.03126 0.02157,-0.140134 0.04791,-0.275001 0.01667,-0.08509 0.04712,-0.249982 0.07953,-0.429167 0.01897,-0.104833 0.03858,-0.214572 0.05645,-0.316078 0.373648,-2.12155 0.831288,-4.139412 1.15662,-5.100039 0.326101,-0.962877 0.657649,-1.42087 0.967827,-1.336939 0.106255,0.0288 0.295895,0.215491 0.413292,0.406952 0.116667,0.190282 0.371252,0.819997 0.477053,1.179989 0.04041,0.137501 0.09431,0.317502 0.119801,0.400003 0.210133,0.680255 0.588575,2.441538 0.948998,4.416702 0.09367,0.513335 0.17844,0.967088 0.18837,1.008338 0.01233,0.0515 -0.167998,0.06477 -0.201108,0.06477 -0.314011,-0.613287 -1.35031,-15.1217513 -4.22368,0.01033 -0.0171,0 -0.03373,-0.03509 -0.03373,-0.03509 z m -0.0083,0.03126 c 0,0 2.205459,-16.0682034 4.263055,-0.01167 -0.03961,0.0396 -0.08191,-0.0327 -0.103589,-0.177182 -0.03283,-0.218981 -0.23125,-1.224489 -0.370401,-1.877113 -0.521019,-2.443599 -1.006457,-3.752618 -1.440479,-3.884349 -0.04202,-0.01283 -0.136701,-0.013 -0.210388,-5.5e-4 -0.108656,0.0184 -0.155785,0.052 -0.249295,0.177691 -0.137184,0.184481 -0.374481,0.663084 -0.490044,0.988398 -0.261875,0.737185 -0.599859,2.108345 -0.90793,3.683356 -0.204991,1.048018 -0.223207,1.100059 -0.223207,1.100059 z M 25.18718,21.920515 c 0.500066,-2.797872 0.744739,-3.97578 1.064569,-5.125038 0.317689,-1.141589 0.56094,-1.711414 0.843334,-1.975566 0.181479,-0.169751 0.274399,-0.193431 0.43154,-0.109989 0.281749,0.149601 0.588101,0.772206 0.90318,1.835554 0.243557,0.821966 0.612683,2.537389 0.971177,4.513303 0.09182,0.506034 0.175338,0.961318 0.185614,1.011738 0.01787,0.0876 0.013,0.0917 -0.1127,0.0917 H 29.34251 l -0.207702,-1.058345 c -0.533047,-2.715731 -0.960677,-4.116931 -1.454132,-4.764685 -0.0982,-0.128918 -0.316696,-0.178092 -0.46793,-0.105334 -0.330993,0.159235 -0.744499,1.139949 -1.108215,2.62833 -0.255135,1.044048 -0.403542,1.729433 -0.588243,2.71669 -0.117068,0.625775 -0.09913,0.583335 -0.246535,0.583335 h -0.125734 z"
       id="path1906"
       sodipodi:nodetypes="csssssccsscsscsssscccsccscsscscsccccsssssscccsssssssssssscsscssscsssssccccsssscccsssscscsccssscscccssssccsssscccssssssssscsccssssssssssscsccssscssscccssssssccsscssscssssscccccssscccssccsssssssscsssssscss"
       inkscape:label="sin_2" /><path
       id="path2355"
       style="display:inline;opacity:1;fill:#14b557;fill-opacity:1;stroke:none;stroke-width:0.400334;stroke-linecap:round;paint-order:markers fill stroke"
       inkscape:label="wobbly_motif"
       d="M 25.002382,0.03213407 A 25.000186,24.999801 0 0 0 0.002,25.032132 25.000186,24.999801 0 0 0 25.002382,50.032134 25.000186,24.999801 0 0 0 50.001907,25.032132 V 0.03213407 Z m 0,0.58393866 A 24.416848,24.416472 0 0 1 49.418818,25.032132 24.416848,24.416472 0 0 1 25.002382,49.449051 24.416848,24.416472 0 0 1 0.585086,25.032132 24.416848,24.416472 0 0 1 25.002382,0.61607273 Z" /></g><g
     inkscape:label="F.Mask"
     inkscape:groupmode="layer"
     id="g32903"
     style="display:inline"><path
       id="path33702"
       style="display:inline;opacity:1;fill:#ff00ff;fill-opacity:0.996815;fill-rule:nonzero;stroke:none;stroke-width:0.166668;stroke-linecap:round;stroke-dasharray:none;stroke-opacity:1;paint-order:markers fill stroke"
       d="m 30.691434,22.098621 -0.02067,6.063414 9.434465,-2.71131 z M 9.1637348,22.16581 v 3.033429 3.033429 h 5.0669112 5.066913 V 27.899342 27.566029 H 14.563961 9.8303648 v -1.017173 -1.01631 h 4.7335962 4.733598 V 25.199229 24.865916 H 14.563961 9.8303648 v -1.017174 -1.01631 h 4.7335962 4.733598 V 22.499116 22.1658 h -5.066913 z m 10.7668632,0 v 0.333316 0.333315 h 2.3668 2.366796 v 2.700114 2.700113 h 0.333317 0.333316 v -2.700113 -2.700114 h 2.366797 2.366798 V 22.499126 22.16581 h -5.066911 z m -2.566614,7.733426 v 3.566561 3.566562 h 3.566562 3.566561 v -3.566562 -3.566561 h -3.566561 z m 7.933253,0 v 3.566561 3.566562 h 3.566561 3.567423 v -3.566562 -3.566561 h -3.567423 z"
       inkscape:label="No_mask_black"
       sodipodi:nodetypes="cccccccccccccccccccccccccccccccccccccccccccccccccccccccccccccccc" /><path
       id="circle1766"
       style="display:inline;opacity:1;fill:#ff00ff;fill-opacity:1;stroke-width:0.337472;stroke-linecap:round;paint-order:markers fill stroke"
       inkscape:label="outter_ring"
       d="M 25.002494,0.61528644 A 24.416848,24.416848 0 0 0 0.5851985,25.032581 24.416848,24.416848 0 0 0 25.002494,49.449017 24.416848,24.416848 0 0 0 49.418929,25.032581 24.416848,24.416848 0 0 0 25.002494,0.61528644 Z m 0,2.33320836 A 22.083498,22.083498 0 0 1 47.08572,25.032581 22.083498,22.083498 0 0 1 25.002494,47.115809 22.083498,22.083498 0 0 1 2.9184069,25.032581 22.083498,22.083498 0 0 1 25.002494,2.9484948 Z" /><path
       id="path1909"
       style="display:inline;opacity:1;fill:url(#pattern2837);fill-opacity:1;stroke-width:0.400337;stroke-linecap:round;paint-order:markers fill stroke"
       inkscape:label="motif"
       d="M 25.002492,2.9484925 A 22.083498,22.083498 0 0 0 2.918405,25.03172 22.083498,22.083498 0 0 0 3.1707602,28.299416 c -0.023717,-0.182257 -0.047967,-0.373819 -0.0491,-0.369488 -0.011333,-0.0569 -0.00717,-0.128868 0.0095,-0.160201 0.016833,-0.0313 0.1009345,-0.461878 0.1860365,-0.956882 0.085117,-0.495003 0.1894496,-1.102125 0.232545,-1.349625 0.0431,-0.247502 0.1631179,-0.945302 0.2661353,-1.550305 0.1030178,-0.605005 0.2079982,-1.212987 0.2334084,-1.350488 0.025417,-0.137501 0.093035,-0.519221 0.1507178,-0.849221 0.3020239,-1.727951 0.6249997,-3.32266 0.8879799,-4.383918 0.4347782,-1.754541 0.8668531,-2.666523 1.2626378,-2.666523 0.4942037,0 1.0299343,1.386006 1.5985352,4.133284 0.047433,0.229161 0.1007678,0.484221 0.1180009,0.566722 0.1350343,0.646594 0.4873702,2.596801 0.8164943,4.516554 0.265042,1.54595 0.2867388,1.687142 0.2764705,1.845723 -0.00633,-0.03757 -0.0125,-0.07024 -0.01895,-0.107667 0.00583,0.0363 0.0115,0.06944 0.017233,0.105934 0.0012,0.0078 -0.00533,0.981788 -0.00433,0.989613 0.010667,0.27441 2.783e-4,0.216805 -0.5400224,-2.867203 C 7.7820911,19.096975 7.2351638,16.99234 6.6701379,16.359477 6.5374202,16.210826 6.3602389,16.160952 6.193851,16.225109 c -0.189873,0.0732 -0.5668159,0.737798 -0.720892,1.271251 -0.018533,0.0642 -0.086851,0.288701 -0.1515844,0.499542 -0.1017178,0.331273 -0.1780114,0.629825 -0.4392534,1.716531 -0.02645,0.110056 -0.1297842,0.612958 -0.2299616,1.11708 -0.263347,1.32506 -0.537354,2.843368 -0.9525772,5.283095 -0.1406176,0.826224 -0.2473601,1.439101 -0.3858527,2.216934 l -0.070618,0.395329 a 22.083498,22.083498 0 0 0 2.1239174,6.407064 c 1.3762586,-1.463033 2.8817215,-2.902708 4.4889934,-4.303817 -0.012667,-0.06176 -0.028167,-0.140035 -0.037033,-0.182593 -0.070468,-0.33831 -0.2371101,-1.224136 -0.3350392,-1.78285 -0.0466,-0.265832 -0.092301,-0.51772 -0.1016344,-0.55897 -0.00933,-0.0414 -0.00333,-0.0644 0.016333,-0.07149 H 9.1635198 v -3.033429 -3.033429 h 5.0669122 5.066911 v 0.333315 0.333316 h -4.528612 c 0.003,0.0037 0.0043,0.0087 0.0043,0.01809 0,0.0263 -0.04295,0.274349 -0.08784,0.518491 -0.04489,0.244131 -0.121218,0.677017 -0.169671,0.961189 -0.04847,0.284171 -0.08036,0.525492 -0.08786,0.533132 l -0.155901,-8.62e-4 -0.1111,0.0017 c 0,0 0.341067,-1.99023 0.341067,-2.02487 0,-0.0037 0.0027,-0.005 0.0051,-0.0068 H 9.8301714 v 1.016309 1.017173 h 4.7335956 3.088551 c 0.489015,-0.329364 0.983024,-0.653629 1.480541,-0.974108 -0.02497,-0.141268 -0.0826,-0.47906 -0.09473,-0.54519 l -0.0913,-0.500404 0.114551,-0.01033 c 0.06292,-0.006 0.124966,0.0017 0.138666,0.01633 0.01367,0.015 0.06546,0.275418 0.114551,0.57792 0.01067,0.0653 0.04213,0.247533 0.05253,0.310922 0.480054,-0.307066 0.963431,-0.61041 1.450395,-0.90865 h -0.88711 v -0.333317 -0.333315 h 1.992141 c 1.180076,-0.6991 2.378158,-1.368366 3.58637,-2.009367 0.299749,-1.59543 0.500129,-2.490063 0.742425,-3.360717 0.317689,-1.141586 0.561662,-1.711624 0.844054,-1.975776 0.181479,-0.169751 0.27436,-0.192829 0.431501,-0.109378 0.281749,0.149601 0.587544,0.77204 0.902623,1.835389 0.125867,0.424811 0.285769,1.094725 0.459923,1.909457 2.846962,-1.351078 5.725529,-2.517299 8.564572,-3.455456 0.107067,-0.186561 0.29709,-0.337622 0.431501,-0.337622 0.08867,0 0.136001,0.02595 0.2291,0.123168 1.892333,-0.602884 3.764617,-1.103196 5.594877,-1.485708 A 22.083498,22.083498 0 0 0 25.002492,2.9484925 Z M 16.883203,14.666211 c 0.01956,10e-4 0.03919,0.0033 0.05857,0.0087 0.106256,0.0288 0.296019,0.215923 0.413414,0.407384 0.116668,0.190283 0.371348,0.819964 0.477149,1.179955 0.04041,0.137501 0.09423,0.317133 0.119718,0.399634 0.210132,0.680255 0.587846,2.441484 0.94827,4.416645 0.09367,0.513333 0.17869,0.967309 0.18862,1.008559 0.01233,0.0515 -0.167568,0.0646 -0.200679,0.0646 -0.03961,0.0396 -0.08254,-0.03209 -0.104222,-0.176564 -0.03283,-0.218982 -0.2312,-1.224968 -0.370351,-1.877591 -0.521019,-2.443597 -1.00604,-3.752642 -1.440061,-3.884373 -0.04202,-0.01283 -0.136468,-0.0125 -0.210151,0 -0.108656,0.0184 -0.156268,0.05173 -0.249773,0.177422 -0.137184,0.184482 -0.374506,0.663439 -0.490068,0.988751 -0.261876,0.737185 -0.599719,2.107825 -0.90779,3.682835 -0.20499,1.048015 -0.223072,1.099854 -0.223072,1.099854 l -0.267857,0.0017 c 0,0 0.420789,-3.060509 1.065403,-5.175433 0.1011,-0.386775 0.196894,-0.720516 0.283362,-0.97583 0.305719,-0.902696 0.616312,-1.361495 0.909511,-1.346182 z m 10.517956,1.534801 c -0.06573,-0.0049 -0.131901,0.0054 -0.188621,0.03273 -0.330991,0.159235 -0.743891,1.140249 -1.107607,2.628629 -0.101767,0.416461 -0.184945,0.771108 -0.261829,1.115357 0.906638,-0.475922 1.8192,-0.934249 2.735427,-1.373743 -0.30153,-1.146992 -0.586498,-1.856976 -0.897455,-2.265167 -0.06137,-0.08057 -0.170351,-0.129834 -0.279915,-0.137801 z M 9.8301798,25.532123 v 1.016312 1.017171 h 4.0428482 c 3.2e-4,-2.43e-4 5.43e-4,-6.19e-4 8.62e-4,-8.63e-4 l -0.180868,-0.0017 0.0068,-0.02841 c 0,-0.0253 0.0862,-0.5163 0.214458,-1.221296 0.02669,-0.146668 0.06756,-0.38329 0.09043,-0.525381 l 0.04135,-0.2558 z m 4.3649672,0 c 0.05767,0.0031 0.105089,0.01483 0.105089,0.031 0,0.0304 -0.08546,0.533388 -0.26872,1.583034 -0.02892,0.165619 -0.0489,0.282421 -0.05857,0.344513 0.882299,-0.666453 1.784907,-1.319972 2.705282,-1.958551 h -2.114444 z m -4.7051731,2.700114 0.1180009,0.0052 c 0.0237,0.008 0.0848,0.248207 0.1472843,0.57706 0.1274177,0.67042 0.2480469,1.253076 0.3643229,1.786294 0.930772,-0.803388 1.893279,-1.594318 2.886149,-2.368521 z" /><path
       id="path2417"
       style="display:inline;opacity:1;fill:url(#pattern2357);fill-opacity:1;stroke-width:0.400334;stroke-linecap:round;paint-order:markers fill stroke"
       inkscape:label="wobbly_motif"
       d="M 25.002382,0.03213407 A 25.000186,24.999801 0 0 0 0.002,25.032132 25.000186,24.999801 0 0 0 25.002382,50.032134 25.000186,24.999801 0 0 0 50.001907,25.032132 V 0.03213407 Z m 0,0.58393866 A 24.416848,24.416472 0 0 1 49.418818,25.032132 24.416848,24.416472 0 0 1 25.002382,49.449051 24.416848,24.416472 0 0 1 0.585086,25.032132 24.416848,24.416472 0 0 1 25.002382,0.61607273 Z" /></g><g
     inkscape:label="F.SilkS"
     inkscape:groupmode="layer"
     id="g32905"
     style="display:inline"><path
       style="display:inline;opacity:1;fill:#6d8db2;stroke-width:0.0333336"
       d="m 11.4463,35.663102 c -0.143451,-0.058 -0.391791,-0.435443 -0.570677,-0.867396 -0.269217,-0.650085 -0.60633,-1.935595 -0.9440739,-3.600027 -0.035334,-0.174171 -0.086134,-0.421673 -0.1128508,-0.550004 -0.070467,-0.338313 -0.2368417,-1.224639 -0.3347709,-1.783354 -0.0466,-0.265831 -0.092368,-0.517083 -0.1017011,-0.558333 -0.011333,-0.0499 -0.0015,-0.075 0.029317,-0.075 l 0.1962266,0.0081 c 0.0237,0.008 0.085383,0.248832 0.1478677,0.577684 0.6188524,3.256245 1.0895594,4.837816 1.5749634,5.29185 0.22858,0.213812 0.347249,0.215142 0.550358,0.006 0.378191,-0.389133 0.686844,-1.23128 1.118053,-3.050543 0.1042,-0.439603 0.406029,-1.910374 0.518184,-2.525019 l 0.05627,-0.308332 h 0.129867 c 0.07143,0 0.129868,0.009 0.129868,0.0191 0,0.0394 -0.401949,2.217987 -0.500783,2.71423 -0.488311,2.451859 -0.931255,3.92589 -1.353845,4.505314 -0.147351,0.202032 -0.340499,0.272952 -0.532292,0.195452 z m 21.062058,0.01217 c -0.03143,-0.014 -0.04167,-0.192201 -0.04167,-0.726616 v -0.708082 l 0.105533,0.0155 c 0.09692,0.01417 0.326945,-0.0726 0.328328,-0.123968 3e-4,-0.01089 0.04756,-0.0722 0.105022,-0.136417 0.456199,-0.509425 1.054078,-2.735651 1.67854,-6.250047 0.06842,-0.385003 0.141234,-0.717776 0.161818,-0.739486 0.02059,-0.0217 0.07868,-0.0496 0.129117,-0.0619 0.07352,-0.018 0.09167,-0.011 0.09167,0.0356 0,0.0319 -0.0607,0.404814 -0.134902,0.828616 -0.716942,4.095441 -1.175475,6.084266 -1.649253,7.153443 -0.119368,0.269373 -0.310035,0.565515 -0.426152,0.661876 -0.05839,0.0485 -0.28083,0.0814 -0.348052,0.0516 z m 10.491745,-0.003 c -0.0779,-0.0285 -0.197352,-0.146934 -0.297622,-0.295122 -0.532534,-0.787056 -1.105745,-3.125194 -1.903561,-7.764728 -0.07567,-0.440003 -0.204304,-1.190009 -0.285872,-1.666682 -0.700099,-4.09138 -1.019781,-5.752894 -1.384627,-7.196434 -0.591498,-2.340317 -1.125269,-3.076893 -1.659559,-2.290107 -0.508458,0.748735 -0.984214,2.56176 -1.67152,6.369847 -0.09761,0.540845 -0.180814,0.988468 -0.184891,0.994738 -0.0041,0.006 -0.05838,-0.007 -0.120684,-0.0296 l -0.113267,-0.041 0.07737,-0.453773 c 0.07586,-0.444923 0.106789,-0.619455 0.378923,-2.137116 0.356572,-1.988594 0.760656,-3.843289 1.019311,-4.678484 0.179272,-0.578885 0.339699,-1.004708 0.466493,-1.23823 0.02987,-0.055 0.0836,-0.155535 0.119434,-0.223421 0.104033,-0.197111 0.305513,-0.359914 0.445433,-0.359914 0.09819,0 0.142485,0.0262 0.258238,0.152568 0.134101,0.146435 0.288862,0.380684 0.356238,0.539215 0.01754,0.0413 0.0604,0.138817 0.09522,0.216671 0.264169,0.590794 0.618398,1.935134 0.968334,3.674918 0.09218,0.458333 0.212791,1.073337 0.268001,1.36668 0.08812,0.468183 0.156619,0.853226 0.465462,2.61668 0.03692,0.210841 0.135833,0.788345 0.219817,1.283348 0.811056,4.780956 1.26719,6.997613 1.718224,8.350063 0.301902,0.905226 0.626934,1.400011 0.919716,1.400011 0.104723,0 0.146585,-0.0242 0.268101,-0.154635 0.542885,-0.582974 0.998678,-2.210476 1.758394,-6.278746 0.0869,-0.465495 0.190192,-1.054899 0.420503,-2.400019 0.177171,-1.034777 0.377503,-2.202046 0.480563,-2.80002 0.200513,-1.163459 0.433444,-2.395568 0.449784,-2.379218 0.01,0.01 0.05,0.162318 0.0894,0.338992 0.0496,0.222722 0.0624,0.345492 0.0415,0.400414 -0.01667,0.0436 -0.0965,0.434103 -0.177681,0.867846 -0.220133,1.176388 -0.407274,2.238227 -0.788156,4.471992 -0.0547,0.320844 -0.129568,0.755847 -0.166351,0.966678 -0.0368,0.210831 -0.0969,0.555835 -0.133684,0.766676 -0.831757,4.772325 -1.391902,6.894601 -1.986086,7.524925 -0.0835,0.0885 -0.286252,0.130468 -0.410852,0.0849 z M 20.103601,29.437846 c -0.04097,-0.233751 -0.08892,-0.500004 -0.106567,-0.591665 -0.04753,-0.246891 -0.222667,-1.252399 -0.563161,-3.233363 -0.167014,-0.971668 -0.344982,-1.991676 -0.395485,-2.266677 l -0.09182,-0.500004 0.114401,-0.01067 c 0.06291,-0.006 0.125617,0.002 0.139317,0.0167 0.01367,0.015 0.06509,0.274772 0.114185,0.577275 0.08127,0.500623 0.142284,0.859766 0.404938,2.383347 0.262346,1.521861 0.625064,3.491866 0.731882,3.97503 0.01517,0.0688 0.0047,0.075 -0.128318,0.075 H 20.17807 Z m 3.682165,0.366673 c 0.06389,-0.288902 0.419775,-2.220707 0.710831,-3.858359 l 0.130334,-0.733345 0.0027,0.700005 c 0.0023,0.606155 -0.0084,0.762576 -0.08025,1.166678 -0.0456,0.256672 -0.119667,0.676675 -0.164601,0.933338 -0.09652,0.551433 -0.189542,1.076007 -0.270411,1.525011 l -0.05853,0.325002 H 23.91434 c -0.117418,0 -0.139268,-0.01 -0.128568,-0.0583 z m 6.899417,0.0167 c -0.007,-0.0229 -0.02197,-0.0942 -0.03323,-0.158334 -0.01133,-0.0642 -0.109289,-0.619165 -0.217792,-1.233339 -0.108522,-0.614176 -0.251146,-1.431681 -0.316961,-1.816685 -0.281028,-1.643932 -0.608325,-3.530675 -0.639589,-3.686996 -0.01996,-0.0997 -0.01867,-0.100823 0.109189,-0.0903 l 0.129384,0.01067 0.0422,0.233332 c 0.0489,0.270393 0.26033,1.497722 0.407698,2.366688 0.211124,1.244919 0.509547,2.891631 0.685523,3.782768 0.06328,0.320512 0.115085,0.594264 0.115085,0.608334 0,0.044 -0.267819,0.0287 -0.281498,-0.01617 z M 9.154065,26.712846 c 0.010667,0.274412 -10e-5,0.217331 -0.5404023,-2.866681 C 7.7817048,19.097409 7.2352574,16.992323 6.6702316,16.359459 6.5375139,16.210808 6.3601926,16.160727 6.1938047,16.224891 c -0.189873,0.0732 -0.5666143,0.737766 -0.7206904,1.271219 -0.018533,0.0642 -0.086668,0.289162 -0.1514011,0.500005 -0.1017178,0.331272 -0.1781963,0.630054 -0.4394383,1.716762 -0.02645,0.110055 -0.1300842,0.612554 -0.2302667,1.116679 -0.263347,1.32506 -0.537044,2.843551 -0.9522671,5.283279 -0.1406177,0.826226 -0.2472168,1.438851 -0.3857094,2.216686 l -0.080118,0.450004 c 2.2704669,-17.060324 3.6335937,-17.565699 5.9245024,-3.056498 0.0012,0.0078 -0.00533,0.981989 -0.00433,0.989812 z m -6.0324448,1.217419 c -0.011333,-0.0569 -0.00683,-0.129085 0.00983,-0.160418 0.016833,-0.0313 0.1002511,-0.461984 0.1853614,-0.956987 0.085118,-0.495004 0.1900013,-1.102509 0.2330967,-1.35001 0.0431,-0.247502 0.1626345,-0.945008 0.2656503,-1.550012 0.1030178,-0.605005 0.2080866,-1.212509 0.2334968,-1.35001 0.025417,-0.137501 0.093384,-0.520003 0.1510678,-0.850006 0.3020238,-1.727953 0.6249463,-3.322105 0.8879282,-4.383363 0.4347782,-1.754542 0.8665681,-2.66669 1.2623528,-2.66669 0.4942036,0 1.0304226,1.386091 1.5990252,4.133371 0.047433,0.229162 0.1003344,0.484163 0.1175675,0.566665 0.1350344,0.646594 0.4877753,2.596948 0.8168994,4.516703 0.265042,1.545951 0.2861187,1.686962 0.2758504,1.845543 -2.0030099,-11.750593 -3.2153389,-15.411259 -5.9260824,3.056978 0,0 -0.1095678,-0.861662 -0.1121675,-0.851681 z M 13.699882,27.534992 c 0,-0.0253 0.08637,-0.517114 0.214618,-1.22211 0.02669,-0.146667 0.06723,-0.382912 0.09012,-0.525003 l 0.0416,-0.258332 h 0.126835 c 0.06977,0 0.126834,0.01517 0.126834,0.0337 0,0.0304 -0.08535,0.533294 -0.268622,1.582942 -0.03521,0.201661 -0.07101,0.405683 -0.07122,0.419433 l -0.267018,-0.0028 z M 14.161016,24.8642 c 0,0 0.340952,-1.990511 0.340952,-2.025151 0,-0.0195 0.02797,-0.01167 0.169508,-0.01167 0.09353,0 0.1013,-0.01056 0.1013,0.023 0,0.0263 -0.04292,0.274404 -0.08782,0.518546 -0.04489,0.244131 -0.121251,0.676384 -0.169713,0.960557 -0.04847,0.284172 -0.08039,0.526124 -0.08789,0.533764 l -0.155351,-0.001 z m 0.472225,-2.731769 c -0.0083,0.03126 0.02157,-0.140134 0.04791,-0.275001 0.01667,-0.08509 0.04712,-0.249982 0.07953,-0.429167 0.01897,-0.104833 0.03858,-0.214572 0.05645,-0.316078 0.373648,-2.12155 0.831288,-4.139412 1.15662,-5.100039 0.326101,-0.962877 0.657649,-1.42087 0.967827,-1.336939 0.106255,0.0288 0.295895,0.215491 0.413292,0.406952 0.116667,0.190282 0.371252,0.819997 0.477053,1.179989 0.04041,0.137501 0.09431,0.317502 0.119801,0.400003 0.210133,0.680255 0.588575,2.441538 0.948998,4.416702 0.09367,0.513335 0.17844,0.967088 0.18837,1.008338 0.01233,0.0515 -0.167998,0.06477 -0.201108,0.06477 -0.314011,-0.613287 -1.35031,-15.1217513 -4.22368,0.01033 -0.0171,0 -0.03373,-0.03509 -0.03373,-0.03509 z m -0.0083,0.03126 c 0,0 2.205459,-16.0682034 4.263055,-0.01167 -0.03961,0.0396 -0.08191,-0.0327 -0.103589,-0.177182 -0.03283,-0.218981 -0.23125,-1.224489 -0.370401,-1.877113 -0.521019,-2.443599 -1.006457,-3.752618 -1.440479,-3.884349 -0.04202,-0.01283 -0.136701,-0.013 -0.210388,-5.5e-4 -0.108656,0.0184 -0.155785,0.052 -0.249295,0.177691 -0.137184,0.184481 -0.374481,0.663084 -0.490044,0.988398 -0.261875,0.737185 -0.599859,2.108345 -0.90793,3.683356 -0.204991,1.048018 -0.223207,1.100059 -0.223207,1.100059 z M 25.18718,21.920515 c 0.500066,-2.797872 0.744739,-3.97578 1.064569,-5.125038 0.317689,-1.141589 0.56094,-1.711414 0.843334,-1.975566 0.181479,-0.169751 0.274399,-0.193431 0.43154,-0.109989 0.281749,0.149601 0.588101,0.772206 0.90318,1.835554 0.243557,0.821966 0.612683,2.537389 0.971177,4.513303 0.09182,0.506034 0.175338,0.961318 0.185614,1.011738 0.01787,0.0876 0.013,0.0917 -0.1127,0.0917 H 29.34251 l -0.207702,-1.058345 c -0.533047,-2.715731 -0.960677,-4.116931 -1.454132,-4.764685 -0.0982,-0.128918 -0.316696,-0.178092 -0.46793,-0.105334 -0.330993,0.159235 -0.744499,1.139949 -1.108215,2.62833 -0.255135,1.044048 -0.403542,1.729433 -0.588243,2.71669 -0.117068,0.625775 -0.09913,0.583335 -0.246535,0.583335 h -0.125734 z"
       id="path33630"
       sodipodi:nodetypes="csssssccsscsscsssscccsccscsscscsccccsssssscccsssssssssssscsscssscsssssccccsssscccsssscscsccssscscccssssccsssscccssssssssscsccssssssssssscsccssscssscccssssssccsscssscssssscccccssscccssccsssssssscsssssscss"
       inkscape:label="sin_2" /></g><g
     inkscape:groupmode="layer"
     id="layer2"
     inkscape:label="test"
     style="display:none"><path
       id="circle1766-7"
       style="display:inline;opacity:1;fill:#ff8080;fill-opacity:0.856448;stroke-width:0.337472;stroke-linecap:round;paint-order:markers fill stroke"
       inkscape:label="inner"
       d="m 90.63787,17.283555 c -12.196913,-5.21e-4 -22.084676,9.88701 -22.084441,22.083923 5e-5,12.196712 9.887729,22.083928 22.084441,22.083407 12.19611,-3.36e-4 22.08284,-9.887301 22.08289,-22.083407 2.3e-4,-12.196308 -9.88658,-22.083587 -22.08289,-22.083923 z"
       sodipodi:nodetypes="ccccc" /><path
       id="circle1766-1"
       style="display:inline;fill:#ff00ff;fill-opacity:1;stroke-width:0.337472;stroke-linecap:round;paint-order:markers fill stroke"
       inkscape:label="outter_ring"
       d="M 90.637522,14.950355 A 24.416848,24.416848 0 0 0 66.220226,39.36765 24.416848,24.416848 0 0 0 90.637522,63.784086 24.416848,24.416848 0 0 0 115.05396,39.36765 24.416848,24.416848 0 0 0 90.637522,14.950355 Z m 0,2.333209 A 22.083498,22.083498 0 0 1 112.72075,39.36765 22.083498,22.083498 0 0 1 90.637522,61.450878 22.083498,22.083498 0 0 1 68.553435,39.36765 22.083498,22.083498 0 0 1 90.637522,17.283564 Z" /></g></svg>
